<svg width="280" height="22" viewBox="0 0 280 22" fill="none" xmlns="http://www.w3.org/2000/svg">
<path fill-rule="evenodd" clip-rule="evenodd" d="M9.9873 13.928C6.76428 13.928 4.0119 14.423 4.0119 16.4056C4.0119 18.3881 6.74682 18.9009 9.9873 18.9009C13.2103 18.9009 15.9619 18.4051 15.9619 16.4233C15.9619 14.4416 13.2278 13.928 9.9873 13.928Z" stroke="url(#paint0_linear_3_3171)" stroke-width="1.2" stroke-linecap="round" stroke-linejoin="round"/>
<path fill-rule="evenodd" clip-rule="evenodd" d="M9.98729 11.1002C12.1024 11.1002 13.8167 9.35789 13.8167 7.20924C13.8167 5.06059 12.1024 3.31909 9.98729 3.31909C7.87221 3.31909 6.15713 5.06059 6.15713 7.20924C6.14998 9.35064 7.85316 11.0929 9.9603 11.1002H9.98729Z" stroke="url(#paint1_linear_3_3171)" stroke-width="1.2" stroke-linecap="round" stroke-linejoin="round"/>
<path d="M30.516 10.7644C30.516 9.94839 30.7 9.21639 31.068 8.56839C31.436 7.91239 31.936 7.40039 32.568 7.03239C33.208 6.66439 33.916 6.48039 34.692 6.48039C35.604 6.48039 36.4 6.70039 37.08 7.14039C37.76 7.58039 38.256 8.20439 38.568 9.01239H37.26C37.028 8.50839 36.692 8.12039 36.252 7.84839C35.82 7.57639 35.3 7.44039 34.692 7.44039C34.108 7.44039 33.584 7.57639 33.12 7.84839C32.656 8.12039 32.292 8.50839 32.028 9.01239C31.764 9.50839 31.632 10.0924 31.632 10.7644C31.632 11.4284 31.764 12.0124 32.028 12.5164C32.292 13.0124 32.656 13.3964 33.12 13.6684C33.584 13.9404 34.108 14.0764 34.692 14.0764C35.3 14.0764 35.82 13.9444 36.252 13.6804C36.692 13.4084 37.028 13.0204 37.26 12.5164H38.568C38.256 13.3164 37.76 13.9364 37.08 14.3764C36.4 14.8084 35.604 15.0244 34.692 15.0244C33.916 15.0244 33.208 14.8444 32.568 14.4844C31.936 14.1164 31.436 13.6084 31.068 12.9604C30.7 12.3124 30.516 11.5804 30.516 10.7644ZM43.4575 8.25639C43.9535 8.25639 44.4015 8.36439 44.8015 8.58039C45.2015 8.78839 45.5135 9.10439 45.7375 9.52839C45.9695 9.95239 46.0855 10.4684 46.0855 11.0764V14.9524H45.0055V11.2324C45.0055 10.5764 44.8415 10.0764 44.5135 9.73239C44.1855 9.38039 43.7375 9.20439 43.1695 9.20439C42.5935 9.20439 42.1335 9.38439 41.7895 9.74439C41.4535 10.1044 41.2855 10.6284 41.2855 11.3164V14.9524H40.1935V6.07239H41.2855V9.31239C41.5015 8.97639 41.7975 8.71639 42.1735 8.53239C42.5575 8.34839 42.9855 8.25639 43.4575 8.25639ZM47.4613 11.6404C47.4613 10.9684 47.5973 10.3804 47.8693 9.87639C48.1413 9.36439 48.5133 8.96839 48.9853 8.68839C49.4653 8.40839 49.9973 8.26839 50.5813 8.26839C51.1573 8.26839 51.6573 8.39239 52.0813 8.64039C52.5053 8.88839 52.8213 9.20039 53.0293 9.57639V8.37639H54.1333V14.9524H53.0293V13.7284C52.8133 14.1124 52.4893 14.4324 52.0573 14.6884C51.6333 14.9364 51.1373 15.0604 50.5693 15.0604C49.9853 15.0604 49.4573 14.9164 48.9853 14.6284C48.5133 14.3404 48.1413 13.9364 47.8693 13.4164C47.5973 12.8964 47.4613 12.3044 47.4613 11.6404ZM53.0293 11.6524C53.0293 11.1564 52.9293 10.7244 52.7293 10.3564C52.5293 9.98839 52.2573 9.70839 51.9133 9.51639C51.5773 9.31639 51.2053 9.21639 50.7973 9.21639C50.3893 9.21639 50.0173 9.31239 49.6813 9.50439C49.3453 9.69639 49.0773 9.97639 48.8773 10.3444C48.6773 10.7124 48.5773 11.1444 48.5773 11.6404C48.5773 12.1444 48.6773 12.5844 48.8773 12.9604C49.0773 13.3284 49.3453 13.6124 49.6813 13.8124C50.0173 14.0044 50.3893 14.1004 50.7973 14.1004C51.2053 14.1004 51.5773 14.0044 51.9133 13.8124C52.2573 13.6124 52.5293 13.3284 52.7293 12.9604C52.9293 12.5844 53.0293 12.1484 53.0293 11.6524ZM59.1827 8.25639C59.9827 8.25639 60.6307 8.50039 61.1267 8.98839C61.6227 9.46839 61.8707 10.1644 61.8707 11.0764V14.9524H60.7907V11.2324C60.7907 10.5764 60.6267 10.0764 60.2987 9.73239C59.9707 9.38039 59.5227 9.20439 58.9547 9.20439C58.3787 9.20439 57.9187 9.38439 57.5747 9.74439C57.2387 10.1044 57.0707 10.6284 57.0707 11.3164V14.9524H55.9787V8.37639H57.0707V9.31239C57.2867 8.97639 57.5787 8.71639 57.9467 8.53239C58.3227 8.34839 58.7347 8.25639 59.1827 8.25639ZM66.3665 8.26839C66.9345 8.26839 67.4305 8.39239 67.8545 8.64039C68.2865 8.88839 68.6065 9.20039 68.8145 9.57639V8.37639H69.9185V15.0964C69.9185 15.6964 69.7905 16.2284 69.5345 16.6924C69.2785 17.1644 68.9105 17.5324 68.4305 17.7964C67.9585 18.0604 67.4065 18.1924 66.7745 18.1924C65.9105 18.1924 65.1905 17.9884 64.6145 17.5804C64.0385 17.1724 63.6985 16.6164 63.5945 15.9124H64.6745C64.7945 16.3124 65.0425 16.6324 65.4185 16.8724C65.7945 17.1204 66.2465 17.2444 66.7745 17.2444C67.3745 17.2444 67.8625 17.0564 68.2385 16.6804C68.6225 16.3044 68.8145 15.7764 68.8145 15.0964V13.7164C68.5985 14.1004 68.2785 14.4204 67.8545 14.6764C67.4305 14.9324 66.9345 15.0604 66.3665 15.0604C65.7825 15.0604 65.2505 14.9164 64.7705 14.6284C64.2985 14.3404 63.9265 13.9364 63.6545 13.4164C63.3825 12.8964 63.2465 12.3044 63.2465 11.6404C63.2465 10.9684 63.3825 10.3804 63.6545 9.87639C63.9265 9.36439 64.2985 8.96839 64.7705 8.68839C65.2505 8.40839 65.7825 8.26839 66.3665 8.26839ZM68.8145 11.6524C68.8145 11.1564 68.7145 10.7244 68.5145 10.3564C68.3145 9.98839 68.0425 9.70839 67.6985 9.51639C67.3625 9.31639 66.9905 9.21639 66.5825 9.21639C66.1745 9.21639 65.8025 9.31239 65.4665 9.50439C65.1305 9.69639 64.8625 9.97639 64.6625 10.3444C64.4625 10.7124 64.3625 11.1444 64.3625 11.6404C64.3625 12.1444 64.4625 12.5844 64.6625 12.9604C64.8625 13.3284 65.1305 13.6124 65.4665 13.8124C65.8025 14.0044 66.1745 14.1004 66.5825 14.1004C66.9905 14.1004 67.3625 14.0044 67.6985 13.8124C68.0425 13.6124 68.3145 13.3284 68.5145 12.9604C68.7145 12.5844 68.8145 12.1484 68.8145 11.6524ZM77.7638 11.4124C77.7638 11.6204 77.7518 11.8404 77.7278 12.0724H72.4718C72.5118 12.7204 72.7318 13.2284 73.1318 13.5964C73.5398 13.9564 74.0318 14.1364 74.6078 14.1364C75.0798 14.1364 75.4718 14.0284 75.7838 13.8124C76.1038 13.5884 76.3278 13.2924 76.4558 12.9244H77.6318C77.4558 13.5564 77.1038 14.0724 76.5758 14.4724C76.0478 14.8644 75.3918 15.0604 74.6078 15.0604C73.9838 15.0604 73.4238 14.9204 72.9278 14.6404C72.4398 14.3604 72.0558 13.9644 71.7758 13.4524C71.4958 12.9324 71.3558 12.3324 71.3558 11.6524C71.3558 10.9724 71.4918 10.3764 71.7638 9.86439C72.0358 9.35239 72.4158 8.96039 72.9038 8.68839C73.3998 8.40839 73.9678 8.26839 74.6078 8.26839C75.2318 8.26839 75.7838 8.40439 76.2638 8.67639C76.7438 8.94839 77.1118 9.32439 77.3678 9.80439C77.6318 10.2764 77.7638 10.8124 77.7638 11.4124ZM76.6358 11.1844C76.6358 10.7684 76.5438 10.4124 76.3598 10.1164C76.1758 9.81239 75.9238 9.58439 75.6038 9.43239C75.2918 9.27239 74.9438 9.19239 74.5598 9.19239C74.0078 9.19239 73.5358 9.36839 73.1438 9.72039C72.7598 10.0724 72.5398 10.5604 72.4838 11.1844H76.6358ZM87.3485 13.0924H83.7005L83.0285 14.9524H81.8765L84.9005 6.63639H86.1605L89.1725 14.9524H88.0205L87.3485 13.0924ZM87.0365 12.2044L85.5245 7.98039L84.0125 12.2044H87.0365ZM90.0824 11.6524C90.0824 10.9724 90.2184 10.3804 90.4904 9.87639C90.7624 9.36439 91.1384 8.96839 91.6184 8.68839C92.1064 8.40839 92.6624 8.26839 93.2864 8.26839C94.0944 8.26839 94.7584 8.46439 95.2784 8.85639C95.8064 9.24839 96.1544 9.79239 96.3224 10.4884H95.1464C95.0344 10.0884 94.8144 9.77239 94.4864 9.54039C94.1664 9.30839 93.7664 9.19239 93.2864 9.19239C92.6624 9.19239 92.1584 9.40839 91.7744 9.84039C91.3904 10.2644 91.1984 10.8684 91.1984 11.6524C91.1984 12.4444 91.3904 13.0564 91.7744 13.4884C92.1584 13.9204 92.6624 14.1364 93.2864 14.1364C93.7664 14.1364 94.1664 14.0244 94.4864 13.8004C94.8064 13.5764 95.0264 13.2564 95.1464 12.8404H96.3224C96.1464 13.5124 95.7944 14.0524 95.2664 14.4604C94.7384 14.8604 94.0784 15.0604 93.2864 15.0604C92.6624 15.0604 92.1064 14.9204 91.6184 14.6404C91.1384 14.3604 90.7624 13.9644 90.4904 13.4524C90.2184 12.9404 90.0824 12.3404 90.0824 11.6524ZM97.3715 11.6524C97.3715 10.9724 97.5075 10.3804 97.7795 9.87639C98.0515 9.36439 98.4275 8.96839 98.9075 8.68839C99.3955 8.40839 99.9515 8.26839 100.575 8.26839C101.383 8.26839 102.047 8.46439 102.567 8.85639C103.095 9.24839 103.443 9.79239 103.611 10.4884H102.435C102.323 10.0884 102.103 9.77239 101.775 9.54039C101.455 9.30839 101.055 9.19239 100.575 9.19239C99.9515 9.19239 99.4475 9.40839 99.0635 9.84039C98.6795 10.2644 98.4875 10.8684 98.4875 11.6524C98.4875 12.4444 98.6795 13.0564 99.0635 13.4884C99.4475 13.9204 99.9515 14.1364 100.575 14.1364C101.055 14.1364 101.455 14.0244 101.775 13.8004C102.095 13.5764 102.315 13.2564 102.435 12.8404H103.611C103.435 13.5124 103.083 14.0524 102.555 14.4604C102.027 14.8604 101.367 15.0604 100.575 15.0604C99.9515 15.0604 99.3955 14.9204 98.9075 14.6404C98.4275 14.3604 98.0515 13.9644 97.7795 13.4524C97.5075 12.9404 97.3715 12.3404 97.3715 11.6524ZM107.937 15.0604C107.321 15.0604 106.761 14.9204 106.257 14.6404C105.761 14.3604 105.369 13.9644 105.081 13.4524C104.801 12.9324 104.661 12.3324 104.661 11.6524C104.661 10.9804 104.805 10.3884 105.093 9.87639C105.389 9.35639 105.789 8.96039 106.293 8.68839C106.797 8.40839 107.361 8.26839 107.985 8.26839C108.609 8.26839 109.173 8.40839 109.677 8.68839C110.181 8.96039 110.577 9.35239 110.865 9.86439C111.161 10.3764 111.309 10.9724 111.309 11.6524C111.309 12.3324 111.157 12.9324 110.853 13.4524C110.557 13.9644 110.153 14.3604 109.641 14.6404C109.129 14.9204 108.561 15.0604 107.937 15.0604ZM107.937 14.1004C108.329 14.1004 108.697 14.0084 109.041 13.8244C109.385 13.6404 109.661 13.3644 109.869 12.9964C110.085 12.6284 110.193 12.1804 110.193 11.6524C110.193 11.1244 110.089 10.6764 109.881 10.3084C109.673 9.94039 109.401 9.66839 109.065 9.49239C108.729 9.30839 108.365 9.21639 107.973 9.21639C107.573 9.21639 107.205 9.30839 106.869 9.49239C106.541 9.66839 106.277 9.94039 106.077 10.3084C105.877 10.6764 105.777 11.1244 105.777 11.6524C105.777 12.1884 105.873 12.6404 106.065 13.0084C106.265 13.3764 106.529 13.6524 106.857 13.8364C107.185 14.0124 107.545 14.1004 107.937 14.1004ZM118.576 8.37639V14.9524H117.484V13.9804C117.276 14.3164 116.984 14.5804 116.608 14.7724C116.24 14.9564 115.832 15.0484 115.384 15.0484C114.872 15.0484 114.412 14.9444 114.004 14.7364C113.596 14.5204 113.272 14.2004 113.032 13.7764C112.8 13.3524 112.684 12.8364 112.684 12.2284V8.37639H113.764V12.0844C113.764 12.7324 113.928 13.2324 114.256 13.5844C114.584 13.9284 115.032 14.1004 115.6 14.1004C116.184 14.1004 116.644 13.9204 116.98 13.5604C117.316 13.2004 117.484 12.6764 117.484 11.9884V8.37639H118.576ZM123.624 8.25639C124.424 8.25639 125.072 8.50039 125.568 8.98839C126.064 9.46839 126.312 10.1644 126.312 11.0764V14.9524H125.232V11.2324C125.232 10.5764 125.068 10.0764 124.74 9.73239C124.412 9.38039 123.964 9.20439 123.396 9.20439C122.82 9.20439 122.36 9.38439 122.016 9.74439C121.68 10.1044 121.512 10.6284 121.512 11.3164V14.9524H120.42V8.37639H121.512V9.31239C121.728 8.97639 122.02 8.71639 122.388 8.53239C122.764 8.34839 123.176 8.25639 123.624 8.25639ZM129.428 9.27639V13.1524C129.428 13.4724 129.496 13.7004 129.632 13.8364C129.768 13.9644 130.004 14.0284 130.34 14.0284H131.144V14.9524H130.16C129.552 14.9524 129.096 14.8124 128.792 14.5324C128.488 14.2524 128.336 13.7924 128.336 13.1524V9.27639H127.484V8.37639H128.336V6.72039H129.428V8.37639H131.144V9.27639H129.428ZM138.27 6.58839C139.182 6.58839 139.97 6.76039 140.634 7.10439C141.306 7.44039 141.818 7.92439 142.17 8.55639C142.53 9.18839 142.71 9.93239 142.71 10.7884C142.71 11.6444 142.53 12.3884 142.17 13.0204C141.818 13.6444 141.306 14.1244 140.634 14.4604C139.97 14.7884 139.182 14.9524 138.27 14.9524H135.666V6.58839H138.27ZM138.27 14.0524C139.35 14.0524 140.174 13.7684 140.742 13.2004C141.31 12.6244 141.594 11.8204 141.594 10.7884C141.594 9.74839 141.306 8.93639 140.73 8.35239C140.162 7.76839 139.342 7.47639 138.27 7.47639H136.758V14.0524H138.27ZM150.151 11.4124C150.151 11.6204 150.139 11.8404 150.115 12.0724H144.859C144.899 12.7204 145.119 13.2284 145.519 13.5964C145.927 13.9564 146.419 14.1364 146.995 14.1364C147.467 14.1364 147.859 14.0284 148.171 13.8124C148.491 13.5884 148.715 13.2924 148.843 12.9244H150.019C149.843 13.5564 149.491 14.0724 148.963 14.4724C148.435 14.8644 147.779 15.0604 146.995 15.0604C146.371 15.0604 145.811 14.9204 145.315 14.6404C144.827 14.3604 144.443 13.9644 144.163 13.4524C143.883 12.9324 143.743 12.3324 143.743 11.6524C143.743 10.9724 143.879 10.3764 144.151 9.86439C144.423 9.35239 144.803 8.96039 145.291 8.68839C145.787 8.40839 146.355 8.26839 146.995 8.26839C147.619 8.26839 148.171 8.40439 148.651 8.67639C149.131 8.94839 149.499 9.32439 149.755 9.80439C150.019 10.2764 150.151 10.8124 150.151 11.4124ZM149.023 11.1844C149.023 10.7684 148.931 10.4124 148.747 10.1164C148.563 9.81239 148.311 9.58439 147.991 9.43239C147.679 9.27239 147.331 9.19239 146.947 9.19239C146.395 9.19239 145.923 9.36839 145.531 9.72039C145.147 10.0724 144.927 10.5604 144.871 11.1844H149.023ZM152.924 9.27639V13.1524C152.924 13.4724 152.992 13.7004 153.128 13.8364C153.264 13.9644 153.5 14.0284 153.836 14.0284H154.64V14.9524H153.656C153.048 14.9524 152.592 14.8124 152.288 14.5324C151.984 14.2524 151.832 13.7924 151.832 13.1524V9.27639H150.98V8.37639H151.832V6.72039H152.924V8.37639H154.64V9.27639H152.924ZM155.555 11.6404C155.555 10.9684 155.691 10.3804 155.963 9.87639C156.235 9.36439 156.607 8.96839 157.079 8.68839C157.559 8.40839 158.091 8.26839 158.675 8.26839C159.251 8.26839 159.751 8.39239 160.175 8.64039C160.599 8.88839 160.915 9.20039 161.123 9.57639V8.37639H162.227V14.9524H161.123V13.7284C160.907 14.1124 160.583 14.4324 160.151 14.6884C159.727 14.9364 159.231 15.0604 158.663 15.0604C158.079 15.0604 157.551 14.9164 157.079 14.6284C156.607 14.3404 156.235 13.9364 155.963 13.4164C155.691 12.8964 155.555 12.3044 155.555 11.6404ZM161.123 11.6524C161.123 11.1564 161.023 10.7244 160.823 10.3564C160.623 9.98839 160.351 9.70839 160.007 9.51639C159.671 9.31639 159.299 9.21639 158.891 9.21639C158.483 9.21639 158.111 9.31239 157.775 9.50439C157.439 9.69639 157.171 9.97639 156.971 10.3444C156.771 10.7124 156.671 11.1444 156.671 11.6404C156.671 12.1444 156.771 12.5844 156.971 12.9604C157.171 13.3284 157.439 13.6124 157.775 13.8124C158.111 14.0044 158.483 14.1004 158.891 14.1004C159.299 14.1004 159.671 14.0044 160.007 13.8124C160.351 13.6124 160.623 13.3284 160.823 12.9604C161.023 12.5844 161.123 12.1484 161.123 11.6524ZM164.636 7.30839C164.428 7.30839 164.252 7.23639 164.108 7.09239C163.964 6.94839 163.892 6.77239 163.892 6.56439C163.892 6.35639 163.964 6.18039 164.108 6.03639C164.252 5.89239 164.428 5.82039 164.636 5.82039C164.836 5.82039 165.004 5.89239 165.14 6.03639C165.284 6.18039 165.356 6.35639 165.356 6.56439C165.356 6.77239 165.284 6.94839 165.14 7.09239C165.004 7.23639 164.836 7.30839 164.636 7.30839ZM165.164 8.37639V14.9524H164.072V8.37639H165.164ZM168.118 6.07239V14.9524H167.026V6.07239H168.118ZM172.307 15.0604C171.803 15.0604 171.351 14.9764 170.951 14.8084C170.551 14.6324 170.235 14.3924 170.003 14.0884C169.771 13.7764 169.643 13.4204 169.619 13.0204H170.747C170.779 13.3484 170.931 13.6164 171.203 13.8244C171.483 14.0324 171.847 14.1364 172.295 14.1364C172.711 14.1364 173.039 14.0444 173.279 13.8604C173.519 13.6764 173.639 13.4444 173.639 13.1644C173.639 12.8764 173.511 12.6644 173.255 12.5284C172.999 12.3844 172.603 12.2444 172.067 12.1084C171.579 11.9804 171.179 11.8524 170.867 11.7244C170.563 11.5884 170.299 11.3924 170.075 11.1364C169.859 10.8724 169.751 10.5284 169.751 10.1044C169.751 9.76839 169.851 9.46039 170.051 9.18039C170.251 8.90039 170.535 8.68039 170.903 8.52039C171.271 8.35239 171.691 8.26839 172.163 8.26839C172.891 8.26839 173.479 8.45239 173.927 8.82039C174.375 9.18839 174.615 9.69239 174.647 10.3324H173.555C173.531 9.98839 173.391 9.71239 173.135 9.50439C172.887 9.29639 172.551 9.19239 172.127 9.19239C171.735 9.19239 171.423 9.27639 171.191 9.44439C170.959 9.61239 170.843 9.83239 170.843 10.1044C170.843 10.3204 170.911 10.5004 171.047 10.6444C171.191 10.7804 171.367 10.8924 171.575 10.9804C171.791 11.0604 172.087 11.1524 172.463 11.2564C172.935 11.3844 173.319 11.5124 173.615 11.6404C173.911 11.7604 174.163 11.9444 174.371 12.1924C174.587 12.4404 174.699 12.7644 174.707 13.1644C174.707 13.5244 174.607 13.8484 174.407 14.1364C174.207 14.4244 173.923 14.6524 173.555 14.8204C173.195 14.9804 172.779 15.0604 172.307 15.0604Z" fill="#7B6F72"/>
<path d="M268.375 5.7618L273.625 11.0951L268.375 16.4285" stroke="#7B6F72" stroke-width="1.2" stroke-linecap="round" stroke-linejoin="round"/>
<defs>
<linearGradient id="paint0_linear_3_3171" x1="15.9619" y1="18.9009" x2="0.475129" y2="16.0212" gradientUnits="userSpaceOnUse">
<stop stop-color="#7EA8BB"/>
<stop offset="1" stop-color="#98B9CD"/>
</linearGradient>
<linearGradient id="paint1_linear_3_3171" x1="13.8167" y1="11.1002" x2="3.60617" y2="10.3224" gradientUnits="userSpaceOnUse">
<stop stop-color="#7EA8BB"/>
<stop offset="1" stop-color="#98B9CD"/>
</linearGradient>
</defs>
</svg>
