<svg width="150" height="111" viewBox="0 0 150 111" fill="none" xmlns="http://www.w3.org/2000/svg">
<g filter="url(#filter0_d_0_1)">
<g filter="url(#filter1_d_0_1)">
<path d="M83.1241 15.1112C84.0074 14.5845 85.099 14.5469 86.0164 15.0116L143.396 44.0799C145.449 45.12 145.615 47.9893 143.695 49.2586L65.5256 100.939C64.5475 101.586 63.2824 101.603 62.2867 100.984L6.18266 66.0917C4.27435 64.9049 4.30032 62.1186 6.23041 60.9676L83.1241 15.1112Z" fill="#7EA8BB"/>
</g>
<path d="M85.8934 25.8667L121.023 44.1352C122.726 45.0209 122.836 47.4165 121.222 48.4554L65.2064 84.5044C64.4113 85.0161 63.3955 85.0354 62.5815 84.5543L27.6993 63.9396C26.0712 62.9774 26.0597 60.6259 27.6782 59.6477L83.4469 25.9451C84.1929 25.4942 85.12 25.4645 85.8934 25.8667Z" fill="#FAC623" stroke="white"/>
<path d="M67.4412 29.6689L117.765 58.4674" stroke="white" stroke-linecap="round" stroke-dasharray="2 2"/>
<path d="M37.1161 48.2715L86.066 79.2291" stroke="white" stroke-linecap="round" stroke-dasharray="2 2"/>
<path d="M85.7052 19.8647L132.096 44.4738C133.776 45.3653 133.885 47.7329 132.293 48.7744L65.4503 92.5005C64.6386 93.0316 63.5929 93.0451 62.7677 92.5352L17.5834 64.617C16.0007 63.6391 16.0025 61.3369 17.5866 60.3614L83.2228 19.9445C83.9776 19.4797 84.9221 19.4493 85.7052 19.8647Z" stroke="white"/>
<path d="M58.5362 41.0544L95.6057 64.8299" stroke="white" stroke-linecap="round"/>
<path d="M72.5307 32.573L111.235 54.6898" stroke="white" stroke-linecap="round"/>
<path d="M41.6735 51.1001L79.8773 75.3876" stroke="white" stroke-linecap="round"/>
</g>
<line y1="-0.5" x2="49.5701" y2="-0.5" transform="matrix(0.841543 0.54019 -0.259248 0.965811 55.6738 14.2468)" stroke="#ADA4A5"/>
<line x1="1.5" y1="-1.5" x2="38.1568" y2="-1.5" transform="matrix(0.843512 0.537111 -0.257307 0.96633 59.2157 17.2896)" stroke="#C6BDBF" stroke-width="3" stroke-linecap="round"/>
<line y1="-0.5" x2="49.2454" y2="-0.5" transform="matrix(0.831109 0.55611 -0.269456 0.963013 56.0673 31.2871)" stroke="#ADA4A5"/>
<line x1="1.5" y1="-1.5" x2="38.8236" y2="-1.5" transform="matrix(0.829563 0.558413 -0.270958 0.962591 58.8221 33.7212)" stroke="#C6BDBF" stroke-width="3" stroke-linecap="round"/>
<line x1="60.2527" y1="16.6812" x2="60.2527" y2="33.7212" stroke="#C6BDBF" stroke-width="0.5"/>
<line y1="-0.25" x2="37.3433" y2="-0.25" transform="matrix(0.843077 0.537793 -0.257736 0.966215 60.0027 20.3325)" stroke="#C6BDBF" stroke-width="0.5"/>
<line y1="-0.25" x2="37.3433" y2="-0.25" transform="matrix(0.843077 0.537793 -0.257736 0.966215 60.0027 22.7668)" stroke="#C6BDBF" stroke-width="0.5"/>
<line y1="-0.25" x2="37.3433" y2="-0.25" transform="matrix(0.843077 0.537793 -0.257736 0.966215 60.0027 25.2012)" stroke="#C6BDBF" stroke-width="0.5"/>
<line y1="-0.25" x2="37.3433" y2="-0.25" transform="matrix(0.843077 0.537793 -0.257736 0.966215 60.0027 27.6353)" stroke="#C6BDBF" stroke-width="0.5"/>
<line y1="-0.25" x2="37.3433" y2="-0.25" transform="matrix(0.843077 0.537793 -0.257736 0.966215 60.0027 30.6785)" stroke="#C6BDBF" stroke-width="0.5"/>
<line x1="91.736" y1="36.7639" x2="91.736" y2="53.804" stroke="#C6BDBF" stroke-width="0.5"/>
<line x1="90.1619" y1="36.7639" x2="90.1619" y2="53.804" stroke="#C6BDBF" stroke-width="0.5"/>
<line x1="88.5877" y1="35.5469" x2="88.5877" y2="52.5869" stroke="#C6BDBF" stroke-width="0.5"/>
<line x1="87.0135" y1="34.3298" x2="87.0135" y2="51.3699" stroke="#C6BDBF" stroke-width="0.5"/>
<line x1="85.4394" y1="33.7212" x2="85.4394" y2="50.7613" stroke="#C6BDBF" stroke-width="0.5"/>
<line x1="83.8652" y1="32.5042" x2="83.8652" y2="49.5442" stroke="#C6BDBF" stroke-width="0.5"/>
<line x1="82.2911" y1="31.2871" x2="82.2911" y2="48.3272" stroke="#C6BDBF" stroke-width="0.5"/>
<line x1="80.7169" y1="30.6785" x2="80.7169" y2="47.7185" stroke="#C6BDBF" stroke-width="0.5"/>
<line x1="79.1428" y1="29.4609" x2="79.1428" y2="46.501" stroke="#C6BDBF" stroke-width="0.5"/>
<line x1="77.5686" y1="28.2439" x2="77.5686" y2="45.284" stroke="#C6BDBF" stroke-width="0.5"/>
<line x1="75.9944" y1="27.0269" x2="75.9944" y2="44.0669" stroke="#C6BDBF" stroke-width="0.5"/>
<line x1="74.4202" y1="25.8098" x2="74.4202" y2="42.8499" stroke="#C6BDBF" stroke-width="0.5"/>
<line x1="72.8461" y1="25.2012" x2="72.8461" y2="42.2412" stroke="#C6BDBF" stroke-width="0.5"/>
<line x1="71.2719" y1="24.5925" x2="71.2719" y2="41.6326" stroke="#C6BDBF" stroke-width="0.5"/>
<line x1="69.6978" y1="23.3752" x2="69.6978" y2="40.4153" stroke="#C6BDBF" stroke-width="0.5"/>
<line x1="68.1236" y1="21.5498" x2="68.1236" y2="38.5899" stroke="#C6BDBF" stroke-width="0.5"/>
<line x1="66.5494" y1="20.9409" x2="66.5494" y2="37.981" stroke="#C6BDBF" stroke-width="0.5"/>
<line x1="64.9753" y1="20.3325" x2="64.9753" y2="37.3726" stroke="#C6BDBF" stroke-width="0.5"/>
<line x1="63.4011" y1="19.1152" x2="63.4011" y2="36.1553" stroke="#C6BDBF" stroke-width="0.5"/>
<line x1="61.827" y1="17.8982" x2="61.827" y2="34.9383" stroke="#C6BDBF" stroke-width="0.5"/>
<rect x="96.6021" y="54.4722" width="1.57416" height="13.8768" fill="#3B5E69"/>
<ellipse cx="97.3891" cy="68.3489" rx="0.787082" ry="0.905007" fill="#3B5E69"/>
<path d="M98.1762 54.4721C98.1762 54.972 97.8238 55.3772 97.3891 55.3772C96.9544 55.3772 96.6021 54.972 96.6021 54.4721C96.6021 53.9723 96.9544 53.5671 97.3891 53.5671C97.8238 53.5671 98.1762 53.9723 98.1762 54.4721Z" fill="#98B9CD"/>
<rect x="96.9955" y="40.1482" width="0.787082" height="14.1775" fill="#3B5E69"/>
<ellipse cx="97.3891" cy="54.3764" rx="0.393541" ry="0.291396" fill="#3B5E69"/>
<path d="M97.7826 40.098C97.7826 40.259 97.6064 40.3894 97.3891 40.3894C97.1717 40.3894 96.9955 40.259 96.9955 40.098C96.9955 39.9371 97.1717 39.8066 97.3891 39.8066C97.6064 39.8066 97.7826 39.9371 97.7826 40.098Z" fill="#98B9CD"/>
<rect x="54.8867" y="26.916" width="1.57416" height="13.14" fill="#3B5E69"/>
<ellipse cx="55.6738" cy="40.0562" rx="0.787082" ry="0.856954" fill="#3B5E69"/>
<path d="M56.4609 26.916C56.4609 27.3893 56.1085 27.773 55.6738 27.773C55.2391 27.773 54.8867 27.3893 54.8867 26.916C54.8867 26.4428 55.2391 26.0591 55.6738 26.0591C56.1085 26.0591 56.4609 26.4428 56.4609 26.916Z" fill="#98B9CD"/>
<rect x="55.2803" y="13.353" width="0.787082" height="13.4247" fill="#3B5E69"/>
<ellipse cx="55.6738" cy="26.8257" rx="0.393541" ry="0.275924" fill="#3B5E69"/>
<path d="M56.0674 13.3055C56.0674 13.4579 55.8912 13.5814 55.6738 13.5814C55.4565 13.5814 55.2803 13.4579 55.2803 13.3055C55.2803 13.1531 55.4565 13.0295 55.6738 13.0295C55.8912 13.0295 56.0674 13.1531 56.0674 13.3055Z" fill="#98B9CD"/>
<path d="M33.3282 16.4722L37.1598 12.4032L40.345 9.81069L44.0222 7.61401L50.5511 4.48972L57.2967 2.18425L63.9742 1.32768L72.1568 1.03758L81.0773 1.34121L87.9424 1.92431" stroke="#7EA8BB" stroke-dasharray="5 5"/>
<ellipse cx="30.8427" cy="23.3916" rx="4.84965" ry="4.13817" fill="#7EA8BB"/>
<path d="M35.61 25.2416C35.8618 24.6934 35.9942 24.1067 36 23.5136V23.4911C35.9985 22.8012 35.8208 22.1209 35.4806 21.5027C35.1403 20.8845 34.6468 20.345 34.0379 19.9258C33.4291 19.5067 32.7214 19.2191 31.9694 19.0854C31.2174 18.9516 30.4413 18.9753 29.7011 19.1545C28.9608 19.3337 28.2763 19.6637 27.7004 20.119C27.1245 20.5742 26.6726 21.1426 26.3796 21.7801C26.0866 22.4175 25.9604 23.1071 26.0108 23.7955C26.0612 24.4839 26.2867 25.1526 26.67 25.75C26.7656 25.8994 26.8708 26.0436 26.985 26.182L27.01 26.2135C27.6796 27.0144 28.6287 27.5896 29.705 27.847C30.1307 27.949 30.5694 28.0004 31.01 28C31.9809 27.9984 32.9302 27.7421 33.7418 27.2626C34.5535 26.7831 35.1922 26.1011 35.58 25.3001C35.5929 25.2819 35.603 25.2622 35.61 25.2416ZM28.875 19.8282C29.349 19.6038 29.8638 19.4575 30.395 19.3962C31.221 19.7397 31.9154 20.2957 32.3906 20.994C32.8658 21.6924 33.1005 22.5018 33.065 23.3201H31.115L28.875 19.8282ZM31.115 23.6801H35.595C35.5692 24.1627 35.4508 24.6377 35.245 25.0841C34.5021 25.5553 33.6208 25.8178 32.7122 25.8387C31.8036 25.8595 30.9086 25.6376 30.14 25.2011L31.115 23.6801ZM34.985 21.4301C35.3535 22.0071 35.5626 22.6553 35.595 23.3201H33.465C33.498 22.5364 33.3026 21.7587 32.8982 21.064C32.4938 20.3693 31.8946 19.7819 31.16 19.3602C31.5079 19.3732 31.8532 19.42 32.19 19.4997C32.7743 19.6397 33.3221 19.8823 33.8018 20.2136C34.2814 20.545 34.6836 20.9584 34.985 21.4301ZM28.53 20.0082L29.595 21.6686C28.8253 22.0344 28.175 22.5747 27.7084 23.2361C27.2419 23.8975 26.9753 24.657 26.935 25.4396C26.3956 24.5192 26.2602 23.45 26.5557 22.4439C26.8511 21.4379 27.5558 20.5685 28.53 20.0082ZM27.35 26.02C27.2697 25.2046 27.4589 24.386 27.8939 23.667C28.3289 22.9481 28.9903 22.3609 29.795 21.9791L30.77 23.5001L28.53 26.992C28.0753 26.7341 27.6756 26.4049 27.35 26.02ZM33.3 27.0865C32.6302 27.4353 31.8733 27.626 31.0997 27.641C30.3261 27.6559 29.5608 27.4946 28.875 27.172L29.94 25.5115C30.7364 25.9629 31.6588 26.2016 32.6 26.2C33.3992 26.2026 34.187 26.0296 34.895 25.696C34.4993 26.2711 33.9512 26.7488 33.3 27.0865Z" fill="white"/>
<defs>
<filter id="filter0_d_0_1" x="0.766998" y="14.6877" width="148.273" height="94.7485" filterUnits="userSpaceOnUse" color-interpolation-filters="sRGB">
<feFlood flood-opacity="0" result="BackgroundImageFix"/>
<feColorMatrix in="SourceAlpha" type="matrix" values="0 0 0 0 0 0 0 0 0 0 0 0 0 0 0 0 0 0 127 0" result="hardAlpha"/>
<feOffset dy="4"/>
<feGaussianBlur stdDeviation="2"/>
<feComposite in2="hardAlpha" operator="out"/>
<feColorMatrix type="matrix" values="0 0 0 0 0 0 0 0 0 0 0 0 0 0 0 0 0 0 0.25 0"/>
<feBlend mode="normal" in2="BackgroundImageFix" result="effect1_dropShadow_0_1"/>
<feBlend mode="normal" in="SourceGraphic" in2="effect1_dropShadow_0_1" result="shape"/>
</filter>
<filter id="filter1_d_0_1" x="1.767" y="14.6877" width="146.273" height="95.7485" filterUnits="userSpaceOnUse" color-interpolation-filters="sRGB">
<feFlood flood-opacity="0" result="BackgroundImageFix"/>
<feColorMatrix in="SourceAlpha" type="matrix" values="0 0 0 0 0 0 0 0 0 0 0 0 0 0 0 0 0 0 127 0" result="hardAlpha"/>
<feOffset dy="6"/>
<feGaussianBlur stdDeviation="1.5"/>
<feComposite in2="hardAlpha" operator="out"/>
<feColorMatrix type="matrix" values="0 0 0 0 0 0 0 0 0 0 0 0 0 0 0 0 0 0 0.1 0"/>
<feBlend mode="normal" in2="BackgroundImageFix" result="effect1_dropShadow_0_1"/>
<feBlend mode="normal" in="SourceGraphic" in2="effect1_dropShadow_0_1" result="shape"/>
</filter>
</defs>
</svg>
