<svg width="286" height="255" viewBox="0 0 286 255" fill="none" xmlns="http://www.w3.org/2000/svg">
<g filter="url(#filter0_d_240_995)">
<path d="M156.76 38.643C159.736 36.4452 163.755 36.2928 166.889 38.2589L275.391 106.32C280.604 109.59 281.071 117.01 276.309 120.908L126.826 243.279C123.588 245.93 118.95 245.999 115.634 243.446L9.45555 161.68C4.71741 158.032 4.78971 150.862 9.60048 147.31L156.76 38.643Z" fill="#7EA8BB"/>
</g>
<path d="M160.494 61.8284C161.331 61.2027 162.468 61.1627 163.346 61.7281L238.807 110.32C240.246 111.246 240.35 113.31 239.012 114.377L122.777 207C121.895 207.702 120.652 207.728 119.742 207.062L44.9456 152.328C43.5898 151.336 43.579 149.316 44.9241 148.309L160.494 61.8284Z" fill="#FAC623" stroke="white"/>
<path d="M128.193 72.3633L226.772 142.216" stroke="white" stroke-linecap="round" stroke-dasharray="2 2"/>
<path d="M68.7891 117.485L164.677 192.574" stroke="white" stroke-linecap="round" stroke-dasharray="2 2"/>
<path d="M160.071 47.2451C160.915 46.6018 162.073 46.5612 162.96 47.1436L260.387 111.138C261.802 112.068 261.904 114.105 260.588 115.171L123.223 226.437C122.325 227.164 121.047 227.182 120.13 226.48L25.3298 153.952C24.0206 152.95 24.0222 150.978 25.3331 149.978L160.071 47.2451Z" stroke="white"/>
<path d="M110.749 99.9792L183.365 157.648" stroke="white" stroke-linecap="round"/>
<path d="M138.163 79.4067L213.982 133.052" stroke="white" stroke-linecap="round"/>
<path d="M77.7165 124.345L152.554 183.256" stroke="white" stroke-linecap="round"/>
<rect x="185.716" y="132.522" width="3.08364" height="33.659" fill="#3B5E69"/>
<ellipse cx="187.258" cy="166.181" rx="1.54182" ry="2.19515" fill="#3B5E69"/>
<path d="M188.8 132.522C188.8 133.734 188.11 134.717 187.258 134.717C186.407 134.717 185.716 133.734 185.716 132.522C185.716 131.309 186.407 130.326 187.258 130.326C188.11 130.326 188.8 131.309 188.8 132.522Z" fill="#98B9CD"/>
<rect x="186.487" y="97.7786" width="1.54182" height="34.3883" fill="#3B5E69"/>
<ellipse cx="187.258" cy="132.289" rx="0.770909" ry="0.706798" fill="#3B5E69"/>
<path d="M188.029 97.6567C188.029 98.0471 187.684 98.3635 187.258 98.3635C186.832 98.3635 186.487 98.0471 186.487 97.6567C186.487 97.2664 186.832 96.95 187.258 96.95C187.684 96.95 188.029 97.2664 188.029 97.6567Z" fill="#98B9CD"/>
<rect x="104" y="65.6831" width="3.08364" height="31.8718" fill="#3B5E69"/>
<ellipse cx="105.542" cy="97.5549" rx="1.54182" ry="2.07859" fill="#3B5E69"/>
<path d="M107.084 65.6826C107.084 66.8306 106.393 67.7612 105.542 67.7612C104.69 67.7612 104 66.8306 104 65.6826C104 64.5346 104.69 63.604 105.542 63.604C106.393 63.604 107.084 64.5346 107.084 65.6826Z" fill="#98B9CD"/>
<rect x="104.771" y="32.7849" width="1.54182" height="32.5623" fill="#3B5E69"/>
<ellipse cx="105.542" cy="65.4637" rx="0.770909" ry="0.669269" fill="#3B5E69"/>
<path d="M106.313 32.6693C106.313 33.0389 105.968 33.3385 105.542 33.3385C105.116 33.3385 104.771 33.0389 104.771 32.6693C104.771 32.2996 105.116 32 105.542 32C105.968 32 106.313 32.2996 106.313 32.6693Z" fill="#98B9CD"/>
<path d="M82.259 158.79C82.7374 157.754 82.9889 156.646 83 155.526V155.483C82.9971 154.18 82.6595 152.895 82.0131 151.727C81.3667 150.56 80.4288 149.541 79.2721 148.749C78.1153 147.957 76.7706 147.414 75.3418 147.161C73.913 146.909 72.4384 146.953 71.032 147.292C69.6256 147.63 68.325 148.254 67.2308 149.114C66.1365 149.974 65.2779 151.047 64.7212 152.251C64.1646 153.455 63.9248 154.758 64.0205 156.058C64.1162 157.358 64.5447 158.622 65.273 159.75C65.4547 160.032 65.6545 160.305 65.8715 160.566L65.919 160.626C67.1913 162.138 68.9945 163.225 71.0395 163.711C71.8484 163.904 72.6819 164.001 73.519 164C75.3637 163.997 77.1674 163.513 78.7095 162.607C80.2516 161.701 81.4652 160.413 82.202 158.9C82.2266 158.866 82.2458 158.829 82.259 158.79ZM69.4625 148.564C70.3631 148.141 71.3412 147.864 72.3505 147.748C73.9199 148.397 75.2393 149.447 76.1422 150.767C77.0451 152.086 77.4909 153.615 77.4235 155.16H73.7185L69.4625 148.564ZM73.7185 155.84H82.2305C82.1814 156.752 81.9564 157.649 81.5655 158.492C80.154 159.382 78.4794 159.878 76.7532 159.917C75.0269 159.957 73.3263 159.538 71.866 158.713L73.7185 155.84ZM81.0715 151.59C81.7716 152.68 82.169 153.904 82.2305 155.16H78.1835C78.2461 153.68 77.8749 152.211 77.1066 150.899C76.3383 149.587 75.1998 148.477 73.804 147.68C74.465 147.705 75.1212 147.793 75.761 147.944C76.8712 148.208 77.9119 148.667 78.8233 149.292C79.7347 149.918 80.4988 150.699 81.0715 151.59ZM68.807 148.904L70.8305 152.041C69.368 152.732 68.1324 153.752 67.246 155.002C66.3596 156.251 65.8531 157.685 65.7765 159.164C64.7517 157.425 64.4944 155.405 65.0557 153.505C65.6171 151.605 66.956 149.963 68.807 148.904ZM66.565 160.26C66.4124 158.72 66.772 157.174 67.5985 155.816C68.425 154.457 69.6816 153.348 71.2105 152.627L73.063 155.5L68.807 162.096C67.943 161.609 67.1836 160.987 66.565 160.26ZM77.87 162.275C76.5974 162.933 75.1593 163.294 73.6894 163.322C72.2195 163.35 70.7655 163.045 69.4625 162.436L71.486 159.3C72.9993 160.152 74.7518 160.603 76.54 160.6C78.0584 160.605 79.5552 160.278 80.9005 159.648C80.1486 160.734 79.1073 161.637 77.87 162.275Z" fill="white"/>
<line y1="-0.5" x2="104.384" y2="-0.5" transform="matrix(0.782843 0.622219 -0.211862 0.9773 105.542 34.9524)" stroke="#ADA4A5"/>
<line x1="1.5" y1="-1.5" x2="81.9449" y2="-1.5" transform="matrix(0.785276 0.619147 -0.210238 0.97765 112.48 42.3328)" stroke="#C6BDBF" stroke-width="3" stroke-linecap="round"/>
<line y1="-0.5" x2="104.117" y2="-0.5" transform="matrix(0.770042 0.637993 -0.220416 0.975406 106.313 76.2842)" stroke="#ADA4A5"/>
<line x1="1.5" y1="-1.5" x2="83.8043" y2="-1.5" transform="matrix(0.768159 0.64026 -0.221676 0.97512 111.709 82.1882)" stroke="#C6BDBF" stroke-width="3" stroke-linecap="round"/>
<line x1="114.272" y1="40.8567" x2="114.272" y2="82.1884" stroke="#C6BDBF" stroke-width="0.5"/>
<line y1="-0.25" x2="78.5902" y2="-0.25" transform="matrix(0.784738 0.619828 -0.210596 0.977573 114.022 49.7134)" stroke="#C6BDBF" stroke-width="0.5"/>
<line y1="-0.25" x2="78.5902" y2="-0.25" transform="matrix(0.784738 0.619828 -0.210596 0.977573 114.022 55.6184)" stroke="#C6BDBF" stroke-width="0.5"/>
<line y1="-0.25" x2="78.5902" y2="-0.25" transform="matrix(0.784738 0.619828 -0.210596 0.977573 114.022 61.5229)" stroke="#C6BDBF" stroke-width="0.5"/>
<line y1="-0.25" x2="78.5902" y2="-0.25" transform="matrix(0.784738 0.619828 -0.210596 0.977573 114.022 67.427)" stroke="#C6BDBF" stroke-width="0.5"/>
<line y1="-0.25" x2="78.5902" y2="-0.25" transform="matrix(0.784738 0.619828 -0.210596 0.977573 114.022 74.8081)" stroke="#C6BDBF" stroke-width="0.5"/>
<line x1="175.945" y1="89.5691" x2="175.945" y2="130.901" stroke="#C6BDBF" stroke-width="0.5"/>
<line x1="172.861" y1="89.5691" x2="172.861" y2="130.901" stroke="#C6BDBF" stroke-width="0.5"/>
<line x1="169.777" y1="86.6167" x2="169.777" y2="127.948" stroke="#C6BDBF" stroke-width="0.5"/>
<line x1="166.694" y1="83.6648" x2="166.694" y2="124.997" stroke="#C6BDBF" stroke-width="0.5"/>
<line x1="163.61" y1="82.1882" x2="163.61" y2="123.52" stroke="#C6BDBF" stroke-width="0.5"/>
<line x1="160.526" y1="79.2363" x2="160.526" y2="120.568" stroke="#C6BDBF" stroke-width="0.5"/>
<line x1="157.443" y1="76.2842" x2="157.443" y2="117.616" stroke="#C6BDBF" stroke-width="0.5"/>
<line x1="154.359" y1="74.8081" x2="154.359" y2="116.14" stroke="#C6BDBF" stroke-width="0.5"/>
<line x1="151.276" y1="71.8552" x2="151.276" y2="113.187" stroke="#C6BDBF" stroke-width="0.5"/>
<line x1="148.192" y1="68.9031" x2="148.192" y2="110.235" stroke="#C6BDBF" stroke-width="0.5"/>
<line x1="145.108" y1="65.9507" x2="145.108" y2="107.282" stroke="#C6BDBF" stroke-width="0.5"/>
<line x1="142.024" y1="62.9988" x2="142.024" y2="104.33" stroke="#C6BDBF" stroke-width="0.5"/>
<line x1="138.941" y1="61.5229" x2="138.941" y2="102.855" stroke="#C6BDBF" stroke-width="0.5"/>
<line x1="135.857" y1="60.0464" x2="135.857" y2="101.378" stroke="#C6BDBF" stroke-width="0.5"/>
<line x1="132.774" y1="57.094" x2="132.774" y2="98.4257" stroke="#C6BDBF" stroke-width="0.5"/>
<line x1="129.69" y1="52.666" x2="129.69" y2="93.9977" stroke="#C6BDBF" stroke-width="0.5"/>
<line x1="126.606" y1="51.1892" x2="126.606" y2="92.5209" stroke="#C6BDBF" stroke-width="0.5"/>
<line x1="123.523" y1="49.7134" x2="123.523" y2="91.0451" stroke="#C6BDBF" stroke-width="0.5"/>
<line x1="120.439" y1="46.761" x2="120.439" y2="88.0927" stroke="#C6BDBF" stroke-width="0.5"/>
<line x1="117.356" y1="43.8091" x2="117.356" y2="85.1408" stroke="#C6BDBF" stroke-width="0.5"/>
<path d="M74.3384 148.685C74.6859 149.102 75.3181 149.149 75.7505 148.791L82.7961 142.946C83.2285 142.587 83.2973 141.959 82.9498 141.542C82.6023 141.125 81.9701 141.078 81.5377 141.436L75.2749 146.632L70.2415 140.595C69.8941 140.178 69.2619 140.131 68.8295 140.489C68.3972 140.848 68.3284 141.477 68.6758 141.893L74.3384 148.685ZM161.82 157.46C161.396 160.375 163.427 162.999 166.354 163.321C169.282 163.643 171.999 161.541 172.423 158.626C172.846 155.711 170.816 153.087 167.888 152.765C164.96 152.443 162.243 154.545 161.82 157.46ZM119.221 2.72256L119.658 1.81169C119.384 1.69003 119.065 1.69976 118.79 1.83817L119.221 2.72256ZM84.1213 74.8325L83.1438 74.6364C83.1393 74.6555 83.1353 74.6746 83.132 74.6938L84.1213 74.8325ZM156.621 74.8325L157.608 74.6162C157.602 74.5845 157.595 74.5532 157.586 74.5224L156.621 74.8325ZM95.6213 36.7231L94.7194 36.3151C94.7042 36.3463 94.6907 36.3782 94.6787 36.4107L95.6213 36.7231ZM145.321 36.7231L146.285 36.413C146.265 36.3472 146.239 36.2838 146.206 36.2239L145.321 36.7231ZM134.015 16.1808L134.9 15.6816C134.883 15.6495 134.863 15.6184 134.842 15.5886L134.015 16.1808ZM105.621 16.1808L104.8 15.6355C104.77 15.6792 104.743 15.7251 104.719 15.7728L105.621 16.1808ZM126.844 6.10979L127.671 5.51764C127.572 5.3786 127.438 5.26875 127.281 5.19892L126.844 6.10979ZM112.665 6.02794L112.234 5.14355C112.077 5.22234 111.943 5.33916 111.843 5.48269L112.665 6.02794ZM164.621 117.145L165.619 116.999C165.617 116.976 165.613 116.954 165.609 116.931L164.621 117.145ZM167.121 138.899L168.126 138.866C168.126 138.828 168.123 138.791 168.119 138.754L167.121 138.899ZM160.621 95.8254L161.609 95.6118L161.608 95.6091L160.621 95.8254ZM78.9314 111.924L77.9329 111.849L77.9321 111.857L78.9314 111.924ZM81.1213 91.9097L80.132 91.7711C80.1282 91.7924 80.1251 91.8139 80.1228 91.8354L81.1213 91.9097ZM88.6213 55.7975L87.6787 55.4851C87.6647 55.5232 87.6531 55.562 87.6438 55.6014L88.6213 55.7975ZM77.1213 129.762L78.1197 129.837L78.1205 129.829L77.1213 129.762ZM76.6197 143.542C76.6797 142.994 76.2814 142.516 75.7299 142.475C75.1785 142.434 74.6828 142.845 74.6228 143.393L76.6197 143.542ZM75.6228 134.256C75.5628 134.805 75.9612 135.283 76.5126 135.324C77.064 135.365 77.5597 134.954 77.6197 134.405L75.6228 134.256ZM78.5731 125.369C78.6287 124.821 78.2265 124.346 77.6746 124.309C77.1227 124.272 76.6302 124.687 76.5745 125.236L78.5731 125.369ZM77.4796 116.317C77.4239 116.865 77.8262 117.34 78.378 117.377C78.9299 117.413 79.4224 116.999 79.4781 116.45L77.4796 116.317ZM80.4773 106.994C80.5373 106.446 80.1389 105.968 79.5875 105.927C79.036 105.886 78.5404 106.297 78.4804 106.846L80.4773 106.994ZM79.5753 96.8388C79.5153 97.3872 79.9137 97.865 80.4651 97.9061C81.0166 97.9471 81.5122 97.5359 81.5722 96.9876L79.5753 96.8388ZM82.8606 87.7791C82.9562 87.2346 82.5908 86.7311 82.0445 86.6545C81.4981 86.5779 80.9776 86.9573 80.882 87.5018L82.8606 87.7791ZM82.382 78.9632C82.2863 79.5077 82.6517 80.0112 83.1981 80.0877C83.7444 80.1643 84.2649 79.785 84.3606 79.2405L82.382 78.9632ZM86.2237 70.2698C86.3512 69.7307 86.0169 69.2059 85.477 69.0976C84.9372 68.9893 84.3962 69.3386 84.2688 69.8777L86.2237 70.2698ZM86.5188 60.3601C86.3913 60.8992 86.7256 61.4241 87.2655 61.5324C87.8053 61.6406 88.3463 61.2914 88.4737 60.7523L86.5188 60.3601ZM91.3138 51.3412C91.5054 50.8191 91.2387 50.256 90.7182 50.0835C90.1976 49.911 89.6203 50.1944 89.4287 50.7165L91.3138 51.3412ZM92.9287 41.1793C92.7371 41.7014 93.0038 42.2645 93.5243 42.4371C94.0449 42.6096 94.6222 42.3261 94.8138 41.804L92.9287 41.1793ZM97.7731 34.5633C98.0172 34.0617 97.8114 33.4724 97.3134 33.2471C96.8153 33.0218 96.2136 33.2457 95.9694 33.7473L97.7731 34.5633ZM98.4694 28.6117C98.2253 29.1133 98.4311 29.7026 98.9291 29.9279C99.4272 30.1532 100.029 29.9293 100.273 29.4277L98.4694 28.6117ZM102.773 24.2921C103.017 23.7905 102.811 23.2013 102.313 22.9759C101.815 22.7506 101.214 22.9746 100.969 23.4761L102.773 24.2921ZM103.469 18.3406C103.225 18.8421 103.431 19.4314 103.929 19.6567C104.427 19.8821 105.029 19.6581 105.273 19.1565L103.469 18.3406ZM108.204 14.1878C108.523 13.7277 108.414 13.1106 107.96 12.8095C107.506 12.5084 106.88 12.6372 106.561 13.0973L108.204 14.1878ZM110.083 8.0209C109.763 8.48098 109.872 9.09807 110.326 9.39921C110.78 9.70034 111.406 9.57148 111.725 9.1114L110.083 8.0209ZM114.735 6.08599C115.236 5.83342 115.449 5.23272 115.211 4.74428C114.973 4.25585 114.374 4.06464 113.873 4.31721L114.735 6.08599ZM117.151 2.66452C116.65 2.91709 116.437 3.51779 116.675 4.00622C116.913 4.49466 117.512 4.68587 118.013 4.4333L117.151 2.66452ZM120.691 4.48024C121.191 4.70226 121.791 4.47443 122.032 3.97137C122.273 3.46831 122.063 2.88052 121.563 2.6585L120.691 4.48024ZM125.375 4.35211C124.875 4.1301 124.275 4.35793 124.034 4.86099C123.793 5.36405 124.003 5.95184 124.503 6.17386L125.375 4.35211ZM127.81 9.21969C128.125 9.66174 128.75 9.75497 129.207 9.42794C129.664 9.1009 129.779 8.47743 129.464 8.03538L127.81 9.21969ZM133.049 13.0709C132.735 12.6288 132.109 12.5356 131.652 12.8626C131.196 13.1897 131.081 13.8131 131.395 14.2552L133.049 13.0709ZM134.543 19.2478C134.805 19.7235 135.413 19.8857 135.902 19.61C136.391 19.3343 136.575 18.7251 136.313 18.2493L134.543 19.2478ZM139.14 23.3849C138.878 22.9092 138.269 22.747 137.78 23.0227C137.291 23.2984 137.107 23.9076 137.369 24.3833L139.14 23.3849ZM140.196 29.5189C140.457 29.9947 141.066 30.1569 141.555 29.8812C142.044 29.6055 142.228 28.9963 141.966 28.5205L140.196 29.5189ZM144.793 33.6561C144.531 33.1803 143.922 33.0182 143.433 33.2939C142.944 33.5696 142.76 34.1787 143.022 34.6545L144.793 33.6561ZM145.298 40.2089C145.453 40.7315 146.01 41.0162 146.543 40.845C147.075 40.6737 147.382 40.1113 147.227 39.5888L145.298 40.2089ZM149.11 45.9404C148.955 45.4178 148.398 45.1331 147.865 45.3043C147.333 45.4756 147.026 46.038 147.181 46.5605L149.11 45.9404ZM149.065 52.9121C149.22 53.4346 149.777 53.7194 150.31 53.5481C150.842 53.3769 151.149 52.8145 150.994 52.2919L149.065 52.9121ZM152.877 58.6435C152.722 58.121 152.165 57.8362 151.632 58.0075C151.099 58.1787 150.793 58.7411 150.948 59.2637L152.877 58.6435ZM152.832 65.6152C152.987 66.1377 153.544 66.4225 154.077 66.2513C154.609 66.08 154.915 65.5176 154.76 64.9951L152.832 65.6152ZM156.644 71.3466C156.489 70.8241 155.932 70.5393 155.399 70.7106C154.866 70.8819 154.56 71.4443 154.715 71.9668L156.644 71.3466ZM156.134 77.673C156.236 78.2097 156.761 78.5479 157.306 78.4285C157.852 78.309 158.211 77.777 158.108 77.2403L156.134 77.673ZM159.108 82.4885C159.006 81.9518 158.481 81.6135 157.936 81.733C157.391 81.8525 157.032 82.3844 157.134 82.9212L159.108 82.4885ZM158.134 88.1694C158.236 88.7061 158.761 89.0444 159.306 88.9249C159.852 88.8054 160.211 88.2735 160.108 87.7367L158.134 88.1694ZM161.108 92.985C161.006 92.4482 160.481 92.11 159.936 92.2295C159.391 92.3489 159.032 92.8809 159.134 93.4176L161.108 92.985ZM160.134 98.704C160.234 99.241 160.758 99.5808 161.304 99.4628C161.849 99.3448 162.21 98.8137 162.109 98.2767L160.134 98.704ZM163.109 103.606C163.008 103.069 162.484 102.73 161.939 102.848C161.393 102.966 161.033 103.497 161.134 104.034L163.109 103.606ZM162.134 109.364C162.234 109.901 162.758 110.24 163.304 110.122C163.849 110.004 164.21 109.473 164.109 108.936L162.134 109.364ZM165.109 114.266C165.008 113.729 164.484 113.389 163.939 113.507C163.393 113.625 163.033 114.156 163.134 114.693L165.109 114.266ZM163.936 120.009C163.998 120.553 164.496 120.929 165.047 120.849C165.598 120.769 165.994 120.263 165.932 119.719L163.936 120.009ZM166.557 125.157C166.494 124.613 165.997 124.237 165.446 124.318C164.894 124.398 164.498 124.904 164.561 125.448L166.557 125.157ZM165.186 130.887C165.248 131.431 165.746 131.806 166.297 131.726C166.848 131.646 167.244 131.14 167.182 130.596L165.186 130.887ZM167.807 136.034C167.744 135.49 167.247 135.115 166.696 135.195C166.144 135.275 165.748 135.781 165.811 136.325L167.807 136.034ZM166.117 143.719C166.117 144.268 166.567 144.699 167.121 144.68C167.676 144.662 168.126 144.201 168.126 143.652L166.117 143.719ZM168.126 153.224C168.126 152.674 167.676 152.243 167.121 152.262C166.567 152.28 166.117 152.741 166.117 153.29L168.126 153.224ZM76.1197 148.11L76.6197 143.542L74.6228 143.393L74.1228 147.962L76.1197 148.11ZM77.6197 134.405L78.1197 129.837L76.1228 129.688L75.6228 134.256L77.6197 134.405ZM78.1205 129.829L78.5731 125.369L76.5745 125.236L76.122 129.696L78.1205 129.829ZM79.4781 116.45L79.9306 111.99L77.9321 111.857L77.4796 116.317L79.4781 116.45ZM79.9298 111.998L80.4773 106.994L78.4804 106.846L77.9329 111.849L79.9298 111.998ZM81.5722 96.9876L82.1197 91.9841L80.1228 91.8354L79.5753 96.8388L81.5722 96.9876ZM82.1106 92.0484L82.8606 87.7791L80.882 87.5018L80.132 91.7711L82.1106 92.0484ZM84.3606 79.2405L85.1106 74.9712L83.132 74.6938L82.382 78.9632L84.3606 79.2405ZM85.0987 75.0286L86.2237 70.2698L84.2688 69.8777L83.1438 74.6364L85.0987 75.0286ZM88.4737 60.7523L89.5987 55.9935L87.6438 55.6014L86.5188 60.3601L88.4737 60.7523ZM89.5638 56.1098L91.3138 51.3412L89.4287 50.7165L87.6787 55.4851L89.5638 56.1098ZM94.8138 41.804L96.5638 37.0354L94.6787 36.4107L92.9287 41.1793L94.8138 41.804ZM96.5231 37.1311L97.7731 34.5633L95.9694 33.7473L94.7194 36.3151L96.5231 37.1311ZM100.273 29.4277L102.773 24.2921L100.969 23.4761L98.4694 28.6117L100.273 29.4277ZM105.273 19.1565L106.523 16.5888L104.719 15.7728L103.469 18.3406L105.273 19.1565ZM106.443 16.726L108.204 14.1878L106.561 13.0973L104.8 15.6355L106.443 16.726ZM111.725 9.1114L113.486 6.57319L111.843 5.48269L110.083 8.0209L111.725 9.1114ZM113.096 6.91233L114.735 6.08599L113.873 4.31721L112.234 5.14355L113.096 6.91233ZM118.013 4.4333L119.652 3.60695L118.79 1.83817L117.151 2.66452L118.013 4.4333ZM118.785 3.63343L120.691 4.48024L121.563 2.6585L119.658 1.81169L118.785 3.63343ZM124.503 6.17386L126.408 7.02066L127.281 5.19892L125.375 4.35211L124.503 6.17386ZM126.017 6.70194L127.81 9.21969L129.464 8.03538L127.671 5.51764L126.017 6.70194ZM131.395 14.2552L133.188 16.7729L134.842 15.5886L133.049 13.0709L131.395 14.2552ZM133.129 16.68L134.543 19.2478L136.313 18.2493L134.9 15.6816L133.129 16.68ZM137.369 24.3833L140.196 29.5189L141.966 28.5205L139.14 23.3849L137.369 24.3833ZM143.022 34.6545L144.435 37.2223L146.206 36.2239L144.793 33.6561L143.022 34.6545ZM144.356 37.0332L145.298 40.2089L147.227 39.5888L146.285 36.413L144.356 37.0332ZM147.181 46.5605L149.065 52.9121L150.994 52.2919L149.11 45.9404L147.181 46.5605ZM150.948 59.2637L152.832 65.6152L154.76 64.9951L152.877 58.6435L150.948 59.2637ZM154.715 71.9668L155.657 75.1426L157.586 74.5224L156.644 71.3466L154.715 71.9668ZM155.634 75.0488L156.134 77.673L158.108 77.2403L157.608 74.6162L155.634 75.0488ZM157.134 82.9212L158.134 88.1694L160.108 87.7367L159.108 82.4885L157.134 82.9212ZM159.134 93.4176L159.634 96.0417L161.608 95.6091L161.108 92.985L159.134 93.4176ZM159.634 96.0391L160.134 98.704L162.109 98.2767L161.609 95.6118L159.634 96.0391ZM161.134 104.034L162.134 109.364L164.109 108.936L163.109 103.606L161.134 104.034ZM163.134 114.693L163.634 117.358L165.609 116.931L165.109 114.266L163.134 114.693ZM163.623 117.29L163.936 120.009L165.932 119.719L165.619 116.999L163.623 117.29ZM164.561 125.448L165.186 130.887L167.182 130.596L166.557 125.157L164.561 125.448ZM165.811 136.325L166.123 139.044L168.119 138.754L167.807 136.034L165.811 136.325ZM166.117 138.933L166.117 143.719L168.126 143.652L168.126 138.866L166.117 138.933ZM166.117 153.29L166.117 158.076L168.126 158.01L168.126 153.224L166.117 153.29Z" fill="#EC3131"/>
<defs>
<filter id="filter0_d_240_995" x="2.94672" y="36.8831" width="279.662" height="217.432" filterUnits="userSpaceOnUse" color-interpolation-filters="sRGB">
<feFlood flood-opacity="0" result="BackgroundImageFix"/>
<feColorMatrix in="SourceAlpha" type="matrix" values="0 0 0 0 0 0 0 0 0 0 0 0 0 0 0 0 0 0 127 0" result="hardAlpha"/>
<feOffset dy="6"/>
<feGaussianBlur stdDeviation="1.5"/>
<feComposite in2="hardAlpha" operator="out"/>
<feColorMatrix type="matrix" values="0 0 0 0 0 0 0 0 0 0 0 0 0 0 0 0 0 0 0.1 0"/>
<feBlend mode="normal" in2="BackgroundImageFix" result="effect1_dropShadow_240_995"/>
<feBlend mode="normal" in="SourceGraphic" in2="effect1_dropShadow_240_995" result="shape"/>
</filter>
</defs>
</svg>
