<svg width="280" height="22" viewBox="0 0 280 22" fill="none" xmlns="http://www.w3.org/2000/svg">
<path d="M33.528 6.54078C34.44 6.54078 35.228 6.71278 35.892 7.05678C36.564 7.39278 37.076 7.87678 37.428 8.50878C37.788 9.14078 37.968 9.88478 37.968 10.7408C37.968 11.5968 37.788 12.3408 37.428 12.9728C37.076 13.5968 36.564 14.0768 35.892 14.4128C35.228 14.7408 34.44 14.9048 33.528 14.9048H30.924V6.54078H33.528ZM33.528 14.0048C34.608 14.0048 35.432 13.7208 36 13.1528C36.568 12.5768 36.852 11.7728 36.852 10.7408C36.852 9.70078 36.564 8.88878 35.988 8.30479C35.42 7.72078 34.6 7.42878 33.528 7.42878H32.016V14.0048H33.528ZM45.4084 11.3648C45.4084 11.5728 45.3964 11.7928 45.3724 12.0248H40.1164C40.1564 12.6728 40.3764 13.1808 40.7764 13.5488C41.1844 13.9088 41.6764 14.0888 42.2524 14.0888C42.7244 14.0888 43.1164 13.9808 43.4284 13.7648C43.7484 13.5408 43.9724 13.2448 44.1004 12.8768H45.2764C45.1004 13.5088 44.7484 14.0248 44.2204 14.4248C43.6924 14.8168 43.0364 15.0128 42.2524 15.0128C41.6284 15.0128 41.0684 14.8728 40.5724 14.5928C40.0844 14.3128 39.7004 13.9168 39.4204 13.4048C39.1404 12.8848 39.0004 12.2848 39.0004 11.6048C39.0004 10.9248 39.1364 10.3288 39.4084 9.81678C39.6804 9.30478 40.0604 8.91278 40.5484 8.64078C41.0444 8.36078 41.6124 8.22078 42.2524 8.22078C42.8764 8.22078 43.4284 8.35678 43.9084 8.62879C44.3884 8.90078 44.7564 9.27678 45.0124 9.75678C45.2764 10.2288 45.4084 10.7648 45.4084 11.3648ZM44.2804 11.1368C44.2804 10.7208 44.1884 10.3648 44.0044 10.0688C43.8204 9.76478 43.5684 9.53679 43.2484 9.38479C42.9364 9.22478 42.5884 9.14478 42.2044 9.14478C41.6524 9.14478 41.1804 9.32078 40.7884 9.67278C40.4044 10.0248 40.1844 10.5128 40.1284 11.1368H44.2804ZM47.9418 6.02479V14.9048H46.8498V6.02479H47.9418ZM55.8029 11.3648C55.8029 11.5728 55.7909 11.7928 55.7669 12.0248H50.5109C50.5509 12.6728 50.7709 13.1808 51.1709 13.5488C51.5789 13.9088 52.0709 14.0888 52.6469 14.0888C53.1189 14.0888 53.5109 13.9808 53.8229 13.7648C54.1429 13.5408 54.3669 13.2448 54.4949 12.8768H55.6709C55.4949 13.5088 55.1429 14.0248 54.6149 14.4248C54.0869 14.8168 53.4309 15.0128 52.6469 15.0128C52.0229 15.0128 51.4629 14.8728 50.9669 14.5928C50.4789 14.3128 50.0949 13.9168 49.8149 13.4048C49.5349 12.8848 49.3949 12.2848 49.3949 11.6048C49.3949 10.9248 49.5309 10.3288 49.8029 9.81678C50.0749 9.30478 50.4549 8.91278 50.9429 8.64078C51.4389 8.36078 52.0069 8.22078 52.6469 8.22078C53.2709 8.22078 53.8229 8.35678 54.3029 8.62879C54.7829 8.90078 55.1509 9.27678 55.4069 9.75678C55.6709 10.2288 55.8029 10.7648 55.8029 11.3648ZM54.6749 11.1368C54.6749 10.7208 54.5829 10.3648 54.3989 10.0688C54.2149 9.76478 53.9629 9.53679 53.6429 9.38479C53.3309 9.22478 52.9829 9.14478 52.5989 9.14478C52.0469 9.14478 51.5749 9.32078 51.1829 9.67278C50.7989 10.0248 50.5789 10.5128 50.5229 11.1368H54.6749ZM58.5763 9.22878V13.1048C58.5763 13.4248 58.6443 13.6528 58.7803 13.7888C58.9163 13.9168 59.1523 13.9808 59.4883 13.9808H60.2923V14.9048H59.3083C58.7003 14.9048 58.2443 14.7648 57.9403 14.4848C57.6363 14.2048 57.4843 13.7448 57.4843 13.1048V9.22878H56.6323V8.32878H57.4843V6.67278H58.5763V8.32878H60.2923V9.22878H58.5763ZM67.6154 11.3648C67.6154 11.5728 67.6034 11.7928 67.5794 12.0248H62.3234C62.3634 12.6728 62.5834 13.1808 62.9834 13.5488C63.3914 13.9088 63.8834 14.0888 64.4594 14.0888C64.9314 14.0888 65.3234 13.9808 65.6354 13.7648C65.9554 13.5408 66.1794 13.2448 66.3074 12.8768H67.4834C67.3074 13.5088 66.9554 14.0248 66.4274 14.4248C65.8994 14.8168 65.2434 15.0128 64.4594 15.0128C63.8354 15.0128 63.2754 14.8728 62.7794 14.5928C62.2914 14.3128 61.9074 13.9168 61.6274 13.4048C61.3474 12.8848 61.2074 12.2848 61.2074 11.6048C61.2074 10.9248 61.3434 10.3288 61.6154 9.81678C61.8874 9.30478 62.2674 8.91278 62.7554 8.64078C63.2514 8.36078 63.8194 8.22078 64.4594 8.22078C65.0834 8.22078 65.6354 8.35678 66.1154 8.62879C66.5954 8.90078 66.9634 9.27678 67.2194 9.75678C67.4834 10.2288 67.6154 10.7648 67.6154 11.3648ZM66.4874 11.1368C66.4874 10.7208 66.3954 10.3648 66.2114 10.0688C66.0274 9.76478 65.7754 9.53679 65.4554 9.38479C65.1434 9.22478 64.7954 9.14478 64.4114 9.14478C63.8594 9.14478 63.3874 9.32078 62.9954 9.67278C62.6114 10.0248 62.3914 10.5128 62.3354 11.1368H66.4874ZM77.2 13.0448H73.552L72.88 14.9048H71.728L74.752 6.58878H76.012L79.024 14.9048H77.872L77.2 13.0448ZM76.888 12.1568L75.376 7.93278L73.864 12.1568H76.888ZM79.934 11.6048C79.934 10.9248 80.07 10.3328 80.342 9.82879C80.614 9.31678 80.99 8.92078 81.47 8.64078C81.958 8.36078 82.514 8.22078 83.138 8.22078C83.946 8.22078 84.61 8.41678 85.13 8.80878C85.658 9.20078 86.006 9.74478 86.174 10.4408H84.998C84.886 10.0408 84.666 9.72478 84.338 9.49278C84.018 9.26078 83.618 9.14478 83.138 9.14478C82.514 9.14478 82.01 9.36078 81.626 9.79278C81.242 10.2168 81.05 10.8208 81.05 11.6048C81.05 12.3968 81.242 13.0088 81.626 13.4408C82.01 13.8728 82.514 14.0888 83.138 14.0888C83.618 14.0888 84.018 13.9768 84.338 13.7528C84.658 13.5288 84.878 13.2088 84.998 12.7928H86.174C85.998 13.4648 85.646 14.0048 85.118 14.4128C84.59 14.8128 83.93 15.0128 83.138 15.0128C82.514 15.0128 81.958 14.8728 81.47 14.5928C80.99 14.3128 80.614 13.9168 80.342 13.4048C80.07 12.8928 79.934 12.2928 79.934 11.6048ZM87.223 11.6048C87.223 10.9248 87.359 10.3328 87.631 9.82879C87.903 9.31678 88.279 8.92078 88.759 8.64078C89.247 8.36078 89.803 8.22078 90.427 8.22078C91.235 8.22078 91.899 8.41678 92.419 8.80878C92.947 9.20078 93.295 9.74478 93.463 10.4408H92.287C92.175 10.0408 91.955 9.72478 91.627 9.49278C91.307 9.26078 90.907 9.14478 90.427 9.14478C89.803 9.14478 89.299 9.36078 88.915 9.79278C88.531 10.2168 88.339 10.8208 88.339 11.6048C88.339 12.3968 88.531 13.0088 88.915 13.4408C89.299 13.8728 89.803 14.0888 90.427 14.0888C90.907 14.0888 91.307 13.9768 91.627 13.7528C91.947 13.5288 92.167 13.2088 92.287 12.7928H93.463C93.287 13.4648 92.935 14.0048 92.407 14.4128C91.879 14.8128 91.219 15.0128 90.427 15.0128C89.803 15.0128 89.247 14.8728 88.759 14.5928C88.279 14.3128 87.903 13.9168 87.631 13.4048C87.359 12.8928 87.223 12.2928 87.223 11.6048ZM97.7881 15.0128C97.1721 15.0128 96.6121 14.8728 96.1081 14.5928C95.6121 14.3128 95.2201 13.9168 94.9321 13.4048C94.6521 12.8848 94.5121 12.2848 94.5121 11.6048C94.5121 10.9328 94.6561 10.3408 94.9441 9.82879C95.2401 9.30878 95.6401 8.91278 96.1441 8.64078C96.6481 8.36078 97.2121 8.22078 97.8361 8.22078C98.4601 8.22078 99.0241 8.36078 99.5281 8.64078C100.032 8.91278 100.428 9.30478 100.716 9.81678C101.012 10.3288 101.16 10.9248 101.16 11.6048C101.16 12.2848 101.008 12.8848 100.704 13.4048C100.408 13.9168 100.004 14.3128 99.4921 14.5928C98.9801 14.8728 98.4121 15.0128 97.7881 15.0128ZM97.7881 14.0528C98.1801 14.0528 98.5481 13.9608 98.8921 13.7768C99.2361 13.5928 99.5121 13.3168 99.7201 12.9488C99.9361 12.5808 100.044 12.1328 100.044 11.6048C100.044 11.0768 99.9401 10.6288 99.7321 10.2608C99.5241 9.89278 99.2521 9.62078 98.9161 9.44478C98.5801 9.26078 98.2161 9.16878 97.8241 9.16878C97.4241 9.16878 97.0561 9.26078 96.7201 9.44478C96.3921 9.62078 96.1281 9.89278 95.9281 10.2608C95.7281 10.6288 95.6281 11.0768 95.6281 11.6048C95.6281 12.1408 95.7241 12.5928 95.9161 12.9608C96.1161 13.3288 96.3801 13.6048 96.7081 13.7888C97.0361 13.9648 97.3961 14.0528 97.7881 14.0528ZM108.428 8.32878V14.9048H107.336V13.9328C107.128 14.2688 106.836 14.5328 106.46 14.7248C106.092 14.9088 105.684 15.0008 105.236 15.0008C104.724 15.0008 104.264 14.8968 103.856 14.6888C103.448 14.4728 103.124 14.1528 102.884 13.7288C102.652 13.3048 102.536 12.7888 102.536 12.1808V8.32878H103.616V12.0368C103.616 12.6848 103.78 13.1848 104.108 13.5368C104.436 13.8808 104.884 14.0528 105.452 14.0528C106.036 14.0528 106.496 13.8728 106.832 13.5128C107.168 13.1528 107.336 12.6288 107.336 11.9408V8.32878H108.428ZM113.476 8.20878C114.276 8.20878 114.924 8.45278 115.42 8.94079C115.916 9.42079 116.164 10.1168 116.164 11.0288V14.9048H115.084V11.1848C115.084 10.5288 114.92 10.0288 114.592 9.68478C114.264 9.33278 113.816 9.15678 113.248 9.15678C112.672 9.15678 112.212 9.33678 111.868 9.69678C111.532 10.0568 111.364 10.5808 111.364 11.2688V14.9048H110.272V8.32878H111.364V9.26478C111.58 8.92878 111.872 8.66878 112.24 8.48478C112.616 8.30078 113.028 8.20878 113.476 8.20878ZM119.279 9.22878V13.1048C119.279 13.4248 119.347 13.6528 119.483 13.7888C119.619 13.9168 119.855 13.9808 120.191 13.9808H120.995V14.9048H120.011C119.403 14.9048 118.947 14.7648 118.643 14.4848C118.339 14.2048 118.187 13.7448 118.187 13.1048V9.22878H117.335V8.32878H118.187V6.67278H119.279V8.32878H120.995V9.22878H119.279Z" fill="#7B6F72"/>
<path d="M268.375 5.71419L273.625 11.0475L268.375 16.3809" stroke="#7B6F72" stroke-width="1.2" stroke-linecap="round" stroke-linejoin="round"/>
<path fill-rule="evenodd" clip-rule="evenodd" d="M14.3982 12.647C14.9605 12.647 15.4324 13.1184 15.3465 13.6825C14.8421 17.001 12.0456 19.4649 8.6728 19.4649C4.94122 19.4649 1.91666 16.3923 1.91666 12.6024C1.91666 9.47995 4.25174 6.57135 6.88069 5.9137C7.4456 5.77201 8.02455 6.17569 8.02455 6.7665C8.02455 10.7694 8.15701 11.8049 8.90525 12.3681C9.6535 12.9312 10.5333 12.647 14.3982 12.647Z" stroke="url(#paint0_linear_3_3192)" stroke-width="1.2" stroke-linecap="round" stroke-linejoin="round"/>
<path fill-rule="evenodd" clip-rule="evenodd" d="M18.0771 9.3136C18.1218 6.74184 15.0122 2.59637 11.2227 2.66766C10.928 2.673 10.692 2.92251 10.6788 3.22104C10.5832 5.33566 10.7122 8.07584 10.7841 9.31806C10.806 9.7048 11.1052 10.0087 11.485 10.031C12.742 10.104 15.5376 10.2038 17.5894 9.88837C17.8683 9.8456 18.0727 9.59965 18.0771 9.3136Z" stroke="url(#paint1_linear_3_3192)" stroke-width="1.2" stroke-linecap="round" stroke-linejoin="round"/>
<defs>
<linearGradient id="paint0_linear_3_3192" x1="15.3566" y1="19.4649" x2="-2.55826" y2="18.0929" gradientUnits="userSpaceOnUse">
<stop stop-color="#7EA8BB"/>
<stop offset="1" stop-color="#98B9CD"/>
</linearGradient>
<linearGradient id="paint1_linear_3_3192" x1="18.0776" y1="10.1058" x2="8.17117" y2="9.3399" gradientUnits="userSpaceOnUse">
<stop stop-color="#7EA8BB"/>
<stop offset="1" stop-color="#98B9CD"/>
</linearGradient>
</defs>
</svg>
