<svg width="280" height="21" viewBox="0 0 280 21" fill="none" xmlns="http://www.w3.org/2000/svg">
<path d="M13.0968 14.1467H7.08017" stroke="url(#paint0_linear_3_3178)" stroke-width="1.2" stroke-linecap="round" stroke-linejoin="round"/>
<path d="M13.0968 10.6025H7.08017" stroke="url(#paint1_linear_3_3178)" stroke-width="1.2" stroke-linecap="round" stroke-linejoin="round"/>
<path d="M9.37606 7.06659H7.08023" stroke="url(#paint2_linear_3_3178)" stroke-width="1.2" stroke-linecap="round" stroke-linejoin="round"/>
<path fill-rule="evenodd" clip-rule="evenodd" d="M13.2572 2.74048C13.2572 2.74048 6.85965 2.74386 6.84965 2.74386C4.54965 2.75826 3.12549 4.29561 3.12549 6.64058V14.4256C3.12549 16.7824 4.56049 18.3257 6.88049 18.3257C6.88049 18.3257 13.2772 18.3231 13.288 18.3231C15.588 18.3087 17.013 16.7705 17.013 14.4256V6.64058C17.013 4.28376 15.5772 2.74048 13.2572 2.74048Z" stroke="url(#paint3_linear_3_3178)" stroke-width="1.2" stroke-linecap="round" stroke-linejoin="round"/>
<path d="M32.016 13.5405H34.944V14.4285H30.924V6.06447H32.016V13.5405ZM38.9717 14.5365C38.3557 14.5365 37.7957 14.3965 37.2917 14.1165C36.7957 13.8365 36.4037 13.4405 36.1157 12.9285C35.8357 12.4085 35.6957 11.8085 35.6957 11.1285C35.6957 10.4565 35.8397 9.86447 36.1277 9.35247C36.4237 8.83247 36.8237 8.43647 37.3277 8.16447C37.8317 7.88447 38.3957 7.74447 39.0197 7.74447C39.6437 7.74447 40.2077 7.88447 40.7117 8.16447C41.2157 8.43647 41.6117 8.82847 41.8997 9.34047C42.1957 9.85247 42.3437 10.4485 42.3437 11.1285C42.3437 11.8085 42.1917 12.4085 41.8877 12.9285C41.5917 13.4405 41.1877 13.8365 40.6757 14.1165C40.1637 14.3965 39.5957 14.5365 38.9717 14.5365ZM38.9717 13.5765C39.3637 13.5765 39.7317 13.4845 40.0757 13.3005C40.4197 13.1165 40.6957 12.8405 40.9037 12.4725C41.1197 12.1045 41.2277 11.6565 41.2277 11.1285C41.2277 10.6005 41.1237 10.1525 40.9157 9.78447C40.7077 9.41647 40.4357 9.14447 40.0997 8.96847C39.7637 8.78447 39.3997 8.69247 39.0077 8.69247C38.6077 8.69247 38.2397 8.78447 37.9037 8.96847C37.5757 9.14447 37.3117 9.41647 37.1117 9.78447C36.9117 10.1525 36.8117 10.6005 36.8117 11.1285C36.8117 11.6645 36.9077 12.1165 37.0997 12.4845C37.2997 12.8525 37.5637 13.1285 37.8917 13.3125C38.2197 13.4885 38.5797 13.5765 38.9717 13.5765ZM46.4915 7.74447C47.0595 7.74447 47.5555 7.86847 47.9795 8.11647C48.4115 8.36447 48.7315 8.67647 48.9395 9.05247V7.85247H50.0435V14.5725C50.0435 15.1725 49.9155 15.7045 49.6595 16.1685C49.4035 16.6405 49.0355 17.0085 48.5555 17.2725C48.0835 17.5365 47.5315 17.6685 46.8995 17.6685C46.0355 17.6685 45.3155 17.4645 44.7395 17.0565C44.1635 16.6485 43.8235 16.0925 43.7195 15.3885H44.7995C44.9195 15.7885 45.1675 16.1085 45.5435 16.3485C45.9195 16.5965 46.3715 16.7205 46.8995 16.7205C47.4995 16.7205 47.9875 16.5325 48.3635 16.1565C48.7475 15.7805 48.9395 15.2525 48.9395 14.5725V13.1925C48.7235 13.5765 48.4035 13.8965 47.9795 14.1525C47.5555 14.4085 47.0595 14.5365 46.4915 14.5365C45.9075 14.5365 45.3755 14.3925 44.8955 14.1045C44.4235 13.8165 44.0515 13.4125 43.7795 12.8925C43.5075 12.3725 43.3715 11.7805 43.3715 11.1165C43.3715 10.4445 43.5075 9.85647 43.7795 9.35247C44.0515 8.84047 44.4235 8.44447 44.8955 8.16447C45.3755 7.88447 45.9075 7.74447 46.4915 7.74447ZM48.9395 11.1285C48.9395 10.6325 48.8395 10.2005 48.6395 9.83247C48.4395 9.46447 48.1675 9.18447 47.8235 8.99247C47.4875 8.79247 47.1155 8.69247 46.7075 8.69247C46.2995 8.69247 45.9275 8.78847 45.5915 8.98047C45.2555 9.17247 44.9875 9.45247 44.7875 9.82047C44.5875 10.1885 44.4875 10.6205 44.4875 11.1165C44.4875 11.6205 44.5875 12.0605 44.7875 12.4365C44.9875 12.8045 45.2555 13.0885 45.5915 13.2885C45.9275 13.4805 46.2995 13.5765 46.7075 13.5765C47.1155 13.5765 47.4875 13.4805 47.8235 13.2885C48.1675 13.0885 48.4395 12.8045 48.6395 12.4365C48.8395 12.0605 48.9395 11.6245 48.9395 11.1285ZM58.8801 14.5125C58.1041 14.5125 57.3961 14.3325 56.7561 13.9725C56.1161 13.6045 55.6081 13.0965 55.2321 12.4485C54.8641 11.7925 54.6801 11.0565 54.6801 10.2405C54.6801 9.42447 54.8641 8.69247 55.2321 8.04447C55.6081 7.38847 56.1161 6.88047 56.7561 6.52047C57.3961 6.15247 58.1041 5.96847 58.8801 5.96847C59.6641 5.96847 60.3761 6.15247 61.0161 6.52047C61.6561 6.88047 62.1601 7.38447 62.5281 8.03247C62.8961 8.68047 63.0801 9.41647 63.0801 10.2405C63.0801 11.0645 62.8961 11.8005 62.5281 12.4485C62.1601 13.0965 61.6561 13.6045 61.0161 13.9725C60.3761 14.3325 59.6641 14.5125 58.8801 14.5125ZM58.8801 13.5645C59.4641 13.5645 59.9881 13.4285 60.4521 13.1565C60.9241 12.8845 61.2921 12.4965 61.5561 11.9925C61.8281 11.4885 61.9641 10.9045 61.9641 10.2405C61.9641 9.56847 61.8281 8.98447 61.5561 8.48847C61.2921 7.98447 60.9281 7.59647 60.4641 7.32447C60.0001 7.05247 59.4721 6.91647 58.8801 6.91647C58.2881 6.91647 57.7601 7.05247 57.2961 7.32447C56.8321 7.59647 56.4641 7.98447 56.1921 8.48847C55.9281 8.98447 55.7961 9.56847 55.7961 10.2405C55.7961 10.9045 55.9281 11.4885 56.1921 11.9925C56.4641 12.4965 56.8321 12.8845 57.2961 13.1565C57.7681 13.4285 58.2961 13.5645 58.8801 13.5645ZM70.3537 7.85247V14.4285H69.2617V13.4565C69.0537 13.7925 68.7617 14.0565 68.3857 14.2485C68.0177 14.4325 67.6097 14.5245 67.1617 14.5245C66.6497 14.5245 66.1897 14.4205 65.7817 14.2125C65.3737 13.9965 65.0497 13.6765 64.8097 13.2525C64.5777 12.8285 64.4617 12.3125 64.4617 11.7045V7.85247H65.5417V11.5605C65.5417 12.2085 65.7057 12.7085 66.0337 13.0605C66.3617 13.4045 66.8097 13.5765 67.3777 13.5765C67.9617 13.5765 68.4217 13.3965 68.7577 13.0365C69.0937 12.6765 69.2617 12.1525 69.2617 11.4645V7.85247H70.3537ZM73.5294 8.75247V12.6285C73.5294 12.9485 73.5974 13.1765 73.7334 13.3125C73.8694 13.4405 74.1054 13.5045 74.4414 13.5045H75.2454V14.4285H74.2614C73.6534 14.4285 73.1974 14.2885 72.8934 14.0085C72.5894 13.7285 72.4374 13.2685 72.4374 12.6285V8.75247H71.5854V7.85247H72.4374V6.19647H73.5294V7.85247H75.2454V8.75247H73.5294Z" fill="#7B6F72"/>
<path d="M268.375 5.23787L273.625 10.5712L268.375 15.9045" stroke="#7B6F72" stroke-width="1.2" stroke-linecap="round" stroke-linejoin="round"/>
<defs>
<linearGradient id="paint0_linear_3_3178" x1="13.0968" y1="14.5699" x2="6.90317" y2="11.1637" gradientUnits="userSpaceOnUse">
<stop stop-color="#7EA8BB"/>
<stop offset="1" stop-color="#98B9CD"/>
</linearGradient>
<linearGradient id="paint1_linear_3_3178" x1="13.0968" y1="11.0258" x2="6.90317" y2="7.61948" gradientUnits="userSpaceOnUse">
<stop stop-color="#7EA8BB"/>
<stop offset="1" stop-color="#98B9CD"/>
</linearGradient>
<linearGradient id="paint2_linear_3_3178" x1="9.37606" y1="7.48987" x2="6.42771" y2="6.87115" gradientUnits="userSpaceOnUse">
<stop stop-color="#7EA8BB"/>
<stop offset="1" stop-color="#98B9CD"/>
</linearGradient>
<linearGradient id="paint3_linear_3_3178" x1="17.013" y1="18.3257" x2="-1.5189" y2="17.0479" gradientUnits="userSpaceOnUse">
<stop stop-color="#7EA8BB"/>
<stop offset="1" stop-color="#98B9CD"/>
</linearGradient>
</defs>
</svg>
