<svg width="310" height="62" viewBox="0 0 310 62" fill="none" xmlns="http://www.w3.org/2000/svg">
<path d="M5.73497 18.229L305.857 18.2291" stroke="#ADA4A5"/>
<path d="M4.03148 37.7003L303.945 38.3598" stroke="#ADA4A5"/>
<path d="M31.4249 38.6195L284.161 38.6144" stroke="#C6BDBF" stroke-width="2" stroke-linecap="round"/>
<path d="M31.4249 18.2677L284.001 18.2624" stroke="#C6BDBF" stroke-width="2" stroke-linecap="round"/>
<line x1="30.841" y1="19.6206" x2="30.841" y2="37.2576" stroke="#C6BDBF" stroke-width="0.5"/>
<line x1="30.5857" y1="23.7889" x2="282.918" y2="23.7889" stroke="#C6BDBF" stroke-width="0.5"/>
<line x1="30.5857" y1="21.5848" x2="282.918" y2="21.5848" stroke="#C6BDBF" stroke-width="0.5"/>
<line x1="30.5857" y1="34.8121" x2="282.918" y2="34.8121" stroke="#C6BDBF" stroke-width="0.5"/>
<line x1="30.5857" y1="25.9937" x2="282.918" y2="25.9937" stroke="#C6BDBF" stroke-width="0.5"/>
<line x1="30.5857" y1="28.1983" x2="282.918" y2="28.1983" stroke="#C6BDBF" stroke-width="0.5"/>
<line x1="30.5857" y1="30.4029" x2="282.918" y2="30.4029" stroke="#C6BDBF" stroke-width="0.5"/>
<line x1="30.5857" y1="32.6077" x2="282.918" y2="32.6077" stroke="#C6BDBF" stroke-width="0.5"/>
<line x1="157.007" y1="19.6218" x2="157.007" y2="37.2588" stroke="#C6BDBF" stroke-width="0.5"/>
<line x1="145.537" y1="19.6218" x2="145.537" y2="37.2588" stroke="#C6BDBF" stroke-width="0.5"/>
<line x1="134.067" y1="19.6218" x2="134.067" y2="37.2588" stroke="#C6BDBF" stroke-width="0.5"/>
<line x1="122.598" y1="19.6218" x2="122.598" y2="37.2588" stroke="#C6BDBF" stroke-width="0.5"/>
<line x1="111.128" y1="19.6218" x2="111.128" y2="37.2588" stroke="#C6BDBF" stroke-width="0.5"/>
<line x1="99.6583" y1="19.6218" x2="99.6583" y2="37.2588" stroke="#C6BDBF" stroke-width="0.5"/>
<line x1="88.1887" y1="19.6218" x2="88.1887" y2="37.2588" stroke="#C6BDBF" stroke-width="0.5"/>
<line x1="76.7192" y1="19.6218" x2="76.7192" y2="37.2588" stroke="#C6BDBF" stroke-width="0.5"/>
<line x1="248.764" y1="19.6218" x2="248.764" y2="37.2588" stroke="#C6BDBF" stroke-width="0.5"/>
<line x1="237.294" y1="19.6218" x2="237.294" y2="37.2588" stroke="#C6BDBF" stroke-width="0.5"/>
<line x1="225.824" y1="19.6218" x2="225.824" y2="37.2588" stroke="#C6BDBF" stroke-width="0.5"/>
<line x1="283.173" y1="19.6218" x2="283.173" y2="37.2588" stroke="#C6BDBF" stroke-width="0.5"/>
<line x1="271.703" y1="19.6218" x2="271.703" y2="37.2588" stroke="#C6BDBF" stroke-width="0.5"/>
<line x1="260.233" y1="19.6218" x2="260.233" y2="37.2588" stroke="#C6BDBF" stroke-width="0.5"/>
<line x1="214.355" y1="19.6218" x2="214.355" y2="37.2588" stroke="#C6BDBF" stroke-width="0.5"/>
<line x1="202.885" y1="19.6218" x2="202.885" y2="37.2588" stroke="#C6BDBF" stroke-width="0.5"/>
<line x1="191.416" y1="19.6218" x2="191.416" y2="37.2588" stroke="#C6BDBF" stroke-width="0.5"/>
<line x1="179.946" y1="19.6218" x2="179.946" y2="37.2588" stroke="#C6BDBF" stroke-width="0.5"/>
<line x1="168.476" y1="19.6218" x2="168.476" y2="37.2588" stroke="#C6BDBF" stroke-width="0.5"/>
<line x1="65.2493" y1="17.417" x2="65.2493" y2="37.2586" stroke="#C6BDBF" stroke-width="0.5"/>
<line x1="53.7798" y1="17.417" x2="53.7798" y2="37.2586" stroke="#C6BDBF" stroke-width="0.5"/>
<line y1="-0.25" x2="19.548" y2="-0.25" transform="matrix(-0.00430936 0.961354 -1.02151 -0.0015226 42.1392 18.4658)" stroke="#C6BDBF" stroke-width="0.5"/>
<rect x="298.211" y="39.6196" width="11.7894" height="21.01" fill="#3B5E69"/>
<ellipse cx="304.105" cy="60.6297" rx="5.8947" ry="1.37022" fill="#3B5E69"/>
<path d="M310 39.6197C310 40.3765 307.361 40.9899 304.105 40.9899C300.85 40.9899 298.211 40.3765 298.211 39.6197C298.211 38.863 300.85 38.2495 304.105 38.2495C307.361 38.2495 310 38.863 310 39.6197Z" fill="#98B9CD"/>
<rect x="301.158" y="17.9324" width="5.8947" height="21.4652" fill="#3B5E69"/>
<ellipse cx="304.105" cy="39.4749" rx="2.94735" ry="0.441185" fill="#3B5E69"/>
<path d="M307.053 17.857C307.053 18.1006 305.733 18.2981 304.105 18.2981C302.477 18.2981 301.158 18.1006 301.158 17.857C301.158 17.6133 302.477 17.4158 304.105 17.4158C305.733 17.4158 307.053 17.6133 307.053 17.857Z" fill="#98B9CD"/>
<rect y="38.9399" width="11.7894" height="19.8944" fill="#3B5E69"/>
<ellipse cx="5.8947" cy="58.8338" rx="5.8947" ry="1.29746" fill="#3B5E69"/>
<path d="M11.7894 38.9396C11.7894 39.6561 9.15025 40.237 5.8947 40.237C2.63915 40.237 0 39.6561 0 38.9396C0 38.223 2.63915 37.6421 5.8947 37.6421C9.15025 37.6421 11.7894 38.223 11.7894 38.9396Z" fill="#98B9CD"/>
<rect x="2.94739" y="18.405" width="5.8947" height="20.3255" fill="#3B5E69"/>
<ellipse cx="5.89474" cy="38.8035" rx="2.94735" ry="0.417759" fill="#3B5E69"/>
<path d="M8.84209 18.3326C8.84209 18.5633 7.52251 18.7503 5.89474 18.7503C4.26696 18.7503 2.94739 18.5633 2.94739 18.3326C2.94739 18.1018 4.26696 17.9148 5.89474 17.9148C7.52251 17.9148 8.84209 18.1018 8.84209 18.3326Z" fill="#98B9CD"/>
</svg>
