<svg width="375" height="812" viewBox="0 0 375 812" fill="none" xmlns="http://www.w3.org/2000/svg">
<rect width="375" height="812" rx="40" fill="white"/>
<path d="M43.608 479.152V482.44H39.144V496H35.04V482.44H30.576V479.152H43.608ZM49.7717 484.84C50.2517 484.104 50.8517 483.528 51.5717 483.112C52.2917 482.68 53.0917 482.464 53.9717 482.464V486.808H52.8437C51.8197 486.808 51.0517 487.032 50.5397 487.48C50.0277 487.912 49.7717 488.68 49.7717 489.784V496H45.6677V482.608H49.7717V484.84ZM55.1173 489.28C55.1173 487.904 55.3733 486.696 55.8853 485.656C56.4133 484.616 57.1253 483.816 58.0213 483.256C58.9173 482.696 59.9173 482.416 61.0213 482.416C61.9653 482.416 62.7893 482.608 63.4933 482.992C64.2133 483.376 64.7653 483.88 65.1493 484.504V482.608H69.2533V496H65.1493V494.104C64.7493 494.728 64.1893 495.232 63.4693 495.616C62.7653 496 61.9413 496.192 60.9973 496.192C59.9093 496.192 58.9173 495.912 58.0213 495.352C57.1253 494.776 56.4133 493.968 55.8853 492.928C55.3733 491.872 55.1173 490.656 55.1173 489.28ZM65.1493 489.304C65.1493 488.28 64.8613 487.472 64.2853 486.88C63.7253 486.288 63.0373 485.992 62.2213 485.992C61.4053 485.992 60.7093 486.288 60.1333 486.88C59.5733 487.456 59.2933 488.256 59.2933 489.28C59.2933 490.304 59.5733 491.12 60.1333 491.728C60.7093 492.32 61.4053 492.616 62.2213 492.616C63.0373 492.616 63.7253 492.32 64.2853 491.728C64.8613 491.136 65.1493 490.328 65.1493 489.304ZM71.4064 489.304C71.4064 487.912 71.6864 486.696 72.2464 485.656C72.8224 484.616 73.6144 483.816 74.6224 483.256C75.6464 482.696 76.8144 482.416 78.1264 482.416C79.8064 482.416 81.2064 482.856 82.3264 483.736C83.4624 484.616 84.2064 485.856 84.5584 487.456H80.1904C79.8224 486.432 79.1104 485.92 78.0544 485.92C77.3024 485.92 76.7024 486.216 76.2544 486.808C75.8064 487.384 75.5824 488.216 75.5824 489.304C75.5824 490.392 75.8064 491.232 76.2544 491.824C76.7024 492.4 77.3024 492.688 78.0544 492.688C79.1104 492.688 79.8224 492.176 80.1904 491.152H84.5584C84.2064 492.72 83.4624 493.952 82.3264 494.848C81.1904 495.744 79.7904 496.192 78.1264 496.192C76.8144 496.192 75.6464 495.912 74.6224 495.352C73.6144 494.792 72.8224 493.992 72.2464 492.952C71.6864 491.912 71.4064 490.696 71.4064 489.304ZM94.9376 496L90.8576 490.384V496H86.7536V478.24H90.8576V488.056L94.9136 482.608H99.9776L94.4096 489.328L100.026 496H94.9376ZM121.124 479.152L115.292 490.432V496H111.188V490.432L105.356 479.152H110.012L113.276 486.208L116.516 479.152H121.124ZM128.873 496.192C127.561 496.192 126.377 495.912 125.321 495.352C124.281 494.792 123.457 493.992 122.849 492.952C122.257 491.912 121.961 490.696 121.961 489.304C121.961 487.928 122.265 486.72 122.873 485.68C123.481 484.624 124.313 483.816 125.369 483.256C126.425 482.696 127.609 482.416 128.921 482.416C130.233 482.416 131.417 482.696 132.473 483.256C133.529 483.816 134.361 484.624 134.969 485.68C135.577 486.72 135.881 487.928 135.881 489.304C135.881 490.68 135.569 491.896 134.945 492.952C134.337 493.992 133.497 494.792 132.425 495.352C131.369 495.912 130.185 496.192 128.873 496.192ZM128.873 492.64C129.657 492.64 130.321 492.352 130.865 491.776C131.425 491.2 131.705 490.376 131.705 489.304C131.705 488.232 131.433 487.408 130.889 486.832C130.361 486.256 129.705 485.968 128.921 485.968C128.121 485.968 127.457 486.256 126.929 486.832C126.401 487.392 126.137 488.216 126.137 489.304C126.137 490.376 126.393 491.2 126.905 491.776C127.433 492.352 128.089 492.64 128.873 492.64ZM151.282 482.608V496H147.178V494.176C146.762 494.768 146.194 495.248 145.474 495.616C144.77 495.968 143.986 496.144 143.122 496.144C142.098 496.144 141.194 495.92 140.41 495.472C139.626 495.008 139.018 494.344 138.586 493.48C138.154 492.616 137.938 491.6 137.938 490.432V482.608H142.018V489.88C142.018 490.776 142.25 491.472 142.714 491.968C143.178 492.464 143.802 492.712 144.586 492.712C145.386 492.712 146.018 492.464 146.482 491.968C146.946 491.472 147.178 490.776 147.178 489.88V482.608H151.282ZM158.334 484.84C158.814 484.104 159.414 483.528 160.134 483.112C160.854 482.68 161.654 482.464 162.534 482.464V486.808H161.406C160.382 486.808 159.614 487.032 159.102 487.48C158.59 487.912 158.334 488.68 158.334 489.784V496H154.23V482.608H158.334V484.84ZM182.422 484.576C182.422 485.552 182.198 486.448 181.75 487.264C181.302 488.064 180.614 488.712 179.686 489.208C178.758 489.704 177.606 489.952 176.23 489.952H173.686V496H169.582V479.152H176.23C177.574 479.152 178.71 479.384 179.638 479.848C180.566 480.312 181.262 480.952 181.726 481.768C182.19 482.584 182.422 483.52 182.422 484.576ZM175.918 486.688C176.702 486.688 177.286 486.504 177.67 486.136C178.054 485.768 178.246 485.248 178.246 484.576C178.246 483.904 178.054 483.384 177.67 483.016C177.286 482.648 176.702 482.464 175.918 482.464H173.686V486.688H175.918ZM188.662 484.84C189.142 484.104 189.742 483.528 190.462 483.112C191.182 482.68 191.982 482.464 192.862 482.464V486.808H191.734C190.71 486.808 189.942 487.032 189.43 487.48C188.918 487.912 188.662 488.68 188.662 489.784V496H184.558V482.608H188.662V484.84ZM200.92 496.192C199.608 496.192 198.424 495.912 197.368 495.352C196.328 494.792 195.504 493.992 194.896 492.952C194.304 491.912 194.008 490.696 194.008 489.304C194.008 487.928 194.312 486.72 194.92 485.68C195.528 484.624 196.36 483.816 197.416 483.256C198.472 482.696 199.656 482.416 200.968 482.416C202.28 482.416 203.464 482.696 204.52 483.256C205.576 483.816 206.408 484.624 207.016 485.68C207.624 486.72 207.928 487.928 207.928 489.304C207.928 490.68 207.616 491.896 206.992 492.952C206.384 493.992 205.544 494.792 204.472 495.352C203.416 495.912 202.232 496.192 200.92 496.192ZM200.92 492.64C201.704 492.64 202.368 492.352 202.912 491.776C203.472 491.2 203.752 490.376 203.752 489.304C203.752 488.232 203.48 487.408 202.936 486.832C202.408 486.256 201.752 485.968 200.968 485.968C200.168 485.968 199.504 486.256 198.976 486.832C198.448 487.392 198.184 488.216 198.184 489.304C198.184 490.376 198.44 491.2 198.952 491.776C199.48 492.352 200.136 492.64 200.92 492.64ZM215.193 482.416C216.137 482.416 216.961 482.608 217.665 482.992C218.385 483.376 218.937 483.88 219.321 484.504V482.608H223.425V495.976C223.425 497.208 223.177 498.32 222.681 499.312C222.201 500.32 221.457 501.12 220.449 501.712C219.457 502.304 218.217 502.6 216.729 502.6C214.745 502.6 213.137 502.128 211.905 501.184C210.673 500.256 209.969 498.992 209.793 497.392H213.849C213.977 497.904 214.281 498.304 214.761 498.592C215.241 498.896 215.833 499.048 216.537 499.048C217.385 499.048 218.057 498.8 218.553 498.304C219.065 497.824 219.321 497.048 219.321 495.976V494.08C218.921 494.704 218.369 495.216 217.665 495.616C216.961 496 216.137 496.192 215.193 496.192C214.089 496.192 213.089 495.912 212.193 495.352C211.297 494.776 210.585 493.968 210.057 492.928C209.545 491.872 209.289 490.656 209.289 489.28C209.289 487.904 209.545 486.696 210.057 485.656C210.585 484.616 211.297 483.816 212.193 483.256C213.089 482.696 214.089 482.416 215.193 482.416ZM219.321 489.304C219.321 488.28 219.033 487.472 218.457 486.88C217.897 486.288 217.209 485.992 216.393 485.992C215.577 485.992 214.881 486.288 214.305 486.88C213.745 487.456 213.465 488.256 213.465 489.28C213.465 490.304 213.745 491.12 214.305 491.728C214.881 492.32 215.577 492.616 216.393 492.616C217.209 492.616 217.897 492.32 218.457 491.728C219.033 491.136 219.321 490.328 219.321 489.304ZM230.498 484.84C230.978 484.104 231.578 483.528 232.298 483.112C233.018 482.68 233.818 482.464 234.698 482.464V486.808H233.57C232.546 486.808 231.778 487.032 231.266 487.48C230.754 487.912 230.498 488.68 230.498 489.784V496H226.394V482.608H230.498V484.84ZM249.284 489.088C249.284 489.472 249.26 489.872 249.212 490.288H239.924C239.988 491.12 240.252 491.76 240.716 492.208C241.196 492.64 241.78 492.856 242.468 492.856C243.492 492.856 244.204 492.424 244.604 491.56H248.972C248.748 492.44 248.34 493.232 247.748 493.936C247.172 494.64 246.444 495.192 245.564 495.592C244.684 495.992 243.7 496.192 242.612 496.192C241.3 496.192 240.132 495.912 239.108 495.352C238.084 494.792 237.284 493.992 236.708 492.952C236.132 491.912 235.844 490.696 235.844 489.304C235.844 487.912 236.124 486.696 236.684 485.656C237.26 484.616 238.06 483.816 239.084 483.256C240.108 482.696 241.284 482.416 242.612 482.416C243.908 482.416 245.06 482.688 246.068 483.232C247.076 483.776 247.86 484.552 248.42 485.56C248.996 486.568 249.284 487.744 249.284 489.088ZM245.084 488.008C245.084 487.304 244.844 486.744 244.364 486.328C243.884 485.912 243.284 485.704 242.564 485.704C241.876 485.704 241.292 485.904 240.812 486.304C240.348 486.704 240.06 487.272 239.948 488.008H245.084ZM256.897 496.192C255.729 496.192 254.689 495.992 253.777 495.592C252.865 495.192 252.145 494.648 251.617 493.96C251.089 493.256 250.793 492.472 250.729 491.608H254.785C254.833 492.072 255.049 492.448 255.433 492.736C255.817 493.024 256.289 493.168 256.849 493.168C257.361 493.168 257.753 493.072 258.025 492.88C258.313 492.672 258.457 492.408 258.457 492.088C258.457 491.704 258.257 491.424 257.857 491.248C257.457 491.056 256.809 490.848 255.913 490.624C254.953 490.4 254.153 490.168 253.513 489.928C252.873 489.672 252.321 489.28 251.857 488.752C251.393 488.208 251.161 487.48 251.161 486.568C251.161 485.8 251.369 485.104 251.785 484.48C252.217 483.84 252.841 483.336 253.657 482.968C254.489 482.6 255.473 482.416 256.609 482.416C258.289 482.416 259.609 482.832 260.569 483.664C261.545 484.496 262.105 485.6 262.249 486.976H258.457C258.393 486.512 258.185 486.144 257.833 485.872C257.497 485.6 257.049 485.464 256.489 485.464C256.009 485.464 255.641 485.56 255.385 485.752C255.129 485.928 255.001 486.176 255.001 486.496C255.001 486.88 255.201 487.168 255.601 487.36C256.017 487.552 256.657 487.744 257.521 487.936C258.513 488.192 259.321 488.448 259.945 488.704C260.569 488.944 261.113 489.344 261.577 489.904C262.057 490.448 262.305 491.184 262.321 492.112C262.321 492.896 262.097 493.6 261.649 494.224C261.217 494.832 260.585 495.312 259.753 495.664C258.937 496.016 257.985 496.192 256.897 496.192ZM270.28 496.192C269.112 496.192 268.072 495.992 267.16 495.592C266.248 495.192 265.528 494.648 265 493.96C264.472 493.256 264.176 492.472 264.112 491.608H268.168C268.216 492.072 268.432 492.448 268.816 492.736C269.2 493.024 269.672 493.168 270.232 493.168C270.744 493.168 271.136 493.072 271.408 492.88C271.696 492.672 271.84 492.408 271.84 492.088C271.84 491.704 271.64 491.424 271.24 491.248C270.84 491.056 270.192 490.848 269.296 490.624C268.336 490.4 267.536 490.168 266.896 489.928C266.256 489.672 265.704 489.28 265.24 488.752C264.776 488.208 264.544 487.48 264.544 486.568C264.544 485.8 264.752 485.104 265.168 484.48C265.6 483.84 266.224 483.336 267.04 482.968C267.872 482.6 268.856 482.416 269.992 482.416C271.672 482.416 272.992 482.832 273.952 483.664C274.928 484.496 275.488 485.6 275.632 486.976H271.84C271.776 486.512 271.568 486.144 271.216 485.872C270.88 485.6 270.432 485.464 269.872 485.464C269.392 485.464 269.024 485.56 268.768 485.752C268.512 485.928 268.384 486.176 268.384 486.496C268.384 486.88 268.584 487.168 268.984 487.36C269.4 487.552 270.04 487.744 270.904 487.936C271.896 488.192 272.704 488.448 273.328 488.704C273.952 488.944 274.496 489.344 274.96 489.904C275.44 490.448 275.688 491.184 275.704 492.112C275.704 492.896 275.48 493.6 275.032 494.224C274.6 494.832 273.968 495.312 273.136 495.664C272.32 496.016 271.368 496.192 270.28 496.192Z" fill="#1D1617"/>
<path d="M36.37 536L32.352 531.548V536H31.078V526.242H32.352V530.764L36.384 526.242H37.994L33.57 531.128L38.036 536H36.37ZM46.4589 531.87C46.4589 532.113 46.4449 532.369 46.4169 532.64H40.2849C40.3315 533.396 40.5882 533.989 41.0549 534.418C41.5309 534.838 42.1049 535.048 42.7769 535.048C43.3275 535.048 43.7849 534.922 44.1489 534.67C44.5222 534.409 44.7835 534.063 44.9329 533.634H46.3049C46.0995 534.371 45.6889 534.973 45.0729 535.44C44.4569 535.897 43.6915 536.126 42.7769 536.126C42.0489 536.126 41.3955 535.963 40.8169 535.636C40.2475 535.309 39.7995 534.847 39.4729 534.25C39.1462 533.643 38.9829 532.943 38.9829 532.15C38.9829 531.357 39.1415 530.661 39.4589 530.064C39.7762 529.467 40.2195 529.009 40.7889 528.692C41.3675 528.365 42.0302 528.202 42.7769 528.202C43.5049 528.202 44.1489 528.361 44.7089 528.678C45.2689 528.995 45.6982 529.434 45.9969 529.994C46.3049 530.545 46.4589 531.17 46.4589 531.87ZM45.1429 531.604C45.1429 531.119 45.0355 530.703 44.8209 530.358C44.6062 530.003 44.3122 529.737 43.9389 529.56C43.5749 529.373 43.1689 529.28 42.7209 529.28C42.0769 529.28 41.5262 529.485 41.0689 529.896C40.6209 530.307 40.3642 530.876 40.2989 531.604H45.1429ZM55.1405 531.87C55.1405 532.113 55.1265 532.369 55.0985 532.64H48.9665C49.0132 533.396 49.2698 533.989 49.7365 534.418C50.2125 534.838 50.7865 535.048 51.4585 535.048C52.0092 535.048 52.4665 534.922 52.8305 534.67C53.2038 534.409 53.4652 534.063 53.6145 533.634H54.9865C54.7812 534.371 54.3705 534.973 53.7545 535.44C53.1385 535.897 52.3732 536.126 51.4585 536.126C50.7305 536.126 50.0772 535.963 49.4985 535.636C48.9292 535.309 48.4812 534.847 48.1545 534.25C47.8278 533.643 47.6645 532.943 47.6645 532.15C47.6645 531.357 47.8232 530.661 48.1405 530.064C48.4578 529.467 48.9012 529.009 49.4705 528.692C50.0492 528.365 50.7118 528.202 51.4585 528.202C52.1865 528.202 52.8305 528.361 53.3905 528.678C53.9505 528.995 54.3798 529.434 54.6785 529.994C54.9865 530.545 55.1405 531.17 55.1405 531.87ZM53.8245 531.604C53.8245 531.119 53.7172 530.703 53.5025 530.358C53.2878 530.003 52.9938 529.737 52.6205 529.56C52.2565 529.373 51.8505 529.28 51.4025 529.28C50.7585 529.28 50.2078 529.485 49.7505 529.896C49.3025 530.307 49.0458 530.876 48.9805 531.604H53.8245ZM58.0961 529.742C58.3481 529.303 58.7215 528.939 59.2161 528.65C59.7201 528.351 60.3035 528.202 60.9661 528.202C61.6475 528.202 62.2635 528.365 62.8141 528.692C63.3741 529.019 63.8128 529.481 64.1301 530.078C64.4475 530.666 64.6061 531.352 64.6061 532.136C64.6061 532.911 64.4475 533.601 64.1301 534.208C63.8128 534.815 63.3741 535.286 62.8141 535.622C62.2635 535.958 61.6475 536.126 60.9661 536.126C60.3128 536.126 59.7341 535.981 59.2301 535.692C58.7355 535.393 58.3575 535.025 58.0961 534.586V539.64H56.8221V528.328H58.0961V529.742ZM63.3041 532.136C63.3041 531.557 63.1875 531.053 62.9541 530.624C62.7208 530.195 62.4035 529.868 62.0021 529.644C61.6101 529.42 61.1761 529.308 60.7001 529.308C60.2335 529.308 59.7995 529.425 59.3981 529.658C59.0061 529.882 58.6888 530.213 58.4461 530.652C58.2128 531.081 58.0961 531.581 58.0961 532.15C58.0961 532.729 58.2128 533.237 58.4461 533.676C58.6888 534.105 59.0061 534.437 59.3981 534.67C59.7995 534.894 60.2335 535.006 60.7001 535.006C61.1761 535.006 61.6101 534.894 62.0021 534.67C62.4035 534.437 62.7208 534.105 62.9541 533.676C63.1875 533.237 63.3041 532.724 63.3041 532.136ZM71.5695 529.378V533.9C71.5695 534.273 71.6488 534.539 71.8075 534.698C71.9662 534.847 72.2415 534.922 72.6335 534.922H73.5715V536H72.4235C71.7142 536 71.1822 535.837 70.8275 535.51C70.4728 535.183 70.2955 534.647 70.2955 533.9V529.378H69.3015V528.328H70.2955V526.396H71.5695V528.328H73.5715V529.378H71.5695ZM76.3891 529.574C76.6131 529.135 76.9304 528.795 77.3411 528.552C77.7611 528.309 78.2698 528.188 78.8671 528.188V529.504H78.5311C77.1031 529.504 76.3891 530.279 76.3891 531.828V536H75.1151V528.328H76.3891V529.574ZM79.8618 532.136C79.8618 531.352 80.0204 530.666 80.3378 530.078C80.6551 529.481 81.0891 529.019 81.6398 528.692C82.1998 528.365 82.8204 528.202 83.5018 528.202C84.1738 528.202 84.7571 528.347 85.2518 528.636C85.7464 528.925 86.1151 529.289 86.3578 529.728V528.328H87.6458V536H86.3578V534.572C86.1058 535.02 85.7278 535.393 85.2238 535.692C84.7291 535.981 84.1504 536.126 83.4878 536.126C82.8064 536.126 82.1904 535.958 81.6398 535.622C81.0891 535.286 80.6551 534.815 80.3378 534.208C80.0204 533.601 79.8618 532.911 79.8618 532.136ZM86.3578 532.15C86.3578 531.571 86.2411 531.067 86.0078 530.638C85.7744 530.209 85.4571 529.882 85.0558 529.658C84.6638 529.425 84.2298 529.308 83.7538 529.308C83.2778 529.308 82.8438 529.42 82.4518 529.644C82.0598 529.868 81.7471 530.195 81.5138 530.624C81.2804 531.053 81.1638 531.557 81.1638 532.136C81.1638 532.724 81.2804 533.237 81.5138 533.676C81.7471 534.105 82.0598 534.437 82.4518 534.67C82.8438 534.894 83.2778 535.006 83.7538 535.006C84.2298 535.006 84.6638 534.894 85.0558 534.67C85.4571 534.437 85.7744 534.105 86.0078 533.676C86.2411 533.237 86.3578 532.729 86.3578 532.15ZM89.3227 532.15C89.3227 531.357 89.4814 530.666 89.7987 530.078C90.116 529.481 90.5547 529.019 91.1147 528.692C91.684 528.365 92.3327 528.202 93.0607 528.202C94.0034 528.202 94.778 528.431 95.3847 528.888C96.0007 529.345 96.4067 529.98 96.6027 530.792H95.2307C95.1 530.325 94.8434 529.957 94.4607 529.686C94.0874 529.415 93.6207 529.28 93.0607 529.28C92.3327 529.28 91.7447 529.532 91.2967 530.036C90.8487 530.531 90.6247 531.235 90.6247 532.15C90.6247 533.074 90.8487 533.788 91.2967 534.292C91.7447 534.796 92.3327 535.048 93.0607 535.048C93.6207 535.048 94.0874 534.917 94.4607 534.656C94.834 534.395 95.0907 534.021 95.2307 533.536H96.6027C96.3974 534.32 95.9867 534.95 95.3707 535.426C94.7547 535.893 93.9847 536.126 93.0607 536.126C92.3327 536.126 91.684 535.963 91.1147 535.636C90.5547 535.309 90.116 534.847 89.7987 534.25C89.4814 533.653 89.3227 532.953 89.3227 532.15ZM102.587 536L99.5766 532.612V536H98.3026V525.64H99.5766V531.73L102.531 528.328H104.309L100.697 532.15L104.323 536H102.587ZM112.586 536.126C111.867 536.126 111.214 535.963 110.626 535.636C110.047 535.309 109.59 534.847 109.254 534.25C108.927 533.643 108.764 532.943 108.764 532.15C108.764 531.366 108.932 530.675 109.268 530.078C109.613 529.471 110.08 529.009 110.668 528.692C111.256 528.365 111.914 528.202 112.642 528.202C113.37 528.202 114.028 528.365 114.616 528.692C115.204 529.009 115.666 529.467 116.002 530.064C116.347 530.661 116.52 531.357 116.52 532.15C116.52 532.943 116.343 533.643 115.988 534.25C115.643 534.847 115.171 535.309 114.574 535.636C113.977 535.963 113.314 536.126 112.586 536.126ZM112.586 535.006C113.043 535.006 113.473 534.899 113.874 534.684C114.275 534.469 114.597 534.147 114.84 533.718C115.092 533.289 115.218 532.766 115.218 532.15C115.218 531.534 115.097 531.011 114.854 530.582C114.611 530.153 114.294 529.835 113.902 529.63C113.51 529.415 113.085 529.308 112.628 529.308C112.161 529.308 111.732 529.415 111.34 529.63C110.957 529.835 110.649 530.153 110.416 530.582C110.183 531.011 110.066 531.534 110.066 532.15C110.066 532.775 110.178 533.303 110.402 533.732C110.635 534.161 110.943 534.483 111.326 534.698C111.709 534.903 112.129 535.006 112.586 535.006ZM121.317 529.378H119.707V536H118.433V529.378H117.439V528.328H118.433V527.782C118.433 526.923 118.653 526.298 119.091 525.906C119.539 525.505 120.253 525.304 121.233 525.304V526.368C120.673 526.368 120.277 526.48 120.043 526.704C119.819 526.919 119.707 527.278 119.707 527.782V528.328H121.317V529.378ZM127.809 529.742C128.061 529.303 128.434 528.939 128.929 528.65C129.433 528.351 130.016 528.202 130.679 528.202C131.36 528.202 131.976 528.365 132.527 528.692C133.087 529.019 133.526 529.481 133.843 530.078C134.16 530.666 134.319 531.352 134.319 532.136C134.319 532.911 134.16 533.601 133.843 534.208C133.526 534.815 133.087 535.286 132.527 535.622C131.976 535.958 131.36 536.126 130.679 536.126C130.026 536.126 129.447 535.981 128.943 535.692C128.448 535.393 128.07 535.025 127.809 534.586V539.64H126.535V528.328H127.809V529.742ZM133.017 532.136C133.017 531.557 132.9 531.053 132.667 530.624C132.434 530.195 132.116 529.868 131.715 529.644C131.323 529.42 130.889 529.308 130.413 529.308C129.946 529.308 129.512 529.425 129.111 529.658C128.719 529.882 128.402 530.213 128.159 530.652C127.926 531.081 127.809 531.581 127.809 532.15C127.809 532.729 127.926 533.237 128.159 533.676C128.402 534.105 128.719 534.437 129.111 534.67C129.512 534.894 129.946 535.006 130.413 535.006C130.889 535.006 131.323 534.894 131.715 534.67C132.116 534.437 132.434 534.105 132.667 533.676C132.9 533.237 133.017 532.724 133.017 532.136ZM142.996 531.87C142.996 532.113 142.982 532.369 142.954 532.64H136.822C136.869 533.396 137.125 533.989 137.592 534.418C138.068 534.838 138.642 535.048 139.314 535.048C139.865 535.048 140.322 534.922 140.686 534.67C141.059 534.409 141.321 534.063 141.47 533.634H142.842C142.637 534.371 142.226 534.973 141.61 535.44C140.994 535.897 140.229 536.126 139.314 536.126C138.586 536.126 137.933 535.963 137.354 535.636C136.785 535.309 136.337 534.847 136.01 534.25C135.683 533.643 135.52 532.943 135.52 532.15C135.52 531.357 135.679 530.661 135.996 530.064C136.313 529.467 136.757 529.009 137.326 528.692C137.905 528.365 138.567 528.202 139.314 528.202C140.042 528.202 140.686 528.361 141.246 528.678C141.806 528.995 142.235 529.434 142.534 529.994C142.842 530.545 142.996 531.17 142.996 531.87ZM141.68 531.604C141.68 531.119 141.573 530.703 141.358 530.358C141.143 530.003 140.849 529.737 140.476 529.56C140.112 529.373 139.706 529.28 139.258 529.28C138.614 529.28 138.063 529.485 137.606 529.896C137.158 530.307 136.901 530.876 136.836 531.604H141.68ZM145.952 529.574C146.176 529.135 146.493 528.795 146.904 528.552C147.324 528.309 147.832 528.188 148.43 528.188V529.504H148.094C146.666 529.504 145.952 530.279 145.952 531.828V536H144.678V528.328H145.952V529.574ZM153.022 529.378H151.412V536H150.138V529.378H149.144V528.328H150.138V527.782C150.138 526.923 150.358 526.298 150.796 525.906C151.244 525.505 151.958 525.304 152.938 525.304V526.368C152.378 526.368 151.982 526.48 151.748 526.704C151.524 526.919 151.412 527.278 151.412 527.782V528.328H153.022V529.378ZM157.854 536.126C157.135 536.126 156.482 535.963 155.894 535.636C155.315 535.309 154.858 534.847 154.522 534.25C154.195 533.643 154.032 532.943 154.032 532.15C154.032 531.366 154.2 530.675 154.536 530.078C154.881 529.471 155.348 529.009 155.936 528.692C156.524 528.365 157.182 528.202 157.91 528.202C158.638 528.202 159.296 528.365 159.884 528.692C160.472 529.009 160.934 529.467 161.27 530.064C161.615 530.661 161.788 531.357 161.788 532.15C161.788 532.943 161.61 533.643 161.256 534.25C160.91 534.847 160.439 535.309 159.842 535.636C159.244 535.963 158.582 536.126 157.854 536.126ZM157.854 535.006C158.311 535.006 158.74 534.899 159.142 534.684C159.543 534.469 159.865 534.147 160.108 533.718C160.36 533.289 160.486 532.766 160.486 532.15C160.486 531.534 160.364 531.011 160.122 530.582C159.879 530.153 159.562 529.835 159.17 529.63C158.778 529.415 158.353 529.308 157.896 529.308C157.429 529.308 157 529.415 156.608 529.63C156.225 529.835 155.917 530.153 155.684 530.582C155.45 531.011 155.334 531.534 155.334 532.15C155.334 532.775 155.446 533.303 155.67 533.732C155.903 534.161 156.211 534.483 156.594 534.698C156.976 534.903 157.396 535.006 157.854 535.006ZM164.737 529.574C164.961 529.135 165.278 528.795 165.689 528.552C166.109 528.309 166.617 528.188 167.215 528.188V529.504H166.879C165.451 529.504 164.737 530.279 164.737 531.828V536H163.463V528.328H164.737V529.574ZM177.911 528.188C178.509 528.188 179.041 528.314 179.507 528.566C179.974 528.809 180.343 529.177 180.613 529.672C180.884 530.167 181.019 530.769 181.019 531.478V536H179.759V531.66C179.759 530.895 179.568 530.311 179.185 529.91C178.812 529.499 178.303 529.294 177.659 529.294C176.997 529.294 176.469 529.509 176.077 529.938C175.685 530.358 175.489 530.969 175.489 531.772V536H174.229V531.66C174.229 530.895 174.038 530.311 173.655 529.91C173.282 529.499 172.773 529.294 172.129 529.294C171.467 529.294 170.939 529.509 170.547 529.938C170.155 530.358 169.959 530.969 169.959 531.772V536H168.685V528.328H169.959V529.434C170.211 529.033 170.547 528.725 170.967 528.51C171.397 528.295 171.868 528.188 172.381 528.188C173.025 528.188 173.595 528.333 174.089 528.622C174.584 528.911 174.953 529.336 175.195 529.896C175.41 529.355 175.765 528.935 176.259 528.636C176.754 528.337 177.305 528.188 177.911 528.188ZM182.633 532.136C182.633 531.352 182.792 530.666 183.109 530.078C183.427 529.481 183.861 529.019 184.411 528.692C184.971 528.365 185.592 528.202 186.273 528.202C186.945 528.202 187.529 528.347 188.023 528.636C188.518 528.925 188.887 529.289 189.129 529.728V528.328H190.417V536H189.129V534.572C188.877 535.02 188.499 535.393 187.995 535.692C187.501 535.981 186.922 536.126 186.259 536.126C185.578 536.126 184.962 535.958 184.411 535.622C183.861 535.286 183.427 534.815 183.109 534.208C182.792 533.601 182.633 532.911 182.633 532.136ZM189.129 532.15C189.129 531.571 189.013 531.067 188.779 530.638C188.546 530.209 188.229 529.882 187.827 529.658C187.435 529.425 187.001 529.308 186.525 529.308C186.049 529.308 185.615 529.42 185.223 529.644C184.831 529.868 184.519 530.195 184.285 530.624C184.052 531.053 183.935 531.557 183.935 532.136C183.935 532.724 184.052 533.237 184.285 533.676C184.519 534.105 184.831 534.437 185.223 534.67C185.615 534.894 186.049 535.006 186.525 535.006C187.001 535.006 187.435 534.894 187.827 534.67C188.229 534.437 188.546 534.105 188.779 533.676C189.013 533.237 189.129 532.729 189.129 532.15ZM196.308 528.188C197.242 528.188 197.998 528.473 198.576 529.042C199.155 529.602 199.444 530.414 199.444 531.478V536H198.184V531.66C198.184 530.895 197.993 530.311 197.61 529.91C197.228 529.499 196.705 529.294 196.042 529.294C195.37 529.294 194.834 529.504 194.432 529.924C194.04 530.344 193.844 530.955 193.844 531.758V536H192.57V528.328H193.844V529.42C194.096 529.028 194.437 528.725 194.866 528.51C195.305 528.295 195.786 528.188 196.308 528.188ZM201.049 532.15C201.049 531.357 201.208 530.666 201.525 530.078C201.843 529.481 202.281 529.019 202.841 528.692C203.411 528.365 204.059 528.202 204.787 528.202C205.73 528.202 206.505 528.431 207.111 528.888C207.727 529.345 208.133 529.98 208.329 530.792H206.957C206.827 530.325 206.57 529.957 206.187 529.686C205.814 529.415 205.347 529.28 204.787 529.28C204.059 529.28 203.471 529.532 203.023 530.036C202.575 530.531 202.351 531.235 202.351 532.15C202.351 533.074 202.575 533.788 203.023 534.292C203.471 534.796 204.059 535.048 204.787 535.048C205.347 535.048 205.814 534.917 206.187 534.656C206.561 534.395 206.817 534.021 206.957 533.536H208.329C208.124 534.32 207.713 534.95 207.097 535.426C206.481 535.893 205.711 536.126 204.787 536.126C204.059 536.126 203.411 535.963 202.841 535.636C202.281 535.309 201.843 534.847 201.525 534.25C201.208 533.653 201.049 532.953 201.049 532.15ZM217.029 531.87C217.029 532.113 217.015 532.369 216.987 532.64H210.855C210.902 533.396 211.159 533.989 211.625 534.418C212.101 534.838 212.675 535.048 213.347 535.048C213.898 535.048 214.355 534.922 214.719 534.67C215.093 534.409 215.354 534.063 215.503 533.634H216.875C216.67 534.371 216.259 534.973 215.643 535.44C215.027 535.897 214.262 536.126 213.347 536.126C212.619 536.126 211.966 535.963 211.387 535.636C210.818 535.309 210.37 534.847 210.043 534.25C209.717 533.643 209.553 532.943 209.553 532.15C209.553 531.357 209.712 530.661 210.029 530.064C210.347 529.467 210.79 529.009 211.359 528.692C211.938 528.365 212.601 528.202 213.347 528.202C214.075 528.202 214.719 528.361 215.279 528.678C215.839 528.995 216.269 529.434 216.567 529.994C216.875 530.545 217.029 531.17 217.029 531.87ZM215.713 531.604C215.713 531.119 215.606 530.703 215.391 530.358C215.177 530.003 214.883 529.737 214.509 529.56C214.145 529.373 213.739 529.28 213.291 529.28C212.647 529.28 212.097 529.485 211.639 529.896C211.191 530.307 210.935 530.876 210.869 531.604H215.713ZM220.027 534.236L218.459 538.002H217.605L218.627 534.236H220.027ZM228.341 529.378H226.731V536H225.457V529.378H224.463V528.328H225.457V527.782C225.457 526.923 225.676 526.298 226.115 525.906C226.563 525.505 227.277 525.304 228.257 525.304V526.368C227.697 526.368 227.3 526.48 227.067 526.704C226.843 526.919 226.731 527.278 226.731 527.782V528.328H228.341V529.378ZM233.172 536.126C232.453 536.126 231.8 535.963 231.212 535.636C230.633 535.309 230.176 534.847 229.84 534.25C229.513 533.643 229.35 532.943 229.35 532.15C229.35 531.366 229.518 530.675 229.854 530.078C230.199 529.471 230.666 529.009 231.254 528.692C231.842 528.365 232.5 528.202 233.228 528.202C233.956 528.202 234.614 528.365 235.202 528.692C235.79 529.009 236.252 529.467 236.588 530.064C236.933 530.661 237.106 531.357 237.106 532.15C237.106 532.943 236.929 533.643 236.574 534.25C236.229 534.847 235.757 535.309 235.16 535.636C234.563 535.963 233.9 536.126 233.172 536.126ZM233.172 535.006C233.629 535.006 234.059 534.899 234.46 534.684C234.861 534.469 235.183 534.147 235.426 533.718C235.678 533.289 235.804 532.766 235.804 532.15C235.804 531.534 235.683 531.011 235.44 530.582C235.197 530.153 234.88 529.835 234.488 529.63C234.096 529.415 233.671 529.308 233.214 529.308C232.747 529.308 232.318 529.415 231.926 529.63C231.543 529.835 231.235 530.153 231.002 530.582C230.769 531.011 230.652 531.534 230.652 532.15C230.652 532.775 230.764 533.303 230.988 533.732C231.221 534.161 231.529 534.483 231.912 534.698C232.295 534.903 232.715 535.006 233.172 535.006ZM240.055 529.574C240.279 529.135 240.596 528.795 241.007 528.552C241.427 528.309 241.936 528.188 242.533 528.188V529.504H242.197C240.769 529.504 240.055 530.279 240.055 531.828V536H238.781V528.328H240.055V529.574ZM253.23 528.188C253.827 528.188 254.359 528.314 254.826 528.566C255.292 528.809 255.661 529.177 255.932 529.672C256.202 530.167 256.338 530.769 256.338 531.478V536H255.078V531.66C255.078 530.895 254.886 530.311 254.504 529.91C254.13 529.499 253.622 529.294 252.978 529.294C252.315 529.294 251.788 529.509 251.396 529.938C251.004 530.358 250.808 530.969 250.808 531.772V536H249.548V531.66C249.548 530.895 249.356 530.311 248.974 529.91C248.6 529.499 248.092 529.294 247.448 529.294C246.785 529.294 246.258 529.509 245.866 529.938C245.474 530.358 245.278 530.969 245.278 531.772V536H244.004V528.328H245.278V529.434C245.53 529.033 245.866 528.725 246.286 528.51C246.715 528.295 247.186 528.188 247.7 528.188C248.344 528.188 248.913 528.333 249.408 528.622C249.902 528.911 250.271 529.336 250.514 529.896C250.728 529.355 251.083 528.935 251.578 528.636C252.072 528.337 252.623 528.188 253.23 528.188ZM261.684 532.136C261.684 531.352 261.843 530.666 262.16 530.078C262.477 529.481 262.911 529.019 263.462 528.692C264.022 528.365 264.643 528.202 265.324 528.202C265.996 528.202 266.579 528.347 267.074 528.636C267.569 528.925 267.937 529.289 268.18 529.728V528.328H269.468V536H268.18V534.572C267.928 535.02 267.55 535.393 267.046 535.692C266.551 535.981 265.973 536.126 265.31 536.126C264.629 536.126 264.013 535.958 263.462 535.622C262.911 535.286 262.477 534.815 262.16 534.208C261.843 533.601 261.684 532.911 261.684 532.136ZM268.18 532.15C268.18 531.571 268.063 531.067 267.83 530.638C267.597 530.209 267.279 529.882 266.878 529.658C266.486 529.425 266.052 529.308 265.576 529.308C265.1 529.308 264.666 529.42 264.274 529.644C263.882 529.868 263.569 530.195 263.336 530.624C263.103 531.053 262.986 531.557 262.986 532.136C262.986 532.724 263.103 533.237 263.336 533.676C263.569 534.105 263.882 534.437 264.274 534.67C264.666 534.894 265.1 535.006 265.576 535.006C266.052 535.006 266.486 534.894 266.878 534.67C267.279 534.437 267.597 534.105 267.83 533.676C268.063 533.237 268.18 532.729 268.18 532.15ZM275.359 528.188C276.292 528.188 277.048 528.473 277.627 529.042C278.206 529.602 278.495 530.414 278.495 531.478V536H277.235V531.66C277.235 530.895 277.044 530.311 276.661 529.91C276.278 529.499 275.756 529.294 275.093 529.294C274.421 529.294 273.884 529.504 273.483 529.924C273.091 530.344 272.895 530.955 272.895 531.758V536H271.621V528.328H272.895V529.42C273.147 529.028 273.488 528.725 273.917 528.51C274.356 528.295 274.836 528.188 275.359 528.188ZM280.1 532.136C280.1 531.352 280.259 530.666 280.576 530.078C280.893 529.481 281.327 529.019 281.878 528.692C282.438 528.365 283.063 528.202 283.754 528.202C284.351 528.202 284.907 528.342 285.42 528.622C285.933 528.893 286.325 529.252 286.596 529.7V525.64H287.884V536H286.596V534.558C286.344 535.015 285.971 535.393 285.476 535.692C284.981 535.981 284.403 536.126 283.74 536.126C283.059 536.126 282.438 535.958 281.878 535.622C281.327 535.286 280.893 534.815 280.576 534.208C280.259 533.601 280.1 532.911 280.1 532.136ZM286.596 532.15C286.596 531.571 286.479 531.067 286.246 530.638C286.013 530.209 285.695 529.882 285.294 529.658C284.902 529.425 284.468 529.308 283.992 529.308C283.516 529.308 283.082 529.42 282.69 529.644C282.298 529.868 281.985 530.195 281.752 530.624C281.519 531.053 281.402 531.557 281.402 532.136C281.402 532.724 281.519 533.237 281.752 533.676C281.985 534.105 282.298 534.437 282.69 534.67C283.082 534.894 283.516 535.006 283.992 535.006C284.468 535.006 284.902 534.894 285.294 534.67C285.695 534.437 286.013 534.105 286.246 533.676C286.479 533.237 286.596 532.729 286.596 532.15ZM32.632 550.378V554.9C32.632 555.273 32.7113 555.539 32.87 555.698C33.0287 555.847 33.304 555.922 33.696 555.922H34.634V557H33.486C32.7767 557 32.2447 556.837 31.89 556.51C31.5353 556.183 31.358 555.647 31.358 554.9V550.378H30.364V549.328H31.358V547.396H32.632V549.328H34.634V550.378H32.632ZM37.4516 550.574C37.6756 550.135 37.9929 549.795 38.4036 549.552C38.8236 549.309 39.3323 549.188 39.9296 549.188V550.504H39.5936C38.1656 550.504 37.4516 551.279 37.4516 552.828V557H36.1776V549.328H37.4516V550.574ZM40.9243 553.136C40.9243 552.352 41.0829 551.666 41.4003 551.078C41.7176 550.481 42.1516 550.019 42.7023 549.692C43.2623 549.365 43.8829 549.202 44.5643 549.202C45.2363 549.202 45.8196 549.347 46.3143 549.636C46.8089 549.925 47.1776 550.289 47.4203 550.728V549.328H48.7083V557H47.4203V555.572C47.1683 556.02 46.7903 556.393 46.2863 556.692C45.7916 556.981 45.2129 557.126 44.5503 557.126C43.8689 557.126 43.2529 556.958 42.7023 556.622C42.1516 556.286 41.7176 555.815 41.4003 555.208C41.0829 554.601 40.9243 553.911 40.9243 553.136ZM47.4203 553.15C47.4203 552.571 47.3036 552.067 47.0703 551.638C46.8369 551.209 46.5196 550.882 46.1183 550.658C45.7263 550.425 45.2923 550.308 44.8163 550.308C44.3403 550.308 43.9063 550.42 43.5143 550.644C43.1223 550.868 42.8096 551.195 42.5763 551.624C42.3429 552.053 42.2263 552.557 42.2263 553.136C42.2263 553.724 42.3429 554.237 42.5763 554.676C42.8096 555.105 43.1223 555.437 43.5143 555.67C43.9063 555.894 44.3403 556.006 44.8163 556.006C45.2923 556.006 45.7263 555.894 46.1183 555.67C46.5196 555.437 46.8369 555.105 47.0703 554.676C47.3036 554.237 47.4203 553.729 47.4203 553.15ZM51.5192 548.082C51.2765 548.082 51.0712 547.998 50.9032 547.83C50.7352 547.662 50.6512 547.457 50.6512 547.214C50.6512 546.971 50.7352 546.766 50.9032 546.598C51.0712 546.43 51.2765 546.346 51.5192 546.346C51.7525 546.346 51.9485 546.43 52.1072 546.598C52.2752 546.766 52.3592 546.971 52.3592 547.214C52.3592 547.457 52.2752 547.662 52.1072 547.83C51.9485 547.998 51.7525 548.082 51.5192 548.082ZM52.1352 549.328V557H50.8612V549.328H52.1352ZM58.0445 549.188C58.9778 549.188 59.7338 549.473 60.3125 550.042C60.8912 550.602 61.1805 551.414 61.1805 552.478V557H59.9205V552.66C59.9205 551.895 59.7292 551.311 59.3465 550.91C58.9638 550.499 58.4412 550.294 57.7785 550.294C57.1065 550.294 56.5698 550.504 56.1685 550.924C55.7765 551.344 55.5805 551.955 55.5805 552.758V557H54.3065V549.328H55.5805V550.42C55.8325 550.028 56.1732 549.725 56.6025 549.51C57.0412 549.295 57.5218 549.188 58.0445 549.188ZM63.9196 548.082C63.6769 548.082 63.4716 547.998 63.3036 547.83C63.1356 547.662 63.0516 547.457 63.0516 547.214C63.0516 546.971 63.1356 546.766 63.3036 546.598C63.4716 546.43 63.6769 546.346 63.9196 546.346C64.1529 546.346 64.3489 546.43 64.5076 546.598C64.6756 546.766 64.7596 546.971 64.7596 547.214C64.7596 547.457 64.6756 547.662 64.5076 547.83C64.3489 547.998 64.1529 548.082 63.9196 548.082ZM64.5356 549.328V557H63.2616V549.328H64.5356ZM70.4449 549.188C71.3782 549.188 72.1342 549.473 72.7129 550.042C73.2916 550.602 73.5809 551.414 73.5809 552.478V557H72.3209V552.66C72.3209 551.895 72.1296 551.311 71.7469 550.91C71.3642 550.499 70.8416 550.294 70.1789 550.294C69.5069 550.294 68.9702 550.504 68.5689 550.924C68.1769 551.344 67.9809 551.955 67.9809 552.758V557H66.7069V549.328H67.9809V550.42C68.2329 550.028 68.5736 549.725 69.0029 549.51C69.4416 549.295 69.9222 549.188 70.4449 549.188ZM78.826 549.202C79.4887 549.202 80.0673 549.347 80.562 549.636C81.066 549.925 81.4393 550.289 81.682 550.728V549.328H82.97V557.168C82.97 557.868 82.8207 558.489 82.522 559.03C82.2233 559.581 81.794 560.01 81.234 560.318C80.6833 560.626 80.0393 560.78 79.302 560.78C78.294 560.78 77.454 560.542 76.782 560.066C76.11 559.59 75.7133 558.941 75.592 558.12H76.852C76.992 558.587 77.2813 558.96 77.72 559.24C78.1587 559.529 78.686 559.674 79.302 559.674C80.002 559.674 80.5713 559.455 81.01 559.016C81.458 558.577 81.682 557.961 81.682 557.168V555.558C81.43 556.006 81.0567 556.379 80.562 556.678C80.0673 556.977 79.4887 557.126 78.826 557.126C78.1447 557.126 77.524 556.958 76.964 556.622C76.4133 556.286 75.9793 555.815 75.662 555.208C75.3447 554.601 75.186 553.911 75.186 553.136C75.186 552.352 75.3447 551.666 75.662 551.078C75.9793 550.481 76.4133 550.019 76.964 549.692C77.524 549.365 78.1447 549.202 78.826 549.202ZM81.682 553.15C81.682 552.571 81.5653 552.067 81.332 551.638C81.0987 551.209 80.7813 550.882 80.38 550.658C79.988 550.425 79.554 550.308 79.078 550.308C78.602 550.308 78.168 550.42 77.776 550.644C77.384 550.868 77.0713 551.195 76.838 551.624C76.6047 552.053 76.488 552.557 76.488 553.136C76.488 553.724 76.6047 554.237 76.838 554.676C77.0713 555.105 77.384 555.437 77.776 555.67C78.168 555.894 78.602 556.006 79.078 556.006C79.554 556.006 79.988 555.894 80.38 555.67C80.7813 555.437 81.0987 555.105 81.332 554.676C81.5653 554.237 81.682 553.729 81.682 553.15ZM90.1293 550.574C90.3533 550.135 90.6707 549.795 91.0813 549.552C91.5013 549.309 92.01 549.188 92.6073 549.188V550.504H92.2713C90.8433 550.504 90.1293 551.279 90.1293 552.828V557H88.8553V549.328H90.1293V550.574ZM97.424 557.126C96.7053 557.126 96.052 556.963 95.464 556.636C94.8853 556.309 94.428 555.847 94.092 555.25C93.7653 554.643 93.602 553.943 93.602 553.15C93.602 552.366 93.77 551.675 94.106 551.078C94.4513 550.471 94.918 550.009 95.506 549.692C96.094 549.365 96.752 549.202 97.48 549.202C98.208 549.202 98.866 549.365 99.454 549.692C100.042 550.009 100.504 550.467 100.84 551.064C101.185 551.661 101.358 552.357 101.358 553.15C101.358 553.943 101.181 554.643 100.826 555.25C100.481 555.847 100.009 556.309 99.412 556.636C98.8147 556.963 98.152 557.126 97.424 557.126ZM97.424 556.006C97.8813 556.006 98.3107 555.899 98.712 555.684C99.1133 555.469 99.4353 555.147 99.678 554.718C99.93 554.289 100.056 553.766 100.056 553.15C100.056 552.534 99.9347 552.011 99.692 551.582C99.4493 551.153 99.132 550.835 98.74 550.63C98.348 550.415 97.9233 550.308 97.466 550.308C96.9993 550.308 96.57 550.415 96.178 550.63C95.7953 550.835 95.4873 551.153 95.254 551.582C95.0207 552.011 94.904 552.534 94.904 553.15C94.904 553.775 95.016 554.303 95.24 554.732C95.4733 555.161 95.7813 555.483 96.164 555.698C96.5467 555.903 96.9667 556.006 97.424 556.006ZM109.837 549.328V557H108.563V555.866C108.32 556.258 107.98 556.566 107.541 556.79C107.112 557.005 106.636 557.112 106.113 557.112C105.516 557.112 104.979 556.991 104.503 556.748C104.027 556.496 103.649 556.123 103.369 555.628C103.098 555.133 102.963 554.531 102.963 553.822V549.328H104.223V553.654C104.223 554.41 104.414 554.993 104.797 555.404C105.18 555.805 105.702 556.006 106.365 556.006C107.046 556.006 107.583 555.796 107.975 555.376C108.367 554.956 108.563 554.345 108.563 553.542V549.328H109.837ZM113.542 550.378V554.9C113.542 555.273 113.621 555.539 113.78 555.698C113.939 555.847 114.214 555.922 114.606 555.922H115.544V557H114.396C113.687 557 113.155 556.837 112.8 556.51C112.445 556.183 112.268 555.647 112.268 554.9V550.378H111.274V549.328H112.268V547.396H113.542V549.328H115.544V550.378H113.542ZM117.746 548.082C117.503 548.082 117.298 547.998 117.13 547.83C116.962 547.662 116.878 547.457 116.878 547.214C116.878 546.971 116.962 546.766 117.13 546.598C117.298 546.43 117.503 546.346 117.746 546.346C117.979 546.346 118.175 546.43 118.334 546.598C118.502 546.766 118.586 546.971 118.586 547.214C118.586 547.457 118.502 547.662 118.334 547.83C118.175 547.998 117.979 548.082 117.746 548.082ZM118.362 549.328V557H117.088V549.328H118.362ZM124.271 549.188C125.204 549.188 125.96 549.473 126.539 550.042C127.118 550.602 127.407 551.414 127.407 552.478V557H126.147V552.66C126.147 551.895 125.956 551.311 125.573 550.91C125.19 550.499 124.668 550.294 124.005 550.294C123.333 550.294 122.796 550.504 122.395 550.924C122.003 551.344 121.807 551.955 121.807 552.758V557H120.533V549.328H121.807V550.42C122.059 550.028 122.4 549.725 122.829 549.51C123.268 549.295 123.748 549.188 124.271 549.188ZM136.488 552.87C136.488 553.113 136.474 553.369 136.446 553.64H130.314C130.361 554.396 130.617 554.989 131.084 555.418C131.56 555.838 132.134 556.048 132.806 556.048C133.357 556.048 133.814 555.922 134.178 555.67C134.551 555.409 134.813 555.063 134.962 554.634H136.334C136.129 555.371 135.718 555.973 135.102 556.44C134.486 556.897 133.721 557.126 132.806 557.126C132.078 557.126 131.425 556.963 130.846 556.636C130.277 556.309 129.829 555.847 129.502 555.25C129.175 554.643 129.012 553.943 129.012 553.15C129.012 552.357 129.171 551.661 129.488 551.064C129.805 550.467 130.249 550.009 130.818 549.692C131.397 549.365 132.059 549.202 132.806 549.202C133.534 549.202 134.178 549.361 134.738 549.678C135.298 549.995 135.727 550.434 136.026 550.994C136.334 551.545 136.488 552.17 136.488 552.87ZM135.172 552.604C135.172 552.119 135.065 551.703 134.85 551.358C134.635 551.003 134.341 550.737 133.968 550.56C133.604 550.373 133.198 550.28 132.75 550.28C132.106 550.28 131.555 550.485 131.098 550.896C130.65 551.307 130.393 551.876 130.328 552.604H135.172ZM140.886 557.126C140.298 557.126 139.77 557.028 139.304 556.832C138.837 556.627 138.468 556.347 138.198 555.992C137.927 555.628 137.778 555.213 137.75 554.746H139.066C139.103 555.129 139.28 555.441 139.598 555.684C139.924 555.927 140.349 556.048 140.872 556.048C141.357 556.048 141.74 555.941 142.02 555.726C142.3 555.511 142.44 555.241 142.44 554.914C142.44 554.578 142.29 554.331 141.992 554.172C141.693 554.004 141.231 553.841 140.606 553.682C140.036 553.533 139.57 553.383 139.206 553.234C138.851 553.075 138.543 552.847 138.282 552.548C138.03 552.24 137.904 551.839 137.904 551.344C137.904 550.952 138.02 550.593 138.254 550.266C138.487 549.939 138.818 549.683 139.248 549.496C139.677 549.3 140.167 549.202 140.718 549.202C141.567 549.202 142.253 549.417 142.776 549.846C143.298 550.275 143.578 550.863 143.616 551.61H142.342C142.314 551.209 142.15 550.887 141.852 550.644C141.562 550.401 141.17 550.28 140.676 550.28C140.218 550.28 139.854 550.378 139.584 550.574C139.313 550.77 139.178 551.027 139.178 551.344C139.178 551.596 139.257 551.806 139.416 551.974C139.584 552.133 139.789 552.263 140.032 552.366C140.284 552.459 140.629 552.567 141.068 552.688C141.618 552.837 142.066 552.987 142.412 553.136C142.757 553.276 143.051 553.491 143.294 553.78C143.546 554.069 143.676 554.447 143.686 554.914C143.686 555.334 143.569 555.712 143.336 556.048C143.102 556.384 142.771 556.65 142.342 556.846C141.922 557.033 141.436 557.126 140.886 557.126ZM150.491 550.756C150.752 550.299 151.135 549.925 151.639 549.636C152.143 549.347 152.717 549.202 153.361 549.202C154.051 549.202 154.672 549.365 155.223 549.692C155.773 550.019 156.207 550.481 156.525 551.078C156.842 551.666 157.001 552.352 157.001 553.136C157.001 553.911 156.842 554.601 156.525 555.208C156.207 555.815 155.769 556.286 155.209 556.622C154.658 556.958 154.042 557.126 153.361 557.126C152.698 557.126 152.115 556.981 151.611 556.692C151.116 556.403 150.743 556.034 150.491 555.586V557H149.217V546.64H150.491V550.756ZM155.699 553.136C155.699 552.557 155.582 552.053 155.349 551.624C155.115 551.195 154.798 550.868 154.397 550.644C154.005 550.42 153.571 550.308 153.095 550.308C152.628 550.308 152.194 550.425 151.793 550.658C151.401 550.882 151.083 551.213 150.841 551.652C150.607 552.081 150.491 552.581 150.491 553.15C150.491 553.729 150.607 554.237 150.841 554.676C151.083 555.105 151.401 555.437 151.793 555.67C152.194 555.894 152.628 556.006 153.095 556.006C153.571 556.006 154.005 555.894 154.397 555.67C154.798 555.437 155.115 555.105 155.349 554.676C155.582 554.237 155.699 553.724 155.699 553.136ZM165.286 549.328L160.666 560.612H159.35L160.862 556.916L157.768 549.328H159.182L161.59 555.544L163.97 549.328H165.286ZM173.015 557.126C172.427 557.126 171.899 557.028 171.433 556.832C170.966 556.627 170.597 556.347 170.327 555.992C170.056 555.628 169.907 555.213 169.879 554.746H171.195C171.232 555.129 171.409 555.441 171.727 555.684C172.053 555.927 172.478 556.048 173.001 556.048C173.486 556.048 173.869 555.941 174.149 555.726C174.429 555.511 174.569 555.241 174.569 554.914C174.569 554.578 174.419 554.331 174.121 554.172C173.822 554.004 173.36 553.841 172.735 553.682C172.165 553.533 171.699 553.383 171.335 553.234C170.98 553.075 170.672 552.847 170.411 552.548C170.159 552.24 170.033 551.839 170.033 551.344C170.033 550.952 170.149 550.593 170.383 550.266C170.616 549.939 170.947 549.683 171.377 549.496C171.806 549.3 172.296 549.202 172.847 549.202C173.696 549.202 174.382 549.417 174.905 549.846C175.427 550.275 175.707 550.863 175.745 551.61H174.471C174.443 551.209 174.279 550.887 173.981 550.644C173.691 550.401 173.299 550.28 172.805 550.28C172.347 550.28 171.983 550.378 171.713 550.574C171.442 550.77 171.307 551.027 171.307 551.344C171.307 551.596 171.386 551.806 171.545 551.974C171.713 552.133 171.918 552.263 172.161 552.366C172.413 552.459 172.758 552.567 173.197 552.688C173.747 552.837 174.195 552.987 174.541 553.136C174.886 553.276 175.18 553.491 175.423 553.78C175.675 554.069 175.805 554.447 175.815 554.914C175.815 555.334 175.698 555.712 175.465 556.048C175.231 556.384 174.9 556.65 174.471 556.846C174.051 557.033 173.565 557.126 173.015 557.126ZM184.613 552.87C184.613 553.113 184.599 553.369 184.571 553.64H178.439C178.486 554.396 178.742 554.989 179.209 555.418C179.685 555.838 180.259 556.048 180.931 556.048C181.482 556.048 181.939 555.922 182.303 555.67C182.676 555.409 182.938 555.063 183.087 554.634H184.459C184.254 555.371 183.843 555.973 183.227 556.44C182.611 556.897 181.846 557.126 180.931 557.126C180.203 557.126 179.55 556.963 178.971 556.636C178.402 556.309 177.954 555.847 177.627 555.25C177.3 554.643 177.137 553.943 177.137 553.15C177.137 552.357 177.296 551.661 177.613 551.064C177.93 550.467 178.374 550.009 178.943 549.692C179.522 549.365 180.184 549.202 180.931 549.202C181.659 549.202 182.303 549.361 182.863 549.678C183.423 549.995 183.852 550.434 184.151 550.994C184.459 551.545 184.613 552.17 184.613 552.87ZM183.297 552.604C183.297 552.119 183.19 551.703 182.975 551.358C182.76 551.003 182.466 550.737 182.093 550.56C181.729 550.373 181.323 550.28 180.875 550.28C180.231 550.28 179.68 550.485 179.223 550.896C178.775 551.307 178.518 551.876 178.453 552.604H183.297ZM187.849 550.378V554.9C187.849 555.273 187.928 555.539 188.087 555.698C188.245 555.847 188.521 555.922 188.913 555.922H189.851V557H188.703C187.993 557 187.461 556.837 187.107 556.51C186.752 556.183 186.575 555.647 186.575 554.9V550.378H185.581V549.328H186.575V547.396H187.849V549.328H189.851V550.378H187.849ZM192.948 550.378V554.9C192.948 555.273 193.028 555.539 193.186 555.698C193.345 555.847 193.62 555.922 194.012 555.922H194.95V557H193.802C193.093 557 192.561 556.837 192.206 556.51C191.852 556.183 191.674 555.647 191.674 554.9V550.378H190.68V549.328H191.674V547.396H192.948V549.328H194.95V550.378H192.948ZM197.152 548.082C196.909 548.082 196.704 547.998 196.536 547.83C196.368 547.662 196.284 547.457 196.284 547.214C196.284 546.971 196.368 546.766 196.536 546.598C196.704 546.43 196.909 546.346 197.152 546.346C197.385 546.346 197.581 546.43 197.74 546.598C197.908 546.766 197.992 546.971 197.992 547.214C197.992 547.457 197.908 547.662 197.74 547.83C197.581 547.998 197.385 548.082 197.152 548.082ZM197.768 549.328V557H196.494V549.328H197.768ZM203.677 549.188C204.611 549.188 205.367 549.473 205.945 550.042C206.524 550.602 206.813 551.414 206.813 552.478V557H205.553V552.66C205.553 551.895 205.362 551.311 204.979 550.91C204.597 550.499 204.074 550.294 203.411 550.294C202.739 550.294 202.203 550.504 201.801 550.924C201.409 551.344 201.213 551.955 201.213 552.758V557H199.939V549.328H201.213V550.42C201.465 550.028 201.806 549.725 202.235 549.51C202.674 549.295 203.155 549.188 203.677 549.188ZM212.058 549.202C212.721 549.202 213.3 549.347 213.794 549.636C214.298 549.925 214.672 550.289 214.914 550.728V549.328H216.202V557.168C216.202 557.868 216.053 558.489 215.754 559.03C215.456 559.581 215.026 560.01 214.466 560.318C213.916 560.626 213.272 560.78 212.534 560.78C211.526 560.78 210.686 560.542 210.014 560.066C209.342 559.59 208.946 558.941 208.824 558.12H210.084C210.224 558.587 210.514 558.96 210.952 559.24C211.391 559.529 211.918 559.674 212.534 559.674C213.234 559.674 213.804 559.455 214.242 559.016C214.69 558.577 214.914 557.961 214.914 557.168V555.558C214.662 556.006 214.289 556.379 213.794 556.678C213.3 556.977 212.721 557.126 212.058 557.126C211.377 557.126 210.756 556.958 210.196 556.622C209.646 556.286 209.212 555.815 208.894 555.208C208.577 554.601 208.418 553.911 208.418 553.136C208.418 552.352 208.577 551.666 208.894 551.078C209.212 550.481 209.646 550.019 210.196 549.692C210.756 549.365 211.377 549.202 212.058 549.202ZM214.914 553.15C214.914 552.571 214.798 552.067 214.564 551.638C214.331 551.209 214.014 550.882 213.612 550.658C213.22 550.425 212.786 550.308 212.31 550.308C211.834 550.308 211.4 550.42 211.008 550.644C210.616 550.868 210.304 551.195 210.07 551.624C209.837 552.053 209.72 552.557 209.72 553.136C209.72 553.724 209.837 554.237 210.07 554.676C210.304 555.105 210.616 555.437 211.008 555.67C211.4 555.894 211.834 556.006 212.31 556.006C212.786 556.006 213.22 555.894 213.612 555.67C214.014 555.437 214.331 555.105 214.564 554.676C214.798 554.237 214.914 553.729 214.914 553.15ZM228.892 549.328V557H227.618V555.866C227.375 556.258 227.034 556.566 226.596 556.79C226.166 557.005 225.69 557.112 225.168 557.112C224.57 557.112 224.034 556.991 223.558 556.748C223.082 556.496 222.704 556.123 222.424 555.628C222.153 555.133 222.018 554.531 222.018 553.822V549.328H223.278V553.654C223.278 554.41 223.469 554.993 223.852 555.404C224.234 555.805 224.757 556.006 225.42 556.006C226.101 556.006 226.638 555.796 227.03 555.376C227.422 554.956 227.618 554.345 227.618 553.542V549.328H228.892ZM232.317 550.742C232.569 550.303 232.942 549.939 233.437 549.65C233.941 549.351 234.524 549.202 235.187 549.202C235.868 549.202 236.484 549.365 237.035 549.692C237.595 550.019 238.034 550.481 238.351 551.078C238.668 551.666 238.827 552.352 238.827 553.136C238.827 553.911 238.668 554.601 238.351 555.208C238.034 555.815 237.595 556.286 237.035 556.622C236.484 556.958 235.868 557.126 235.187 557.126C234.534 557.126 233.955 556.981 233.451 556.692C232.956 556.393 232.578 556.025 232.317 555.586V560.64H231.043V549.328H232.317V550.742ZM237.525 553.136C237.525 552.557 237.408 552.053 237.175 551.624C236.942 551.195 236.624 550.868 236.223 550.644C235.831 550.42 235.397 550.308 234.921 550.308C234.454 550.308 234.02 550.425 233.619 550.658C233.227 550.882 232.91 551.213 232.667 551.652C232.434 552.081 232.317 552.581 232.317 553.15C232.317 553.729 232.434 554.237 232.667 554.676C232.91 555.105 233.227 555.437 233.619 555.67C234.02 555.894 234.454 556.006 234.921 556.006C235.397 556.006 235.831 555.894 236.223 555.67C236.624 555.437 236.942 555.105 237.175 554.676C237.408 554.237 237.525 553.724 237.525 553.136ZM250.844 549.328L246.224 560.612H244.908L246.42 556.916L243.326 549.328H244.74L247.148 555.544L249.528 549.328H250.844ZM255.471 557.126C254.752 557.126 254.099 556.963 253.511 556.636C252.932 556.309 252.475 555.847 252.139 555.25C251.812 554.643 251.649 553.943 251.649 553.15C251.649 552.366 251.817 551.675 252.153 551.078C252.498 550.471 252.965 550.009 253.553 549.692C254.141 549.365 254.799 549.202 255.527 549.202C256.255 549.202 256.913 549.365 257.501 549.692C258.089 550.009 258.551 550.467 258.887 551.064C259.232 551.661 259.405 552.357 259.405 553.15C259.405 553.943 259.228 554.643 258.873 555.25C258.528 555.847 258.056 556.309 257.459 556.636C256.862 556.963 256.199 557.126 255.471 557.126ZM255.471 556.006C255.928 556.006 256.358 555.899 256.759 555.684C257.16 555.469 257.482 555.147 257.725 554.718C257.977 554.289 258.103 553.766 258.103 553.15C258.103 552.534 257.982 552.011 257.739 551.582C257.496 551.153 257.179 550.835 256.787 550.63C256.395 550.415 255.97 550.308 255.513 550.308C255.046 550.308 254.617 550.415 254.225 550.63C253.842 550.835 253.534 551.153 253.301 551.582C253.068 552.011 252.951 552.534 252.951 553.15C252.951 553.775 253.063 554.303 253.287 554.732C253.52 555.161 253.828 555.483 254.211 555.698C254.594 555.903 255.014 556.006 255.471 556.006ZM267.884 549.328V557H266.61V555.866C266.367 556.258 266.027 556.566 265.588 556.79C265.159 557.005 264.683 557.112 264.16 557.112C263.563 557.112 263.026 556.991 262.55 556.748C262.074 556.496 261.696 556.123 261.416 555.628C261.145 555.133 261.01 554.531 261.01 553.822V549.328H262.27V553.654C262.27 554.41 262.461 554.993 262.844 555.404C263.227 555.805 263.749 556.006 264.412 556.006C265.093 556.006 265.63 555.796 266.022 555.376C266.414 554.956 266.61 554.345 266.61 553.542V549.328H267.884ZM271.309 550.574C271.533 550.135 271.85 549.795 272.261 549.552C272.681 549.309 273.19 549.188 273.787 549.188V550.504H273.451C272.023 550.504 271.309 551.279 271.309 552.828V557H270.035V549.328H271.309V550.574ZM280.544 550.378V554.9C280.544 555.273 280.623 555.539 280.782 555.698C280.941 555.847 281.216 555.922 281.608 555.922H282.546V557H281.398C280.689 557 280.157 556.837 279.802 556.51C279.447 556.183 279.27 555.647 279.27 554.9V550.378H278.276V549.328H279.27V547.396H280.544V549.328H282.546V550.378H280.544ZM285.364 550.574C285.588 550.135 285.905 549.795 286.316 549.552C286.736 549.309 287.244 549.188 287.842 549.188V550.504H287.506C286.078 550.504 285.364 551.279 285.364 552.828V557H284.09V549.328H285.364V550.574ZM288.836 553.136C288.836 552.352 288.995 551.666 289.312 551.078C289.63 550.481 290.064 550.019 290.614 549.692C291.174 549.365 291.795 549.202 292.476 549.202C293.148 549.202 293.732 549.347 294.226 549.636C294.721 549.925 295.09 550.289 295.332 550.728V549.328H296.62V557H295.332V555.572C295.08 556.02 294.702 556.393 294.198 556.692C293.704 556.981 293.125 557.126 292.462 557.126C291.781 557.126 291.165 556.958 290.614 556.622C290.064 556.286 289.63 555.815 289.312 555.208C288.995 554.601 288.836 553.911 288.836 553.136ZM295.332 553.15C295.332 552.571 295.216 552.067 294.982 551.638C294.749 551.209 294.432 550.882 294.03 550.658C293.638 550.425 293.204 550.308 292.728 550.308C292.252 550.308 291.818 550.42 291.426 550.644C291.034 550.868 290.722 551.195 290.488 551.624C290.255 552.053 290.138 552.557 290.138 553.136C290.138 553.724 290.255 554.237 290.488 554.676C290.722 555.105 291.034 555.437 291.426 555.67C291.818 555.894 292.252 556.006 292.728 556.006C293.204 556.006 293.638 555.894 294.03 555.67C294.432 555.437 294.749 555.105 294.982 554.676C295.216 554.237 295.332 553.729 295.332 553.15ZM299.431 548.082C299.189 548.082 298.983 547.998 298.815 547.83C298.647 547.662 298.563 547.457 298.563 547.214C298.563 546.971 298.647 546.766 298.815 546.598C298.983 546.43 299.189 546.346 299.431 546.346C299.665 546.346 299.861 546.43 300.019 546.598C300.187 546.766 300.271 546.971 300.271 547.214C300.271 547.457 300.187 547.662 300.019 547.83C299.861 547.998 299.665 548.082 299.431 548.082ZM300.047 549.328V557H298.773V549.328H300.047ZM305.957 549.188C306.89 549.188 307.646 549.473 308.225 550.042C308.803 550.602 309.093 551.414 309.093 552.478V557H307.833V552.66C307.833 551.895 307.641 551.311 307.259 550.91C306.876 550.499 306.353 550.294 305.691 550.294C305.019 550.294 304.482 550.504 304.081 550.924C303.689 551.344 303.493 551.955 303.493 552.758V557H302.219V549.328H303.493V550.42C303.745 550.028 304.085 549.725 304.515 549.51C304.953 549.295 305.434 549.188 305.957 549.188ZM311.832 548.082C311.589 548.082 311.384 547.998 311.216 547.83C311.048 547.662 310.964 547.457 310.964 547.214C310.964 546.971 311.048 546.766 311.216 546.598C311.384 546.43 311.589 546.346 311.832 546.346C312.065 546.346 312.261 546.43 312.42 546.598C312.588 546.766 312.672 546.971 312.672 547.214C312.672 547.457 312.588 547.662 312.42 547.83C312.261 547.998 312.065 548.082 311.832 548.082ZM312.448 549.328V557H311.174V549.328H312.448ZM318.357 549.188C319.29 549.188 320.046 549.473 320.625 550.042C321.204 550.602 321.493 551.414 321.493 552.478V557H320.233V552.66C320.233 551.895 320.042 551.311 319.659 550.91C319.276 550.499 318.754 550.294 318.091 550.294C317.419 550.294 316.882 550.504 316.481 550.924C316.089 551.344 315.893 551.955 315.893 552.758V557H314.619V549.328H315.893V550.42C316.145 550.028 316.486 549.725 316.915 549.51C317.354 549.295 317.834 549.188 318.357 549.188ZM326.738 549.202C327.401 549.202 327.979 549.347 328.474 549.636C328.978 549.925 329.351 550.289 329.594 550.728V549.328H330.882V557.168C330.882 557.868 330.733 558.489 330.434 559.03C330.135 559.581 329.706 560.01 329.146 560.318C328.595 560.626 327.951 560.78 327.214 560.78C326.206 560.78 325.366 560.542 324.694 560.066C324.022 559.59 323.625 558.941 323.504 558.12H324.764C324.904 558.587 325.193 558.96 325.632 559.24C326.071 559.529 326.598 559.674 327.214 559.674C327.914 559.674 328.483 559.455 328.922 559.016C329.37 558.577 329.594 557.961 329.594 557.168V555.558C329.342 556.006 328.969 556.379 328.474 556.678C327.979 556.977 327.401 557.126 326.738 557.126C326.057 557.126 325.436 556.958 324.876 556.622C324.325 556.286 323.891 555.815 323.574 555.208C323.257 554.601 323.098 553.911 323.098 553.136C323.098 552.352 323.257 551.666 323.574 551.078C323.891 550.481 324.325 550.019 324.876 549.692C325.436 549.365 326.057 549.202 326.738 549.202ZM329.594 553.15C329.594 552.571 329.477 552.067 329.244 551.638C329.011 551.209 328.693 550.882 328.292 550.658C327.9 550.425 327.466 550.308 326.99 550.308C326.514 550.308 326.08 550.42 325.688 550.644C325.296 550.868 324.983 551.195 324.75 551.624C324.517 552.053 324.4 552.557 324.4 553.136C324.4 553.724 324.517 554.237 324.75 554.676C324.983 555.105 325.296 555.437 325.688 555.67C326.08 555.894 326.514 556.006 326.99 556.006C327.466 556.006 327.9 555.894 328.292 555.67C328.693 555.437 329.011 555.105 329.244 554.676C329.477 554.237 329.594 553.729 329.594 553.15ZM32.352 571.742C32.604 571.303 32.9773 570.939 33.472 570.65C33.976 570.351 34.5593 570.202 35.222 570.202C35.9033 570.202 36.5193 570.365 37.07 570.692C37.63 571.019 38.0687 571.481 38.386 572.078C38.7033 572.666 38.862 573.352 38.862 574.136C38.862 574.911 38.7033 575.601 38.386 576.208C38.0687 576.815 37.63 577.286 37.07 577.622C36.5193 577.958 35.9033 578.126 35.222 578.126C34.5687 578.126 33.99 577.981 33.486 577.692C32.9913 577.393 32.6133 577.025 32.352 576.586V581.64H31.078V570.328H32.352V571.742ZM37.56 574.136C37.56 573.557 37.4433 573.053 37.21 572.624C36.9767 572.195 36.6593 571.868 36.258 571.644C35.866 571.42 35.432 571.308 34.956 571.308C34.4893 571.308 34.0553 571.425 33.654 571.658C33.262 571.882 32.9447 572.213 32.702 572.652C32.4687 573.081 32.352 573.581 32.352 574.15C32.352 574.729 32.4687 575.237 32.702 575.676C32.9447 576.105 33.262 576.437 33.654 576.67C34.0553 576.894 34.4893 577.006 34.956 577.006C35.432 577.006 35.866 576.894 36.258 576.67C36.6593 576.437 36.9767 576.105 37.21 575.676C37.4433 575.237 37.56 574.724 37.56 574.136ZM41.8129 571.574C42.0369 571.135 42.3543 570.795 42.7649 570.552C43.1849 570.309 43.6936 570.188 44.2909 570.188V571.504H43.9549C42.5269 571.504 41.8129 572.279 41.8129 573.828V578H40.5389V570.328H41.8129V571.574ZM52.7616 573.87C52.7616 574.113 52.7476 574.369 52.7196 574.64H46.5876C46.6343 575.396 46.8909 575.989 47.3576 576.418C47.8336 576.838 48.4076 577.048 49.0796 577.048C49.6303 577.048 50.0876 576.922 50.4516 576.67C50.8249 576.409 51.0863 576.063 51.2356 575.634H52.6076C52.4023 576.371 51.9916 576.973 51.3756 577.44C50.7596 577.897 49.9943 578.126 49.0796 578.126C48.3516 578.126 47.6983 577.963 47.1196 577.636C46.5503 577.309 46.1023 576.847 45.7756 576.25C45.4489 575.643 45.2856 574.943 45.2856 574.15C45.2856 573.357 45.4443 572.661 45.7616 572.064C46.0789 571.467 46.5223 571.009 47.0916 570.692C47.6703 570.365 48.3329 570.202 49.0796 570.202C49.8076 570.202 50.4516 570.361 51.0116 570.678C51.5716 570.995 52.0009 571.434 52.2996 571.994C52.6076 572.545 52.7616 573.17 52.7616 573.87ZM51.4456 573.604C51.4456 573.119 51.3383 572.703 51.1236 572.358C50.9089 572.003 50.6149 571.737 50.2416 571.56C49.8776 571.373 49.4716 571.28 49.0236 571.28C48.3796 571.28 47.8289 571.485 47.3716 571.896C46.9236 572.307 46.6669 572.876 46.6016 573.604H51.4456ZM57.5652 571.378H55.9552V578H54.6812V571.378H53.6872V570.328H54.6812V569.782C54.6812 568.923 54.9006 568.298 55.3392 567.906C55.7872 567.505 56.5012 567.304 57.4812 567.304V568.368C56.9212 568.368 56.5246 568.48 56.2912 568.704C56.0672 568.919 55.9552 569.278 55.9552 569.782V570.328H57.5652V571.378ZM66.0507 573.87C66.0507 574.113 66.0367 574.369 66.0087 574.64H59.8767C59.9233 575.396 60.18 575.989 60.6467 576.418C61.1227 576.838 61.6967 577.048 62.3687 577.048C62.9193 577.048 63.3767 576.922 63.7407 576.67C64.114 576.409 64.3753 576.063 64.5247 575.634H65.8967C65.6913 576.371 65.2807 576.973 64.6647 577.44C64.0487 577.897 63.2833 578.126 62.3687 578.126C61.6407 578.126 60.9873 577.963 60.4087 577.636C59.8393 577.309 59.3913 576.847 59.0647 576.25C58.738 575.643 58.5747 574.943 58.5747 574.15C58.5747 573.357 58.7333 572.661 59.0507 572.064C59.368 571.467 59.8113 571.009 60.3807 570.692C60.9593 570.365 61.622 570.202 62.3687 570.202C63.0967 570.202 63.7407 570.361 64.3007 570.678C64.8607 570.995 65.29 571.434 65.5887 571.994C65.8967 572.545 66.0507 573.17 66.0507 573.87ZM64.7347 573.604C64.7347 573.119 64.6273 572.703 64.4127 572.358C64.198 572.003 63.904 571.737 63.5307 571.56C63.1667 571.373 62.7607 571.28 62.3127 571.28C61.6687 571.28 61.118 571.485 60.6607 571.896C60.2127 572.307 59.956 572.876 59.8907 573.604H64.7347ZM69.0063 571.574C69.2303 571.135 69.5476 570.795 69.9583 570.552C70.3783 570.309 70.887 570.188 71.4843 570.188V571.504H71.1483C69.7203 571.504 69.0063 572.279 69.0063 573.828V578H67.7323V570.328H69.0063V571.574ZM79.955 573.87C79.955 574.113 79.941 574.369 79.913 574.64H73.781C73.8276 575.396 74.0843 575.989 74.551 576.418C75.027 576.838 75.601 577.048 76.273 577.048C76.8236 577.048 77.281 576.922 77.645 576.67C78.0183 576.409 78.2796 576.063 78.429 575.634H79.801C79.5956 576.371 79.185 576.973 78.569 577.44C77.953 577.897 77.1876 578.126 76.273 578.126C75.545 578.126 74.8916 577.963 74.313 577.636C73.7436 577.309 73.2956 576.847 72.969 576.25C72.6423 575.643 72.479 574.943 72.479 574.15C72.479 573.357 72.6376 572.661 72.955 572.064C73.2723 571.467 73.7156 571.009 74.285 570.692C74.8636 570.365 75.5263 570.202 76.273 570.202C77.001 570.202 77.645 570.361 78.205 570.678C78.765 570.995 79.1943 571.434 79.493 571.994C79.801 572.545 79.955 573.17 79.955 573.87ZM78.639 573.604C78.639 573.119 78.5316 572.703 78.317 572.358C78.1023 572.003 77.8083 571.737 77.435 571.56C77.071 571.373 76.665 571.28 76.217 571.28C75.573 571.28 75.0223 571.485 74.565 571.896C74.117 572.307 73.8603 572.876 73.795 573.604H78.639ZM85.3746 570.188C86.3079 570.188 87.0639 570.473 87.6426 571.042C88.2213 571.602 88.5106 572.414 88.5106 573.478V578H87.2506V573.66C87.2506 572.895 87.0593 572.311 86.6766 571.91C86.2939 571.499 85.7713 571.294 85.1086 571.294C84.4366 571.294 83.8999 571.504 83.4986 571.924C83.1066 572.344 82.9106 572.955 82.9106 573.758V578H81.6366V570.328H82.9106V571.42C83.1626 571.028 83.5033 570.725 83.9326 570.51C84.3713 570.295 84.8519 570.188 85.3746 570.188ZM90.1157 574.15C90.1157 573.357 90.2743 572.666 90.5917 572.078C90.909 571.481 91.3477 571.019 91.9077 570.692C92.477 570.365 93.1257 570.202 93.8537 570.202C94.7963 570.202 95.571 570.431 96.1777 570.888C96.7937 571.345 97.1997 571.98 97.3957 572.792H96.0237C95.893 572.325 95.6363 571.957 95.2537 571.686C94.8803 571.415 94.4137 571.28 93.8537 571.28C93.1257 571.28 92.5377 571.532 92.0897 572.036C91.6417 572.531 91.4177 573.235 91.4177 574.15C91.4177 575.074 91.6417 575.788 92.0897 576.292C92.5377 576.796 93.1257 577.048 93.8537 577.048C94.4137 577.048 94.8803 576.917 95.2537 576.656C95.627 576.395 95.8837 576.021 96.0237 575.536H97.3957C97.1903 576.32 96.7797 576.95 96.1637 577.426C95.5477 577.893 94.7777 578.126 93.8537 578.126C93.1257 578.126 92.477 577.963 91.9077 577.636C91.3477 577.309 90.909 576.847 90.5917 576.25C90.2743 575.653 90.1157 574.953 90.1157 574.15ZM106.096 573.87C106.096 574.113 106.082 574.369 106.054 574.64H99.9216C99.9682 575.396 100.225 575.989 100.692 576.418C101.168 576.838 101.742 577.048 102.414 577.048C102.964 577.048 103.422 576.922 103.786 576.67C104.159 576.409 104.42 576.063 104.57 575.634H105.942C105.736 576.371 105.326 576.973 104.71 577.44C104.094 577.897 103.328 578.126 102.414 578.126C101.686 578.126 101.032 577.963 100.454 577.636C99.8842 577.309 99.4362 576.847 99.1096 576.25C98.7829 575.643 98.6196 574.943 98.6196 574.15C98.6196 573.357 98.7782 572.661 99.0956 572.064C99.4129 571.467 99.8562 571.009 100.426 570.692C101.004 570.365 101.667 570.202 102.414 570.202C103.142 570.202 103.786 570.361 104.346 570.678C104.906 570.995 105.335 571.434 105.634 571.994C105.942 572.545 106.096 573.17 106.096 573.87ZM104.78 573.604C104.78 573.119 104.672 572.703 104.458 572.358C104.243 572.003 103.949 571.737 103.576 571.56C103.212 571.373 102.806 571.28 102.358 571.28C101.714 571.28 101.163 571.485 100.706 571.896C100.258 572.307 100.001 572.876 99.9356 573.604H104.78ZM110.493 578.126C109.905 578.126 109.378 578.028 108.911 577.832C108.445 577.627 108.076 577.347 107.805 576.992C107.535 576.628 107.385 576.213 107.357 575.746H108.673C108.711 576.129 108.888 576.441 109.205 576.684C109.532 576.927 109.957 577.048 110.479 577.048C110.965 577.048 111.347 576.941 111.627 576.726C111.907 576.511 112.047 576.241 112.047 575.914C112.047 575.578 111.898 575.331 111.599 575.172C111.301 575.004 110.839 574.841 110.213 574.682C109.644 574.533 109.177 574.383 108.813 574.234C108.459 574.075 108.151 573.847 107.889 573.548C107.637 573.24 107.511 572.839 107.511 572.344C107.511 571.952 107.628 571.593 107.861 571.266C108.095 570.939 108.426 570.683 108.855 570.496C109.285 570.3 109.775 570.202 110.325 570.202C111.175 570.202 111.861 570.417 112.383 570.846C112.906 571.275 113.186 571.863 113.223 572.61H111.949C111.921 572.209 111.758 571.887 111.459 571.644C111.17 571.401 110.778 571.28 110.283 571.28C109.826 571.28 109.462 571.378 109.191 571.574C108.921 571.77 108.785 572.027 108.785 572.344C108.785 572.596 108.865 572.806 109.023 572.974C109.191 573.133 109.397 573.263 109.639 573.366C109.891 573.459 110.237 573.567 110.675 573.688C111.226 573.837 111.674 573.987 112.019 574.136C112.365 574.276 112.659 574.491 112.901 574.78C113.153 575.069 113.284 575.447 113.293 575.914C113.293 576.334 113.177 576.712 112.943 577.048C112.71 577.384 112.379 577.65 111.949 577.846C111.529 578.033 111.044 578.126 110.493 578.126ZM119.482 569.082C119.239 569.082 119.034 568.998 118.866 568.83C118.698 568.662 118.614 568.457 118.614 568.214C118.614 567.971 118.698 567.766 118.866 567.598C119.034 567.43 119.239 567.346 119.482 567.346C119.715 567.346 119.911 567.43 120.07 567.598C120.238 567.766 120.322 567.971 120.322 568.214C120.322 568.457 120.238 568.662 120.07 568.83C119.911 568.998 119.715 569.082 119.482 569.082ZM120.098 570.328V578H118.824V570.328H120.098ZM126.007 570.188C126.941 570.188 127.697 570.473 128.275 571.042C128.854 571.602 129.143 572.414 129.143 573.478V578H127.883V573.66C127.883 572.895 127.692 572.311 127.309 571.91C126.927 571.499 126.404 571.294 125.741 571.294C125.069 571.294 124.533 571.504 124.131 571.924C123.739 572.344 123.543 572.955 123.543 573.758V578H122.269V570.328H123.543V571.42C123.795 571.028 124.136 570.725 124.565 570.51C125.004 570.295 125.485 570.188 126.007 570.188ZM134.719 570.426C134.784 569.567 135.116 568.895 135.713 568.41C136.31 567.925 137.085 567.682 138.037 567.682C138.672 567.682 139.218 567.799 139.675 568.032C140.142 568.256 140.492 568.564 140.725 568.956C140.968 569.348 141.089 569.791 141.089 570.286C141.089 570.865 140.921 571.364 140.585 571.784C140.258 572.204 139.829 572.475 139.297 572.596V572.666C139.904 572.815 140.384 573.109 140.739 573.548C141.094 573.987 141.271 574.561 141.271 575.27C141.271 575.802 141.15 576.283 140.907 576.712C140.664 577.132 140.3 577.463 139.815 577.706C139.33 577.949 138.746 578.07 138.065 578.07C137.076 578.07 136.264 577.813 135.629 577.3C134.994 576.777 134.64 576.04 134.565 575.088H135.797C135.862 575.648 136.091 576.105 136.483 576.46C136.875 576.815 137.398 576.992 138.051 576.992C138.704 576.992 139.199 576.824 139.535 576.488C139.88 576.143 140.053 575.699 140.053 575.158C140.053 574.458 139.82 573.954 139.353 573.646C138.886 573.338 138.182 573.184 137.239 573.184H136.917V572.12H137.253C138.112 572.111 138.76 571.971 139.199 571.7C139.638 571.42 139.857 570.991 139.857 570.412C139.857 569.917 139.694 569.521 139.367 569.222C139.05 568.923 138.592 568.774 137.995 568.774C137.416 568.774 136.95 568.923 136.595 569.222C136.24 569.521 136.03 569.922 135.965 570.426H134.719ZM153.933 573.87C153.933 574.113 153.919 574.369 153.891 574.64H147.759C147.806 575.396 148.063 575.989 148.529 576.418C149.005 576.838 149.579 577.048 150.251 577.048C150.802 577.048 151.259 576.922 151.623 576.67C151.997 576.409 152.258 576.063 152.407 575.634H153.779C153.574 576.371 153.163 576.973 152.547 577.44C151.931 577.897 151.166 578.126 150.251 578.126C149.523 578.126 148.87 577.963 148.291 577.636C147.722 577.309 147.274 576.847 146.947 576.25C146.621 575.643 146.457 574.943 146.457 574.15C146.457 573.357 146.616 572.661 146.933 572.064C147.251 571.467 147.694 571.009 148.263 570.692C148.842 570.365 149.505 570.202 150.251 570.202C150.979 570.202 151.623 570.361 152.183 570.678C152.743 570.995 153.173 571.434 153.471 571.994C153.779 572.545 153.933 573.17 153.933 573.87ZM152.617 573.604C152.617 573.119 152.51 572.703 152.295 572.358C152.081 572.003 151.787 571.737 151.413 571.56C151.049 571.373 150.643 571.28 150.195 571.28C149.551 571.28 149.001 571.485 148.543 571.896C148.095 572.307 147.839 572.876 147.773 573.604H152.617ZM155.139 574.136C155.139 573.352 155.298 572.666 155.615 572.078C155.932 571.481 156.366 571.019 156.917 570.692C157.477 570.365 158.098 570.202 158.779 570.202C159.451 570.202 160.034 570.347 160.529 570.636C161.024 570.925 161.392 571.289 161.635 571.728V570.328H162.923V578H161.635V576.572C161.383 577.02 161.005 577.393 160.501 577.692C160.006 577.981 159.428 578.126 158.765 578.126C158.084 578.126 157.468 577.958 156.917 577.622C156.366 577.286 155.932 576.815 155.615 576.208C155.298 575.601 155.139 574.911 155.139 574.136ZM161.635 574.15C161.635 573.571 161.518 573.067 161.285 572.638C161.052 572.209 160.734 571.882 160.333 571.658C159.941 571.425 159.507 571.308 159.031 571.308C158.555 571.308 158.121 571.42 157.729 571.644C157.337 571.868 157.024 572.195 156.791 572.624C156.558 573.053 156.441 573.557 156.441 574.136C156.441 574.724 156.558 575.237 156.791 575.676C157.024 576.105 157.337 576.437 157.729 576.67C158.121 576.894 158.555 577.006 159.031 577.006C159.507 577.006 159.941 576.894 160.333 576.67C160.734 576.437 161.052 576.105 161.285 575.676C161.518 575.237 161.635 574.729 161.635 574.15ZM167.792 578.126C167.204 578.126 166.677 578.028 166.21 577.832C165.743 577.627 165.375 577.347 165.104 576.992C164.833 576.628 164.684 576.213 164.656 575.746H165.972C166.009 576.129 166.187 576.441 166.504 576.684C166.831 576.927 167.255 577.048 167.778 577.048C168.263 577.048 168.646 576.941 168.926 576.726C169.206 576.511 169.346 576.241 169.346 575.914C169.346 575.578 169.197 575.331 168.898 575.172C168.599 575.004 168.137 574.841 167.512 574.682C166.943 574.533 166.476 574.383 166.112 574.234C165.757 574.075 165.449 573.847 165.188 573.548C164.936 573.24 164.81 572.839 164.81 572.344C164.81 571.952 164.927 571.593 165.16 571.266C165.393 570.939 165.725 570.683 166.154 570.496C166.583 570.3 167.073 570.202 167.624 570.202C168.473 570.202 169.159 570.417 169.682 570.846C170.205 571.275 170.485 571.863 170.522 572.61H169.248C169.22 572.209 169.057 571.887 168.758 571.644C168.469 571.401 168.077 571.28 167.582 571.28C167.125 571.28 166.761 571.378 166.49 571.574C166.219 571.77 166.084 572.027 166.084 572.344C166.084 572.596 166.163 572.806 166.322 572.974C166.49 573.133 166.695 573.263 166.938 573.366C167.19 573.459 167.535 573.567 167.974 573.688C168.525 573.837 168.973 573.987 169.318 574.136C169.663 574.276 169.957 574.491 170.2 574.78C170.452 575.069 170.583 575.447 170.592 575.914C170.592 576.334 170.475 576.712 170.242 577.048C170.009 577.384 169.677 577.65 169.248 577.846C168.828 578.033 168.343 578.126 167.792 578.126ZM178.999 570.328L174.379 581.612H173.062L174.575 577.916L171.481 570.328H172.895L175.303 576.544L177.683 570.328H178.999ZM186.728 578.126C186.14 578.126 185.612 578.028 185.146 577.832C184.679 577.627 184.31 577.347 184.04 576.992C183.769 576.628 183.62 576.213 183.592 575.746H184.908C184.945 576.129 185.122 576.441 185.44 576.684C185.766 576.927 186.191 577.048 186.714 577.048C187.199 577.048 187.582 576.941 187.862 576.726C188.142 576.511 188.282 576.241 188.282 575.914C188.282 575.578 188.132 575.331 187.834 575.172C187.535 575.004 187.073 574.841 186.448 574.682C185.878 574.533 185.412 574.383 185.048 574.234C184.693 574.075 184.385 573.847 184.124 573.548C183.872 573.24 183.746 572.839 183.746 572.344C183.746 571.952 183.862 571.593 184.096 571.266C184.329 570.939 184.66 570.683 185.09 570.496C185.519 570.3 186.009 570.202 186.56 570.202C187.409 570.202 188.095 570.417 188.618 570.846C189.14 571.275 189.42 571.863 189.458 572.61H188.184C188.156 572.209 187.992 571.887 187.694 571.644C187.404 571.401 187.012 571.28 186.518 571.28C186.06 571.28 185.696 571.378 185.426 571.574C185.155 571.77 185.02 572.027 185.02 572.344C185.02 572.596 185.099 572.806 185.258 572.974C185.426 573.133 185.631 573.263 185.874 573.366C186.126 573.459 186.471 573.567 186.91 573.688C187.46 573.837 187.908 573.987 188.254 574.136C188.599 574.276 188.893 574.491 189.136 574.78C189.388 575.069 189.518 575.447 189.528 575.914C189.528 576.334 189.411 576.712 189.178 577.048C188.944 577.384 188.613 577.65 188.184 577.846C187.764 578.033 187.278 578.126 186.728 578.126ZM192.88 571.378V575.9C192.88 576.273 192.959 576.539 193.118 576.698C193.277 576.847 193.552 576.922 193.944 576.922H194.882V578H193.734C193.025 578 192.493 577.837 192.138 577.51C191.783 577.183 191.606 576.647 191.606 575.9V571.378H190.612V570.328H191.606V568.396H192.88V570.328H194.882V571.378H192.88ZM203.426 573.87C203.426 574.113 203.412 574.369 203.384 574.64H197.252C197.298 575.396 197.555 575.989 198.022 576.418C198.498 576.838 199.072 577.048 199.744 577.048C200.294 577.048 200.752 576.922 201.116 576.67C201.489 576.409 201.75 576.063 201.9 575.634H203.272C203.066 576.371 202.656 576.973 202.04 577.44C201.424 577.897 200.658 578.126 199.744 578.126C199.016 578.126 198.362 577.963 197.784 577.636C197.214 577.309 196.766 576.847 196.44 576.25C196.113 575.643 195.95 574.943 195.95 574.15C195.95 573.357 196.108 572.661 196.426 572.064C196.743 571.467 197.186 571.009 197.756 570.692C198.334 570.365 198.997 570.202 199.744 570.202C200.472 570.202 201.116 570.361 201.676 570.678C202.236 570.995 202.665 571.434 202.964 571.994C203.272 572.545 203.426 573.17 203.426 573.87ZM202.11 573.604C202.11 573.119 202.002 572.703 201.788 572.358C201.573 572.003 201.279 571.737 200.906 571.56C200.542 571.373 200.136 571.28 199.688 571.28C199.044 571.28 198.493 571.485 198.036 571.896C197.588 572.307 197.331 572.876 197.266 573.604H202.11ZM206.381 571.742C206.633 571.303 207.007 570.939 207.501 570.65C208.005 570.351 208.589 570.202 209.251 570.202C209.933 570.202 210.549 570.365 211.099 570.692C211.659 571.019 212.098 571.481 212.415 572.078C212.733 572.666 212.891 573.352 212.891 574.136C212.891 574.911 212.733 575.601 212.415 576.208C212.098 576.815 211.659 577.286 211.099 577.622C210.549 577.958 209.933 578.126 209.251 578.126C208.598 578.126 208.019 577.981 207.515 577.692C207.021 577.393 206.643 577.025 206.381 576.586V581.64H205.107V570.328H206.381V571.742ZM211.589 574.136C211.589 573.557 211.473 573.053 211.239 572.624C211.006 572.195 210.689 571.868 210.287 571.644C209.895 571.42 209.461 571.308 208.985 571.308C208.519 571.308 208.085 571.425 207.683 571.658C207.291 571.882 206.974 572.213 206.731 572.652C206.498 573.081 206.381 573.581 206.381 574.15C206.381 574.729 206.498 575.237 206.731 575.676C206.974 576.105 207.291 576.437 207.683 576.67C208.085 576.894 208.519 577.006 208.985 577.006C209.461 577.006 209.895 576.894 210.287 576.67C210.689 576.437 211.006 576.105 211.239 575.676C211.473 575.237 211.589 574.724 211.589 574.136ZM217.284 578.126C216.696 578.126 216.169 578.028 215.702 577.832C215.236 577.627 214.867 577.347 214.596 576.992C214.326 576.628 214.176 576.213 214.148 575.746H215.464C215.502 576.129 215.679 576.441 215.996 576.684C216.323 576.927 216.748 577.048 217.27 577.048C217.756 577.048 218.138 576.941 218.418 576.726C218.698 576.511 218.838 576.241 218.838 575.914C218.838 575.578 218.689 575.331 218.39 575.172C218.092 575.004 217.63 574.841 217.004 574.682C216.435 574.533 215.968 574.383 215.604 574.234C215.25 574.075 214.942 573.847 214.68 573.548C214.428 573.24 214.302 572.839 214.302 572.344C214.302 571.952 214.419 571.593 214.652 571.266C214.886 570.939 215.217 570.683 215.646 570.496C216.076 570.3 216.566 570.202 217.116 570.202C217.966 570.202 218.652 570.417 219.174 570.846C219.697 571.275 219.977 571.863 220.014 572.61H218.74C218.712 572.209 218.549 571.887 218.25 571.644C217.961 571.401 217.569 571.28 217.074 571.28C216.617 571.28 216.253 571.378 215.982 571.574C215.712 571.77 215.576 572.027 215.576 572.344C215.576 572.596 215.656 572.806 215.814 572.974C215.982 573.133 216.188 573.263 216.43 573.366C216.682 573.459 217.028 573.567 217.466 573.688C218.017 573.837 218.465 573.987 218.81 574.136C219.156 574.276 219.45 574.491 219.692 574.78C219.944 575.069 220.075 575.447 220.084 575.914C220.084 576.334 219.968 576.712 219.734 577.048C219.501 577.384 219.17 577.65 218.74 577.846C218.32 578.033 217.835 578.126 217.284 578.126ZM223.535 568.242L223.381 575.242H222.317L222.163 568.242H223.535ZM222.905 578.084C222.662 578.084 222.457 578 222.289 577.832C222.121 577.664 222.037 577.459 222.037 577.216C222.037 576.973 222.121 576.768 222.289 576.6C222.457 576.432 222.662 576.348 222.905 576.348C223.138 576.348 223.334 576.432 223.493 576.6C223.661 576.768 223.745 576.973 223.745 577.216C223.745 577.459 223.661 577.664 223.493 577.832C223.334 578 223.138 578.084 222.905 578.084Z" fill="#7B6F72"/>
<g clip-path="url(#clip0_1_662)">
<path d="M375 236.901C375 236.901 302.933 399.894 191.1 405.5C79.2667 411.105 0 350.512 0 350.512V-37H375V236.901Z" fill="url(#paint0_linear_1_662)"/>
<path d="M141.3 316.412C121.1 367.229 126.867 401.562 126.867 401.562C146.033 405.066 165.5 406.5 184.967 405.867C209.633 405.066 232.433 397.392 253.1 385.747C253.8 357.519 244.167 332.328 237.3 318.014C193.133 339.402 154.6 323.419 141.3 316.412Z" fill="#FAC623"/>
<path d="M147.233 302.732C145.067 307.404 143.067 311.975 141.333 316.412C154.6 323.419 193.167 339.435 237.3 318.014C233.533 310.173 230.567 305.602 230.567 305.602C230.567 305.602 174.4 244.475 147.233 302.732Z" fill="#F2B295"/>
<path d="M191.1 405.5V387.916L206.367 377.305L196.267 391.419L197.3 404.999L191.1 405.5Z" fill="#B88F10"/>
<path d="M118.533 192.625C118.533 192.625 117 193.192 116.733 208.74C116.467 224.289 115.3 255.219 115.3 255.219C115.3 255.219 101.2 242.106 100.167 235.5C99.1333 228.893 99.5666 222.954 98.8666 219.317C98.1666 215.681 98.0333 205.737 98.3333 203.869C98.6333 202 93.8999 201.7 92.5999 204.47C91.2999 207.239 90.8666 216.448 90.1999 216.782C89.5333 217.115 81.8999 217.816 81.1666 219.484C80.4333 221.153 81.7333 224.189 80.5999 226.725C79.4666 229.26 80.6999 231.062 80.5999 232.997C80.4999 234.933 80.0333 235.667 80.8999 238.603C81.7666 241.539 81.9333 244.008 83.3333 244.475L84.7333 244.942L89.6333 246.611C89.6333 246.611 110.633 293.957 121.033 294.991C131.433 296.026 136.867 287.751 138.167 281.078C139.467 274.405 146.433 234.432 146.433 234.432L118.533 192.625Z" fill="#F2B295"/>
<path d="M130.333 225.523L141.867 260.591L146.433 234.399L130.333 225.523Z" fill="#E0855C"/>
<path d="M115.3 255.186C115.3 255.186 125.1 263.427 128.333 270.2C128.333 270.2 123.1 256.32 115.5 249.881L115.3 255.186Z" fill="#E0855C"/>
<path d="M86.3666 244.275C86.3666 244.275 96.6 244.008 97.4333 243.374C98.2666 242.74 98.3 239.737 97.8666 239.37C97.8666 239.37 98.7 234.999 97.9333 233.865C97.9333 233.865 98.2333 230.628 97.9 228.727C97.9 228.727 99.6 238.469 99.4 240.004C99.2 241.539 100 244.142 95.4 244.909C90.8 245.676 86.3666 244.275 86.3666 244.275Z" fill="#E0855C"/>
<path d="M97.9332 233.932C97.8999 233.932 97.8999 233.932 97.8666 233.932C97.6999 233.898 97.5665 233.731 97.5999 233.565C98.0332 230.862 97.3332 225.623 97.3332 225.59V225.523V225.457C97.6332 224.289 98.2666 220.986 97.3999 219.985C96.6332 219.084 89.2332 218.85 84.7332 218.917C84.5665 218.917 84.3999 218.783 84.3999 218.583C84.3999 218.383 84.5332 218.25 84.7332 218.25C86.7332 218.216 96.6999 218.15 97.8999 219.551C99.0999 220.952 98.1666 224.856 97.9999 225.557C98.0666 226.191 98.6666 230.995 98.2332 233.665C98.2332 233.832 98.0665 233.932 97.9332 233.932Z" fill="#472938"/>
<path d="M97.6666 225.857C97.6666 225.857 97.6333 225.857 97.6666 225.857L86.9333 225.357C86.7333 225.357 86.6 225.19 86.6 225.023C86.6 224.823 86.7333 224.689 86.9333 224.689L97.6666 225.19C97.8666 225.19 98 225.357 98 225.523C98 225.724 97.8333 225.857 97.6666 225.857Z" fill="#472938"/>
<path d="M97.8333 239.704H87.2667C87.0667 239.704 86.9333 239.571 86.9333 239.37C86.9333 239.17 87.0667 239.037 87.2667 239.037H97.8333C98.0333 239.037 98.1667 239.17 98.1667 239.37C98.1667 239.571 98.0333 239.704 97.8333 239.704Z" fill="#472938"/>
<path d="M98.0333 232.43H85.8999C85.6999 232.43 85.5666 232.297 85.5666 232.097C85.5666 231.896 85.6999 231.763 85.8999 231.763H98.0333C98.2333 231.763 98.3666 231.896 98.3666 232.097C98.3666 232.297 98.2333 232.43 98.0333 232.43Z" fill="#472938"/>
<path d="M278.967 176.375L299.167 175.608C300.033 175.575 300.767 176.242 300.8 177.109L302.367 218.817C302.4 219.684 301.733 220.418 300.867 220.452L280.667 221.219C279.8 221.253 279.067 220.585 279.033 219.718L277.467 178.01C277.433 177.109 278.1 176.409 278.967 176.375Z" fill="#3B2645"/>
<path d="M280.6 219.851C280.467 219.851 280.367 219.751 280.367 219.618L278.8 177.91C278.8 177.843 278.833 177.777 278.867 177.743C278.9 177.71 278.967 177.677 279.033 177.677L299.233 176.909C299.367 176.909 299.467 177.009 299.467 177.143L301.033 218.85C301.033 218.984 300.933 219.084 300.8 219.084L280.6 219.851Z" fill="#FEF9EF"/>
<path d="M216.333 171.204C216.333 171.204 237.533 173.339 241.467 190.556C245.4 207.773 252.667 248.679 252.667 248.679C252.667 248.679 268.133 223.888 269.367 219.951C270.6 216.014 274.6 202.701 274.467 198.163C274.333 193.626 278.767 196.862 278.767 202.267L279.433 220.151C279.467 220.752 279.967 221.219 280.567 221.186H280.6L301.067 219.651C301.767 219.618 302.267 219.017 302.233 218.316V218.083C302.233 218.083 300.767 215.047 301.2 213.645C301.633 212.244 305.133 212.11 305.533 212.444C305.933 212.778 308.1 216.948 308.033 218.083C307.967 219.217 305.433 222.754 303.767 223.288C302.1 223.822 285.5 227.826 282.1 232.964C278.7 238.102 263.833 283.113 251.767 286.583C239.7 290.053 227.933 257.321 225.167 247.745C222.4 238.169 216.333 171.204 216.333 171.204Z" fill="#F2B295"/>
<path d="M221.667 224.289C222.967 235.333 224.267 244.609 225.167 247.712C226.467 252.183 229.733 261.759 234.1 270.301L235.433 207.406L221.667 224.289Z" fill="#E0855C"/>
<path d="M301.667 200.566C301.667 200.566 308.9 204.269 308.767 205.837C308.633 207.406 307.267 210.208 305.867 210.075C304.467 209.941 301.833 208.54 301.1 206.905C300.367 205.27 300 200.032 301.667 200.566Z" fill="#F2B295"/>
<path d="M302.033 206.004C302.033 206.004 309.267 209.708 309.133 211.276C309 212.844 307.633 215.647 306.233 215.514C304.833 215.38 302.2 213.979 301.467 212.344C300.733 210.709 300.367 205.47 302.033 206.004Z" fill="#F2B295"/>
<path d="M302.033 193.959C302.033 193.959 309.267 197.663 309.133 199.231C309 200.799 307.633 203.602 306.233 203.469C304.833 203.335 302.2 201.934 301.467 200.299C300.733 198.664 300.367 193.392 302.033 193.959Z" fill="#F2B295"/>
<path d="M246.133 261.926C246.067 261.926 246.033 261.926 245.967 261.892C245.8 261.826 245.733 261.592 245.833 261.459L252.367 248.546C252.433 248.379 252.667 248.312 252.8 248.413C252.967 248.479 253.033 248.713 252.933 248.846L246.4 261.759C246.367 261.859 246.267 261.926 246.133 261.926Z" fill="#472938"/>
<path d="M152.5 280.244C152.533 291.088 147.233 302.699 147.233 302.699C147.233 302.699 183.933 323.319 230.533 305.568C230.533 305.568 224.833 290.887 225.567 275.539C187.9 268.532 152.5 280.244 152.5 280.244Z" fill="#F2B295"/>
<path d="M118.533 192.625C115.8 196.729 126.333 217.149 136.4 237.802C145.567 217.282 140.2 192.358 137.1 181.647C130 184.383 121.3 188.421 118.533 192.625Z" fill="#F2B295"/>
<path d="M225.567 275.572C225.633 273.971 225.8 272.369 226.033 270.768C226.167 269.8 226.333 268.766 226.5 267.665C196.6 259.49 161 268.833 150.967 271.802C151.933 275.105 152.5 277.975 152.5 280.244C152.5 280.244 187.9 268.532 225.567 275.572Z" fill="#F2B295"/>
<path d="M136.4 238.903C136.267 238.903 136.167 238.837 136.1 238.703L128.667 222.687C128.6 222.521 128.667 222.32 128.833 222.254C129 222.187 129.2 222.254 129.267 222.42L136.7 238.436C136.767 238.603 136.7 238.803 136.533 238.87C136.5 238.903 136.433 238.903 136.4 238.903Z" fill="#BB941B"/>
<path d="M193.4 309.606C193.915 309.606 194.333 309.187 194.333 308.671C194.333 308.155 193.915 307.737 193.4 307.737C192.884 307.737 192.467 308.155 192.467 308.671C192.467 309.187 192.884 309.606 193.4 309.606Z" fill="#E0855C"/>
<path d="M233.833 209.374C233.833 209.141 233.833 208.907 233.833 208.707C233.833 208.607 233.833 208.473 233.833 208.373C233.833 208.106 233.833 207.873 233.8 207.606C233.8 207.539 233.8 207.472 233.8 207.372C233.8 207.039 233.767 206.738 233.767 206.438V206.238C233.767 206.004 233.733 205.737 233.733 205.504C233.733 205.404 233.733 205.304 233.7 205.204C233.7 205.003 233.667 204.803 233.667 204.636L233.633 204.303C233.633 204.136 233.6 203.936 233.567 203.769C233.567 203.669 233.533 203.569 233.533 203.435C233.5 203.235 233.5 203.068 233.467 202.868C233.467 202.768 233.433 202.701 233.433 202.601C233.4 202.334 233.367 202.067 233.3 201.8C230.7 185.985 216.3 171.17 216.3 171.17C216.3 171.17 221.9 193.425 223.7 196.028C230.267 205.571 233.933 211.31 233.467 218.917C233.5 218.517 233.533 218.15 233.567 217.749C233.567 217.649 233.567 217.549 233.567 217.449C233.6 217.149 233.6 216.848 233.633 216.581C233.633 216.481 233.633 216.348 233.667 216.248C233.667 215.981 233.7 215.714 233.7 215.414L233.733 215.08C233.733 214.78 233.767 214.513 233.767 214.246C233.767 214.146 233.767 214.079 233.767 213.979C233.8 213.245 233.833 212.511 233.833 211.777C233.833 211.677 233.833 211.61 233.833 211.51C233.833 211.243 233.833 210.976 233.833 210.709V210.375C233.833 210.142 233.833 209.908 233.833 209.675V209.374Z" fill="#F2B295"/>
<path d="M223.7 196.061C221.9 193.459 216.333 171.204 216.333 171.204H212.1L147.233 178.144C147.233 178.144 142.667 179.478 137.1 181.614C140.167 192.324 145.567 217.282 136.4 237.769C142.433 250.181 148.267 262.66 150.933 271.802C160.967 268.799 196.567 259.49 226.467 267.665C228.433 255.052 232.233 234.966 233.467 218.95C233.933 211.343 230.267 205.604 223.7 196.061Z" fill="#FAC623"/>
<path d="M158.1 254.185C156.5 254.185 154.833 253.985 153.067 253.551C152.9 253.517 152.767 253.317 152.833 253.15C152.867 252.984 153.067 252.85 153.233 252.917C159.567 254.518 164.7 252.683 170.1 250.781C175.233 248.946 180.533 247.078 187.333 247.845C201.067 249.38 223.433 245.676 223.667 245.643C223.867 245.61 224.033 245.743 224.067 245.91C224.1 246.077 223.967 246.277 223.8 246.31C223.567 246.344 201.1 250.081 187.3 248.546C180.667 247.812 175.433 249.647 170.367 251.449C166.3 252.817 162.433 254.185 158.1 254.185Z" fill="#BB941B"/>
<path d="M209.367 82.25C209.367 82.25 226.767 83.9851 221.533 107.141C216.3 130.297 221.467 129.263 226 141.508C230.533 153.753 206.833 145.645 206.833 145.645C206.833 145.645 218.9 163.73 154.767 155.922C101.867 149.482 137.167 121.889 137.167 121.889C137.167 121.889 121.267 123.991 140.3 107.174C153.7 95.3295 160.833 51.7869 209.367 82.25Z" fill="#D06123"/>
<path d="M197.833 146.313C197.833 146.313 192.467 165.165 199.833 168.668C205.5 171.371 212.1 171.204 212.1 171.204C212.1 171.204 209.833 221.186 181.833 221.72C153.833 222.254 147.233 178.144 147.233 178.144C147.233 178.144 158.633 174.14 162.033 166.299C165.433 158.458 165.6 147.481 165.6 147.481L197.833 146.313Z" fill="#F2B295"/>
<path d="M211.285 132.06C214.138 127.113 214.073 121.729 211.14 120.033C208.207 118.338 203.515 120.974 200.662 125.921C197.808 130.868 197.873 136.253 200.807 137.948C203.74 139.644 208.431 137.008 211.285 132.06Z" fill="#E0855C"/>
<path d="M204.3 132.433C204.2 132.433 204.133 132.399 204.067 132.332C203.933 132.199 203.933 131.999 204.067 131.865L209.1 127.127C209.233 126.994 209.433 126.994 209.567 127.127C209.7 127.261 209.7 127.461 209.567 127.594L204.533 132.332C204.467 132.433 204.4 132.433 204.3 132.433Z" fill="#472938"/>
<path d="M158.838 134.188C162.134 133.408 163.741 128.269 162.427 122.71C161.114 117.151 157.377 113.277 154.08 114.058C150.784 114.838 149.177 119.978 150.491 125.536C151.805 131.095 155.542 134.969 158.838 134.188Z" fill="#F2B295"/>
<path d="M196.167 162.395C195.167 155.655 197.833 146.279 197.833 146.279L165.567 147.48C165.567 147.48 165.533 149.916 165.133 153.32C165.133 153.353 181.233 172.872 196.167 162.395Z" fill="#E0855C"/>
<path d="M157.967 127.361C157.867 127.361 157.767 127.294 157.7 127.194L154.5 122.289C154.4 122.122 154.433 121.922 154.6 121.822C154.767 121.722 154.967 121.755 155.067 121.922L158.267 126.827C158.367 126.994 158.333 127.194 158.167 127.294C158.1 127.361 158.033 127.361 157.967 127.361Z" fill="#472938"/>
<path d="M160.1 92.1597C160.1 92.1597 148.633 154.12 175.567 160.56C202.5 167 212.1 109.21 211.4 97.198C210.7 85.1862 164.1 81.5494 160.1 92.1597Z" fill="#F2B295"/>
<path d="M195.933 120.487C196.8 120.654 197.367 121.488 197.233 122.356L197.067 123.324C196.9 124.191 196.067 124.758 195.2 124.625C194.333 124.458 193.767 123.624 193.9 122.756L194.067 121.789C194.233 120.921 195.067 120.321 195.933 120.487Z" fill="#472938"/>
<path d="M170.833 117.685C171.733 117.685 172.433 118.385 172.433 119.286V120.254C172.433 121.121 171.733 121.855 170.833 121.855C169.967 121.855 169.233 121.155 169.233 120.254V119.286C169.233 118.385 169.933 117.685 170.833 117.685Z" fill="#472938"/>
<path d="M201.8 118.819C201.8 118.819 200.6 117.017 197.133 116.417C193.667 115.816 192.567 116.016 192.533 114.915C192.5 113.814 200.267 112.113 201.8 118.819Z" fill="#D06123"/>
<path d="M165.8 114.248C165.8 114.248 167.533 112.947 171 113.514C174.467 114.115 175.433 114.648 175.833 113.614C176.233 112.58 169.467 108.409 165.8 114.248Z" fill="#472938"/>
<path d="M172.4 137.871L186.8 139.506C186.8 139.506 184.567 149.249 178.2 148.114C171.867 147.013 172.4 137.871 172.4 137.871Z" fill="white"/>
<path d="M181.933 135.469C180.933 135.469 179.833 135.202 178.833 134.735C178.667 134.668 178.6 134.468 178.667 134.301C178.733 134.134 178.933 134.067 179.1 134.134C180.567 134.835 182.2 135.002 183.3 134.568C183.767 134.401 184.067 134.134 184.2 133.834C184.633 132.799 184.467 129.596 184.267 125.893L184.2 124.591C183.833 117.751 187.933 116.45 188.1 116.383C188.267 116.317 188.467 116.417 188.5 116.617C188.567 116.784 188.467 116.984 188.267 117.017C188.1 117.051 184.5 118.252 184.833 124.558L184.9 125.859C185.1 129.796 185.3 132.933 184.767 134.101C184.567 134.568 184.133 134.968 183.5 135.202C183.1 135.402 182.533 135.469 181.933 135.469Z" fill="#472938"/>
<path d="M206.833 126.627C206.833 126.627 209 109.91 201.8 100.768C201.8 100.768 195.7 112.313 185.7 108.309C185.7 108.309 171.967 120.22 157.967 116.75C143.967 113.28 148.933 80.515 169.233 79.1136C189.533 77.7122 230.833 85.8869 206.833 126.627Z" fill="#D06123"/>
</g>
<defs>
<linearGradient id="paint0_linear_1_662" x1="375" y1="405.866" x2="-125.641" y2="373.062" gradientUnits="userSpaceOnUse">
<stop stop-color="#6A9CAD" stop-opacity="0.46"/>
<stop offset="1" stop-color="#6A9CAD"/>
</linearGradient>
<clipPath id="clip0_1_662">
<rect width="375" height="406" fill="white"/>
</clipPath>
</defs>
</svg>
