<svg width="375" height="812" viewBox="0 0 375 812" fill="none" xmlns="http://www.w3.org/2000/svg">
<g clip-path="url(#clip0_290_8956)">
<rect width="375" height="812" rx="40" fill="white"/>
<path d="M76.526 341.136L73.448 351H71.756L69.38 343.17L67.004 351H65.312L62.216 341.136H63.89L66.158 349.416L68.606 341.136H70.28L72.674 349.434L74.906 341.136H76.526ZM87.1516 345.69C87.1516 346.002 87.1336 346.332 87.0976 346.68H79.2136C79.2736 347.652 79.6036 348.414 80.2036 348.966C80.8156 349.506 81.5536 349.776 82.4176 349.776C83.1256 349.776 83.7136 349.614 84.1816 349.29C84.6616 348.954 84.9976 348.51 85.1896 347.958H86.9536C86.6896 348.906 86.1616 349.68 85.3696 350.28C84.5776 350.868 83.5936 351.162 82.4176 351.162C81.4816 351.162 80.6416 350.952 79.8976 350.532C79.1656 350.112 78.5896 349.518 78.1696 348.75C77.7496 347.97 77.5396 347.07 77.5396 346.05C77.5396 345.03 77.7436 344.136 78.1516 343.368C78.5596 342.6 79.1296 342.012 79.8616 341.604C80.6056 341.184 81.4576 340.974 82.4176 340.974C83.3536 340.974 84.1816 341.178 84.9016 341.586C85.6216 341.994 86.1736 342.558 86.5576 343.278C86.9536 343.986 87.1516 344.79 87.1516 345.69ZM85.4596 345.348C85.4596 344.724 85.3216 344.19 85.0456 343.746C84.7696 343.29 84.3916 342.948 83.9116 342.72C83.4436 342.48 82.9216 342.36 82.3456 342.36C81.5176 342.36 80.8096 342.624 80.2216 343.152C79.6456 343.68 79.3156 344.412 79.2316 345.348H85.4596ZM97.6046 351.162C96.8486 351.162 96.1706 351.036 95.5706 350.784C94.9706 350.52 94.4966 350.16 94.1486 349.704C93.8006 349.236 93.6086 348.702 93.5726 348.102H95.2646C95.3126 348.594 95.5406 348.996 95.9486 349.308C96.3686 349.62 96.9146 349.776 97.5866 349.776C98.2106 349.776 98.7026 349.638 99.0626 349.362C99.4226 349.086 99.6026 348.738 99.6026 348.318C99.6026 347.886 99.4106 347.568 99.0266 347.364C98.6426 347.148 98.0486 346.938 97.2446 346.734C96.5126 346.542 95.9126 346.35 95.4446 346.158C94.9886 345.954 94.5926 345.66 94.2566 345.276C93.9326 344.88 93.7706 344.364 93.7706 343.728C93.7706 343.224 93.9206 342.762 94.2206 342.342C94.5206 341.922 94.9466 341.592 95.4986 341.352C96.0506 341.1 96.6806 340.974 97.3886 340.974C98.4806 340.974 99.3626 341.25 100.035 341.802C100.707 342.354 101.067 343.11 101.115 344.07H99.4766C99.4406 343.554 99.2306 343.14 98.8466 342.828C98.4746 342.516 97.9706 342.36 97.3346 342.36C96.7466 342.36 96.2786 342.486 95.9306 342.738C95.5826 342.99 95.4086 343.32 95.4086 343.728C95.4086 344.052 95.5106 344.322 95.7146 344.538C95.9306 344.742 96.1946 344.91 96.5066 345.042C96.8306 345.162 97.2746 345.3 97.8386 345.456C98.5466 345.648 99.1226 345.84 99.5666 346.032C100.011 346.212 100.389 346.488 100.701 346.86C101.025 347.232 101.193 347.718 101.205 348.318C101.205 348.858 101.055 349.344 100.755 349.776C100.455 350.208 100.029 350.55 99.4766 350.802C98.9366 351.042 98.3126 351.162 97.6046 351.162ZM112.517 345.69C112.517 346.002 112.499 346.332 112.463 346.68H104.579C104.639 347.652 104.969 348.414 105.569 348.966C106.181 349.506 106.919 349.776 107.783 349.776C108.491 349.776 109.079 349.614 109.547 349.29C110.027 348.954 110.363 348.51 110.555 347.958H112.319C112.055 348.906 111.527 349.68 110.735 350.28C109.943 350.868 108.959 351.162 107.783 351.162C106.847 351.162 106.007 350.952 105.263 350.532C104.531 350.112 103.955 349.518 103.535 348.75C103.115 347.97 102.905 347.07 102.905 346.05C102.905 345.03 103.109 344.136 103.517 343.368C103.925 342.6 104.495 342.012 105.227 341.604C105.971 341.184 106.823 340.974 107.783 340.974C108.719 340.974 109.547 341.178 110.267 341.586C110.987 341.994 111.539 342.558 111.923 343.278C112.319 343.986 112.517 344.79 112.517 345.69ZM110.825 345.348C110.825 344.724 110.687 344.19 110.411 343.746C110.135 343.29 109.757 342.948 109.277 342.72C108.809 342.48 108.287 342.36 107.711 342.36C106.883 342.36 106.175 342.624 105.587 343.152C105.011 343.68 104.681 344.412 104.597 345.348H110.825ZM116.677 342.486V348.3C116.677 348.78 116.779 349.122 116.983 349.326C117.187 349.518 117.541 349.614 118.045 349.614H119.251V351H117.775C116.863 351 116.179 350.79 115.723 350.37C115.267 349.95 115.039 349.26 115.039 348.3V342.486H113.761V341.136H115.039V338.652H116.677V341.136H119.251V342.486H116.677ZM134.53 341.136L128.59 355.644H126.898L128.842 350.892L124.864 341.136H126.682L129.778 349.128L132.838 341.136H134.53ZM140.479 351.162C139.555 351.162 138.715 350.952 137.959 350.532C137.215 350.112 136.627 349.518 136.195 348.75C135.775 347.97 135.565 347.07 135.565 346.05C135.565 345.042 135.781 344.154 136.213 343.386C136.657 342.606 137.257 342.012 138.013 341.604C138.769 341.184 139.615 340.974 140.551 340.974C141.487 340.974 142.333 341.184 143.089 341.604C143.845 342.012 144.439 342.6 144.871 343.368C145.315 344.136 145.537 345.03 145.537 346.05C145.537 347.07 145.309 347.97 144.853 348.75C144.409 349.518 143.803 350.112 143.035 350.532C142.267 350.952 141.415 351.162 140.479 351.162ZM140.479 349.722C141.067 349.722 141.619 349.584 142.135 349.308C142.651 349.032 143.065 348.618 143.377 348.066C143.701 347.514 143.863 346.842 143.863 346.05C143.863 345.258 143.707 344.586 143.395 344.034C143.083 343.482 142.675 343.074 142.171 342.81C141.667 342.534 141.121 342.396 140.533 342.396C139.933 342.396 139.381 342.534 138.877 342.81C138.385 343.074 137.989 343.482 137.689 344.034C137.389 344.586 137.239 345.258 137.239 346.05C137.239 346.854 137.383 347.532 137.671 348.084C137.971 348.636 138.367 349.05 138.859 349.326C139.351 349.59 139.891 349.722 140.479 349.722ZM156.439 341.136V351H154.801V349.542C154.489 350.046 154.051 350.442 153.487 350.73C152.935 351.006 152.323 351.144 151.651 351.144C150.883 351.144 150.193 350.988 149.581 350.676C148.969 350.352 148.483 349.872 148.123 349.236C147.775 348.6 147.601 347.826 147.601 346.914V341.136H149.221V346.698C149.221 347.67 149.467 348.42 149.959 348.948C150.451 349.464 151.123 349.722 151.975 349.722C152.851 349.722 153.541 349.452 154.045 348.912C154.549 348.372 154.801 347.586 154.801 346.554V341.136H156.439ZM172.751 341.136V351H171.113V349.542C170.801 350.046 170.363 350.442 169.799 350.73C169.247 351.006 168.635 351.144 167.963 351.144C167.195 351.144 166.505 350.988 165.893 350.676C165.281 350.352 164.795 349.872 164.435 349.236C164.087 348.6 163.913 347.826 163.913 346.914V341.136H165.533V346.698C165.533 347.67 165.779 348.42 166.271 348.948C166.763 349.464 167.435 349.722 168.287 349.722C169.163 349.722 169.853 349.452 170.357 348.912C170.861 348.372 171.113 347.586 171.113 346.554V341.136H172.751ZM177.155 342.954C177.479 342.39 177.959 341.922 178.595 341.55C179.243 341.166 179.993 340.974 180.845 340.974C181.721 340.974 182.513 341.184 183.221 341.604C183.941 342.024 184.505 342.618 184.913 343.386C185.321 344.142 185.525 345.024 185.525 346.032C185.525 347.028 185.321 347.916 184.913 348.696C184.505 349.476 183.941 350.082 183.221 350.514C182.513 350.946 181.721 351.162 180.845 351.162C180.005 351.162 179.261 350.976 178.613 350.604C177.977 350.22 177.491 349.746 177.155 349.182V355.68H175.517V341.136H177.155V342.954ZM183.851 346.032C183.851 345.288 183.701 344.64 183.401 344.088C183.101 343.536 182.693 343.116 182.177 342.828C181.673 342.54 181.115 342.396 180.503 342.396C179.903 342.396 179.345 342.546 178.829 342.846C178.325 343.134 177.917 343.56 177.605 344.124C177.305 344.676 177.155 345.318 177.155 346.05C177.155 346.794 177.305 347.448 177.605 348.012C177.917 348.564 178.325 348.99 178.829 349.29C179.345 349.578 179.903 349.722 180.503 349.722C181.115 349.722 181.673 349.578 182.177 349.29C182.693 348.99 183.101 348.564 183.401 348.012C183.701 347.448 183.851 346.788 183.851 346.032ZM188.203 351.108C187.891 351.108 187.627 351 187.411 350.784C187.195 350.568 187.087 350.304 187.087 349.992C187.087 349.68 187.195 349.416 187.411 349.2C187.627 348.984 187.891 348.876 188.203 348.876C188.503 348.876 188.755 348.984 188.959 349.2C189.175 349.416 189.283 349.68 189.283 349.992C189.283 350.304 189.175 350.568 188.959 350.784C188.755 351 188.503 351.108 188.203 351.108Z" fill="#FAC623"/>
<path d="M94.008 300.728L87.42 326H79.968L75.936 309.368L71.76 326H64.308L57.9 300.728H64.488L68.124 319.124L72.624 300.728H79.392L83.712 319.124L87.384 300.728H94.008ZM103.251 300.728V326H97.0953V300.728H103.251ZM130.32 326H124.164L113.868 310.412V326H107.712V300.728H113.868L124.164 316.388V300.728H130.32V326ZM151.559 308.72C151.103 307.88 150.443 307.244 149.579 306.812C148.739 306.356 147.743 306.128 146.591 306.128C144.599 306.128 143.003 306.788 141.803 308.108C140.603 309.404 140.003 311.144 140.003 313.328C140.003 315.656 140.627 317.48 141.875 318.8C143.147 320.096 144.887 320.744 147.095 320.744C148.607 320.744 149.879 320.36 150.911 319.592C151.967 318.824 152.735 317.72 153.215 316.28H145.403V311.744H158.795V317.468C158.339 319.004 157.559 320.432 156.455 321.752C155.375 323.072 153.995 324.14 152.315 324.956C150.635 325.772 148.739 326.18 146.627 326.18C144.131 326.18 141.899 325.64 139.931 324.56C137.987 323.456 136.463 321.932 135.359 319.988C134.279 318.044 133.739 315.824 133.739 313.328C133.739 310.832 134.279 308.612 135.359 306.668C136.463 304.7 137.987 303.176 139.931 302.096C141.875 300.992 144.095 300.44 146.591 300.44C149.615 300.44 152.159 301.172 154.223 302.636C156.311 304.1 157.691 306.128 158.363 308.72H151.559ZM190.825 300.728V326H184.669V310.844L179.017 326H174.049L168.361 310.808V326H162.205V300.728H169.477L176.569 318.224L183.589 300.728H190.825ZM210.984 321.536H201.552L200.04 326H193.596L202.74 300.728H209.868L219.012 326H212.496L210.984 321.536ZM209.4 316.784L206.268 307.532L203.172 316.784H209.4ZM244.403 326H238.247L227.951 310.412V326H221.795V300.728H227.951L238.247 316.388V300.728H244.403V326Z" fill="url(#paint0_linear_290_8956)"/>
<g clip-path="url(#clip1_290_8956)">
<path fill-rule="evenodd" clip-rule="evenodd" d="M339.556 569.83L337.244 568.666C336.666 568.083 335.51 567.21 333.177 566.628C331.732 566.336 330.287 565.463 330.287 564.007C330.287 563.404 330.865 561.949 329.998 561.075C328.842 559.911 328.264 561.366 327.686 562.822C326.799 559.619 325.643 556.417 324.198 553.194C322.464 547.953 323.331 549.7 321.308 545.021C317.53 536.557 311.44 529.549 304.215 524.6V524.288C303.906 524.288 303.617 523.705 303.617 523.414C302.75 517.883 303.617 512.039 303.039 506.195C302.75 504.449 302.75 502.993 302.75 501.246V495.111C302.75 493.656 302.75 492.179 302.461 490.723C302.172 486.939 301.594 483.424 301.016 479.93C302.172 478.184 303.617 476.416 302.75 474.669C302.461 472.34 300.727 470.302 299.571 468.243C297.837 464.75 295.793 460.944 293.481 458.033C292.614 457.159 291.458 455.995 290.591 454.83C290.88 454.83 291.169 454.83 291.458 454.539C291.458 454.539 292.036 454.248 291.458 454.248C291.169 453.354 290.88 453.062 290.013 452.771C290.88 452.189 291.169 451.316 290.88 450.151C290.591 449.278 289.724 448.404 289.435 447.531C288.568 446.054 287.97 444.599 287.681 442.852C286.814 438.776 287.103 434.679 288.568 431.185C290.013 427.38 292.325 423.886 294.059 420.663C295.793 416.878 298.415 412.781 299.86 408.996C300.727 407.541 301.016 405.482 300.727 403.735C300.727 402.571 299.86 401.697 299.86 400.241C299.86 398.183 301.016 396.436 301.016 396.436C304.215 397.309 306.816 396.436 307.972 396.145C312.906 394.689 314.64 389.137 314.64 384.478C315.796 385.643 315.507 387.39 315.218 388.845C314.64 390.301 314.351 391.778 313.773 392.942C312.617 395.271 311.44 397.892 311.151 400.824C309.995 406.647 312.906 411.034 316.374 415.422C316.374 415.713 316.663 415.422 316.663 415.131V412.781L317.241 413.655C317.819 413.655 317.819 413.655 317.819 413.364C316.663 408.414 321.019 404.9 322.464 400.533C322.464 400.824 322.753 400.824 322.753 400.533C323.042 396.145 326.799 393.233 327.397 389.137C327.975 385.643 325.643 382.128 323.042 380.09C322.175 378.926 320.73 377.761 318.686 377.179C318.108 376.888 316.663 377.179 315.796 376.306C315.218 375.994 315.218 374.829 315.218 374.247C314.062 371.335 312.039 369.006 309.128 368.112C306.816 367.239 305.082 368.112 302.75 367.53C302.172 367.53 301.305 367.239 301.016 366.948C299.282 366.948 297.837 367.239 296.082 367.53C294.637 368.112 293.192 368.715 291.747 369.589C289.435 370.462 288.857 372.791 287.681 374.829C287.681 375.994 286.814 377.179 286.525 377.761C285.947 379.799 285.08 381.546 284.791 383.584C284.791 384.187 284.791 384.478 284.502 384.478C282.19 380.09 280.146 376.306 280.146 375.411C280.435 372.791 280.435 370.171 280.146 367.53C279.279 361.416 277.545 348.564 277.545 348.564C276.389 343.303 278.123 332.51 278.123 332.219C278.701 330.763 278.701 329.307 278.123 327.831C277.834 326.084 277.834 324.628 277.256 322.882C276.678 321.426 276.1 320.241 275.233 319.367L272.034 315H271.745C270.878 315.582 271.456 317.038 271.745 317.911C270.878 317.62 270.011 316.456 268.855 317.038C268.855 317.038 268.566 317.038 268.566 317.329C268.855 318.494 269.433 319.076 270.3 319.949C270.878 320.241 271.745 320.823 272.323 321.426C271.745 320.823 270.878 320.823 270.878 322.008C270.878 322.882 272.034 323.173 272.323 323.755C273.21 324.628 273.499 325.211 273.499 326.084C273.21 327.249 272.901 328.704 272.034 329.599C271.745 327.831 271.456 325.793 270.011 324.628C268.855 323.755 267.988 324.628 268.566 325.793C268.855 326.375 269.144 327.249 269.144 327.831C269.433 328.995 269.144 329.599 268.855 330.763C268.566 331.928 267.988 332.51 267.988 333.675C267.988 336.004 270.011 337.771 270.589 339.809C271.456 342.429 267.699 365.783 267.699 369.006V373.956C267.121 380.382 274.366 393.816 279.568 402.571L274.655 405.191C272.901 406.355 270.878 407.541 270.011 409.288C268.855 411.034 268.566 412.781 267.988 414.819C263.632 420.081 261.32 424.468 260.742 425.633C260.164 427.962 259.008 430 257.852 432.35C256.964 432.641 256.097 432.932 254.941 433.806C249.141 436.717 238.138 441.978 238.138 442.561C233.205 444.89 222.491 446.949 222.491 446.949C221.046 446.949 219.601 447.24 218.425 448.404C216.98 449.278 215.535 449.86 213.801 450.733C212.645 451.607 212.067 452.771 211.2 453.645L208 458.033V458.615C208.578 459.197 209.734 458.615 210.601 457.45C210.023 458.615 209.734 459.488 210.601 460.362C210.601 460.362 210.911 460.653 210.911 460.362C212.067 459.488 212.356 458.906 212.645 457.741C212.934 456.577 212.934 455.995 213.512 455.121C213.512 455.995 213.801 456.577 214.379 456.286C215.246 455.995 215.246 454.83 215.535 454.539C215.824 453.645 216.691 453.062 217.269 452.771C218.425 452.771 219.89 452.771 221.335 453.062C219.601 453.645 217.847 454.83 217.269 457.159C216.98 458.615 218.136 458.615 218.734 458.033C219.601 457.741 219.89 457.159 220.757 456.577C221.624 455.995 222.491 455.995 223.647 455.995H226.558C228.581 455.121 229.737 453.062 231.471 451.607C232.916 450.442 246.829 447.822 254.652 446.366C254.652 448.695 254.652 451.316 255.519 453.354C255.519 453.354 255.808 453.645 255.808 453.354C256.097 453.062 256.386 453.062 256.964 453.062C256.386 453.354 256.386 454.248 256.386 454.539V455.995C256.386 457.159 256.097 457.45 255.519 458.615C254.941 458.906 254.652 459.488 254.363 460.071C254.652 460.071 255.519 460.071 255.808 460.362H256.964C254.941 462.421 253.496 465.041 252.629 467.37C251.762 469.117 251.473 470.593 250.318 472.34C249.739 473.505 248.563 474.669 248.563 475.543C247.985 476.998 248.852 478.184 250.028 479.057C250.318 479.348 247.407 486.647 247.118 487.812C245.673 492.47 244.517 497.44 243.939 502.702C243.361 505.322 242.783 507.36 242.494 510.001C241.895 511.748 242.494 514.368 241.317 516.115C240.45 517.3 239.872 520.794 239.872 523.414C239.872 526.055 240.45 527.511 240.45 527.511C240.161 536.266 236.982 562.24 236.115 575.383V575.674C235.826 576.838 235.537 578.294 235.248 579.188C234.67 580.062 234.381 581.226 234.072 582.1C232.916 581.226 230.893 580.644 230.026 582.1V582.682C230.315 583.555 230.315 584.72 230.026 585.593C229.737 588.525 227.425 590.272 224.514 590.855C222.78 591.728 221.046 592.019 219.023 593.184C216.98 594.348 212.356 596.407 212.356 599.318C212.356 599.61 211.778 599.61 211.778 600.192C212.356 601.065 212.645 602.23 213.801 603.124L214.09 603.415C214.379 603.415 214.379 603.706 214.957 603.706C218.136 605.453 222.78 604.58 226.248 603.997H228.292C228.87 603.706 229.737 603.706 230.315 603.706H231.182C231.76 603.706 232.338 603.706 232.916 603.415H236.982C238.138 603.415 239.583 603.706 241.028 603.706H244.228C245.673 603.706 247.118 603.415 247.696 602.542C248.563 600.483 247.118 599.027 246.251 597.28C245.673 594.951 245.384 592.893 245.673 590.563C245.673 588.817 246.251 587.361 245.384 585.884C244.517 585.011 243.939 584.72 243.072 584.429V583.264C243.361 581.226 243.939 578.876 244.517 576.838C244.806 575.383 245.095 574.218 245.673 572.762C246.251 570.995 247.118 568.957 247.407 567.21C249.141 562.24 251.473 556.999 252.918 551.447C255.23 542.692 254.941 533.646 252.918 524.891C252.918 524.6 254.941 521.959 255.23 521.667C258.719 517.3 261.609 512.621 264.499 507.651C265.965 505.613 267.41 503.284 268.566 501.246C269.433 498.605 270.589 495.985 271.745 493.947C271.745 493.656 272.034 492.761 272.901 493.053C273.21 493.053 273.499 495.402 273.499 495.985C274.077 498.314 274.944 500.934 276.1 502.993C276.389 504.157 276.967 505.322 277.545 506.195C279.857 511.457 282.479 517.009 285.08 521.959C286.814 526.055 288.259 530.714 291.169 533.937C292.614 535.975 294.059 536.557 294.059 536.557C299.86 543.856 312.328 560.202 319.553 570.121C318.397 570.121 317.241 570.121 316.374 570.412C315.507 570.995 314.929 571.598 315.218 572.762C315.507 574.218 317.241 574.8 318.397 575.965C319.553 577.421 319.863 579.188 319.863 580.644C320.152 584.138 320.441 587.652 320.441 590.855V595.242C318.108 596.407 315.796 599.027 316.085 602.23C316.663 606.618 321.886 608.073 325.932 607.491C329.131 606.909 330.576 604.58 331.443 601.648C331.443 596.407 332.599 590.563 334.333 586.176C334.911 584.72 335.51 583.264 336.088 581.808C336.955 578.876 337.533 575.674 337.822 575.383C341.001 572.471 340.423 570.121 339.556 569.83Z" fill="#B0CAD3"/>
<path fill-rule="evenodd" clip-rule="evenodd" d="M252.253 298.594C252.045 298.796 251.419 298.997 251.21 299.198C250.793 300.004 249.318 300.406 248.274 300.809C247.649 301.01 246.605 301.211 245.771 301.815C246.188 302.836 247.857 305.252 249.109 305.051C250.361 304.447 252.045 303.239 253.088 302.232C253.922 301.211 254.965 300.004 255.174 298.796C255.383 298.192 256.441 295.158 255.591 294.755C254.965 295.359 254.34 296.366 253.296 297.387L252.253 298.594Z" fill="#B0CAD3"/>
<path fill-rule="evenodd" clip-rule="evenodd" d="M243.044 294.554C242.835 294.151 242.627 293.95 242.418 293.95C241.375 293.547 239.497 292.742 238.231 292.742C236.562 295.762 237.396 300.004 238.648 302.836C238.856 303.642 239.497 304.648 239.914 305.051C240.54 305.252 241.375 305.655 241.792 305.655C243.67 305.856 245.145 305.856 247.023 305.655C248.274 305.252 247.44 305.051 246.814 304.245C246.188 303.642 245.771 303.038 245.145 302.232C244.296 301.01 243.878 299.802 243.67 298.192V295.56C243.878 294.957 243.878 294.957 243.044 294.554Z" fill="#B0CAD3"/>
<path fill-rule="evenodd" clip-rule="evenodd" d="M246.605 294.151C245.98 294.554 245.145 294.957 244.504 295.158C244.087 295.963 244.087 296.567 244.087 297.185C244.087 298.594 244.713 300.004 245.145 301.211C248.9 300.809 252.045 298.192 254.339 295.762C255.591 294.151 255.591 293.547 255.174 291.736C254.548 289.909 253.296 288.5 252.045 287.091C251.419 287.896 251.419 288.702 251.21 289.507C251.001 290.111 250.793 290.715 250.152 291.333C249.109 292.541 247.857 293.547 246.605 294.151Z" fill="#B0CAD3"/>
<path fill-rule="evenodd" clip-rule="evenodd" d="M235.727 302.635C236.144 302.836 238.439 305.051 238.648 304.648C237.813 303.843 237.396 302.017 237.187 301.01C236.77 299.802 236.562 298.594 236.562 297.185C236.562 295.963 236.562 294.755 237.187 293.547C237.396 292.742 236.77 292.944 236.353 292.944C235.727 292.944 235.101 292.944 234.475 293.145C234.058 293.145 233 293.547 233 293.95V295.359C233 296.783 233.209 298.192 233.641 299.601C234.267 300.608 235.101 301.614 235.727 302.635Z" fill="#B0CAD3"/>
<path fill-rule="evenodd" clip-rule="evenodd" d="M234.475 292.138C236.144 291.736 238.231 291.937 239.706 292.138C241.583 292.742 242.835 293.547 244.504 294.554C245.98 294.151 247.649 292.944 248.692 291.937C248.9 291.736 249.318 291.117 249.318 290.916C249.109 290.715 248.9 290.312 248.692 289.91C248.066 289.507 247.649 288.903 246.814 288.702C244.087 287.091 240.54 285.869 237.396 286.487C236.144 287.695 234.684 288.903 234.267 290.513C234.058 290.916 233.641 291.736 233.417 292.541C233 292.944 234.267 292.541 234.475 292.138Z" fill="#B0CAD3"/>
<path fill-rule="evenodd" clip-rule="evenodd" d="M241.375 285.869C242.418 286.085 243.044 286.487 244.087 286.89C246.188 287.695 248.066 288.903 249.318 290.312C250.152 290.312 251.002 287.293 251.002 286.89C251.21 285.869 248.692 284.862 247.857 284.661C244.713 283.655 240.749 283.655 238.231 285.668C238.439 285.869 240.958 285.869 241.375 285.869Z" fill="#B0CAD3"/>
<path d="M194.197 271.174C202.16 272.119 211.336 274.583 218.763 277.203C222.674 278.586 226.102 280.004 228.616 281.258C229.874 281.891 230.904 282.477 231.645 282.98C232.386 283.49 232.821 283.936 232.932 284.17C233.727 285.852 233.233 287.551 232.78 289.133C231.941 292.086 233.064 294.342 234.8 296.533C232.582 296.199 230.813 295.373 229.79 293.779C229.046 292.619 228.988 291.611 228.786 290.404C228.584 289.197 228.219 287.814 226.813 286.115L226.796 286.092L226.778 286.068C226.005 285.33 224.476 284.768 222.384 284.111C220.301 283.455 217.673 282.764 214.825 282.055C209.218 280.66 202.767 279.201 198.117 277.877C196.359 276.113 195.129 273.527 194.197 271.174ZM199.031 279.271C203.575 280.502 209.279 281.797 214.28 283.039C217.11 283.742 219.712 284.428 221.716 285.061C223.702 285.687 225.1 286.326 225.46 286.654C226.058 287.375 226.436 288.014 226.69 288.605C219.36 288.225 209.525 286.742 202.846 284.703C200.438 282.963 199.603 281.205 199.031 279.271ZM204.129 286.232C211.072 288.119 220.125 289.355 227.051 289.666C227.13 289.959 227.183 290.24 227.227 290.521C227.262 290.727 227.288 290.937 227.323 291.143C220.96 291.582 215.344 291.377 209.2 290.762C206.335 289.443 204.823 287.855 204.129 286.232ZM211.02 291.986C216.495 292.461 221.707 292.584 227.508 292.186C227.569 292.449 227.648 292.713 227.745 292.982C224.59 294.107 219.123 294.494 215.379 294.424C212.725 293.697 211.731 292.971 211.02 291.986ZM228.23 294.002C228.331 294.125 228.506 294.395 228.6 294.523C227.367 295.707 224.317 296.41 220.828 296.826C218.965 296.357 218.341 295.918 217.62 295.479C221.109 295.414 225.24 295.027 228.229 294.002H228.23Z" fill="#B0CAD3"/>
<path d="M293.803 271.174C285.84 272.119 276.664 274.583 269.237 277.203C265.326 278.586 261.898 280.004 259.384 281.258C258.126 281.891 257.096 282.477 256.355 282.98C255.614 283.49 255.179 283.936 255.068 284.17C254.273 285.852 254.767 287.551 255.22 289.133C256.059 292.086 254.936 294.342 253.2 296.533C255.418 296.199 257.187 295.373 258.21 293.779C258.954 292.619 259.012 291.611 259.214 290.404C259.416 289.197 259.781 287.814 261.187 286.115L261.204 286.092L261.222 286.068C261.995 285.33 263.524 284.768 265.616 284.111C267.699 283.455 270.327 282.764 273.175 282.055C278.782 280.66 285.233 279.201 289.883 277.877C291.641 276.113 292.871 273.527 293.803 271.174ZM288.969 279.271C284.425 280.502 278.721 281.797 273.72 283.039C270.89 283.742 268.288 284.428 266.284 285.061C264.298 285.687 262.9 286.326 262.54 286.654C261.942 287.375 261.564 288.014 261.31 288.605C268.64 288.225 278.475 286.742 285.154 284.703C287.562 282.963 288.397 281.205 288.969 279.271ZM283.871 286.232C276.928 288.119 267.875 289.355 260.949 289.666C260.87 289.959 260.817 290.24 260.773 290.521C260.738 290.727 260.712 290.937 260.677 291.143C267.04 291.582 272.656 291.377 278.8 290.762C281.665 289.443 283.177 287.855 283.871 286.232ZM276.98 291.986C271.505 292.461 266.293 292.584 260.492 292.186C260.431 292.449 260.352 292.713 260.255 292.982C263.41 294.107 268.877 294.494 272.621 294.424C275.275 293.697 276.269 292.971 276.98 291.986ZM259.77 294.002C259.669 294.125 259.494 294.395 259.4 294.523C260.633 295.707 263.683 296.41 267.172 296.826C269.035 296.357 269.659 295.918 270.38 295.479C266.891 295.414 262.76 295.027 259.771 294.002H259.77Z" fill="#B0CAD3"/>
</g>
</g>
<defs>
<linearGradient id="paint0_linear_290_8956" x1="252" y1="331" x2="31.5276" y2="235.949" gradientUnits="userSpaceOnUse">
<stop stop-color="#6A9CAD" stop-opacity="0.46"/>
<stop offset="1" stop-color="#6A9CAD"/>
</linearGradient>
<clipPath id="clip0_290_8956">
<rect width="375" height="812" rx="40" fill="white"/>
</clipPath>
<clipPath id="clip1_290_8956">
<rect width="880" height="471" fill="white" transform="translate(-455 236)"/>
</clipPath>
</defs>
</svg>
