<svg width="375" height="812" viewBox="0 0 375 812" fill="none" xmlns="http://www.w3.org/2000/svg">
<rect width="375" height="812" rx="40" fill="white"/>
<path d="M37.584 496.168C36.352 496.168 35.248 495.968 34.272 495.568C33.296 495.168 32.512 494.576 31.92 493.792C31.344 493.008 31.04 492.064 31.008 490.96H35.376C35.44 491.584 35.656 492.064 36.024 492.4C36.392 492.72 36.872 492.88 37.464 492.88C38.072 492.88 38.552 492.744 38.904 492.472C39.256 492.184 39.432 491.792 39.432 491.296C39.432 490.88 39.288 490.536 39 490.264C38.728 489.992 38.384 489.768 37.968 489.592C37.568 489.416 36.992 489.216 36.24 488.992C35.152 488.656 34.264 488.32 33.576 487.984C32.888 487.648 32.296 487.152 31.8 486.496C31.304 485.84 31.056 484.984 31.056 483.928C31.056 482.36 31.624 481.136 32.76 480.256C33.896 479.36 35.376 478.912 37.2 478.912C39.056 478.912 40.552 479.36 41.688 480.256C42.824 481.136 43.432 482.368 43.512 483.952H39.072C39.04 483.408 38.84 482.984 38.472 482.68C38.104 482.36 37.632 482.2 37.056 482.2C36.56 482.2 36.16 482.336 35.856 482.608C35.552 482.864 35.4 483.24 35.4 483.736C35.4 484.28 35.656 484.704 36.168 485.008C36.68 485.312 37.48 485.64 38.568 485.992C39.656 486.36 40.536 486.712 41.208 487.048C41.896 487.384 42.488 487.872 42.984 488.512C43.48 489.152 43.728 489.976 43.728 490.984C43.728 491.944 43.48 492.816 42.984 493.6C42.504 494.384 41.8 495.008 40.872 495.472C39.944 495.936 38.848 496.168 37.584 496.168ZM53.7176 492.52V496H51.6296C50.1416 496 48.9816 495.64 48.1496 494.92C47.3176 494.184 46.9016 492.992 46.9016 491.344V486.016H45.2696V482.608H46.9016V479.344H51.0056V482.608H53.6936V486.016H51.0056V491.392C51.0056 491.792 51.1016 492.08 51.2936 492.256C51.4856 492.432 51.8056 492.52 52.2536 492.52H53.7176ZM60.1076 484.84C60.5876 484.104 61.1876 483.528 61.9076 483.112C62.6276 482.68 63.4276 482.464 64.3076 482.464V486.808H63.1796C62.1556 486.808 61.3876 487.032 60.8756 487.48C60.3636 487.912 60.1076 488.68 60.1076 489.784V496H56.0036V482.608H60.1076V484.84ZM78.8932 489.088C78.8932 489.472 78.8693 489.872 78.8213 490.288H69.5333C69.5973 491.12 69.8613 491.76 70.3253 492.208C70.8053 492.64 71.3893 492.856 72.0773 492.856C73.1013 492.856 73.8133 492.424 74.2133 491.56H78.5813C78.3573 492.44 77.9493 493.232 77.3573 493.936C76.7813 494.64 76.0533 495.192 75.1733 495.592C74.2933 495.992 73.3093 496.192 72.2213 496.192C70.9093 496.192 69.7413 495.912 68.7173 495.352C67.6933 494.792 66.8933 493.992 66.3173 492.952C65.7413 491.912 65.4533 490.696 65.4533 489.304C65.4533 487.912 65.7333 486.696 66.2933 485.656C66.8693 484.616 67.6693 483.816 68.6933 483.256C69.7173 482.696 70.8933 482.416 72.2213 482.416C73.5173 482.416 74.6693 482.688 75.6773 483.232C76.6853 483.776 77.4693 484.552 78.0293 485.56C78.6053 486.568 78.8932 487.744 78.8932 489.088ZM74.6933 488.008C74.6933 487.304 74.4533 486.744 73.9733 486.328C73.4933 485.912 72.8933 485.704 72.1733 485.704C71.4853 485.704 70.9013 485.904 70.4213 486.304C69.9573 486.704 69.6693 487.272 69.5573 488.008H74.6933ZM89.2183 482.464C90.7863 482.464 92.0343 482.976 92.9623 484C93.9063 485.008 94.3783 486.4 94.3783 488.176V496H90.2983V488.728C90.2983 487.832 90.0663 487.136 89.6023 486.64C89.1383 486.144 88.5143 485.896 87.7303 485.896C86.9463 485.896 86.3223 486.144 85.8583 486.64C85.3943 487.136 85.1623 487.832 85.1623 488.728V496H81.0583V482.608H85.1623V484.384C85.5783 483.792 86.1383 483.328 86.8423 482.992C87.5463 482.64 88.3383 482.464 89.2183 482.464ZM102.318 482.416C103.262 482.416 104.086 482.608 104.79 482.992C105.51 483.376 106.062 483.88 106.446 484.504V482.608H110.55V495.976C110.55 497.208 110.302 498.32 109.806 499.312C109.326 500.32 108.582 501.12 107.574 501.712C106.582 502.304 105.342 502.6 103.854 502.6C101.87 502.6 100.262 502.128 99.0302 501.184C97.7982 500.256 97.0942 498.992 96.9182 497.392H100.974C101.102 497.904 101.406 498.304 101.886 498.592C102.366 498.896 102.958 499.048 103.662 499.048C104.51 499.048 105.182 498.8 105.678 498.304C106.19 497.824 106.446 497.048 106.446 495.976V494.08C106.046 494.704 105.494 495.216 104.79 495.616C104.086 496 103.262 496.192 102.318 496.192C101.214 496.192 100.214 495.912 99.3182 495.352C98.4222 494.776 97.7102 493.968 97.1822 492.928C96.6702 491.872 96.4142 490.656 96.4142 489.28C96.4142 487.904 96.6702 486.696 97.1822 485.656C97.7102 484.616 98.4222 483.816 99.3182 483.256C100.214 482.696 101.214 482.416 102.318 482.416ZM106.446 489.304C106.446 488.28 106.158 487.472 105.582 486.88C105.022 486.288 104.334 485.992 103.518 485.992C102.702 485.992 102.006 486.288 101.43 486.88C100.87 487.456 100.59 488.256 100.59 489.28C100.59 490.304 100.87 491.12 101.43 491.728C102.006 492.32 102.702 492.616 103.518 492.616C104.334 492.616 105.022 492.32 105.582 491.728C106.158 491.136 106.446 490.328 106.446 489.304ZM120.983 492.52V496H118.895C117.407 496 116.247 495.64 115.415 494.92C114.583 494.184 114.167 492.992 114.167 491.344V486.016H112.535V482.608H114.167V479.344H118.271V482.608H120.959V486.016H118.271V491.392C118.271 491.792 118.367 492.08 118.559 492.256C118.751 492.432 119.071 492.52 119.519 492.52H120.983ZM131.501 482.464C133.037 482.464 134.269 482.976 135.197 484C136.125 485.008 136.589 486.4 136.589 488.176V496H132.509V488.728C132.509 487.832 132.277 487.136 131.813 486.64C131.349 486.144 130.725 485.896 129.941 485.896C129.157 485.896 128.533 486.144 128.069 486.64C127.605 487.136 127.373 487.832 127.373 488.728V496H123.269V478.24H127.373V484.408C127.789 483.816 128.357 483.344 129.077 482.992C129.797 482.64 130.605 482.464 131.501 482.464ZM152.065 489.088C152.065 489.472 152.041 489.872 151.993 490.288H142.705C142.769 491.12 143.033 491.76 143.497 492.208C143.977 492.64 144.561 492.856 145.249 492.856C146.273 492.856 146.985 492.424 147.385 491.56H151.753C151.529 492.44 151.121 493.232 150.529 493.936C149.953 494.64 149.225 495.192 148.345 495.592C147.465 495.992 146.481 496.192 145.393 496.192C144.081 496.192 142.913 495.912 141.889 495.352C140.865 494.792 140.065 493.992 139.489 492.952C138.913 491.912 138.625 490.696 138.625 489.304C138.625 487.912 138.905 486.696 139.465 485.656C140.041 484.616 140.841 483.816 141.865 483.256C142.889 482.696 144.065 482.416 145.393 482.416C146.689 482.416 147.841 482.688 148.849 483.232C149.857 483.776 150.641 484.552 151.201 485.56C151.777 486.568 152.065 487.744 152.065 489.088ZM147.865 488.008C147.865 487.304 147.625 486.744 147.145 486.328C146.665 485.912 146.065 485.704 145.345 485.704C144.657 485.704 144.073 485.904 143.593 486.304C143.129 486.704 142.841 487.272 142.729 488.008H147.865ZM162.39 482.464C163.958 482.464 165.206 482.976 166.134 484C167.078 485.008 167.55 486.4 167.55 488.176V496H163.47V488.728C163.47 487.832 163.238 487.136 162.774 486.64C162.31 486.144 161.686 485.896 160.902 485.896C160.118 485.896 159.494 486.144 159.03 486.64C158.566 487.136 158.334 487.832 158.334 488.728V496H154.23V482.608H158.334V484.384C158.75 483.792 159.31 483.328 160.014 482.992C160.718 482.64 161.51 482.464 162.39 482.464ZM189.936 479.152L184.104 490.432V496H180V490.432L174.168 479.152H178.824L182.088 486.208L185.328 479.152H189.936ZM197.686 496.192C196.374 496.192 195.19 495.912 194.134 495.352C193.094 494.792 192.27 493.992 191.662 492.952C191.07 491.912 190.774 490.696 190.774 489.304C190.774 487.928 191.078 486.72 191.686 485.68C192.294 484.624 193.126 483.816 194.182 483.256C195.238 482.696 196.422 482.416 197.734 482.416C199.046 482.416 200.23 482.696 201.286 483.256C202.342 483.816 203.174 484.624 203.782 485.68C204.39 486.72 204.694 487.928 204.694 489.304C204.694 490.68 204.382 491.896 203.758 492.952C203.15 493.992 202.31 494.792 201.238 495.352C200.182 495.912 198.998 496.192 197.686 496.192ZM197.686 492.64C198.47 492.64 199.134 492.352 199.678 491.776C200.238 491.2 200.518 490.376 200.518 489.304C200.518 488.232 200.246 487.408 199.702 486.832C199.174 486.256 198.518 485.968 197.734 485.968C196.934 485.968 196.27 486.256 195.742 486.832C195.214 487.392 194.95 488.216 194.95 489.304C194.95 490.376 195.206 491.2 195.718 491.776C196.246 492.352 196.902 492.64 197.686 492.64ZM220.095 482.608V496H215.991V494.176C215.575 494.768 215.007 495.248 214.287 495.616C213.583 495.968 212.799 496.144 211.935 496.144C210.911 496.144 210.007 495.92 209.223 495.472C208.439 495.008 207.831 494.344 207.399 493.48C206.967 492.616 206.751 491.6 206.751 490.432V482.608H210.831V489.88C210.831 490.776 211.063 491.472 211.527 491.968C211.991 492.464 212.615 492.712 213.399 492.712C214.199 492.712 214.831 492.464 215.295 491.968C215.759 491.472 215.991 490.776 215.991 489.88V482.608H220.095ZM227.147 484.84C227.627 484.104 228.227 483.528 228.947 483.112C229.667 482.68 230.467 482.464 231.347 482.464V486.808H230.219C229.195 486.808 228.427 487.032 227.915 487.48C227.403 487.912 227.147 488.68 227.147 489.784V496H223.043V482.608H227.147V484.84ZM250.514 479.152V482.44H246.05V496H241.946V482.44H237.482V479.152H250.514ZM265.198 489.088C265.198 489.472 265.174 489.872 265.126 490.288H255.838C255.902 491.12 256.166 491.76 256.63 492.208C257.11 492.64 257.694 492.856 258.382 492.856C259.406 492.856 260.118 492.424 260.518 491.56H264.886C264.662 492.44 264.254 493.232 263.662 493.936C263.086 494.64 262.358 495.192 261.478 495.592C260.598 495.992 259.614 496.192 258.526 496.192C257.214 496.192 256.046 495.912 255.022 495.352C253.998 494.792 253.198 493.992 252.622 492.952C252.046 491.912 251.758 490.696 251.758 489.304C251.758 487.912 252.038 486.696 252.598 485.656C253.174 484.616 253.974 483.816 254.998 483.256C256.022 482.696 257.198 482.416 258.526 482.416C259.822 482.416 260.974 482.688 261.982 483.232C262.99 483.776 263.774 484.552 264.334 485.56C264.91 486.568 265.198 487.744 265.198 489.088ZM260.998 488.008C260.998 487.304 260.758 486.744 260.278 486.328C259.798 485.912 259.198 485.704 258.478 485.704C257.79 485.704 257.206 485.904 256.726 486.304C256.262 486.704 255.974 487.272 255.862 488.008H260.998ZM266.547 489.28C266.547 487.904 266.803 486.696 267.315 485.656C267.843 484.616 268.555 483.816 269.451 483.256C270.347 482.696 271.347 482.416 272.451 482.416C273.395 482.416 274.219 482.608 274.923 482.992C275.643 483.376 276.195 483.88 276.579 484.504V482.608H280.683V496H276.579V494.104C276.179 494.728 275.619 495.232 274.899 495.616C274.195 496 273.371 496.192 272.427 496.192C271.339 496.192 270.347 495.912 269.451 495.352C268.555 494.776 267.843 493.968 267.315 492.928C266.803 491.872 266.547 490.656 266.547 489.28ZM276.579 489.304C276.579 488.28 276.291 487.472 275.715 486.88C275.155 486.288 274.467 485.992 273.651 485.992C272.835 485.992 272.139 486.288 271.563 486.88C271.003 487.456 270.723 488.256 270.723 489.28C270.723 490.304 271.003 491.12 271.563 491.728C272.139 492.32 272.835 492.616 273.651 492.616C274.467 492.616 275.155 492.32 275.715 491.728C276.291 491.136 276.579 490.328 276.579 489.304ZM300.74 482.464C302.404 482.464 303.724 482.968 304.7 483.976C305.692 484.984 306.188 486.384 306.188 488.176V496H302.108V488.728C302.108 487.864 301.876 487.2 301.412 486.736C300.964 486.256 300.34 486.016 299.54 486.016C298.74 486.016 298.108 486.256 297.644 486.736C297.196 487.2 296.972 487.864 296.972 488.728V496H292.892V488.728C292.892 487.864 292.66 487.2 292.196 486.736C291.748 486.256 291.124 486.016 290.324 486.016C289.524 486.016 288.892 486.256 288.428 486.736C287.98 487.2 287.756 487.864 287.756 488.728V496H283.652V482.608H287.756V484.288C288.172 483.728 288.716 483.288 289.388 482.968C290.06 482.632 290.82 482.464 291.668 482.464C292.676 482.464 293.572 482.68 294.356 483.112C295.156 483.544 295.78 484.16 296.228 484.96C296.692 484.224 297.324 483.624 298.124 483.16C298.924 482.696 299.796 482.464 300.74 482.464Z" fill="#1D1617"/>
<g clip-path="url(#clip0_1_536)">
<path d="M0 118.599C0 118.599 13.8333 76.4389 42.7333 87.378C83.0333 102.606 186.333 346.158 294.733 346.158C350.3 346.158 375 303.599 375 303.599V-27H0V118.599Z" fill="url(#paint0_linear_1_536)"/>
<path d="M264.394 217.552C264.169 221.844 263.59 226.816 262.753 232.313C261.24 242.009 258.922 253.064 256.315 263.81C250.585 288.451 243.76 311.179 243.76 311.179C243.176 325.694 241.444 340.146 238.578 354.41C238.288 355.985 237.998 357.498 237.676 359.042C236.711 364.013 235.681 368.8 234.715 373.215C231.142 388.902 227.891 400.235 227.891 400.235L212.214 397.641C211.473 389.118 211.184 380.966 211.216 373.339C211.216 368.583 211.216 364.075 211.538 359.69C211.538 357.405 211.795 355.182 211.956 353.051C213.791 327.051 218.394 309.82 218.394 306.392C218.394 289.007 219.585 273.845 221.034 260.907C225.09 225.241 232.268 206.652 232.268 206.652C242.408 184.295 257.602 185.839 262.624 202.298C264.076 207.256 264.674 212.409 264.394 217.552Z" fill="#FFEDE5"/>
<path d="M314.257 378.094C314.257 384.27 313.87 390.786 313.291 397.518L297.614 400.389C297.614 400.389 294.846 390.662 291.595 376.705C290.404 371.579 289.148 365.897 287.957 359.906C287.635 358.208 287.281 356.448 286.959 354.719C284.076 340.353 282.333 325.798 281.744 311.179C281.744 311.179 274.856 288.235 269.061 263.47C266.551 252.847 264.233 241.854 262.623 232.251C261.754 226.785 261.207 221.752 260.982 217.491C260.637 212.292 261.192 207.075 262.623 202.051C267.709 185.592 282.871 184.079 293.011 206.405C293.011 206.405 300.157 224.932 304.181 260.382C305.879 275.583 306.771 290.857 306.853 306.145C306.853 309.573 311.488 326.464 313.291 352.094C313.291 354.255 313.581 356.448 313.709 358.702C314.224 364.847 314.353 371.27 314.257 378.094Z" fill="#FFEDE5"/>
<path d="M313.517 352.217C304.705 353.497 295.83 354.332 286.927 354.719C284.055 340.352 282.323 325.797 281.745 311.179C281.745 311.179 274.856 288.235 269.062 263.47C266.551 252.847 264.233 241.854 262.624 232.251C261.111 241.947 258.793 253.002 256.186 263.748C250.585 288.451 243.76 311.179 243.76 311.179C243.176 325.694 241.444 340.146 238.578 354.41C228.92 353.977 219.682 353.391 211.956 352.773C213.791 326.773 218.394 309.542 218.394 306.114C218.394 288.729 219.585 273.567 221.034 260.629C225.09 224.963 232.268 206.374 232.268 206.374C242.408 184.017 257.602 185.561 262.624 202.02C266.487 189.452 276.24 185.592 285.157 194.424C288.485 197.935 291.144 201.98 293.011 206.374C295.014 212.051 296.669 217.835 297.969 223.697C300.807 235.842 302.925 248.131 304.31 260.505C306.009 275.707 306.9 290.981 306.982 306.269C307.014 309.696 311.617 326.618 313.517 352.217Z" fill="#3B5E69"/>
<path d="M298.097 223.852C289.277 214.619 250.617 212.365 250.617 212.365L285.286 194.732C288.614 198.243 291.272 202.288 293.14 206.683C295.136 212.309 296.792 218.042 298.097 223.852Z" fill="#344C54"/>
<path d="M229.95 415.551C229.968 415.705 229.968 415.86 229.95 416.014C229.435 422.962 223.512 421.912 214.756 422.19C207.771 422.19 204.037 418.454 204.456 414.409C204.593 413.183 205.059 412.013 205.808 411.012C207.801 408.023 209.259 404.735 210.121 401.285C210.5 399.723 211.419 398.329 212.728 397.332C218.233 393.071 223.512 396.344 226.152 398.691C227.332 399.701 228.153 401.04 228.502 402.52C229.494 406.798 229.98 411.169 229.95 415.551Z" fill="#3B2645"/>
<path d="M310.845 422.036C301.864 422.036 295.747 423.024 295.586 415.551V414.903C295.569 410.808 296.045 406.726 297.003 402.736C297.373 401.042 298.298 399.506 299.642 398.351C301.154 396.685 303.238 395.591 305.516 395.269C307.795 394.946 310.118 395.415 312.068 396.591C313.807 397.744 315.044 399.469 315.544 401.439C316.416 404.732 317.852 407.862 319.794 410.703C320.214 411.284 320.55 411.918 320.791 412.587C322.337 417.28 318.699 422.159 310.845 422.036Z" fill="#3B2645"/>
<path d="M278.912 98.1106C279.77 97.1494 280.318 95.9691 280.489 94.7139C280.58 92.7177 280.959 90.7432 281.616 88.8468C282.195 88.0074 282.671 87.1057 283.032 86.1603C283.151 85.6574 283.137 85.1339 282.99 84.6377C282.844 84.1415 282.571 83.6882 282.195 83.3194C281.648 82.7945 280.875 82.4239 280.618 81.7137C280.553 81.2629 280.553 80.8057 280.618 80.355C280.518 79.6871 280.245 79.0541 279.823 78.5144C279.401 77.9747 278.844 77.5457 278.204 77.267C276.891 76.6526 275.492 76.226 274.051 76.001C272.633 75.8319 271.277 75.3453 270.092 74.5805C269.604 74.1442 269.076 73.7515 268.514 73.4071C267.447 72.9683 266.258 72.8814 265.134 73.1601C263 73.5151 260.915 74.1057 258.922 74.9202C258.203 75.2821 257.433 75.5421 256.636 75.6922C255.445 75.6922 254.19 75.476 252.999 75.6922C252.106 75.9652 251.287 76.4216 250.598 77.0296C249.908 77.6375 249.365 78.3825 249.007 79.2124C248.79 79.691 248.459 80.114 248.041 80.4476C247.515 80.7048 246.95 80.8819 246.367 80.9726C245.631 81.2503 244.976 81.6965 244.459 82.2723C243.943 82.8482 243.582 83.5362 243.406 84.2767C243.101 85.8068 243.101 87.3784 243.406 88.9086C243.464 90.4213 243.636 91.928 243.921 93.417C247.14 105.769 248.073 102.341 248.073 102.341L257.73 101.384C262.108 100.921 266.454 100.427 270.8 99.8399C272.538 99.5929 274.276 99.2532 276.015 98.9753C277.058 99.0389 278.09 98.731 278.912 98.1106Z" fill="#110C14"/>
<path d="M247.172 96.9681C246.853 96.5471 246.434 96.2045 245.95 95.9682C245.466 95.732 244.931 95.6089 244.388 95.6089C243.845 95.6089 243.31 95.732 242.826 95.9682C242.342 96.2045 241.923 96.5471 241.603 96.9681C238.932 100.272 243.857 106.232 247.494 106.417C247.585 103.264 247.478 100.109 247.172 96.9681Z" fill="#512E1F"/>
<path d="M300.254 132.634C296.743 141.354 293.913 150.313 291.788 159.437C291.531 160.611 291.337 161.753 291.112 162.865C290.887 163.976 290.79 164.81 290.661 165.706C290.533 166.601 290.661 166.972 290.404 167.836C289.406 177.1 287.539 202.823 287.185 207.208C287.185 207.64 287.185 207.856 287.185 207.856C262.173 215.236 235.68 209.369 235.68 209.369L235.487 208.01C234.908 203.749 229.5 158.171 229.307 156.349C228.18 145.51 227.375 135.536 227.311 129.33C227.311 128.403 228.148 127.878 229.403 127.539C231.431 126.983 234.296 126.89 236.549 126.52C240.746 125.847 244.982 125.424 249.232 125.254H250.263C250.477 125.241 250.692 125.241 250.906 125.254H251.679L252.484 112.902H253.739C254.559 113.024 255.388 113.086 256.218 113.087C257.207 113.101 258.197 113.049 259.179 112.933L260.563 112.778C261.239 112.778 261.851 112.562 262.463 112.408C263.45 112.189 264.418 111.9 265.36 111.543C265.649 111.483 265.93 111.39 266.197 111.265H266.454L267.098 110.987C268.28 110.495 269.42 109.917 270.51 109.258L272.023 108.27L272.281 108.054C272.486 107.925 272.679 107.78 272.86 107.621L273.214 107.344C273.214 107.807 273.214 107.992 273.214 108.177C272.933 110.577 272.783 112.989 272.764 115.403C272.764 117.163 272.764 118.923 272.764 120.467C272.764 123.092 272.764 125.007 272.764 125.007H274.566C274.599 124.984 274.638 124.972 274.679 124.972C274.719 124.972 274.759 124.984 274.792 125.007C277.401 125.04 280.005 125.257 282.582 125.655C287.478 126.272 292.291 127.39 296.939 128.99C297.647 129.268 298.162 129.515 298.612 129.731C299.063 129.947 300.479 132.078 300.254 132.634Z" fill="#81472D"/>
<path d="M273.343 107.375C272.978 109.597 272.104 111.715 270.783 113.575C269.462 115.434 267.729 116.99 265.706 118.13C263.683 119.27 261.423 119.966 259.086 120.167C256.75 120.368 254.396 120.07 252.194 119.294L252.613 112.902C256.279 113.455 260.027 113.247 263.603 112.294C267.179 111.34 270.5 109.663 273.343 107.375Z" fill="#512E1F"/>
<path d="M247.526 87.6734C245.723 89.5879 245.691 93.8493 245.691 98.3268C245.691 112.192 250.134 116.391 257.537 116.854C264.941 117.318 272.602 114.446 273.633 101.415C274.244 94.9609 274.888 89.063 272.377 86.2838C268.74 82.4857 252.998 81.8372 247.526 87.6734Z" fill="#81472D"/>
<path d="M272.699 99.809C272.699 99.809 274.759 94.0037 278.429 96.9372C282.098 99.8708 277.431 108.702 271.991 108.208C271.959 108.208 271.025 101.816 272.699 99.809Z" fill="#81472D"/>
<path d="M276.852 99.5928C276.024 99.8747 275.29 100.365 274.727 101.013C274.07 101.57 273.544 102.254 273.182 103.02C273.182 103.237 273.44 103.36 273.601 103.237C273.762 103.113 274.405 102.279 274.824 101.847C275.11 102.173 275.475 102.428 275.886 102.588C275.959 102.619 276.041 102.626 276.118 102.607C276.195 102.588 276.263 102.545 276.312 102.484C276.36 102.423 276.386 102.349 276.384 102.273C276.383 102.196 276.355 102.122 276.305 102.063C276.081 101.745 275.783 101.481 275.436 101.291C276.028 100.901 276.587 100.467 277.109 99.9943C277.145 99.9546 277.167 99.9049 277.172 99.8525C277.176 99.8001 277.163 99.7477 277.134 99.7029C277.106 99.6581 277.063 99.6233 277.012 99.6035C276.961 99.5837 276.905 99.58 276.852 99.5928Z" fill="#512E1F"/>
<path d="M252.033 97.8018C252.033 97.8018 250.81 98.265 250.907 96.1652C251.003 94.0654 251.937 94.4669 251.937 94.4669C251.937 94.4669 252.806 94.4669 252.709 96.1035C252.613 97.7401 252.033 97.8018 252.033 97.8018Z" fill="#110C14"/>
<path d="M264.684 97.4312C264.684 97.4312 263.461 97.8944 263.59 95.7637C263.719 93.6331 264.588 94.0962 264.588 94.0962C264.588 94.0962 265.457 94.0962 265.392 95.7329C265.328 97.3695 264.684 97.4312 264.684 97.4312Z" fill="#110C14"/>
<path d="M257.955 103.298C257.312 103.298 255.863 103.607 255.541 102.959C255.627 101.482 255.897 100.02 256.346 98.6048C256.868 96.702 257.287 94.7746 257.601 92.8303C257.601 92.8303 257.601 92.8303 257.376 92.8303C256.203 96.2665 255.32 99.7879 254.736 103.36C254.72 103.403 254.716 103.45 254.723 103.495C254.73 103.54 254.749 103.583 254.778 103.62C254.806 103.657 254.844 103.686 254.887 103.705C254.931 103.725 254.978 103.733 255.026 103.731C255.96 103.731 256.861 103.731 257.795 103.731C258.149 103.823 258.213 103.329 257.955 103.298Z" fill="#512E1F"/>
<path d="M254.512 91.4099C253.741 91.3477 252.965 91.3477 252.194 91.4099C251.402 91.2313 250.593 91.1279 249.78 91.1011C249.687 91.1021 249.597 91.1288 249.519 91.1778C249.442 91.2269 249.381 91.2963 249.344 91.3777C249.306 91.4591 249.294 91.5491 249.309 91.637C249.323 91.7248 249.364 91.8068 249.426 91.8731C250.174 92.3801 251.039 92.7066 251.947 92.8249C252.854 92.9432 253.779 92.8497 254.641 92.5524C254.775 92.5111 254.89 92.4267 254.966 92.3134C255.043 92.2002 255.077 92.0651 255.061 91.9308C255.046 91.7966 254.983 91.6715 254.883 91.5766C254.783 91.4817 254.652 91.4228 254.512 91.4099Z" fill="#110C14"/>
<path d="M268.096 89.7732C267.012 90.357 265.82 90.7345 264.587 90.8849C263.782 90.8849 262.817 90.7305 262.173 91.2555C262.133 91.3153 262.111 91.385 262.111 91.4562C262.111 91.5274 262.133 91.597 262.173 91.6569C263.428 93.417 267.549 91.3481 268.611 90.1129C268.643 89.8968 268.321 89.6806 268.096 89.7732Z" fill="#110C14"/>
<path d="M262.687 106.911C261.331 106.726 259.955 106.726 258.599 106.911C257.666 106.911 256.346 106.757 255.67 107.498C256.41 108.146 257.666 107.869 258.599 107.838C259.959 107.961 261.328 107.961 262.687 107.838C262.815 107.838 262.938 107.789 263.029 107.702C263.119 107.615 263.17 107.497 263.17 107.374C263.17 107.252 263.119 107.134 263.029 107.047C262.938 106.96 262.815 106.911 262.687 106.911Z" fill="#512E1F"/>
<path d="M372.908 267.7H147.092C146.537 267.7 146.005 267.489 145.613 267.112C145.22 266.736 145 266.226 145 265.693C145 265.161 145.22 264.65 145.613 264.274C146.005 263.897 146.537 263.686 147.092 263.686H372.908C373.463 263.686 373.995 263.897 374.387 264.274C374.78 264.65 375 265.161 375 265.693C375 266.226 374.78 266.736 374.387 267.112C373.995 267.489 373.463 267.7 372.908 267.7Z" fill="#3B2645"/>
<path d="M154.239 276.038C153.291 276.038 152.382 275.677 151.712 275.034C151.042 274.391 150.666 273.519 150.666 272.61V258.684C150.666 257.775 151.042 256.903 151.712 256.26C152.382 255.617 153.291 255.256 154.239 255.256C155.186 255.256 156.095 255.617 156.765 256.26C157.435 256.903 157.812 257.775 157.812 258.684V272.548C157.825 273.005 157.742 273.459 157.568 273.884C157.394 274.309 157.132 274.696 156.798 275.022C156.465 275.347 156.066 275.605 155.626 275.78C155.187 275.954 154.715 276.042 154.239 276.038Z" fill="#3B2645"/>
<path d="M161.385 288.173C160.437 288.173 159.528 287.812 158.858 287.17C158.188 286.527 157.812 285.655 157.812 284.746V246.641C157.896 245.784 158.311 244.988 158.975 244.409C159.639 243.83 160.504 243.509 161.401 243.509C162.298 243.509 163.163 243.83 163.827 244.409C164.491 244.988 164.905 245.784 164.99 246.641V284.746C164.982 285.658 164.598 286.529 163.923 287.171C163.248 287.813 162.335 288.173 161.385 288.173Z" fill="#291B30"/>
<path d="M168.563 293.917C168.093 293.921 167.626 293.835 167.191 293.664C166.755 293.494 166.36 293.241 166.027 292.922C165.694 292.603 165.431 292.224 165.253 291.806C165.075 291.388 164.986 290.941 164.99 290.489V242.04C164.99 241.13 165.366 240.259 166.037 239.616C166.707 238.973 167.615 238.612 168.563 238.612C169.511 238.612 170.42 238.973 171.09 239.616C171.76 240.259 172.136 241.13 172.136 242.04V290.489C172.136 291.398 171.76 292.27 171.09 292.913C170.42 293.556 169.511 293.917 168.563 293.917Z" fill="#3B2645"/>
<path d="M362.639 276.038C363.586 276.038 364.495 275.677 365.165 275.034C365.835 274.391 366.212 273.519 366.212 272.61V258.684C366.212 257.775 365.835 256.903 365.165 256.26C364.495 255.617 363.586 255.256 362.639 255.256C361.691 255.256 360.782 255.617 360.112 256.26C359.442 256.903 359.065 257.775 359.065 258.684V272.548C359.057 273.004 359.143 273.456 359.319 273.879C359.494 274.302 359.756 274.687 360.089 275.012C360.422 275.337 360.818 275.595 361.256 275.771C361.694 275.947 362.164 276.038 362.639 276.038Z" fill="#3B2645"/>
<path d="M355.493 288.173C356.441 288.173 357.349 287.812 358.019 287.17C358.69 286.527 359.066 285.655 359.066 284.746V246.641C358.981 245.784 358.567 244.988 357.903 244.409C357.239 243.83 356.374 243.509 355.477 243.509C354.58 243.509 353.714 243.83 353.051 244.409C352.387 244.988 351.972 245.784 351.888 246.641V284.746C351.896 285.658 352.28 286.529 352.955 287.171C353.63 287.813 354.542 288.173 355.493 288.173Z" fill="#291B30"/>
<path d="M348.314 293.917C348.785 293.921 349.251 293.835 349.687 293.664C350.122 293.494 350.518 293.241 350.85 292.922C351.183 292.603 351.446 292.224 351.624 291.806C351.802 291.388 351.892 290.941 351.887 290.489V242.04C351.887 241.13 351.511 240.259 350.841 239.616C350.171 238.973 349.262 238.612 348.314 238.612C347.367 238.612 346.458 238.973 345.788 239.616C345.118 240.259 344.741 241.13 344.741 242.04V290.489C344.741 291.398 345.118 292.27 345.788 292.913C346.458 293.556 347.367 293.917 348.314 293.917Z" fill="#3B2645"/>
<path d="M241.281 152.644C239.962 157.054 238.138 161.311 235.841 165.335C234.907 167.188 231.141 175.031 230.98 175.34C225.122 187.661 216.849 205.849 216.108 208.01C214.273 214.989 210.346 255.596 210.314 255.596C206.29 261.401 198.629 258.684 198.629 258.684C198.629 258.684 198.629 257.448 198.275 255.349C197.406 246.363 195.346 221.103 197.728 206.158C198.404 202.02 200.947 191.984 204.166 180.651C206.741 171.387 207.868 162.587 210.926 153.57C213.502 145.812 217.384 138.51 222.418 131.954C224.303 129.891 226.776 128.399 229.532 127.662C230.723 127.662 231.238 129.144 232.236 129.577C235.071 130.847 237.35 133.033 238.674 135.753C241.479 140.948 242.396 146.892 241.281 152.644Z" fill="#81472D"/>
<path d="M197.856 262.852C197.856 261.494 198.146 260.104 198.178 258.745C198.178 256.615 198.178 255.225 198.178 255.225C199.555 253.942 201.312 253.099 203.208 252.811C205.104 252.524 207.047 252.806 208.769 253.619C209.544 254.162 210.257 254.783 210.894 255.472C212.181 256.646 213.662 257.572 214.885 258.807C215.522 259.396 216.009 260.117 216.311 260.914C216.612 261.712 216.719 262.565 216.623 263.408C215.097 263.569 213.682 264.248 212.632 265.323C211.441 266.743 211.956 268.04 211.376 269.615C210.797 271.19 209.381 271.344 208.157 271.529C204.037 272.116 198.146 272.301 197.792 267.206C197.702 265.755 197.724 264.3 197.856 262.852Z" fill="#81472D"/>
<path d="M326.714 255.132C326.521 257.232 326.36 258.467 326.36 258.467C326.36 258.467 318.699 261.277 314.643 255.379C314.643 255.379 310.715 214.897 308.752 207.918C308.43 206.744 305.919 201.032 302.764 194.115C299.61 187.198 289.47 166.045 289.148 165.335C286.838 161.317 285.012 157.059 283.708 152.644C282.486 146.816 283.36 140.764 286.186 135.475C287.528 132.767 289.802 130.586 292.625 129.299C293.621 128.819 294.73 128.595 295.844 128.65C296.196 128.649 296.545 128.712 296.874 128.836C297.47 128.994 298.035 129.244 298.548 129.577C299.336 130.105 300.069 130.705 300.736 131.368C306.508 137.266 310.772 144.37 313.194 152.119C316.413 161.383 318.312 171.357 320.759 180.281C323.978 191.613 326.489 201.649 327.197 205.787C329.643 220.887 327.551 246.147 326.714 255.132Z" fill="#81472D"/>
<path d="M327.004 262.883C327.004 261.339 326.811 259.795 326.779 258.745C326.779 256.615 326.779 255.225 326.779 255.225C325.41 253.941 323.658 253.096 321.766 252.809C319.875 252.521 317.937 252.804 316.221 253.619C315.442 254.17 314.72 254.79 314.064 255.472C312.808 256.646 311.295 257.572 310.104 258.807C309.462 259.392 308.97 260.112 308.668 260.911C308.367 261.709 308.263 262.564 308.366 263.408C309.842 263.781 311.284 264.267 312.68 264.86C313.871 266.033 312.969 267.083 312.969 268.442C312.969 270.325 314.321 270.974 316.188 271.282L319.794 271.9C321.706 272.341 323.715 272.178 325.524 271.437C325.783 271.294 326.013 271.105 326.2 270.881C326.353 270.655 326.462 270.404 326.521 270.14C327.137 267.769 327.301 265.31 327.004 262.883Z" fill="#81472D"/>
<path d="M291.788 159.437L293.59 207.764C263.846 218.911 231.688 208.505 231.688 208.505L230.98 162.186L230.014 161.908C228.566 161.475 227.021 161.012 225.443 160.395C224.542 160.055 223.608 159.715 222.675 159.283C218.647 157.518 214.724 155.538 210.925 153.354C213.501 145.596 217.383 138.294 222.417 131.738C224.312 129.684 226.781 128.194 229.532 127.446C231.559 126.921 234.424 126.798 236.678 126.427C240.874 125.754 245.11 125.331 249.361 125.161L261.046 152.953C266.049 143.894 270.447 134.539 274.212 124.945H274.534C274.566 124.922 274.606 124.91 274.646 124.91C274.687 124.91 274.726 124.922 274.759 124.945C277.369 124.979 279.972 125.195 282.549 125.593C287.457 126.232 292.281 127.371 296.938 128.99C297.534 129.148 298.1 129.399 298.612 129.731C299.4 130.259 300.133 130.859 300.801 131.522C306.572 137.421 310.837 144.524 313.259 152.273C309.385 153.977 305.42 155.482 301.38 156.782C296.037 158.387 291.788 159.437 291.788 159.437Z" fill="#FAC623"/>
<path d="M230.98 146.221V162.185L230.015 161.908C228.566 161.475 227.021 161.012 225.444 160.394C227.542 155.764 229.39 151.034 230.98 146.221Z" fill="#86680A"/>
<path d="M222.772 404.898C220.229 403.539 215.465 402.489 213.115 404.373C213.07 404.448 213.046 404.533 213.046 404.62C213.046 404.706 213.07 404.792 213.115 404.867V405.052C213.115 405.299 213.469 405.361 213.662 405.268C213.855 405.176 213.662 405.268 213.888 405.268C214.438 404.932 215.071 404.741 215.723 404.712C216.555 404.675 217.389 404.748 218.201 404.929C219.71 405.355 221.266 405.614 222.837 405.7C222.948 405.692 223.051 405.642 223.123 405.561C223.196 405.48 223.231 405.375 223.223 405.268C223.214 405.162 223.162 405.063 223.078 404.993C222.993 404.924 222.883 404.889 222.772 404.898Z" fill="#27192E"/>
<path d="M224.414 409.252C222.975 408.133 221.179 407.523 219.328 407.522C217.494 407.101 215.566 407.286 213.855 408.047C213.63 408.233 213.501 408.696 213.855 408.85C215.358 409.221 216.909 409.377 218.458 409.313C220.308 409.804 222.208 410.104 224.124 410.209C224.23 410.191 224.329 410.144 224.41 410.075C224.49 410.006 224.549 409.916 224.579 409.817C224.609 409.717 224.61 409.611 224.58 409.512C224.551 409.412 224.493 409.322 224.414 409.252Z" fill="#27192E"/>
<path d="M311.07 403.23C309.341 402.317 307.362 401.935 305.399 402.133C303.437 402.332 301.585 403.103 300.093 404.342C299.771 404.743 300.093 405.515 300.576 405.454C302.217 405.454 303.795 404.527 305.404 404.373C307.014 404.218 308.784 404.805 310.458 404.62C311.102 404.558 311.681 403.817 311.07 403.23Z" fill="#27192E"/>
<path d="M312.422 407.275C310.314 406.794 308.134 406.679 305.984 406.936C305.225 406.841 304.454 406.903 303.721 407.116C302.989 407.329 302.312 407.688 301.735 408.171C301.284 408.727 301.735 409.777 302.54 409.499C305.759 408.418 309.396 410.024 312.583 408.912C312.757 408.839 312.903 408.716 313 408.559C313.097 408.402 313.139 408.219 313.121 408.038C313.104 407.856 313.026 407.685 312.901 407.548C312.775 407.411 312.608 407.315 312.422 407.275Z" fill="#27192E"/>
<path d="M201.333 105.089C190.485 107.004 179.218 105.398 168.66 109.289C167.952 109.567 167.984 110.71 168.853 110.648C175.291 110.308 181.568 109.073 187.974 108.702C192.609 108.424 198.05 109.382 202.267 107.189C203.49 106.51 202.588 104.873 201.333 105.089Z" fill="#F7F8F8"/>
<path d="M205.26 90.607C199.97 87.9926 194.508 85.7129 188.907 83.7827C187.942 83.4739 187.394 84.8635 188.231 85.3575C193.287 88.153 198.511 90.6586 203.876 92.8612C205.453 93.5097 206.87 91.3482 205.26 90.607Z" fill="#F7F8F8"/>
<path d="M222 314L218 310.5L212 312.5L203.5 333.5L198 353L174 407.5L214 431.5L292 435.5L338.5 418.5L323 392.5L313 344.5L311.5 345.5L307 346L303 347H299H294.5H292H289.5L288 346.5L286.5 346L285 345.5L282 347L270 343.5L260.5 339.5L248.5 333.5L244.5 331L241.5 329L238 326.5L235 324.5L232 322.5L228 319L222 314Z" fill="white"/>
</g>
<path d="M32.352 526.242V536H31.078V526.242H32.352ZM38.2613 528.188C39.1946 528.188 39.9506 528.473 40.5293 529.042C41.108 529.602 41.3973 530.414 41.3973 531.478V536H40.1373V531.66C40.1373 530.895 39.946 530.311 39.5633 529.91C39.1806 529.499 38.658 529.294 37.9953 529.294C37.3233 529.294 36.7866 529.504 36.3853 529.924C35.9933 530.344 35.7973 530.955 35.7973 531.758V536H34.5233V528.328H35.7973V529.42C36.0493 529.028 36.39 528.725 36.8193 528.51C37.258 528.295 37.7386 528.188 38.2613 528.188ZM46.1944 536.126C45.6064 536.126 45.0791 536.028 44.6124 535.832C44.1457 535.627 43.7771 535.347 43.5064 534.992C43.2357 534.628 43.0864 534.213 43.0584 533.746H44.3744C44.4117 534.129 44.5891 534.441 44.9064 534.684C45.2331 534.927 45.6577 535.048 46.1804 535.048C46.6657 535.048 47.0484 534.941 47.3284 534.726C47.6084 534.511 47.7484 534.241 47.7484 533.914C47.7484 533.578 47.5991 533.331 47.3004 533.172C47.0017 533.004 46.5397 532.841 45.9144 532.682C45.3451 532.533 44.8784 532.383 44.5144 532.234C44.1597 532.075 43.8517 531.847 43.5904 531.548C43.3384 531.24 43.2124 530.839 43.2124 530.344C43.2124 529.952 43.3291 529.593 43.5624 529.266C43.7957 528.939 44.1271 528.683 44.5564 528.496C44.9857 528.3 45.4757 528.202 46.0264 528.202C46.8757 528.202 47.5617 528.417 48.0844 528.846C48.6071 529.275 48.8871 529.863 48.9244 530.61H47.6504C47.6224 530.209 47.4591 529.887 47.1604 529.644C46.8711 529.401 46.4791 529.28 45.9844 529.28C45.5271 529.28 45.1631 529.378 44.8924 529.574C44.6217 529.77 44.4864 530.027 44.4864 530.344C44.4864 530.596 44.5657 530.806 44.7244 530.974C44.8924 531.133 45.0977 531.263 45.3404 531.366C45.5924 531.459 45.9377 531.567 46.3764 531.688C46.9271 531.837 47.3751 531.987 47.7204 532.136C48.0657 532.276 48.3597 532.491 48.6024 532.78C48.8544 533.069 48.9851 533.447 48.9944 533.914C48.9944 534.334 48.8777 534.712 48.6444 535.048C48.4111 535.384 48.0797 535.65 47.6504 535.846C47.2304 536.033 46.7451 536.126 46.1944 536.126ZM52.0668 529.742C52.3188 529.303 52.6922 528.939 53.1868 528.65C53.6908 528.351 54.2742 528.202 54.9368 528.202C55.6182 528.202 56.2342 528.365 56.7848 528.692C57.3448 529.019 57.7835 529.481 58.1008 530.078C58.4182 530.666 58.5768 531.352 58.5768 532.136C58.5768 532.911 58.4182 533.601 58.1008 534.208C57.7835 534.815 57.3448 535.286 56.7848 535.622C56.2342 535.958 55.6182 536.126 54.9368 536.126C54.2835 536.126 53.7048 535.981 53.2008 535.692C52.7062 535.393 52.3282 535.025 52.0668 534.586V539.64H50.7928V528.328H52.0668V529.742ZM57.2748 532.136C57.2748 531.557 57.1582 531.053 56.9248 530.624C56.6915 530.195 56.3742 529.868 55.9728 529.644C55.5808 529.42 55.1468 529.308 54.6708 529.308C54.2042 529.308 53.7702 529.425 53.3688 529.658C52.9768 529.882 52.6595 530.213 52.4168 530.652C52.1835 531.081 52.0668 531.581 52.0668 532.15C52.0668 532.729 52.1835 533.237 52.4168 533.676C52.6595 534.105 52.9768 534.437 53.3688 534.67C53.7702 534.894 54.2042 535.006 54.6708 535.006C55.1468 535.006 55.5808 534.894 55.9728 534.67C56.3742 534.437 56.6915 534.105 56.9248 533.676C57.1582 533.237 57.2748 532.724 57.2748 532.136ZM60.9118 527.082C60.6691 527.082 60.4638 526.998 60.2958 526.83C60.1278 526.662 60.0438 526.457 60.0438 526.214C60.0438 525.971 60.1278 525.766 60.2958 525.598C60.4638 525.43 60.6691 525.346 60.9118 525.346C61.1451 525.346 61.3411 525.43 61.4998 525.598C61.6678 525.766 61.7518 525.971 61.7518 526.214C61.7518 526.457 61.6678 526.662 61.4998 526.83C61.3411 526.998 61.1451 527.082 60.9118 527.082ZM61.5278 528.328V536H60.2538V528.328H61.5278ZM64.9731 529.574C65.1971 529.135 65.5144 528.795 65.9251 528.552C66.3451 528.309 66.8538 528.188 67.4511 528.188V529.504H67.1151C65.6871 529.504 64.9731 530.279 64.9731 531.828V536H63.6991V528.328H64.9731V529.574ZM75.9218 531.87C75.9218 532.113 75.9078 532.369 75.8798 532.64H69.7478C69.7944 533.396 70.0511 533.989 70.5178 534.418C70.9938 534.838 71.5678 535.048 72.2398 535.048C72.7904 535.048 73.2478 534.922 73.6118 534.67C73.9851 534.409 74.2464 534.063 74.3958 533.634H75.7678C75.5624 534.371 75.1518 534.973 74.5358 535.44C73.9198 535.897 73.1544 536.126 72.2398 536.126C71.5118 536.126 70.8584 535.963 70.2798 535.636C69.7104 535.309 69.2624 534.847 68.9358 534.25C68.6091 533.643 68.4458 532.943 68.4458 532.15C68.4458 531.357 68.6044 530.661 68.9218 530.064C69.2391 529.467 69.6824 529.009 70.2518 528.692C70.8304 528.365 71.4931 528.202 72.2398 528.202C72.9678 528.202 73.6118 528.361 74.1718 528.678C74.7318 528.995 75.1611 529.434 75.4598 529.994C75.7678 530.545 75.9218 531.17 75.9218 531.87ZM74.6058 531.604C74.6058 531.119 74.4984 530.703 74.2838 530.358C74.0691 530.003 73.7751 529.737 73.4018 529.56C73.0378 529.373 72.6318 529.28 72.1838 529.28C71.5398 529.28 70.9891 529.485 70.5318 529.896C70.0838 530.307 69.8271 530.876 69.7618 531.604H74.6058ZM87.9438 528.328L83.3238 539.612H82.0078L83.5198 535.916L80.4258 528.328H81.8398L84.2478 534.544L86.6278 528.328H87.9438ZM92.5705 536.126C91.8518 536.126 91.1985 535.963 90.6105 535.636C90.0318 535.309 89.5745 534.847 89.2385 534.25C88.9118 533.643 88.7485 532.943 88.7485 532.15C88.7485 531.366 88.9165 530.675 89.2525 530.078C89.5978 529.471 90.0645 529.009 90.6525 528.692C91.2405 528.365 91.8985 528.202 92.6265 528.202C93.3545 528.202 94.0125 528.365 94.6005 528.692C95.1885 529.009 95.6505 529.467 95.9865 530.064C96.3318 530.661 96.5045 531.357 96.5045 532.15C96.5045 532.943 96.3272 533.643 95.9725 534.25C95.6272 534.847 95.1558 535.309 94.5585 535.636C93.9612 535.963 93.2985 536.126 92.5705 536.126ZM92.5705 535.006C93.0278 535.006 93.4572 534.899 93.8585 534.684C94.2598 534.469 94.5818 534.147 94.8245 533.718C95.0765 533.289 95.2025 532.766 95.2025 532.15C95.2025 531.534 95.0812 531.011 94.8385 530.582C94.5958 530.153 94.2785 529.835 93.8865 529.63C93.4945 529.415 93.0698 529.308 92.6125 529.308C92.1458 529.308 91.7165 529.415 91.3245 529.63C90.9418 529.835 90.6338 530.153 90.4005 530.582C90.1672 531.011 90.0505 531.534 90.0505 532.15C90.0505 532.775 90.1625 533.303 90.3865 533.732C90.6198 534.161 90.9278 534.483 91.3105 534.698C91.6932 534.903 92.1132 535.006 92.5705 535.006ZM104.984 528.328V536H103.71V534.866C103.467 535.258 103.126 535.566 102.688 535.79C102.258 536.005 101.782 536.112 101.26 536.112C100.662 536.112 100.126 535.991 99.6496 535.748C99.1736 535.496 98.7956 535.123 98.5156 534.628C98.2449 534.133 98.1096 533.531 98.1096 532.822V528.328H99.3696V532.654C99.3696 533.41 99.5609 533.993 99.9436 534.404C100.326 534.805 100.849 535.006 101.512 535.006C102.193 535.006 102.73 534.796 103.122 534.376C103.514 533.956 103.71 533.345 103.71 532.542V528.328H104.984ZM108.409 529.574C108.633 529.135 108.95 528.795 109.361 528.552C109.781 528.309 110.289 528.188 110.887 528.188V529.504H110.551C109.123 529.504 108.409 530.279 108.409 531.828V536H107.135V528.328H108.409V529.574ZM115.073 536.126C114.485 536.126 113.958 536.028 113.491 535.832C113.025 535.627 112.656 535.347 112.385 534.992C112.115 534.628 111.965 534.213 111.937 533.746H113.253C113.291 534.129 113.468 534.441 113.785 534.684C114.112 534.927 114.537 535.048 115.059 535.048C115.545 535.048 115.927 534.941 116.207 534.726C116.487 534.511 116.627 534.241 116.627 533.914C116.627 533.578 116.478 533.331 116.179 533.172C115.881 533.004 115.419 532.841 114.793 532.682C114.224 532.533 113.757 532.383 113.393 532.234C113.039 532.075 112.731 531.847 112.469 531.548C112.217 531.24 112.091 530.839 112.091 530.344C112.091 529.952 112.208 529.593 112.441 529.266C112.675 528.939 113.006 528.683 113.435 528.496C113.865 528.3 114.355 528.202 114.905 528.202C115.755 528.202 116.441 528.417 116.963 528.846C117.486 529.275 117.766 529.863 117.803 530.61H116.529C116.501 530.209 116.338 529.887 116.039 529.644C115.75 529.401 115.358 529.28 114.863 529.28C114.406 529.28 114.042 529.378 113.771 529.574C113.501 529.77 113.365 530.027 113.365 530.344C113.365 530.596 113.445 530.806 113.603 530.974C113.771 531.133 113.977 531.263 114.219 531.366C114.471 531.459 114.817 531.567 115.255 531.688C115.806 531.837 116.254 531.987 116.599 532.136C116.945 532.276 117.239 532.491 117.481 532.78C117.733 533.069 117.864 533.447 117.873 533.914C117.873 534.334 117.757 534.712 117.523 535.048C117.29 535.384 116.959 535.65 116.529 535.846C116.109 536.033 115.624 536.126 115.073 536.126ZM126.672 531.87C126.672 532.113 126.658 532.369 126.63 532.64H120.498C120.544 533.396 120.801 533.989 121.268 534.418C121.744 534.838 122.318 535.048 122.99 535.048C123.54 535.048 123.998 534.922 124.362 534.67C124.735 534.409 124.996 534.063 125.146 533.634H126.518C126.312 534.371 125.902 534.973 125.286 535.44C124.67 535.897 123.904 536.126 122.99 536.126C122.262 536.126 121.608 535.963 121.03 535.636C120.46 535.309 120.012 534.847 119.686 534.25C119.359 533.643 119.196 532.943 119.196 532.15C119.196 531.357 119.354 530.661 119.672 530.064C119.989 529.467 120.432 529.009 121.002 528.692C121.58 528.365 122.243 528.202 122.99 528.202C123.718 528.202 124.362 528.361 124.922 528.678C125.482 528.995 125.911 529.434 126.21 529.994C126.518 530.545 126.672 531.17 126.672 531.87ZM125.356 531.604C125.356 531.119 125.248 530.703 125.034 530.358C124.819 530.003 124.525 529.737 124.152 529.56C123.788 529.373 123.382 529.28 122.934 529.28C122.29 529.28 121.739 529.485 121.282 529.896C120.834 530.307 120.577 530.876 120.512 531.604H125.356ZM129.627 525.64V536H128.353V525.64H129.627ZM134.921 529.378H133.311V536H132.037V529.378H131.043V528.328H132.037V527.782C132.037 526.923 132.256 526.298 132.695 525.906C133.143 525.505 133.857 525.304 134.837 525.304V526.368C134.277 526.368 133.88 526.48 133.647 526.704C133.423 526.919 133.311 527.278 133.311 527.782V528.328H134.921V529.378ZM139.663 532.136C139.663 531.352 139.821 530.666 140.139 530.078C140.456 529.481 140.89 529.019 141.441 528.692C142.001 528.365 142.621 528.202 143.303 528.202C143.975 528.202 144.558 528.347 145.053 528.636C145.547 528.925 145.916 529.289 146.159 529.728V528.328H147.447V536H146.159V534.572C145.907 535.02 145.529 535.393 145.025 535.692C144.53 535.981 143.951 536.126 143.289 536.126C142.607 536.126 141.991 535.958 141.441 535.622C140.89 535.286 140.456 534.815 140.139 534.208C139.821 533.601 139.663 532.911 139.663 532.136ZM146.159 532.15C146.159 531.571 146.042 531.067 145.809 530.638C145.575 530.209 145.258 529.882 144.857 529.658C144.465 529.425 144.031 529.308 143.555 529.308C143.079 529.308 142.645 529.42 142.253 529.644C141.861 529.868 141.548 530.195 141.315 530.624C141.081 531.053 140.965 531.557 140.965 532.136C140.965 532.724 141.081 533.237 141.315 533.676C141.548 534.105 141.861 534.437 142.253 534.67C142.645 534.894 143.079 535.006 143.555 535.006C144.031 535.006 144.465 534.894 144.857 534.67C145.258 534.437 145.575 534.105 145.809 533.676C146.042 533.237 146.159 532.729 146.159 532.15ZM153.337 528.188C154.271 528.188 155.027 528.473 155.605 529.042C156.184 529.602 156.473 530.414 156.473 531.478V536H155.213V531.66C155.213 530.895 155.022 530.311 154.639 529.91C154.257 529.499 153.734 529.294 153.071 529.294C152.399 529.294 151.863 529.504 151.461 529.924C151.069 530.344 150.873 530.955 150.873 531.758V536H149.599V528.328H150.873V529.42C151.125 529.028 151.466 528.725 151.895 528.51C152.334 528.295 152.815 528.188 153.337 528.188ZM158.079 532.136C158.079 531.352 158.237 530.666 158.555 530.078C158.872 529.481 159.306 529.019 159.857 528.692C160.417 528.365 161.042 528.202 161.733 528.202C162.33 528.202 162.885 528.342 163.399 528.622C163.912 528.893 164.304 529.252 164.575 529.7V525.64H165.863V536H164.575V534.558C164.323 535.015 163.949 535.393 163.455 535.692C162.96 535.981 162.381 536.126 161.719 536.126C161.037 536.126 160.417 535.958 159.857 535.622C159.306 535.286 158.872 534.815 158.555 534.208C158.237 533.601 158.079 532.911 158.079 532.136ZM164.575 532.15C164.575 531.571 164.458 531.067 164.225 530.638C163.991 530.209 163.674 529.882 163.273 529.658C162.881 529.425 162.447 529.308 161.971 529.308C161.495 529.308 161.061 529.42 160.669 529.644C160.277 529.868 159.964 530.195 159.731 530.624C159.497 531.053 159.381 531.557 159.381 532.136C159.381 532.724 159.497 533.237 159.731 533.676C159.964 534.105 160.277 534.437 160.669 534.67C161.061 534.894 161.495 535.006 161.971 535.006C162.447 535.006 162.881 534.894 163.273 534.67C163.674 534.437 163.991 534.105 164.225 533.676C164.458 533.237 164.575 532.729 164.575 532.15ZM178.356 528.328L173.736 539.612H172.42L173.932 535.916L170.838 528.328H172.252L174.66 534.544L177.04 528.328H178.356ZM182.983 536.126C182.264 536.126 181.611 535.963 181.023 535.636C180.444 535.309 179.987 534.847 179.651 534.25C179.324 533.643 179.161 532.943 179.161 532.15C179.161 531.366 179.329 530.675 179.665 530.078C180.01 529.471 180.477 529.009 181.065 528.692C181.653 528.365 182.311 528.202 183.039 528.202C183.767 528.202 184.425 528.365 185.013 528.692C185.601 529.009 186.063 529.467 186.399 530.064C186.744 530.661 186.917 531.357 186.917 532.15C186.917 532.943 186.739 533.643 186.385 534.25C186.039 534.847 185.568 535.309 184.971 535.636C184.373 535.963 183.711 536.126 182.983 536.126ZM182.983 535.006C183.44 535.006 183.869 534.899 184.271 534.684C184.672 534.469 184.994 534.147 185.237 533.718C185.489 533.289 185.615 532.766 185.615 532.15C185.615 531.534 185.493 531.011 185.251 530.582C185.008 530.153 184.691 529.835 184.299 529.63C183.907 529.415 183.482 529.308 183.025 529.308C182.558 529.308 182.129 529.415 181.737 529.63C181.354 529.835 181.046 530.153 180.813 530.582C180.579 531.011 180.463 531.534 180.463 532.15C180.463 532.775 180.575 533.303 180.799 533.732C181.032 534.161 181.34 534.483 181.723 534.698C182.105 534.903 182.525 535.006 182.983 535.006ZM195.396 528.328V536H194.122V534.866C193.879 535.258 193.538 535.566 193.1 535.79C192.67 536.005 192.194 536.112 191.672 536.112C191.074 536.112 190.538 535.991 190.062 535.748C189.586 535.496 189.208 535.123 188.928 534.628C188.657 534.133 188.522 533.531 188.522 532.822V528.328H189.782V532.654C189.782 533.41 189.973 533.993 190.356 534.404C190.738 534.805 191.261 535.006 191.924 535.006C192.605 535.006 193.142 534.796 193.534 534.376C193.926 533.956 194.122 533.345 194.122 532.542V528.328H195.396ZM198.821 529.574C199.045 529.135 199.362 528.795 199.773 528.552C200.193 528.309 200.701 528.188 201.299 528.188V529.504H200.963C199.535 529.504 198.821 530.279 198.821 531.828V536H197.547V528.328H198.821V529.574ZM208.056 529.378V533.9C208.056 534.273 208.135 534.539 208.294 534.698C208.452 534.847 208.728 534.922 209.12 534.922H210.058V536H208.91C208.2 536 207.668 535.837 207.314 535.51C206.959 535.183 206.782 534.647 206.782 533.9V529.378H205.788V528.328H206.782V526.396H208.056V528.328H210.058V529.378H208.056ZM218.601 531.87C218.601 532.113 218.587 532.369 218.559 532.64H212.427C212.474 533.396 212.731 533.989 213.197 534.418C213.673 534.838 214.247 535.048 214.919 535.048C215.47 535.048 215.927 534.922 216.291 534.67C216.665 534.409 216.926 534.063 217.075 533.634H218.447C218.242 534.371 217.831 534.973 217.215 535.44C216.599 535.897 215.834 536.126 214.919 536.126C214.191 536.126 213.538 535.963 212.959 535.636C212.39 535.309 211.942 534.847 211.615 534.25C211.289 533.643 211.125 532.943 211.125 532.15C211.125 531.357 211.284 530.661 211.601 530.064C211.919 529.467 212.362 529.009 212.931 528.692C213.51 528.365 214.173 528.202 214.919 528.202C215.647 528.202 216.291 528.361 216.851 528.678C217.411 528.995 217.841 529.434 218.139 529.994C218.447 530.545 218.601 531.17 218.601 531.87ZM217.285 531.604C217.285 531.119 217.178 530.703 216.963 530.358C216.749 530.003 216.455 529.737 216.081 529.56C215.717 529.373 215.311 529.28 214.863 529.28C214.219 529.28 213.669 529.485 213.211 529.896C212.763 530.307 212.507 530.876 212.441 531.604H217.285ZM219.807 532.136C219.807 531.352 219.966 530.666 220.283 530.078C220.6 529.481 221.034 529.019 221.585 528.692C222.145 528.365 222.766 528.202 223.447 528.202C224.119 528.202 224.702 528.347 225.197 528.636C225.692 528.925 226.06 529.289 226.303 529.728V528.328H227.591V536H226.303V534.572C226.051 535.02 225.673 535.393 225.169 535.692C224.674 535.981 224.096 536.126 223.433 536.126C222.752 536.126 222.136 535.958 221.585 535.622C221.034 535.286 220.6 534.815 220.283 534.208C219.966 533.601 219.807 532.911 219.807 532.136ZM226.303 532.15C226.303 531.571 226.186 531.067 225.953 530.638C225.72 530.209 225.402 529.882 225.001 529.658C224.609 529.425 224.175 529.308 223.699 529.308C223.223 529.308 222.789 529.42 222.397 529.644C222.005 529.868 221.692 530.195 221.459 530.624C221.226 531.053 221.109 531.557 221.109 532.136C221.109 532.724 221.226 533.237 221.459 533.676C221.692 534.105 222.005 534.437 222.397 534.67C222.789 534.894 223.223 535.006 223.699 535.006C224.175 535.006 224.609 534.894 225.001 534.67C225.402 534.437 225.72 534.105 225.953 533.676C226.186 533.237 226.303 532.729 226.303 532.15ZM238.97 528.188C239.567 528.188 240.099 528.314 240.566 528.566C241.033 528.809 241.401 529.177 241.672 529.672C241.943 530.167 242.078 530.769 242.078 531.478V536H240.818V531.66C240.818 530.895 240.627 530.311 240.244 529.91C239.871 529.499 239.362 529.294 238.718 529.294C238.055 529.294 237.528 529.509 237.136 529.938C236.744 530.358 236.548 530.969 236.548 531.772V536H235.288V531.66C235.288 530.895 235.097 530.311 234.714 529.91C234.341 529.499 233.832 529.294 233.188 529.294C232.525 529.294 231.998 529.509 231.606 529.938C231.214 530.358 231.018 530.969 231.018 531.772V536H229.744V528.328H231.018V529.434C231.27 529.033 231.606 528.725 232.026 528.51C232.455 528.295 232.927 528.188 233.44 528.188C234.084 528.188 234.653 528.333 235.148 528.622C235.643 528.911 236.011 529.336 236.254 529.896C236.469 529.355 236.823 528.935 237.318 528.636C237.813 528.337 238.363 528.188 238.97 528.188ZM249.454 529.378V533.9C249.454 534.273 249.534 534.539 249.692 534.698C249.851 534.847 250.126 534.922 250.518 534.922H251.456V536H250.308C249.599 536 249.067 535.837 248.712 535.51C248.358 535.183 248.18 534.647 248.18 533.9V529.378H247.186V528.328H248.18V526.396H249.454V528.328H251.456V529.378H249.454ZM256.346 536.126C255.627 536.126 254.974 535.963 254.386 535.636C253.807 535.309 253.35 534.847 253.014 534.25C252.687 533.643 252.524 532.943 252.524 532.15C252.524 531.366 252.692 530.675 253.028 530.078C253.373 529.471 253.84 529.009 254.428 528.692C255.016 528.365 255.674 528.202 256.402 528.202C257.13 528.202 257.788 528.365 258.376 528.692C258.964 529.009 259.426 529.467 259.762 530.064C260.107 530.661 260.28 531.357 260.28 532.15C260.28 532.943 260.103 533.643 259.748 534.25C259.403 534.847 258.931 535.309 258.334 535.636C257.737 535.963 257.074 536.126 256.346 536.126ZM256.346 535.006C256.803 535.006 257.233 534.899 257.634 534.684C258.035 534.469 258.357 534.147 258.6 533.718C258.852 533.289 258.978 532.766 258.978 532.15C258.978 531.534 258.857 531.011 258.614 530.582C258.371 530.153 258.054 529.835 257.662 529.63C257.27 529.415 256.845 529.308 256.388 529.308C255.921 529.308 255.492 529.415 255.1 529.63C254.717 529.835 254.409 530.153 254.176 530.582C253.943 531.011 253.826 531.534 253.826 532.15C253.826 532.775 253.938 533.303 254.162 533.732C254.395 534.161 254.703 534.483 255.086 534.698C255.469 534.903 255.889 535.006 256.346 535.006ZM266.961 529.742C267.213 529.303 267.587 528.939 268.081 528.65C268.585 528.351 269.169 528.202 269.831 528.202C270.513 528.202 271.129 528.365 271.679 528.692C272.239 529.019 272.678 529.481 272.995 530.078C273.313 530.666 273.471 531.352 273.471 532.136C273.471 532.911 273.313 533.601 272.995 534.208C272.678 534.815 272.239 535.286 271.679 535.622C271.129 535.958 270.513 536.126 269.831 536.126C269.178 536.126 268.599 535.981 268.095 535.692C267.601 535.393 267.223 535.025 266.961 534.586V539.64H265.687V528.328H266.961V529.742ZM272.169 532.136C272.169 531.557 272.053 531.053 271.819 530.624C271.586 530.195 271.269 529.868 270.867 529.644C270.475 529.42 270.041 529.308 269.565 529.308C269.099 529.308 268.665 529.425 268.263 529.658C267.871 529.882 267.554 530.213 267.311 530.652C267.078 531.081 266.961 531.581 266.961 532.15C266.961 532.729 267.078 533.237 267.311 533.676C267.554 534.105 267.871 534.437 268.263 534.67C268.665 534.894 269.099 535.006 269.565 535.006C270.041 535.006 270.475 534.894 270.867 534.67C271.269 534.437 271.586 534.105 271.819 533.676C272.053 533.237 272.169 532.724 272.169 532.136ZM276.422 529.574C276.646 529.135 276.964 528.795 277.374 528.552C277.794 528.309 278.303 528.188 278.9 528.188V529.504H278.564C277.136 529.504 276.422 530.279 276.422 531.828V536H275.148V528.328H276.422V529.574ZM279.895 532.136C279.895 531.352 280.054 530.666 280.371 530.078C280.688 529.481 281.122 529.019 281.673 528.692C282.233 528.365 282.854 528.202 283.535 528.202C284.207 528.202 284.79 528.347 285.285 528.636C285.78 528.925 286.148 529.289 286.391 529.728V528.328H287.679V536H286.391V534.572C286.139 535.02 285.761 535.393 285.257 535.692C284.762 535.981 284.184 536.126 283.521 536.126C282.84 536.126 282.224 535.958 281.673 535.622C281.122 535.286 280.688 534.815 280.371 534.208C280.054 533.601 279.895 532.911 279.895 532.136ZM286.391 532.15C286.391 531.571 286.274 531.067 286.041 530.638C285.808 530.209 285.49 529.882 285.089 529.658C284.697 529.425 284.263 529.308 283.787 529.308C283.311 529.308 282.877 529.42 282.485 529.644C282.093 529.868 281.78 530.195 281.547 530.624C281.314 531.053 281.197 531.557 281.197 532.136C281.197 532.724 281.314 533.237 281.547 533.676C281.78 534.105 282.093 534.437 282.485 534.67C282.877 534.894 283.311 535.006 283.787 535.006C284.263 535.006 284.697 534.894 285.089 534.67C285.49 534.437 285.808 534.105 286.041 533.676C286.274 533.237 286.391 532.729 286.391 532.15ZM289.356 532.15C289.356 531.357 289.515 530.666 289.832 530.078C290.149 529.481 290.588 529.019 291.148 528.692C291.717 528.365 292.366 528.202 293.094 528.202C294.037 528.202 294.811 528.431 295.418 528.888C296.034 529.345 296.44 529.98 296.636 530.792H295.264C295.133 530.325 294.877 529.957 294.494 529.686C294.121 529.415 293.654 529.28 293.094 529.28C292.366 529.28 291.778 529.532 291.33 530.036C290.882 530.531 290.658 531.235 290.658 532.15C290.658 533.074 290.882 533.788 291.33 534.292C291.778 534.796 292.366 535.048 293.094 535.048C293.654 535.048 294.121 534.917 294.494 534.656C294.867 534.395 295.124 534.021 295.264 533.536H296.636C296.431 534.32 296.02 534.95 295.404 535.426C294.788 535.893 294.018 536.126 293.094 536.126C292.366 536.126 291.717 535.963 291.148 535.636C290.588 535.309 290.149 534.847 289.832 534.25C289.515 533.653 289.356 532.953 289.356 532.15ZM299.89 529.378V533.9C299.89 534.273 299.969 534.539 300.128 534.698C300.286 534.847 300.562 534.922 300.954 534.922H301.892V536H300.744C300.034 536 299.502 535.837 299.148 535.51C298.793 535.183 298.616 534.647 298.616 533.9V529.378H297.622V528.328H298.616V526.396H299.89V528.328H301.892V529.378H299.89ZM304.093 527.082C303.851 527.082 303.645 526.998 303.477 526.83C303.309 526.662 303.225 526.457 303.225 526.214C303.225 525.971 303.309 525.766 303.477 525.598C303.645 525.43 303.851 525.346 304.093 525.346C304.327 525.346 304.523 525.43 304.681 525.598C304.849 525.766 304.933 525.971 304.933 526.214C304.933 526.457 304.849 526.662 304.681 526.83C304.523 526.998 304.327 527.082 304.093 527.082ZM304.709 528.328V536H303.435V528.328H304.709ZM306.405 532.15C306.405 531.357 306.563 530.666 306.881 530.078C307.198 529.481 307.637 529.019 308.197 528.692C308.766 528.365 309.415 528.202 310.143 528.202C311.085 528.202 311.86 528.431 312.467 528.888C313.083 529.345 313.489 529.98 313.685 530.792H312.313C312.182 530.325 311.925 529.957 311.543 529.686C311.169 529.415 310.703 529.28 310.143 529.28C309.415 529.28 308.827 529.532 308.379 530.036C307.931 530.531 307.707 531.235 307.707 532.15C307.707 533.074 307.931 533.788 308.379 534.292C308.827 534.796 309.415 535.048 310.143 535.048C310.703 535.048 311.169 534.917 311.543 534.656C311.916 534.395 312.173 534.021 312.313 533.536H313.685C313.479 534.32 313.069 534.95 312.453 535.426C311.837 535.893 311.067 536.126 310.143 536.126C309.415 536.126 308.766 535.963 308.197 535.636C307.637 535.309 307.198 534.847 306.881 534.25C306.563 533.653 306.405 532.953 306.405 532.15ZM322.385 531.87C322.385 532.113 322.371 532.369 322.343 532.64H316.211C316.257 533.396 316.514 533.989 316.981 534.418C317.457 534.838 318.031 535.048 318.703 535.048C319.253 535.048 319.711 534.922 320.075 534.67C320.448 534.409 320.709 534.063 320.859 533.634H322.231C322.025 534.371 321.615 534.973 320.999 535.44C320.383 535.897 319.617 536.126 318.703 536.126C317.975 536.126 317.321 535.963 316.743 535.636C316.173 535.309 315.725 534.847 315.399 534.25C315.072 533.643 314.909 532.943 314.909 532.15C314.909 531.357 315.067 530.661 315.385 530.064C315.702 529.467 316.145 529.009 316.715 528.692C317.293 528.365 317.956 528.202 318.703 528.202C319.431 528.202 320.075 528.361 320.635 528.678C321.195 528.995 321.624 529.434 321.923 529.994C322.231 530.545 322.385 531.17 322.385 531.87ZM321.069 531.604C321.069 531.119 320.961 530.703 320.747 530.358C320.532 530.003 320.238 529.737 319.865 529.56C319.501 529.373 319.095 529.28 318.647 529.28C318.003 529.28 317.452 529.485 316.995 529.896C316.547 530.307 316.29 530.876 316.225 531.604H321.069ZM331.145 536.126C330.426 536.126 329.773 535.963 329.185 535.636C328.606 535.309 328.149 534.847 327.813 534.25C327.486 533.643 327.323 532.943 327.323 532.15C327.323 531.366 327.491 530.675 327.827 530.078C328.172 529.471 328.639 529.009 329.227 528.692C329.815 528.365 330.473 528.202 331.201 528.202C331.929 528.202 332.587 528.365 333.175 528.692C333.763 529.009 334.225 529.467 334.561 530.064C334.906 530.661 335.079 531.357 335.079 532.15C335.079 532.943 334.901 533.643 334.547 534.25C334.201 534.847 333.73 535.309 333.133 535.636C332.535 535.963 331.873 536.126 331.145 536.126ZM331.145 535.006C331.602 535.006 332.031 534.899 332.433 534.684C332.834 534.469 333.156 534.147 333.399 533.718C333.651 533.289 333.777 532.766 333.777 532.15C333.777 531.534 333.655 531.011 333.413 530.582C333.17 530.153 332.853 529.835 332.461 529.63C332.069 529.415 331.644 529.308 331.187 529.308C330.72 529.308 330.291 529.415 329.899 529.63C329.516 529.835 329.208 530.153 328.975 530.582C328.741 531.011 328.625 531.534 328.625 532.15C328.625 532.775 328.737 533.303 328.961 533.732C329.194 534.161 329.502 534.483 329.885 534.698C330.267 534.903 330.687 535.006 331.145 535.006ZM340.492 528.188C341.425 528.188 342.181 528.473 342.76 529.042C343.338 529.602 343.628 530.414 343.628 531.478V536H342.368V531.66C342.368 530.895 342.176 530.311 341.794 529.91C341.411 529.499 340.888 529.294 340.226 529.294C339.554 529.294 339.017 529.504 338.616 529.924C338.224 530.344 338.028 530.955 338.028 531.758V536H336.754V528.328H338.028V529.42C338.28 529.028 338.62 528.725 339.05 528.51C339.488 528.295 339.969 528.188 340.492 528.188ZM32.632 550.378V554.9C32.632 555.273 32.7113 555.539 32.87 555.698C33.0287 555.847 33.304 555.922 33.696 555.922H34.634V557H33.486C32.7767 557 32.2447 556.837 31.89 556.51C31.5353 556.183 31.358 555.647 31.358 554.9V550.378H30.364V549.328H31.358V547.396H32.632V549.328H34.634V550.378H32.632ZM39.9856 549.188C40.5643 549.188 41.0869 549.314 41.5536 549.566C42.0203 549.809 42.3843 550.177 42.6456 550.672C42.9163 551.167 43.0516 551.769 43.0516 552.478V557H41.7916V552.66C41.7916 551.895 41.6003 551.311 41.2176 550.91C40.8349 550.499 40.3123 550.294 39.6496 550.294C38.9776 550.294 38.4409 550.504 38.0396 550.924C37.6476 551.344 37.4516 551.955 37.4516 552.758V557H36.1776V546.64H37.4516V550.42C37.7036 550.028 38.0489 549.725 38.4876 549.51C38.9356 549.295 39.4349 549.188 39.9856 549.188ZM52.1327 552.87C52.1327 553.113 52.1187 553.369 52.0907 553.64H45.9587C46.0054 554.396 46.262 554.989 46.7287 555.418C47.2047 555.838 47.7787 556.048 48.4507 556.048C49.0014 556.048 49.4587 555.922 49.8227 555.67C50.196 555.409 50.4574 555.063 50.6067 554.634H51.9787C51.7734 555.371 51.3627 555.973 50.7467 556.44C50.1307 556.897 49.3654 557.126 48.4507 557.126C47.7227 557.126 47.0694 556.963 46.4907 556.636C45.9214 556.309 45.4734 555.847 45.1467 555.25C44.82 554.643 44.6567 553.943 44.6567 553.15C44.6567 552.357 44.8154 551.661 45.1327 551.064C45.45 550.467 45.8934 550.009 46.4627 549.692C47.0414 549.365 47.704 549.202 48.4507 549.202C49.1787 549.202 49.8227 549.361 50.3827 549.678C50.9427 549.995 51.372 550.434 51.6707 550.994C51.9787 551.545 52.1327 552.17 52.1327 552.87ZM50.8167 552.604C50.8167 552.119 50.7094 551.703 50.4947 551.358C50.28 551.003 49.986 550.737 49.6127 550.56C49.2487 550.373 48.8427 550.28 48.3947 550.28C47.7507 550.28 47.2 550.485 46.7427 550.896C46.2947 551.307 46.038 551.876 45.9727 552.604H50.8167ZM54.4723 548.082C54.2297 548.082 54.0243 547.998 53.8563 547.83C53.6883 547.662 53.6043 547.457 53.6043 547.214C53.6043 546.971 53.6883 546.766 53.8563 546.598C54.0243 546.43 54.2297 546.346 54.4723 546.346C54.7057 546.346 54.9017 546.43 55.0603 546.598C55.2283 546.766 55.3123 546.971 55.3123 547.214C55.3123 547.457 55.2283 547.662 55.0603 547.83C54.9017 547.998 54.7057 548.082 54.4723 548.082ZM55.0883 549.328V557H53.8143V549.328H55.0883ZM58.5336 550.574C58.7576 550.135 59.075 549.795 59.4856 549.552C59.9056 549.309 60.4143 549.188 61.0116 549.188V550.504H60.6756C59.2476 550.504 58.5336 551.279 58.5336 552.828V557H57.2596V549.328H58.5336V550.574ZM69.5607 557.126C68.8421 557.126 68.1887 556.963 67.6007 556.636C67.0221 556.309 66.5647 555.847 66.2287 555.25C65.9021 554.643 65.7387 553.943 65.7387 553.15C65.7387 552.366 65.9067 551.675 66.2427 551.078C66.5881 550.471 67.0547 550.009 67.6427 549.692C68.2307 549.365 68.8887 549.202 69.6167 549.202C70.3447 549.202 71.0027 549.365 71.5907 549.692C72.1787 550.009 72.6407 550.467 72.9767 551.064C73.3221 551.661 73.4947 552.357 73.4947 553.15C73.4947 553.943 73.3174 554.643 72.9627 555.25C72.6174 555.847 72.1461 556.309 71.5487 556.636C70.9514 556.963 70.2887 557.126 69.5607 557.126ZM69.5607 556.006C70.0181 556.006 70.4474 555.899 70.8487 555.684C71.2501 555.469 71.5721 555.147 71.8147 554.718C72.0667 554.289 72.1927 553.766 72.1927 553.15C72.1927 552.534 72.0714 552.011 71.8287 551.582C71.5861 551.153 71.2687 550.835 70.8767 550.63C70.4847 550.415 70.0601 550.308 69.6027 550.308C69.1361 550.308 68.7067 550.415 68.3147 550.63C67.9321 550.835 67.6241 551.153 67.3907 551.582C67.1574 552.011 67.0407 552.534 67.0407 553.15C67.0407 553.775 67.1527 554.303 67.3767 554.732C67.6101 555.161 67.9181 555.483 68.3007 555.698C68.6834 555.903 69.1034 556.006 69.5607 556.006ZM85.3898 549.328L82.9958 557H81.6798L79.8318 550.91L77.9838 557H76.6678L74.2598 549.328H75.5618L77.3258 555.768L79.2298 549.328H80.5318L82.3938 555.782L84.1298 549.328H85.3898ZM90.3922 549.188C91.3255 549.188 92.0815 549.473 92.6602 550.042C93.2388 550.602 93.5282 551.414 93.5282 552.478V557H92.2682V552.66C92.2682 551.895 92.0768 551.311 91.6942 550.91C91.3115 550.499 90.7888 550.294 90.1262 550.294C89.4542 550.294 88.9175 550.504 88.5162 550.924C88.1242 551.344 87.9282 551.955 87.9282 552.758V557H86.6542V549.328H87.9282V550.42C88.1802 550.028 88.5208 549.725 88.9502 549.51C89.3888 549.295 89.8695 549.188 90.3922 549.188ZM102.058 557.126C101.47 557.126 100.942 557.028 100.476 556.832C100.009 556.627 99.6403 556.347 99.3697 555.992C99.099 555.628 98.9497 555.213 98.9217 554.746H100.238C100.275 555.129 100.452 555.441 100.77 555.684C101.096 555.927 101.521 556.048 102.044 556.048C102.529 556.048 102.912 555.941 103.192 555.726C103.472 555.511 103.612 555.241 103.612 554.914C103.612 554.578 103.462 554.331 103.164 554.172C102.865 554.004 102.403 553.841 101.778 553.682C101.208 553.533 100.742 553.383 100.378 553.234C100.023 553.075 99.715 552.847 99.4537 552.548C99.2017 552.24 99.0757 551.839 99.0757 551.344C99.0757 550.952 99.1923 550.593 99.4257 550.266C99.659 549.939 99.9903 549.683 100.42 549.496C100.849 549.3 101.339 549.202 101.89 549.202C102.739 549.202 103.425 549.417 103.948 549.846C104.47 550.275 104.75 550.863 104.788 551.61H103.514C103.486 551.209 103.322 550.887 103.024 550.644C102.734 550.401 102.342 550.28 101.848 550.28C101.39 550.28 101.026 550.378 100.756 550.574C100.485 550.77 100.35 551.027 100.35 551.344C100.35 551.596 100.429 551.806 100.588 551.974C100.756 552.133 100.961 552.263 101.204 552.366C101.456 552.459 101.801 552.567 102.24 552.688C102.79 552.837 103.238 552.987 103.584 553.136C103.929 553.276 104.223 553.491 104.466 553.78C104.718 554.069 104.848 554.447 104.858 554.914C104.858 555.334 104.741 555.712 104.508 556.048C104.274 556.384 103.943 556.65 103.514 556.846C103.094 557.033 102.608 557.126 102.058 557.126ZM106.18 553.15C106.18 552.357 106.339 551.666 106.656 551.078C106.973 550.481 107.412 550.019 107.972 549.692C108.541 549.365 109.19 549.202 109.918 549.202C110.861 549.202 111.635 549.431 112.242 549.888C112.858 550.345 113.264 550.98 113.46 551.792H112.088C111.957 551.325 111.701 550.957 111.318 550.686C110.945 550.415 110.478 550.28 109.918 550.28C109.19 550.28 108.602 550.532 108.154 551.036C107.706 551.531 107.482 552.235 107.482 553.15C107.482 554.074 107.706 554.788 108.154 555.292C108.602 555.796 109.19 556.048 109.918 556.048C110.478 556.048 110.945 555.917 111.318 555.656C111.691 555.395 111.948 555.021 112.088 554.536H113.46C113.255 555.32 112.844 555.95 112.228 556.426C111.612 556.893 110.842 557.126 109.918 557.126C109.19 557.126 108.541 556.963 107.972 556.636C107.412 556.309 106.973 555.847 106.656 555.25C106.339 554.653 106.18 553.953 106.18 553.15ZM118.968 549.188C119.547 549.188 120.069 549.314 120.536 549.566C121.003 549.809 121.367 550.177 121.628 550.672C121.899 551.167 122.034 551.769 122.034 552.478V557H120.774V552.66C120.774 551.895 120.583 551.311 120.2 550.91C119.817 550.499 119.295 550.294 118.632 550.294C117.96 550.294 117.423 550.504 117.022 550.924C116.63 551.344 116.434 551.955 116.434 552.758V557H115.16V546.64H116.434V550.42C116.686 550.028 117.031 549.725 117.47 549.51C117.918 549.295 118.417 549.188 118.968 549.188ZM131.115 552.87C131.115 553.113 131.101 553.369 131.073 553.64H124.941C124.988 554.396 125.244 554.989 125.711 555.418C126.187 555.838 126.761 556.048 127.433 556.048C127.984 556.048 128.441 555.922 128.805 555.67C129.178 555.409 129.44 555.063 129.589 554.634H130.961C130.756 555.371 130.345 555.973 129.729 556.44C129.113 556.897 128.348 557.126 127.433 557.126C126.705 557.126 126.052 556.963 125.473 556.636C124.904 556.309 124.456 555.847 124.129 555.25C123.802 554.643 123.639 553.943 123.639 553.15C123.639 552.357 123.798 551.661 124.115 551.064C124.432 550.467 124.876 550.009 125.445 549.692C126.024 549.365 126.686 549.202 127.433 549.202C128.161 549.202 128.805 549.361 129.365 549.678C129.925 549.995 130.354 550.434 130.653 550.994C130.961 551.545 131.115 552.17 131.115 552.87ZM129.799 552.604C129.799 552.119 129.692 551.703 129.477 551.358C129.262 551.003 128.968 550.737 128.595 550.56C128.231 550.373 127.825 550.28 127.377 550.28C126.733 550.28 126.182 550.485 125.725 550.896C125.277 551.307 125.02 551.876 124.955 552.604H129.799ZM132.321 553.136C132.321 552.352 132.479 551.666 132.797 551.078C133.114 550.481 133.548 550.019 134.099 549.692C134.659 549.365 135.284 549.202 135.975 549.202C136.572 549.202 137.127 549.342 137.641 549.622C138.154 549.893 138.546 550.252 138.817 550.7V546.64H140.105V557H138.817V555.558C138.565 556.015 138.191 556.393 137.697 556.692C137.202 556.981 136.623 557.126 135.961 557.126C135.279 557.126 134.659 556.958 134.099 556.622C133.548 556.286 133.114 555.815 132.797 555.208C132.479 554.601 132.321 553.911 132.321 553.136ZM138.817 553.15C138.817 552.571 138.7 552.067 138.467 551.638C138.233 551.209 137.916 550.882 137.515 550.658C137.123 550.425 136.689 550.308 136.213 550.308C135.737 550.308 135.303 550.42 134.911 550.644C134.519 550.868 134.206 551.195 133.973 551.624C133.739 552.053 133.623 552.557 133.623 553.136C133.623 553.724 133.739 554.237 133.973 554.676C134.206 555.105 134.519 555.437 134.911 555.67C135.303 555.894 135.737 556.006 136.213 556.006C136.689 556.006 137.123 555.894 137.515 555.67C137.916 555.437 138.233 555.105 138.467 554.676C138.7 554.237 138.817 553.729 138.817 553.15ZM149.062 549.328V557H147.788V555.866C147.545 556.258 147.204 556.566 146.766 556.79C146.336 557.005 145.86 557.112 145.338 557.112C144.74 557.112 144.204 556.991 143.728 556.748C143.252 556.496 142.874 556.123 142.594 555.628C142.323 555.133 142.188 554.531 142.188 553.822V549.328H143.448V553.654C143.448 554.41 143.639 554.993 144.022 555.404C144.404 555.805 144.927 556.006 145.59 556.006C146.271 556.006 146.808 555.796 147.2 555.376C147.592 554.956 147.788 554.345 147.788 553.542V549.328H149.062ZM152.487 546.64V557H151.213V546.64H152.487ZM161.658 552.87C161.658 553.113 161.644 553.369 161.616 553.64H155.484C155.531 554.396 155.787 554.989 156.254 555.418C156.73 555.838 157.304 556.048 157.976 556.048C158.527 556.048 158.984 555.922 159.348 555.67C159.721 555.409 159.983 555.063 160.132 554.634H161.504C161.299 555.371 160.888 555.973 160.272 556.44C159.656 556.897 158.891 557.126 157.976 557.126C157.248 557.126 156.595 556.963 156.016 556.636C155.447 556.309 154.999 555.847 154.672 555.25C154.345 554.643 154.182 553.943 154.182 553.15C154.182 552.357 154.341 551.661 154.658 551.064C154.975 550.467 155.419 550.009 155.988 549.692C156.567 549.365 157.229 549.202 157.976 549.202C158.704 549.202 159.348 549.361 159.908 549.678C160.468 549.995 160.897 550.434 161.196 550.994C161.504 551.545 161.658 552.17 161.658 552.87ZM160.342 552.604C160.342 552.119 160.235 551.703 160.02 551.358C159.805 551.003 159.511 550.737 159.138 550.56C158.774 550.373 158.368 550.28 157.92 550.28C157.276 550.28 156.725 550.485 156.268 550.896C155.82 551.307 155.563 551.876 155.498 552.604H160.342ZM164.656 555.236L163.088 559.002H162.234L163.256 555.236H164.656ZM169.372 553.136C169.372 552.352 169.53 551.666 169.848 551.078C170.165 550.481 170.599 550.019 171.15 549.692C171.71 549.365 172.33 549.202 173.012 549.202C173.684 549.202 174.267 549.347 174.762 549.636C175.256 549.925 175.625 550.289 175.868 550.728V549.328H177.156V557H175.868V555.572C175.616 556.02 175.238 556.393 174.734 556.692C174.239 556.981 173.66 557.126 172.998 557.126C172.316 557.126 171.7 556.958 171.15 556.622C170.599 556.286 170.165 555.815 169.848 555.208C169.53 554.601 169.372 553.911 169.372 553.136ZM175.868 553.15C175.868 552.571 175.751 552.067 175.518 551.638C175.284 551.209 174.967 550.882 174.566 550.658C174.174 550.425 173.74 550.308 173.264 550.308C172.788 550.308 172.354 550.42 171.962 550.644C171.57 550.868 171.257 551.195 171.024 551.624C170.79 552.053 170.674 552.557 170.674 553.136C170.674 553.724 170.79 554.237 171.024 554.676C171.257 555.105 171.57 555.437 171.962 555.67C172.354 555.894 172.788 556.006 173.264 556.006C173.74 556.006 174.174 555.894 174.566 555.67C174.967 555.437 175.284 555.105 175.518 554.676C175.751 554.237 175.868 553.729 175.868 553.15ZM183.046 549.188C183.98 549.188 184.736 549.473 185.314 550.042C185.893 550.602 186.182 551.414 186.182 552.478V557H184.922V552.66C184.922 551.895 184.731 551.311 184.348 550.91C183.966 550.499 183.443 550.294 182.78 550.294C182.108 550.294 181.572 550.504 181.17 550.924C180.778 551.344 180.582 551.955 180.582 552.758V557H179.308V549.328H180.582V550.42C180.834 550.028 181.175 549.725 181.604 549.51C182.043 549.295 182.524 549.188 183.046 549.188ZM187.788 553.136C187.788 552.352 187.946 551.666 188.264 551.078C188.581 550.481 189.015 550.019 189.566 549.692C190.126 549.365 190.751 549.202 191.442 549.202C192.039 549.202 192.594 549.342 193.108 549.622C193.621 549.893 194.013 550.252 194.284 550.7V546.64H195.572V557H194.284V555.558C194.032 556.015 193.658 556.393 193.164 556.692C192.669 556.981 192.09 557.126 191.428 557.126C190.746 557.126 190.126 556.958 189.566 556.622C189.015 556.286 188.581 555.815 188.264 555.208C187.946 554.601 187.788 553.911 187.788 553.136ZM194.284 553.15C194.284 552.571 194.167 552.067 193.934 551.638C193.7 551.209 193.383 550.882 192.982 550.658C192.59 550.425 192.156 550.308 191.68 550.308C191.204 550.308 190.77 550.42 190.378 550.644C189.986 550.868 189.673 551.195 189.44 551.624C189.206 552.053 189.09 552.557 189.09 553.136C189.09 553.724 189.206 554.237 189.44 554.676C189.673 555.105 189.986 555.437 190.378 555.67C190.77 555.894 191.204 556.006 191.68 556.006C192.156 556.006 192.59 555.894 192.982 555.67C193.383 555.437 193.7 555.105 193.934 554.676C194.167 554.237 194.284 553.729 194.284 553.15ZM202.731 550.574C202.955 550.135 203.272 549.795 203.683 549.552C204.103 549.309 204.612 549.188 205.209 549.188V550.504H204.873C203.445 550.504 202.731 551.279 202.731 552.828V557H201.457V549.328H202.731V550.574ZM213.68 552.87C213.68 553.113 213.666 553.369 213.638 553.64H207.506C207.552 554.396 207.809 554.989 208.276 555.418C208.752 555.838 209.326 556.048 209.998 556.048C210.548 556.048 211.006 555.922 211.37 555.67C211.743 555.409 212.004 555.063 212.154 554.634H213.526C213.32 555.371 212.91 555.973 212.294 556.44C211.678 556.897 210.912 557.126 209.998 557.126C209.27 557.126 208.616 556.963 208.038 556.636C207.468 556.309 207.02 555.847 206.694 555.25C206.367 554.643 206.204 553.943 206.204 553.15C206.204 552.357 206.362 551.661 206.68 551.064C206.997 550.467 207.44 550.009 208.01 549.692C208.588 549.365 209.251 549.202 209.998 549.202C210.726 549.202 211.37 549.361 211.93 549.678C212.49 549.995 212.919 550.434 213.218 550.994C213.526 551.545 213.68 552.17 213.68 552.87ZM212.364 552.604C212.364 552.119 212.256 551.703 212.042 551.358C211.827 551.003 211.533 550.737 211.16 550.56C210.796 550.373 210.39 550.28 209.942 550.28C209.298 550.28 208.747 550.485 208.29 550.896C207.842 551.307 207.585 551.876 207.52 552.604H212.364ZM214.885 553.136C214.885 552.352 215.044 551.666 215.361 551.078C215.679 550.481 216.113 550.019 216.663 549.692C217.223 549.365 217.844 549.202 218.525 549.202C219.197 549.202 219.781 549.347 220.275 549.636C220.77 549.925 221.139 550.289 221.381 550.728V549.328H222.669V557H221.381V555.572C221.129 556.02 220.751 556.393 220.247 556.692C219.753 556.981 219.174 557.126 218.511 557.126C217.83 557.126 217.214 556.958 216.663 556.622C216.113 556.286 215.679 555.815 215.361 555.208C215.044 554.601 214.885 553.911 214.885 553.136ZM221.381 553.15C221.381 552.571 221.265 552.067 221.031 551.638C220.798 551.209 220.481 550.882 220.079 550.658C219.687 550.425 219.253 550.308 218.777 550.308C218.301 550.308 217.867 550.42 217.475 550.644C217.083 550.868 216.771 551.195 216.537 551.624C216.304 552.053 216.187 552.557 216.187 553.136C216.187 553.724 216.304 554.237 216.537 554.676C216.771 555.105 217.083 555.437 217.475 555.67C217.867 555.894 218.301 556.006 218.777 556.006C219.253 556.006 219.687 555.894 220.079 555.67C220.481 555.437 220.798 555.105 221.031 554.676C221.265 554.237 221.381 553.729 221.381 553.15ZM224.346 553.15C224.346 552.357 224.505 551.666 224.822 551.078C225.139 550.481 225.578 550.019 226.138 549.692C226.707 549.365 227.356 549.202 228.084 549.202C229.027 549.202 229.801 549.431 230.408 549.888C231.024 550.345 231.43 550.98 231.626 551.792H230.254C230.123 551.325 229.867 550.957 229.484 550.686C229.111 550.415 228.644 550.28 228.084 550.28C227.356 550.28 226.768 550.532 226.32 551.036C225.872 551.531 225.648 552.235 225.648 553.15C225.648 554.074 225.872 554.788 226.32 555.292C226.768 555.796 227.356 556.048 228.084 556.048C228.644 556.048 229.111 555.917 229.484 555.656C229.857 555.395 230.114 555.021 230.254 554.536H231.626C231.421 555.32 231.01 555.95 230.394 556.426C229.778 556.893 229.008 557.126 228.084 557.126C227.356 557.126 226.707 556.963 226.138 556.636C225.578 556.309 225.139 555.847 224.822 555.25C224.505 554.653 224.346 553.953 224.346 553.15ZM237.134 549.188C237.713 549.188 238.235 549.314 238.702 549.566C239.169 549.809 239.533 550.177 239.794 550.672C240.065 551.167 240.2 551.769 240.2 552.478V557H238.94V552.66C238.94 551.895 238.749 551.311 238.366 550.91C237.983 550.499 237.461 550.294 236.798 550.294C236.126 550.294 235.589 550.504 235.188 550.924C234.796 551.344 234.6 551.955 234.6 552.758V557H233.326V546.64H234.6V550.42C234.852 550.028 235.197 549.725 235.636 549.51C236.084 549.295 236.583 549.188 237.134 549.188ZM247.568 550.378V554.9C247.568 555.273 247.647 555.539 247.806 555.698C247.964 555.847 248.24 555.922 248.632 555.922H249.57V557H248.422C247.712 557 247.18 556.837 246.826 556.51C246.471 556.183 246.294 555.647 246.294 554.9V550.378H245.3V549.328H246.294V547.396H247.568V549.328H249.57V550.378H247.568ZM254.921 549.188C255.5 549.188 256.022 549.314 256.489 549.566C256.956 549.809 257.32 550.177 257.581 550.672C257.852 551.167 257.987 551.769 257.987 552.478V557H256.727V552.66C256.727 551.895 256.536 551.311 256.153 550.91C255.77 550.499 255.248 550.294 254.585 550.294C253.913 550.294 253.376 550.504 252.975 550.924C252.583 551.344 252.387 551.955 252.387 552.758V557H251.113V546.64H252.387V550.42C252.639 550.028 252.984 549.725 253.423 549.51C253.871 549.295 254.37 549.188 254.921 549.188ZM267.068 552.87C267.068 553.113 267.054 553.369 267.026 553.64H260.894C260.941 554.396 261.198 554.989 261.664 555.418C262.14 555.838 262.714 556.048 263.386 556.048C263.937 556.048 264.394 555.922 264.758 555.67C265.132 555.409 265.393 555.063 265.542 554.634H266.914C266.709 555.371 266.298 555.973 265.682 556.44C265.066 556.897 264.301 557.126 263.386 557.126C262.658 557.126 262.005 556.963 261.426 556.636C260.857 556.309 260.409 555.847 260.082 555.25C259.756 554.643 259.592 553.943 259.592 553.15C259.592 552.357 259.751 551.661 260.068 551.064C260.386 550.467 260.829 550.009 261.398 549.692C261.977 549.365 262.64 549.202 263.386 549.202C264.114 549.202 264.758 549.361 265.318 549.678C265.878 549.995 266.308 550.434 266.606 550.994C266.914 551.545 267.068 552.17 267.068 552.87ZM265.752 552.604C265.752 552.119 265.645 551.703 265.43 551.358C265.216 551.003 264.922 550.737 264.548 550.56C264.184 550.373 263.778 550.28 263.33 550.28C262.686 550.28 262.136 550.485 261.678 550.896C261.23 551.307 260.974 551.876 260.908 552.604H265.752ZM269.408 548.082C269.165 548.082 268.96 547.998 268.792 547.83C268.624 547.662 268.54 547.457 268.54 547.214C268.54 546.971 268.624 546.766 268.792 546.598C268.96 546.43 269.165 546.346 269.408 546.346C269.641 546.346 269.837 546.43 269.996 546.598C270.164 546.766 270.248 546.971 270.248 547.214C270.248 547.457 270.164 547.662 269.996 547.83C269.837 547.998 269.641 548.082 269.408 548.082ZM270.024 549.328V557H268.75V549.328H270.024ZM273.469 550.574C273.693 550.135 274.011 549.795 274.421 549.552C274.841 549.309 275.35 549.188 275.947 549.188V550.504H275.611C274.183 550.504 273.469 551.279 273.469 552.828V557H272.195V549.328H273.469V550.574ZM284.272 550.378H282.662V557H281.388V550.378H280.394V549.328H281.388V548.782C281.388 547.923 281.608 547.298 282.046 546.906C282.494 546.505 283.208 546.304 284.188 546.304V547.368C283.628 547.368 283.232 547.48 282.998 547.704C282.774 547.919 282.662 548.278 282.662 548.782V549.328H284.272V550.378ZM292.562 549.328V557H291.288V555.866C291.045 556.258 290.704 556.566 290.266 556.79C289.836 557.005 289.36 557.112 288.838 557.112C288.24 557.112 287.704 556.991 287.228 556.748C286.752 556.496 286.374 556.123 286.094 555.628C285.823 555.133 285.688 554.531 285.688 553.822V549.328H286.948V553.654C286.948 554.41 287.139 554.993 287.522 555.404C287.904 555.805 288.427 556.006 289.09 556.006C289.771 556.006 290.308 555.796 290.7 555.376C291.092 554.956 291.288 554.345 291.288 553.542V549.328H292.562ZM295.987 546.64V557H294.713V546.64H295.987ZM299.432 546.64V557H298.158V546.64H299.432ZM32.352 571.742C32.604 571.303 32.9773 570.939 33.472 570.65C33.976 570.351 34.5593 570.202 35.222 570.202C35.9033 570.202 36.5193 570.365 37.07 570.692C37.63 571.019 38.0687 571.481 38.386 572.078C38.7033 572.666 38.862 573.352 38.862 574.136C38.862 574.911 38.7033 575.601 38.386 576.208C38.0687 576.815 37.63 577.286 37.07 577.622C36.5193 577.958 35.9033 578.126 35.222 578.126C34.5687 578.126 33.99 577.981 33.486 577.692C32.9913 577.393 32.6133 577.025 32.352 576.586V581.64H31.078V570.328H32.352V571.742ZM37.56 574.136C37.56 573.557 37.4433 573.053 37.21 572.624C36.9767 572.195 36.6593 571.868 36.258 571.644C35.866 571.42 35.432 571.308 34.956 571.308C34.4893 571.308 34.0553 571.425 33.654 571.658C33.262 571.882 32.9447 572.213 32.702 572.652C32.4687 573.081 32.352 573.581 32.352 574.15C32.352 574.729 32.4687 575.237 32.702 575.676C32.9447 576.105 33.262 576.437 33.654 576.67C34.0553 576.894 34.4893 577.006 34.956 577.006C35.432 577.006 35.866 576.894 36.258 576.67C36.6593 576.437 36.9767 576.105 37.21 575.676C37.4433 575.237 37.56 574.724 37.56 574.136ZM43.8849 578.126C43.1663 578.126 42.5129 577.963 41.9249 577.636C41.3463 577.309 40.8889 576.847 40.5529 576.25C40.2263 575.643 40.0629 574.943 40.0629 574.15C40.0629 573.366 40.2309 572.675 40.5669 572.078C40.9123 571.471 41.3789 571.009 41.9669 570.692C42.5549 570.365 43.2129 570.202 43.9409 570.202C44.6689 570.202 45.3269 570.365 45.9149 570.692C46.5029 571.009 46.9649 571.467 47.3009 572.064C47.6463 572.661 47.8189 573.357 47.8189 574.15C47.8189 574.943 47.6416 575.643 47.2869 576.25C46.9416 576.847 46.4703 577.309 45.8729 577.636C45.2756 577.963 44.6129 578.126 43.8849 578.126ZM43.8849 577.006C44.3423 577.006 44.7716 576.899 45.1729 576.684C45.5743 576.469 45.8963 576.147 46.1389 575.718C46.3909 575.289 46.5169 574.766 46.5169 574.15C46.5169 573.534 46.3956 573.011 46.1529 572.582C45.9103 572.153 45.5929 571.835 45.2009 571.63C44.8089 571.415 44.3843 571.308 43.9269 571.308C43.4603 571.308 43.0309 571.415 42.6389 571.63C42.2563 571.835 41.9483 572.153 41.7149 572.582C41.4816 573.011 41.3649 573.534 41.3649 574.15C41.3649 574.775 41.4769 575.303 41.7009 575.732C41.9343 576.161 42.2423 576.483 42.6249 576.698C43.0076 576.903 43.4276 577.006 43.8849 577.006ZM51.048 571.378V575.9C51.048 576.273 51.1273 576.539 51.286 576.698C51.4447 576.847 51.72 576.922 52.112 576.922H53.05V578H51.902C51.1927 578 50.6607 577.837 50.306 577.51C49.9513 577.183 49.774 576.647 49.774 575.9V571.378H48.78V570.328H49.774V568.396H51.048V570.328H53.05V571.378H51.048ZM61.5936 573.87C61.5936 574.113 61.5796 574.369 61.5516 574.64H55.4196C55.4663 575.396 55.723 575.989 56.1896 576.418C56.6656 576.838 57.2396 577.048 57.9116 577.048C58.4623 577.048 58.9196 576.922 59.2836 576.67C59.657 576.409 59.9183 576.063 60.0676 575.634H61.4396C61.2343 576.371 60.8236 576.973 60.2076 577.44C59.5916 577.897 58.8263 578.126 57.9116 578.126C57.1836 578.126 56.5303 577.963 55.9516 577.636C55.3823 577.309 54.9343 576.847 54.6076 576.25C54.281 575.643 54.1176 574.943 54.1176 574.15C54.1176 573.357 54.2763 572.661 54.5936 572.064C54.911 571.467 55.3543 571.009 55.9236 570.692C56.5023 570.365 57.165 570.202 57.9116 570.202C58.6396 570.202 59.2836 570.361 59.8436 570.678C60.4036 570.995 60.833 571.434 61.1316 571.994C61.4396 572.545 61.5936 573.17 61.5936 573.87ZM60.2776 573.604C60.2776 573.119 60.1703 572.703 59.9556 572.358C59.741 572.003 59.447 571.737 59.0736 571.56C58.7096 571.373 58.3036 571.28 57.8556 571.28C57.2116 571.28 56.661 571.485 56.2036 571.896C55.7556 572.307 55.499 572.876 55.4336 573.604H60.2776ZM67.0133 570.188C67.9466 570.188 68.7026 570.473 69.2813 571.042C69.8599 571.602 70.1493 572.414 70.1493 573.478V578H68.8893V573.66C68.8893 572.895 68.6979 572.311 68.3153 571.91C67.9326 571.499 67.4099 571.294 66.7473 571.294C66.0753 571.294 65.5386 571.504 65.1373 571.924C64.7453 572.344 64.5493 572.955 64.5493 573.758V578H63.2753V570.328H64.5493V571.42C64.8013 571.028 65.1419 570.725 65.5713 570.51C66.0099 570.295 66.4906 570.188 67.0133 570.188ZM73.7843 571.378V575.9C73.7843 576.273 73.8637 576.539 74.0223 576.698C74.181 576.847 74.4563 576.922 74.8483 576.922H75.7863V578H74.6383C73.929 578 73.397 577.837 73.0423 577.51C72.6877 577.183 72.5103 576.647 72.5103 575.9V571.378H71.5163V570.328H72.5103V568.396H73.7843V570.328H75.7863V571.378H73.7843ZM77.988 569.082C77.7453 569.082 77.54 568.998 77.372 568.83C77.204 568.662 77.12 568.457 77.12 568.214C77.12 567.971 77.204 567.766 77.372 567.598C77.54 567.43 77.7453 567.346 77.988 567.346C78.2213 567.346 78.4173 567.43 78.576 567.598C78.744 567.766 78.828 567.971 78.828 568.214C78.828 568.457 78.744 568.662 78.576 568.83C78.4173 568.998 78.2213 569.082 77.988 569.082ZM78.604 570.328V578H77.33V570.328H78.604ZM80.2993 574.136C80.2993 573.352 80.4579 572.666 80.7753 572.078C81.0926 571.481 81.5266 571.019 82.0773 570.692C82.6373 570.365 83.2579 570.202 83.9393 570.202C84.6113 570.202 85.1946 570.347 85.6893 570.636C86.1839 570.925 86.5526 571.289 86.7953 571.728V570.328H88.0833V578H86.7953V576.572C86.5433 577.02 86.1653 577.393 85.6613 577.692C85.1666 577.981 84.5879 578.126 83.9253 578.126C83.2439 578.126 82.6279 577.958 82.0773 577.622C81.5266 577.286 81.0926 576.815 80.7753 576.208C80.4579 575.601 80.2993 574.911 80.2993 574.136ZM86.7953 574.15C86.7953 573.571 86.6786 573.067 86.4453 572.638C86.2119 572.209 85.8946 571.882 85.4933 571.658C85.1013 571.425 84.6673 571.308 84.1913 571.308C83.7153 571.308 83.2813 571.42 82.8893 571.644C82.4973 571.868 82.1846 572.195 81.9513 572.624C81.7179 573.053 81.6013 573.557 81.6013 574.136C81.6013 574.724 81.7179 575.237 81.9513 575.676C82.1846 576.105 82.4973 576.437 82.8893 576.67C83.2813 576.894 83.7153 577.006 84.1913 577.006C84.6673 577.006 85.1013 576.894 85.4933 576.67C85.8946 576.437 86.2119 576.105 86.4453 575.676C86.6786 575.237 86.7953 574.729 86.7953 574.15ZM91.5102 567.64V578H90.2362V567.64H91.5102ZM96.9379 574.136C96.9379 573.352 97.0966 572.666 97.4139 572.078C97.7313 571.481 98.1653 571.019 98.7159 570.692C99.2759 570.365 99.8966 570.202 100.578 570.202C101.25 570.202 101.833 570.347 102.328 570.636C102.823 570.925 103.191 571.289 103.434 571.728V570.328H104.722V578H103.434V576.572C103.182 577.02 102.804 577.393 102.3 577.692C101.805 577.981 101.227 578.126 100.564 578.126C99.8826 578.126 99.2666 577.958 98.7159 577.622C98.1653 577.286 97.7313 576.815 97.4139 576.208C97.0966 575.601 96.9379 574.911 96.9379 574.136ZM103.434 574.15C103.434 573.571 103.317 573.067 103.084 572.638C102.851 572.209 102.533 571.882 102.132 571.658C101.74 571.425 101.306 571.308 100.83 571.308C100.354 571.308 99.9199 571.42 99.5279 571.644C99.1359 571.868 98.8233 572.195 98.5899 572.624C98.3566 573.053 98.2399 573.557 98.2399 574.136C98.2399 574.724 98.3566 575.237 98.5899 575.676C98.8233 576.105 99.1359 576.437 99.5279 576.67C99.9199 576.894 100.354 577.006 100.83 577.006C101.306 577.006 101.74 576.894 102.132 576.67C102.533 576.437 102.851 576.105 103.084 575.676C103.317 575.237 103.434 574.729 103.434 574.15ZM109.591 578.126C109.003 578.126 108.476 578.028 108.009 577.832C107.542 577.627 107.174 577.347 106.903 576.992C106.632 576.628 106.483 576.213 106.455 575.746H107.771C107.808 576.129 107.986 576.441 108.303 576.684C108.63 576.927 109.054 577.048 109.577 577.048C110.062 577.048 110.445 576.941 110.725 576.726C111.005 576.511 111.145 576.241 111.145 575.914C111.145 575.578 110.996 575.331 110.697 575.172C110.398 575.004 109.936 574.841 109.311 574.682C108.742 574.533 108.275 574.383 107.911 574.234C107.556 574.075 107.248 573.847 106.987 573.548C106.735 573.24 106.609 572.839 106.609 572.344C106.609 571.952 106.726 571.593 106.959 571.266C107.192 570.939 107.524 570.683 107.953 570.496C108.382 570.3 108.872 570.202 109.423 570.202C110.272 570.202 110.958 570.417 111.481 570.846C112.004 571.275 112.284 571.863 112.321 572.61H111.047C111.019 572.209 110.856 571.887 110.557 571.644C110.268 571.401 109.876 571.28 109.381 571.28C108.924 571.28 108.56 571.378 108.289 571.574C108.018 571.77 107.883 572.027 107.883 572.344C107.883 572.596 107.962 572.806 108.121 572.974C108.289 573.133 108.494 573.263 108.737 573.366C108.989 573.459 109.334 573.567 109.773 573.688C110.324 573.837 110.772 573.987 111.117 574.136C111.462 574.276 111.756 574.491 111.999 574.78C112.251 575.069 112.382 575.447 112.391 575.914C112.391 576.334 112.274 576.712 112.041 577.048C111.808 577.384 111.476 577.65 111.047 577.846C110.627 578.033 110.142 578.126 109.591 578.126ZM119.196 571.742C119.448 571.303 119.821 570.939 120.316 570.65C120.82 570.351 121.403 570.202 122.066 570.202C122.747 570.202 123.363 570.365 123.914 570.692C124.474 571.019 124.912 571.481 125.23 572.078C125.547 572.666 125.706 573.352 125.706 574.136C125.706 574.911 125.547 575.601 125.23 576.208C124.912 576.815 124.474 577.286 123.914 577.622C123.363 577.958 122.747 578.126 122.066 578.126C121.412 578.126 120.834 577.981 120.33 577.692C119.835 577.393 119.457 577.025 119.196 576.586V581.64H117.922V570.328H119.196V571.742ZM124.404 574.136C124.404 573.557 124.287 573.053 124.054 572.624C123.82 572.195 123.503 571.868 123.102 571.644C122.71 571.42 122.276 571.308 121.8 571.308C121.333 571.308 120.899 571.425 120.498 571.658C120.106 571.882 119.788 572.213 119.546 572.652C119.312 573.081 119.196 573.581 119.196 574.15C119.196 574.729 119.312 575.237 119.546 575.676C119.788 576.105 120.106 576.437 120.498 576.67C120.899 576.894 121.333 577.006 121.8 577.006C122.276 577.006 122.71 576.894 123.102 576.67C123.503 576.437 123.82 576.105 124.054 575.676C124.287 575.237 124.404 574.724 124.404 574.136ZM128.657 567.64V578H127.383V567.64H128.657ZM130.352 574.136C130.352 573.352 130.511 572.666 130.828 572.078C131.145 571.481 131.579 571.019 132.13 570.692C132.69 570.365 133.311 570.202 133.992 570.202C134.664 570.202 135.247 570.347 135.742 570.636C136.237 570.925 136.605 571.289 136.848 571.728V570.328H138.136V578H136.848V576.572C136.596 577.02 136.218 577.393 135.714 577.692C135.219 577.981 134.641 578.126 133.978 578.126C133.297 578.126 132.681 577.958 132.13 577.622C131.579 577.286 131.145 576.815 130.828 576.208C130.511 575.601 130.352 574.911 130.352 574.136ZM136.848 574.15C136.848 573.571 136.731 573.067 136.498 572.638C136.265 572.209 135.947 571.882 135.546 571.658C135.154 571.425 134.72 571.308 134.244 571.308C133.768 571.308 133.334 571.42 132.942 571.644C132.55 571.868 132.237 572.195 132.004 572.624C131.771 573.053 131.654 573.557 131.654 574.136C131.654 574.724 131.771 575.237 132.004 575.676C132.237 576.105 132.55 576.437 132.942 576.67C133.334 576.894 133.768 577.006 134.244 577.006C134.72 577.006 135.154 576.894 135.546 576.67C135.947 576.437 136.265 576.105 136.498 575.676C136.731 575.237 136.848 574.729 136.848 574.15ZM146.897 570.328L142.277 581.612H140.961L142.473 577.916L139.379 570.328H140.793L143.201 576.544L145.581 570.328H146.897ZM155.178 573.87C155.178 574.113 155.164 574.369 155.136 574.64H149.004C149.05 575.396 149.307 575.989 149.774 576.418C150.25 576.838 150.824 577.048 151.496 577.048C152.046 577.048 152.504 576.922 152.868 576.67C153.241 576.409 153.502 576.063 153.652 575.634H155.024C154.818 576.371 154.408 576.973 153.792 577.44C153.176 577.897 152.41 578.126 151.496 578.126C150.768 578.126 150.114 577.963 149.536 577.636C148.966 577.309 148.518 576.847 148.192 576.25C147.865 575.643 147.702 574.943 147.702 574.15C147.702 573.357 147.86 572.661 148.178 572.064C148.495 571.467 148.938 571.009 149.508 570.692C150.086 570.365 150.749 570.202 151.496 570.202C152.224 570.202 152.868 570.361 153.428 570.678C153.988 570.995 154.417 571.434 154.716 571.994C155.024 572.545 155.178 573.17 155.178 573.87ZM153.862 573.604C153.862 573.119 153.754 572.703 153.54 572.358C153.325 572.003 153.031 571.737 152.658 571.56C152.294 571.373 151.888 571.28 151.44 571.28C150.796 571.28 150.245 571.485 149.788 571.896C149.34 572.307 149.083 572.876 149.018 573.604H153.862ZM158.133 571.574C158.357 571.135 158.675 570.795 159.085 570.552C159.505 570.309 160.014 570.188 160.611 570.188V571.504H160.275C158.847 571.504 158.133 572.279 158.133 573.828V578H156.859V570.328H158.133V571.574ZM164.798 578.126C164.21 578.126 163.683 578.028 163.216 577.832C162.749 577.627 162.381 577.347 162.11 576.992C161.839 576.628 161.69 576.213 161.662 575.746H162.978C163.015 576.129 163.193 576.441 163.51 576.684C163.837 576.927 164.261 577.048 164.784 577.048C165.269 577.048 165.652 576.941 165.932 576.726C166.212 576.511 166.352 576.241 166.352 575.914C166.352 575.578 166.203 575.331 165.904 575.172C165.605 575.004 165.143 574.841 164.518 574.682C163.949 574.533 163.482 574.383 163.118 574.234C162.763 574.075 162.455 573.847 162.194 573.548C161.942 573.24 161.816 572.839 161.816 572.344C161.816 571.952 161.933 571.593 162.166 571.266C162.399 570.939 162.731 570.683 163.16 570.496C163.589 570.3 164.079 570.202 164.63 570.202C165.479 570.202 166.165 570.417 166.688 570.846C167.211 571.275 167.491 571.863 167.528 572.61H166.254C166.226 572.209 166.063 571.887 165.764 571.644C165.475 571.401 165.083 571.28 164.588 571.28C164.131 571.28 163.767 571.378 163.496 571.574C163.225 571.77 163.09 572.027 163.09 572.344C163.09 572.596 163.169 572.806 163.328 572.974C163.496 573.133 163.701 573.263 163.944 573.366C164.196 573.459 164.541 573.567 164.98 573.688C165.531 573.837 165.979 573.987 166.324 574.136C166.669 574.276 166.963 574.491 167.206 574.78C167.458 575.069 167.589 575.447 167.598 575.914C167.598 576.334 167.481 576.712 167.248 577.048C167.015 577.384 166.683 577.65 166.254 577.846C165.834 578.033 165.349 578.126 164.798 578.126ZM171.048 568.242L170.894 575.242H169.83L169.676 568.242H171.048ZM170.418 578.084C170.176 578.084 169.97 578 169.802 577.832C169.634 577.664 169.55 577.459 169.55 577.216C169.55 576.973 169.634 576.768 169.802 576.6C169.97 576.432 170.176 576.348 170.418 576.348C170.652 576.348 170.848 576.432 171.006 576.6C171.174 576.768 171.258 576.973 171.258 577.216C171.258 577.459 171.174 577.664 171.006 577.832C170.848 578 170.652 578.084 170.418 578.084Z" fill="#7B6F72"/>
<defs>
<linearGradient id="paint0_linear_1_536" x1="375" y1="346.158" x2="-124.768" y2="307.295" gradientUnits="userSpaceOnUse">
<stop stop-color="#6A9CAD" stop-opacity="0.46"/>
<stop offset="1" stop-color="#6A9CAD"/>
</linearGradient>
<clipPath id="clip0_1_536">
<rect width="375" height="422" fill="white"/>
</clipPath>
</defs>
</svg>
