<svg width="73" height="74" viewBox="0 0 73 74" fill="none" xmlns="http://www.w3.org/2000/svg">
<ellipse opacity="0.3" cx="36.5" cy="37" rx="36.5" ry="37" fill="url(#paint0_linear_3_3113)"/>
<mask id="mask0_3_3113" style="mask-type:alpha" maskUnits="userSpaceOnUse" x="0" y="0" width="73" height="74">
<ellipse cx="36.5" cy="37" rx="36.5" ry="37" fill="#C4C4C4"/>
</mask>
<g mask="url(#mask0_3_3113)">
<path d="M54.6244 53.9378C55.2346 47.7894 54.6527 41.7967 53.6117 35.7448C53.0052 32.2054 52.7649 28.614 52.8946 25.0264C53.0078 22.5343 52.3766 20.0644 51.0798 17.9254C49.5984 15.3415 47.0727 13.2557 43.9684 13.6199C43.8274 13.6495 43.6817 13.6495 43.5406 13.6199C43.4267 13.5768 43.3205 13.5159 43.2261 13.4394C41.6221 12.2346 38.9769 11.8704 37.008 11.8424C34.5822 11.8006 32.1815 12.3344 30.0067 13.3989C26.3331 15.2232 23.4993 18.741 22.7727 22.7382C22.518 24.4006 22.4862 26.0891 22.6784 27.7597C22.8042 29.145 22.9929 30.5615 22.7444 31.9188C22.3953 33.7867 21.2567 35.3993 20.5427 37.1644C19.6406 39.3641 19.2049 41.7239 19.2626 44.0973C19.335 45.797 19.8477 50.1118 21.8008 50.7282C24.4334 51.5625 27.2138 51.8271 29.9784 52.0855L37.7723 52.8202C39.1059 52.9447 40.4646 53.0693 41.7636 52.7517C42.7355 52.5151 43.6319 52.0419 44.5943 51.7742C45.7888 51.4439 47.0511 51.4375 48.2491 51.7555" fill="#AA4F7A"/>
<g style="mix-blend-mode:multiply" opacity="0.32">
<g style="mix-blend-mode:multiply" opacity="0.32">
<path d="M31.6078 19.5786L26.5755 21.0885C26.4838 21.1101 26.3972 21.1492 26.3207 21.2037C26.2353 21.2833 26.1733 21.3845 26.1414 21.4963C25.2776 23.6672 24.6922 25.9367 24.399 28.2517C24.0278 31.2746 25.418 34.2631 24.5279 37.2797L23.5026 40.8754C22.9868 42.6281 22.4678 44.471 22.8735 46.2517C23.1881 47.6526 24.0278 48.8667 24.6443 50.1618C25.5708 52.1111 25.9882 54.2594 25.8584 56.4098C25.8584 56.3413 29.9472 55.5226 30.3214 55.4136C31.8483 54.9814 33.3498 54.466 34.8191 53.8695C36.0961 53.3527 37.3353 52.7208 38.6154 52.2538C39.3797 51.9798 40.0811 51.7806 40.6095 51.13C42.072 49.3275 42.4117 46.149 42.4683 43.9356C42.5324 41.326 42.036 38.7327 41.0121 36.3271C40.2969 34.6442 39.3124 33.0864 38.0964 31.7135" fill="#AA4F7A"/>
</g>
</g>
<path d="M16.0829 53.0071C13.2522 57.5865 11.5192 62.7885 10.5693 68.0808C10.1605 70.3689 9.9057 72.8251 10.9688 74.8953C12.7018 78.3198 17.4731 77.364 20.5397 76.6823C25.2135 75.6487 30.919 73.5411 33.844 69.6809" fill="#EA7C99"/>
<path d="M59.9905 77.0808C61.151 73.8152 60.8963 69.7121 60.6195 66.4963C60.283 62.3901 59.4117 58.6388 57.4397 54.928C55.9614 52.1511 54.4077 49.094 51.4983 47.6121C50.0893 46.893 48.567 46.4229 47.095 45.8097C45.3022 45.0563 43.5881 43.4406 44.085 41.3455C44.3996 39.9601 45.406 38.827 46.4408 37.837C47.0328 37.2439 47.5795 36.6081 48.0763 35.9349C48.1049 35.8919 48.1438 35.8566 48.1896 35.8321C48.2579 35.8156 48.3299 35.8221 48.394 35.8508C49.1703 36.0959 50.0017 36.1126 50.7874 35.8987C51.573 35.6848 52.2789 35.2496 52.8193 34.646C53.8447 33.5253 54.1215 31.1438 53.2188 29.8487C52.4388 28.728 50.4919 28.342 49.281 28.8463C49.7527 26.3309 49.8408 22.7571 48.7809 20.3756C47.7933 18.0687 45.2425 16.3316 43.0628 15.2669C40.8832 14.2023 38.4991 13.9999 36.1245 14.2614C33.6303 14.5385 31.0386 15.4631 29.5918 17.4897C29.0409 18.329 28.617 19.2435 28.3337 20.2043C27.5155 22.6266 26.9413 25.123 26.6196 27.6571C26.3491 29.8052 26.2799 32.3517 26.7423 34.4779C26.9991 35.811 27.6569 37.0361 28.6294 37.9926C29.8403 39.1196 30.8625 39.4807 32.5106 39.7111C34.231 39.9539 36.6938 40.2839 37.543 41.9992C39.059 45.0158 36.5994 46.4478 34.0644 47.3133C28.5822 49.1812 28.7709 54.7069 28.035 59.4295C27.7204 61.5215 26.7769 63.2119 26.1006 65.1763C25.7406 66.373 25.5294 67.6087 25.4716 68.856C25.4118 69.5533 25.0973 70.534 25.2042 71.2126C25.3175 71.9411 25.9088 72.3147 26.4844 72.791C28.2551 74.251 30.2586 75.4247 32.2307 76.5734C33.9418 77.5334 35.747 78.3188 37.6185 78.9176C40.2321 79.7955 42.6508 80.8975 45.362 81.4859C47.3958 81.9598 49.4646 82.2721 51.5487 82.4198C54.7285 82.6035 57.7007 81.405 59.2796 78.5938C59.56 78.1106 59.7978 77.6044 59.9905 77.0808V77.0808Z" fill="#FF8DA8"/>
<g style="mix-blend-mode:multiply" opacity="0.2">
<g style="mix-blend-mode:multiply" opacity="0.2">
<path d="M41.4775 14.4229C41.8833 16.2347 41.5562 18.115 41.3454 19.958C41.1347 21.8009 41.0624 23.7591 41.9116 25.4152C42.466 26.4291 43.3228 27.249 44.3652 27.7632C45.4076 28.2774 46.5849 28.4609 47.7366 28.2886C47.1512 24.7233 45.9511 21.2841 44.1887 18.1212" fill="#FF8DA8"/>
</g>
</g>
<path d="M31.0288 20.248C30.7677 19.1429 28.7233 20.0114 28.1981 20.4037C27.7546 20.7306 27.1476 21.4217 27.8364 21.8544C28.5252 22.2871 29.9972 21.459 30.5476 21.073C30.8212 20.8706 31.1074 20.5593 31.0288 20.248Z" fill="#843860"/>
<path d="M39.1845 19.8184C39.4455 18.7132 41.4899 19.5849 42.0152 19.9772C42.4555 20.2885 43.0626 20.992 42.3738 21.4247C41.685 21.8575 40.213 21.0294 39.6626 20.6434C39.3921 20.4503 39.1059 20.1484 39.1845 19.8184Z" fill="#843860"/>
<path d="M51.5737 82.4293C54.7536 82.613 57.7258 81.4145 59.3047 78.6033C59.5769 78.1163 59.8063 77.6069 59.9904 77.081C61.151 73.8154 60.8962 69.7123 60.6194 66.4964C60.2829 62.3902 59.4116 58.6389 57.4396 54.9281C56.1186 52.4376 54.7315 49.7448 52.3758 48.1384C52.2971 48.1851 52.2154 48.2318 52.1399 48.2816C47.7869 51.0305 43.9277 55.0713 38.8167 55.7967C35.7973 56.2232 32.715 55.3951 29.9692 54.0751C29.6358 53.9132 29.2867 53.7451 28.9281 53.5864C28.4941 55.4542 28.3462 57.5245 28.0474 59.4421C27.7329 61.5341 26.7893 63.2246 26.1131 65.1889C25.7531 66.3856 25.5418 67.6213 25.4841 68.8686C25.4243 69.566 25.1098 70.5466 25.2167 71.2253C25.33 71.9537 25.9213 72.3273 26.4968 72.8036C28.2676 74.2636 30.2711 75.4373 32.2432 76.586C33.9543 77.546 35.7595 78.3314 37.6309 78.9302C40.2446 79.8081 42.6633 80.9101 45.3745 81.4985C47.4125 81.9721 49.4855 82.2833 51.5737 82.4293V82.4293Z" fill="#F26757"/>
<g style="mix-blend-mode:multiply" opacity="0.25">
<g style="mix-blend-mode:multiply" opacity="0.25">
<path d="M42.5217 36.3171C44.1944 36.3171 45.5505 34.9749 45.5505 33.3192C45.5505 31.6635 44.1944 30.3213 42.5217 30.3213C40.8489 30.3213 39.4928 31.6635 39.4928 33.3192C39.4928 34.9749 40.8489 36.3171 42.5217 36.3171Z" fill="#FF8DA8"/>
</g>
<g style="mix-blend-mode:multiply" opacity="0.25">
<path d="M28.6541 32.3115C28.6537 31.6598 28.4385 31.026 28.0411 30.5063C27.6438 29.9866 27.086 29.6094 26.4525 29.4319C26.3227 31.1191 26.419 32.816 26.7387 34.4782C26.7796 34.665 26.8299 34.8518 26.8834 35.0355C27.4116 34.7976 27.8594 34.4142 28.1734 33.9312C28.4874 33.4482 28.6543 32.8859 28.6541 32.3115V32.3115Z" fill="#FF8DA8"/>
</g>
</g>
<path d="M61.0283 65.8301C60.7904 63.233 60.263 60.6698 59.4557 58.1875C58.8266 56.2355 58.2542 53.8914 56.7193 52.4593C54.3415 50.2397 51.0422 50.7285 48.743 52.8672C45.7425 55.669 46.664 59.2895 48.0731 62.6019C49.0764 64.9616 50.2213 67.3276 50.4194 69.8772C50.4535 70.0938 50.4274 70.3155 50.3439 70.5185C50.1426 70.9076 49.6142 70.9792 49.1708 70.9792C46.9251 70.9792 44.7203 70.4158 42.5438 69.8585L36.0269 68.1899C34.124 67.7042 32.1991 67.2124 30.3497 66.5462C28.752 68.7107 27.4285 71.061 26.4088 73.5444C29.3558 75.8637 32.4633 78.1083 36.0048 79.422C41.2825 81.3832 47.9819 84.2037 53.8131 83.0052C55.2968 82.731 56.6811 82.0743 57.8264 81.1014C58.9717 80.1285 59.8375 78.8738 60.3363 77.4638C61.6982 73.7935 61.3491 69.6468 61.0283 65.8301Z" fill="#FF8DA8"/>
<path d="M45.6794 44.9628C45.2038 44.6095 44.8004 44.17 44.4905 43.6677C42.3977 44.3597 40.136 44.3707 38.0365 43.6989C38.0423 44.2608 37.8586 44.8085 37.5144 45.2554C40.1863 46.1102 43.077 46.0066 45.6794 44.9628V44.9628Z" fill="#F7BF54"/>
<path d="M40.933 13.299C42.1188 14.3605 42.4396 15.9793 42.5937 17.4923C42.8296 19.8396 42.8202 22.2523 43.7103 24.4626C44.6004 26.6729 46.6731 28.6933 49.2364 28.7711C49.3823 28.7875 49.5297 28.7581 49.6579 28.6871C49.7506 28.6041 49.8163 28.4958 49.8466 28.3757C51.479 23.9769 49.8466 18.7251 45.9276 15.7801C44.5469 14.7528 42.9302 13.9994 41.3576 13.2554" fill="#AA4F7A"/>
<g style="mix-blend-mode:multiply" opacity="0.2">
<g style="mix-blend-mode:multiply" opacity="0.2">
<path d="M27.8996 21.6948C29.8842 22.2676 31.9507 22.6661 34.0171 22.5322C36.0835 22.3984 38.1562 21.6979 39.6785 20.3001C41.2008 18.9023 42.0531 16.7512 41.6254 14.7463C38.9562 16.7102 35.757 17.8438 32.435 18.0027" fill="#FF8DA8"/>
</g>
</g>
<path d="M41.7166 13.7848C42.3017 15.3444 41.5908 17.1345 40.4145 18.3486C38.4771 20.3472 35.5488 21.0446 32.7622 21.2967C29.9755 21.5489 27.1228 21.4586 24.4462 22.268C25.1539 18.7315 28.0538 15.8892 31.4192 14.507C34.7846 13.1248 38.5525 13.0376 42.1696 13.4392" fill="#AA4F7A"/>
<path d="M31.7431 32.7435C31.7447 32.7217 31.7447 32.6999 31.7431 32.6781C31.733 32.5922 31.7058 32.5091 31.6631 32.4336C31.6204 32.3581 31.5631 32.2917 31.4944 32.2382C31.4258 32.1846 31.3471 32.1451 31.2629 32.1217C31.1787 32.0984 31.0907 32.0918 31.004 32.1022L23.9429 32.9241C23.7934 32.9422 23.6545 33.0099 23.5489 33.1162C23.4432 33.2225 23.377 33.3611 23.3611 33.5093L22.103 45.4356C22.0853 45.6092 22.1375 45.7827 22.2482 45.9185C22.3589 46.0543 22.5191 46.1414 22.6943 46.161H22.7666C22.931 46.1603 23.0894 46.0996 23.2113 45.9904C23.3332 45.8813 23.4101 45.7314 23.4271 45.5695L24.638 34.1693L30.9002 33.4377C30.9541 33.2517 31.0634 33.086 31.2137 32.9622C31.364 32.8384 31.5485 32.7622 31.7431 32.7435V32.7435Z" fill="#B9B5EC"/>
<path d="M35.7157 29.5466C35.6842 29.5466 35.6276 29.7023 35.4672 29.9482C35.2334 30.2961 34.9068 30.573 34.5236 30.7483C34.2711 30.8684 33.9954 30.9332 33.7153 30.9382C33.4008 30.9382 33.2309 30.8323 33.2907 30.5148C33.3505 30.1973 33.5486 29.8548 33.6713 29.4812C33.8166 29.0957 33.9416 28.7029 34.0455 28.3045C34.4199 26.9097 34.5644 25.4643 34.4733 24.024C34.401 22.9188 34.2091 22.2588 34.1588 22.2682C34.1085 22.2775 34.1934 22.9499 34.1965 24.0333C34.2046 25.4417 34.027 26.8451 33.6681 28.208C33.558 28.6065 33.4448 28.9925 33.3127 29.3567C33.2498 29.5404 33.1775 29.7178 33.1114 29.8922C33.0312 30.0738 32.9721 30.2639 32.9353 30.4588C32.9134 30.5677 32.9134 30.6798 32.9353 30.7887C32.9605 30.9093 33.0245 31.0185 33.1177 31.1001C33.2876 31.2271 33.501 31.283 33.7122 31.2557C34.0344 31.2342 34.348 31.1428 34.6306 30.988C35.0399 30.7726 35.3701 30.4349 35.5741 30.0229C35.7314 29.7303 35.7345 29.5528 35.7157 29.5466Z" fill="#C45673"/>
<path d="M32.0761 25.6399C32.0195 25.6399 31.9754 26.1473 31.7616 26.9318C31.6435 27.3902 31.4867 27.838 31.2929 28.2705C31.1788 28.5166 31.0374 28.7494 30.8715 28.9647C30.7193 29.1812 30.4976 29.3403 30.2424 29.4161C30.1255 29.4533 30.0006 29.4585 29.881 29.4311C29.7614 29.4037 29.6515 29.3447 29.563 29.2604C29.3899 29.063 29.2584 28.8333 29.1762 28.5849C28.9957 28.1496 28.8618 27.6967 28.7767 27.2338C28.6446 26.4368 28.6792 25.9232 28.6163 25.917C28.5534 25.9107 28.4402 26.4244 28.5094 27.268C28.55 27.7631 28.6557 28.2508 28.8239 28.7188C28.9132 29.0191 29.0678 29.2964 29.2768 29.5313C29.4074 29.6664 29.5744 29.7615 29.758 29.8052C29.9408 29.8504 30.132 29.8504 30.3148 29.8052C30.6574 29.7091 30.9562 29.4991 31.1608 29.2106C31.3417 28.9627 31.4917 28.6941 31.6074 28.4106C31.8006 27.9538 31.944 27.4779 32.0352 26.991C32.1799 26.1629 32.1233 25.6399 32.0761 25.6399Z" fill="#C45673"/>
<path d="M42.1692 25.3659C42.1095 25.3659 42.1315 25.9511 41.9459 26.8508C41.8384 27.3723 41.6684 27.8791 41.4395 28.3607C41.311 28.6302 41.1292 28.8716 40.9048 29.0705C40.6717 29.2684 40.3754 29.3787 40.0682 29.3818C39.9183 29.3693 39.7728 29.3258 39.6411 29.2539C39.5094 29.182 39.3945 29.0834 39.3039 28.9646C39.1089 28.7335 38.9528 28.4728 38.8416 28.1926C38.6373 27.6921 38.4927 27.1697 38.4107 26.636C38.2691 25.7301 38.3289 25.1511 38.2691 25.1448C38.2094 25.1386 38.0647 25.7145 38.1402 26.6702C38.1929 27.2351 38.3231 27.7901 38.527 28.3202C38.6409 28.6451 38.8101 28.9483 39.0271 29.2168C39.1518 29.3744 39.3087 29.5041 39.4876 29.5975C39.6664 29.6908 39.8633 29.7457 40.0651 29.7584C40.4668 29.7614 40.8555 29.6172 41.1565 29.3537C41.4248 29.1217 41.6394 28.8349 41.7855 28.5132C42.0113 27.9969 42.1638 27.4521 42.2384 26.8944C42.3359 25.948 42.2133 25.3627 42.1692 25.3659Z" fill="#C45673"/>
<path d="M49.1706 34.9011C49.2241 34.87 49.0228 34.5649 48.9945 34.0232C48.9821 33.7056 49.0312 33.3886 49.1392 33.0893C49.2734 32.7242 49.4656 32.3827 49.7085 32.0775C50.1555 31.5051 50.7058 31.0196 51.3314 30.6455C51.8158 30.356 52.1491 30.2252 52.1334 30.1692C52.1177 30.1131 51.7497 30.1692 51.2056 30.4089C50.4951 30.7353 49.8763 31.2291 49.4034 31.8471C49.1331 32.1882 48.9284 32.5754 48.7995 32.9897C48.6953 33.3337 48.6706 33.6965 48.7271 34.0512C48.8341 34.6614 49.1423 34.9353 49.1706 34.9011Z" fill="#C45673"/>
<path d="M49.6018 34.4434C49.6175 34.487 49.8376 34.4621 50.0987 34.238C50.2625 34.0876 50.3941 33.9062 50.486 33.7047C50.5778 33.5031 50.6279 33.2854 50.6334 33.0643C50.6409 32.6324 50.5194 32.2079 50.2843 31.844C50.105 31.5731 49.9477 31.4455 49.9068 31.4735C49.866 31.5015 49.9383 31.6852 50.0389 31.9623C50.178 32.309 50.2484 32.6789 50.2465 33.0519C50.2334 33.4134 50.1131 33.7631 49.9005 34.0574C49.7339 34.2846 49.5766 34.3905 49.6018 34.4434Z" fill="#C45673"/>
<path d="M31.7334 33.8239C31.5983 33.7852 31.4667 33.7352 31.3402 33.6745C31.2112 33.619 31.1018 33.5269 31.0257 33.4098C31.0149 33.3914 31.0093 33.3704 31.0093 33.3491C31.0093 33.3278 31.0149 33.3069 31.0257 33.2884C31.0593 33.2327 31.107 33.1865 31.1641 33.1546C31.2301 33.1141 31.3182 33.0674 31.4094 33.0238L31.5478 32.9615L31.6547 32.918C31.6948 32.8909 31.7308 32.8584 31.7617 32.8215C31.7837 32.7934 31.8151 32.7467 31.8466 32.6969C31.8456 32.5693 31.7936 32.4473 31.7019 32.3576V32.3576L31.6076 32.3109L31.5667 32.2798L31.4943 32.23C31.4483 32.1972 31.4042 32.1618 31.3622 32.1241C31.2785 32.0502 31.2016 31.9689 31.1326 31.8813C31.0678 31.7983 31.0089 31.7109 30.9565 31.6198C30.925 31.5389 30.9345 31.5513 30.9565 31.5233C31.0186 31.4809 31.0918 31.4571 31.1672 31.4548C31.2615 31.4501 31.356 31.4501 31.4503 31.4548L32.0007 31.4735C32.6769 31.4735 33.0984 31.4735 33.1015 31.4174C33.1047 31.3614 32.6927 31.2867 32.0227 31.2058L31.4723 31.1435H31.3213C31.2616 31.1403 31.2018 31.1403 31.1421 31.1435C30.9967 31.143 30.8548 31.1876 30.7363 31.2711C30.6552 31.3338 30.6021 31.4254 30.5885 31.5264C30.5773 31.6173 30.5937 31.7094 30.6357 31.791C30.6925 31.9102 30.762 32.0229 30.8433 32.1272C30.9242 32.2386 31.0147 32.3427 31.1138 32.4385C31.1641 32.4821 31.2175 32.5288 31.2742 32.5693L31.3591 32.6284L31.3968 32.6534L31.2521 32.725C31.1578 32.7748 31.0666 32.8246 30.9659 32.8899C30.857 32.9633 30.7701 33.0644 30.7143 33.1826C30.6874 33.249 30.6766 33.3208 30.6826 33.3921C30.6886 33.4634 30.7113 33.5324 30.7489 33.5935C30.865 33.7556 31.0286 33.8784 31.2175 33.9453C31.296 33.9778 31.377 34.0038 31.4597 34.0231L31.6673 34.0698C32.1957 34.1788 32.5197 34.2255 32.5323 34.1788C32.5448 34.1321 32.2366 33.9982 31.7334 33.8239Z" fill="#C45673"/>
<path d="M31.5132 46.3137L14.9945 47.2975L17.5107 68.5102C17.5376 68.7337 17.6508 68.9383 17.8267 69.0811C18.0026 69.2238 18.2275 69.2937 18.4542 69.276L28.9939 68.6254C29.2055 68.6125 29.4054 68.5246 29.5568 68.3776C29.7082 68.2306 29.8009 68.0345 29.8179 67.8253L31.5132 46.3137Z" fill="#F9A353"/>
<path d="M17.0422 64.6316L30.3434 60.9395L31.2681 49.3867L15.7495 53.6922L17.0422 64.6316Z" fill="#F7BF54"/>
<g style="mix-blend-mode:multiply" opacity="0.14">
<g style="mix-blend-mode:multiply" opacity="0.14">
<path d="M14.9945 47.2975L17.5107 68.5102C17.5376 68.7338 17.6508 68.9384 17.8267 69.0811C18.0026 69.2239 18.2275 69.2937 18.4542 69.2761L26.8426 68.7593C24.6013 65.5412 22.8496 62.0149 21.6435 58.293C20.4698 54.6439 19.9566 50.8183 20.1275 46.9924L14.9945 47.2975Z" fill="#F9A353"/>
</g>
</g>
<path d="M31.528 44.3969L14.0892 45.4587C13.7009 45.4823 13.4054 45.8131 13.4293 46.1975L13.4957 47.2664C13.5196 47.6508 13.8538 47.9432 14.2422 47.9196L31.6809 46.8578C32.0693 46.8342 32.3648 46.5034 32.3409 46.119L32.2745 45.0501C32.2506 44.6657 31.9164 44.3732 31.528 44.3969Z" fill="#F7BF54"/>
<g style="mix-blend-mode:multiply" opacity="0.2">
<g style="mix-blend-mode:multiply" opacity="0.2">
<path d="M61.0283 65.8296C60.7904 63.2324 60.263 60.6693 59.4557 58.1869C58.8266 56.235 58.2542 53.8908 56.7193 52.4588C54.98 50.8369 52.7532 50.6656 50.7811 51.5249L46.8244 58.4671C47.056 59.8945 47.4791 61.2848 48.0825 62.6013C48.7965 64.2793 49.5797 65.9635 50.0451 67.713C52.2169 68.077 54.4132 68.2799 56.6155 68.3201C58.157 68.3672 59.6994 68.2629 61.2201 68.0088C61.1478 67.2554 61.088 66.5425 61.0283 65.8296Z" fill="#FF8DA8"/>
</g>
</g>
<path d="M47.7111 65.7518C51.9415 66.6857 57.1468 66.4647 61.2356 64.4816C61.1161 63.3142 59.729 59.2392 59.6001 58.8127C58.6785 55.7276 58.0275 52.4868 55.5742 50.4073C53.3725 48.5145 50.372 48.0444 48.0508 49.9901C47.5322 50.4463 47.0998 50.9903 46.7739 51.5965C45.0534 54.6162 45.7485 58.9559 46.6764 62.1499C47.016 63.3495 47.361 64.5501 47.7111 65.7518Z" fill="#DB5449"/>
<path d="M51.8914 44.8659C51.168 43.2751 51.8096 41.7341 50.8944 40.1962C50.41 39.3899 49.5293 38.6397 49.2211 37.7306C48.9443 36.9306 48.9538 35.8628 48.8783 35.0004C48.6679 32.6517 48.8464 30.2847 49.4067 27.9928C49.4462 27.8714 49.4601 27.7432 49.4476 27.6161C49.3965 27.4432 49.296 27.2886 49.1582 27.171C48.2089 26.202 47.3272 25.1702 46.5194 24.0828L47.3119 28.273C47.227 29.1322 47.1138 29.9821 46.9786 30.8538C46.7506 32.5214 46.2836 34.1483 45.5915 35.6853C43.9843 39.0319 42.9684 43.3903 44.6133 46.9392C45.2896 48.3931 46.6483 49.6072 48.2555 49.7722C50.2968 49.9776 52.3632 48.5269 54.3101 49.1495C53.3823 47.7923 52.5731 46.3592 51.8914 44.8659V44.8659Z" fill="#AA4F7A"/>
<path d="M31.0574 76.6414C28.2267 75.1595 24.0247 72.3795 24.509 68.6656C24.6325 67.5121 24.9593 66.3889 25.4746 65.347C25.9118 64.5532 26.4182 63.8403 25.9747 62.8783C25.6822 62.2557 24.9588 61.8136 24.4461 61.3778C23.8017 60.8599 23.2406 60.2479 22.7823 59.5629C22.7489 59.5233 22.7259 59.4761 22.7155 59.4256C22.7051 59.375 22.7075 59.3227 22.7225 59.2733C23.0119 58.7659 25.0783 59.8679 25.4054 60.0734C26.3205 60.639 27.0733 61.428 27.5914 62.3647C27.5347 62.2588 27.626 61.851 27.6102 61.7047C27.5699 61.4896 27.5022 61.2804 27.4089 61.0821C27.2748 60.6481 27.1109 60.2237 26.9183 59.8119C26.4654 58.9465 25.8206 58.1993 25.2859 57.3868C25.1484 57.202 25.0539 56.9894 25.0091 56.7642C24.9879 56.6531 24.9998 56.5383 25.0433 56.4339C25.0869 56.3294 25.1603 56.2397 25.2544 56.1758C25.569 55.9984 25.9495 56.2536 26.2169 56.4871C26.7988 57.0039 27.5253 57.5829 27.8776 58.2927C28.2927 59.127 28.5255 60.1201 28.8211 61.0011C29.1357 61.0665 28.7551 58.934 28.689 58.741C28.472 58.0966 28.4123 57.5144 28.0254 56.951C27.5222 56.2225 26.868 55.494 26.8648 54.6099C26.8544 54.5154 26.8679 54.4198 26.9042 54.3318C26.9404 54.2437 26.9982 54.166 27.0724 54.1056C27.3303 53.9468 27.648 54.1772 27.8493 54.4013C29.2803 56.0108 29.7773 58.1557 30.0258 60.2446L30.8498 57.0568C30.9159 56.8078 31.0731 56.4965 31.3279 56.5494C31.4093 56.5738 31.4823 56.6202 31.5386 56.6832C32.2494 57.4148 31.9978 58.4857 31.8154 59.3667C31.6047 60.3878 31.4443 61.4214 31.309 62.4549C31.1895 63.3609 30.9945 64.2606 30.9599 65.1758C30.919 65.9977 31.4002 66.5113 32.1173 66.916C32.5078 67.1 32.9141 67.249 33.3314 67.3612C33.7686 67.5137 34.1649 67.769 34.6146 67.906" fill="#FF8DA8"/>
<path d="M54.5932 26.4742C51.9387 25.6243 48.7871 25.562 46.0288 25.5745H46.0036C45.6136 22.6264 43.4874 20.3631 40.9398 20.3631C38.54 20.3631 36.5365 22.3617 35.9704 25.0484C35.5705 24.6801 35.0446 24.4753 34.4984 24.4753C33.9522 24.4753 33.4263 24.6801 33.0264 25.0484C32.5483 22.2466 30.4756 20.1047 27.9941 20.1047C25.1634 20.1047 22.8642 22.8785 22.8642 26.2874C22.8642 29.6962 25.1634 32.47 27.9941 32.47C30.8248 32.47 33.1239 29.6962 33.1239 26.2874C33.1239 26.1909 33.1239 26.0975 33.1239 26.001C33.237 25.7353 33.4275 25.5089 33.6711 25.3508C33.9147 25.1928 34.2004 25.1101 34.4917 25.1135C34.7829 25.1168 35.0666 25.206 35.3064 25.3696C35.5463 25.5332 35.7314 25.7639 35.8382 26.0321C35.8382 26.2033 35.8162 26.3745 35.8162 26.5489C35.8162 29.9733 38.1185 32.7315 40.9461 32.7315C43.7737 32.7315 46.076 29.9546 46.076 26.5458C46.076 26.4368 46.076 26.3341 46.076 26.2344C48.1054 26.2232 50.1328 26.3669 52.14 26.6641C52.9105 26.7792 53.6748 26.9349 54.436 27.1092C56.0306 27.4766 56.3231 29.0113 56.3986 30.3655C56.4238 30.7858 57.0905 30.7889 57.0622 30.3655C56.927 28.5599 56.4552 27.0625 54.5932 26.4742ZM28.0003 31.6762C25.61 31.6762 23.6694 29.2573 23.6694 26.2843C23.6694 23.3112 25.61 20.8924 28.0003 20.8924C30.3907 20.8924 32.3313 23.3112 32.3313 26.2843C32.3313 29.2573 30.3876 31.6762 28.0003 31.6762ZM40.9398 31.9377C38.5526 31.9377 36.6088 29.5188 36.6088 26.5458C36.6088 23.5727 38.5526 21.1539 40.9398 21.1539C43.327 21.1539 45.2739 23.5727 45.2739 26.5458C45.2739 29.5188 43.3302 31.9377 40.9398 31.9377Z" fill="#F7BF54"/>
</g>
<defs>
<linearGradient id="paint0_linear_3_3113" x1="73" y1="74" x2="-24.3095" y2="66.5719" gradientUnits="userSpaceOnUse">
<stop stop-color="#92A3FD"/>
<stop offset="1" stop-color="#9DCEFF"/>
</linearGradient>
</defs>
</svg>
