<svg width="33" height="33" viewBox="0 0 33 33" fill="none" xmlns="http://www.w3.org/2000/svg">
<path d="M17.9593 2.29318L19.8529 10.2517C20.1361 11.442 21.2392 12.2524 22.4597 12.1669L30.4677 11.6056C31.9997 11.4983 32.6841 13.4893 31.4099 14.3465L24.3787 19.077C23.4185 19.723 23.0271 20.9435 23.4327 22.0274L26.4348 30.0501C26.983 31.5149 25.2041 32.7358 24.0343 31.6977L18.1594 26.4841C17.2126 25.6439 15.7874 25.6439 14.8406 26.4841L8.96568 31.6977C7.79587 32.7358 6.01705 31.5149 6.56518 30.0501L9.56727 22.0274C9.97286 20.9435 9.58154 19.723 8.62135 19.077L1.59011 14.3465C0.315907 13.4893 1.00032 11.4983 2.53228 11.6056L10.5403 12.1669C11.7608 12.2524 12.8639 11.442 13.1471 10.2517L15.0407 2.29318C15.4065 0.756124 17.5935 0.756124 17.9593 2.29318Z" fill="#FAC623" stroke="white"/>
</svg>
