<svg width="60" height="57" viewBox="0 0 60 57" fill="none" xmlns="http://www.w3.org/2000/svg">
<path d="M46.307 42.6461L34.7066 50.6536L18.5747 51.2393L12.8871 52.0498C12.8871 52.0498 16.0371 53.8866 19.1087 54.9876C22.1802 56.0887 24.9481 55.7233 24.9481 55.7233C24.9481 55.7233 27.0203 56.7541 33.1683 56.3089C39.3164 55.8685 42.0058 53.5914 42.0058 53.5914L42.775 53.9568C42.775 53.9568 44.9255 53.5164 47.4631 51.8249C50.0007 50.1335 55.1739 45.3684 57.2216 39.9941C59.4555 34.1185 59.4506 28.4585 58.8334 24.4899C58.7844 24.1806 58.8187 23.1358 58.6472 23.1217C56.6093 22.9343 46.5177 42.5102 46.307 42.6461V42.6461Z" fill="#C5B3AF"/>
<path d="M14.9594 5.90266L7.81195 9.57607L5.73974 11.7782L1.2818 20.9618C1.2818 20.9618 0.973169 21.5475 0.973169 22.2128V23.9043C0.973169 23.9043 0.478386 29.3628 0.287331 30.1547C0.0570854 31.1105 0.0570854 32.1367 0.517576 32.9472C0.978067 33.7578 4.12802 40.8844 4.12802 40.8844L7.12611 46.5445C7.12611 46.5445 8.27734 48.3062 9.7372 49.7025C11.1971 51.0988 13.8081 52.0546 13.8081 52.0546C13.8081 52.0546 15.3023 53.062 17.7272 53.0854C19.7749 53.1042 21.3866 52.5419 21.3866 52.5419C21.3866 52.5419 23.7871 54.1771 28.6173 54.1162C34.6037 54.0413 34.9368 52.2748 34.9368 52.2748C34.9368 52.2748 38.4542 52.8699 43.5245 49.7072C48.5948 46.5492 51.2255 40.369 51.2255 40.369C51.2255 40.369 53.4545 39.6334 54.9143 36.7706C56.3742 33.9078 58.8334 26.8514 58.8334 24.4993C58.8334 22.8453 58.3435 19.5468 56.5946 15.9999C55.9333 14.6598 55.1152 13.6103 54.1452 12.5232C53.4251 11.7173 52.2346 10.4195 52.2346 10.4195C52.2346 10.4195 51.2255 8.77486 50.6866 8.18449C50.1477 7.59412 48.4576 6.34778 48.4576 6.34778L40.2374 2.08399C40.2374 2.08399 38.1652 0.982905 37.009 0.68772C35.8578 0.392535 14.9594 5.90266 14.9594 5.90266Z" fill="#D8CDC9"/>
<path d="M47.0761 13.1792C45.2096 13.9336 40.7614 16.1873 40.9182 19.4953C41.075 22.8032 42.623 23.6888 43.2354 30.5202C43.8477 37.3563 42.5446 41.6154 43.0051 42.2058C43.4656 42.7914 46.7821 41.5873 48.8347 38.8838C50.7551 36.3489 52.1513 30.9653 52.1513 30.9653C52.1513 30.9653 54.4537 30.2297 56.3838 26.7812C57.8731 24.1151 58.2503 22.1988 58.1621 20.3855C58.1033 19.1392 56.6631 14.8473 54.5076 13.0715C52.6705 11.5627 49.2609 12.2984 47.0761 13.1792V13.1792Z" fill="#F2EEEC"/>
<path d="M1.28666 20.9711C1.28666 20.9711 7.0477 23.4685 14.9642 25.3052C22.8808 27.1419 31.0226 28.5382 32.7127 28.8334C34.4028 29.1286 35.6324 28.5382 36.0145 27.7323C36.3967 26.9217 36.4603 22.4049 35.1719 20.7837C34.2804 19.6592 32.36 18.2067 32.36 18.2067L18.4914 15.8265L6.43045 12.4483L5.73971 11.7876C5.73971 11.7876 3.89775 13.4791 2.74162 15.7562C1.58549 18.0333 1.28666 20.9711 1.28666 20.9711V20.9711ZM0.958442 23.9042C1.37974 24.2041 17.9427 28.6553 17.9427 28.6553C17.9427 28.6553 36.8131 31.7852 36.8131 32.146C36.8131 32.5068 35.995 36.8409 33.8542 38.1012C31.7134 39.3663 21.127 38.3543 17.4381 37.6186C6.87134 35.5195 0.267705 30.5857 0.267705 30.5857C0.267705 30.5857 -0.17319 28.9599 0.0766505 26.7343C0.208919 25.5816 0.958442 23.9042 0.958442 23.9042Z" fill="#F1EDEC"/>
<path d="M1.33566 34.1935L7.81682 37.9841L21.0878 41.292L35.4316 41.4139C35.4316 41.4139 36.3134 42.5571 36.1223 43.4005C35.9313 44.2439 34.8633 47.0692 31.8456 48.2734C29.1072 49.3651 19.5838 50.5084 11.78 47.7908C4.86282 45.3825 3.54014 41.9527 2.28113 39.2492C0.98784 36.466 1.33566 34.1935 1.33566 34.1935V34.1935ZM24.468 12.3873L30.7189 6.33836L39.5466 2.67901C39.5466 2.67901 41.8246 2.74929 42.4173 2.88985C43.0101 3.03042 44.5483 3.45211 46.8312 4.78747C49.1141 6.12283 50.6866 8.17976 50.6866 8.17976C50.6866 8.17976 48.3008 6.12283 41.6825 9.3605C35.0642 12.5982 34.9858 14.3552 33.7366 14.6363C32.4874 14.9175 29.8567 14.7066 28 14.2849C24.9089 13.5821 24.468 12.3873 24.468 12.3873V12.3873ZM8.52226 9.47764C8.52226 9.47764 9.32077 10.4475 11.5644 10.9582C13.8032 11.469 15.993 11.0613 15.993 11.0613C15.993 11.0613 16.6347 11.8251 18.6629 12.2327C20.691 12.6403 21.4895 12.1812 21.9157 11.6704C22.3419 11.1597 25.3841 6.61949 29.7587 4.06591C34.1334 1.51232 38.1064 1.04846 38.1064 1.04846C38.1064 1.04846 35.5296 -0.179136 31.8505 0.0223398C28.1715 0.223815 25.0607 1.36707 25.0607 1.36707L23.3021 1.52169C23.3021 1.52169 20.5832 1.21714 17.2177 2.59467C13.8522 3.9722 10.2271 7.1349 10.2271 7.1349L8.52226 9.47764V9.47764Z" fill="#F1EDEC"/>
<path d="M31.1304 17.8131C31.1304 17.8131 34.4028 16.9276 35.7157 16.2716C37.0286 15.6156 41.3396 13.5212 41.3396 13.5212C41.3396 13.5212 39.6544 16.3934 39.527 18.1224C39.3898 19.9966 39.8552 23.8012 39.8552 23.8012L38.9195 23.2951C38.9195 23.2951 36.6318 21.2101 35.7598 20.5495C34.8878 19.8888 31.1304 17.8131 31.1304 17.8131V17.8131Z" fill="#C5B3AF"/>
<path d="M40.7517 33.3595C40.6488 33.3502 30.4592 32.4927 13.4211 28.496C3.44213 26.1533 0.870241 24.5883 0.708579 24.4899C0.708579 24.4899 0.835949 24.2135 0.904533 23.6184C0.968218 23.0234 0.978016 22.4189 0.978016 22.4189C1.01721 22.4424 4.30433 24.3822 13.9012 26.6312C30.7728 30.5904 40.8252 31.4385 40.9232 31.4479L40.7517 33.3595ZM28.6222 42.6274C23.6401 42.6274 17.5165 42.0464 11.1039 40.0691C4.8677 38.1481 1.56588 35.8194 1.32093 35.6554C1.32093 35.6554 1.37482 35.215 1.19846 34.5356C1.02211 33.8562 0.591007 33.055 0.591007 33.055C0.649793 33.0925 5.77398 36.4051 11.7212 38.2371C26.3687 42.7539 39.8699 39.6147 40.0022 39.5819L40.4921 41.4467C40.1589 41.531 35.4659 42.6274 28.6222 42.6274V42.6274ZM37.4499 52.6075C35.848 51.7313 34.6086 50.4475 34.5939 50.4334L34.2901 50.1195L33.8443 50.1757C33.7709 50.1851 26.3099 51.1034 15.8215 48.3437C10.8198 47.0271 6.45492 44.8764 5.61232 44.3236C5.61232 44.3236 5.96504 46.179 7.371 46.8865C8.63356 47.5169 9.92849 48.0862 11.2509 48.592C11.3636 48.9903 11.7359 50.2601 12.456 51.4595C13.5729 53.315 16.4143 53.8726 16.4143 53.8726C16.3996 53.8538 14.7291 51.8484 14.0383 50.4194C13.862 50.0492 13.7346 49.7212 13.6366 49.4307C14.2049 49.6088 14.7781 49.7775 15.3561 49.9321C16.5122 50.2366 17.6292 50.4943 18.702 50.7192C19.0939 51.4455 19.9071 52.7621 21.2641 54.0459C21.8226 54.5754 22.5917 55.2548 23.4833 55.6249C25.4771 56.4496 27.275 56.2622 27.275 56.2622C27.2456 56.2387 24.5365 54.5848 23.0914 53.2119C22.5476 52.6965 21.6609 51.6704 21.3082 51.1972C27.7208 52.2561 32.2424 51.9749 33.6288 51.8438C34.1383 52.3264 35.2356 53.2869 36.5877 54.0272C37.3764 54.4582 38.0867 54.8471 38.8705 55.0111C40.4284 55.3344 41.462 54.2708 41.462 54.2708C41.4522 54.2615 39.2184 53.568 37.4499 52.6075Z" fill="#9B8D8B"/>
<path d="M34.535 51.7501L33.3936 50.2273L33.9618 50.991L33.3887 50.232C33.4474 50.1898 39.3848 45.926 39.9188 34.6949C40.4479 23.4592 35.9557 19.1438 35.9067 19.1017L37.2587 17.7476C37.4694 17.9397 42.4515 22.6017 41.8735 34.784C41.3003 46.9803 34.8142 51.558 34.535 51.7501Z" fill="#9B8D8B"/>
<path d="M39.6397 55.0675L38.9735 53.4604C39.3605 53.3995 48.9083 51.6612 51.0099 34.9621C52.6216 22.1567 44.9402 11.5394 44.8619 11.4363L46.4638 10.354C46.7969 10.8085 54.6644 21.6413 52.9547 35.187C50.6621 53.3901 40.1296 55.0816 39.6397 55.0675V55.0675Z" fill="#9B8D8B"/>
<path d="M44.6609 10.3538C40.056 12.0687 37.0334 15.9998 36.0585 17.4195C34.388 17.2977 29.352 16.8666 23.4342 15.7515C24.5512 13.8492 27.3288 9.68378 31.6349 6.96152C37.3567 3.34902 42.1527 2.8711 42.2654 2.84299C42.378 2.81487 40.8447 1.40923 39.4436 1.68567C36.9354 2.18233 33.7071 3.41461 30.5571 5.40126C25.4232 8.64829 22.3859 13.6149 21.4306 15.3579C19.9952 15.058 18.5256 14.716 17.051 14.3318C16.5856 14.21 16.135 14.0881 15.6941 13.971C16.3848 12.3358 17.923 9.01376 19.8238 6.77879C23.5567 2.40255 27.9852 0.575213 28.0342 0.556471C28.0342 0.556471 25.1978 -0.207262 22.719 1.52637C21.2885 2.52906 19.7552 3.89722 18.31 5.59336C16.1545 8.12352 14.4889 11.7922 13.8031 13.4509C11.6672 12.8559 9.93302 12.3451 8.56134 11.9141C8.92876 11.1175 9.44803 10.0539 10.0065 9.12621C11.0402 7.39727 12.1718 5.68707 12.1816 5.67301C12.1816 5.67301 9.65868 6.52109 8.20863 8.8076C7.54728 9.84309 7.31704 10.5506 6.93003 11.3987C6.69488 11.3237 6.50383 11.2347 6.28828 11.2487C5.12725 11.3096 4.69126 12.9308 4.69126 12.9308C4.83332 12.9917 7.0378 13.6899 16.5269 16.1872C26.5107 18.8111 36.4406 19.3827 36.5386 19.3874L37.1559 19.4202L37.4645 18.9095C37.4939 18.8626 40.5116 13.971 45.3957 12.153C49.5108 10.6209 52.9399 11.2206 52.9742 11.2253C52.9742 11.2253 52.8469 10.7614 52.5235 10.2507C52.2835 9.87589 51.6026 9.49636 51.6026 9.49636C51.4409 9.4542 49.403 8.59207 44.6609 10.3538V10.3538Z" fill="#9B8D8B"/>
</svg>
